<?xml version="1.0" encoding="UTF-8"?>
<svg id="b" data-name="Layer_2" xmlns="http://www.w3.org/2000/svg" width="51.281" height="35.855" viewBox="0 0 51.281 35.855">
  <g id="c" data-name="Icons">
    <g>
      <path d="M40.184,25.677c-2.083,0-4.015.643-5.601,1.425l-1.701-25.281c-.041-.706-.419-1.289-1.036-1.598-.649-.326-1.44-.291-2.016.089-.514.338-.786.912-.747,1.572l1.838,27.607c-.287.242-.442.391-.442.391-.753.666-.857,1.713-.857,2.976,0,.999,3.958,2.998,11.035,2.998,6.798,0,10.624-1.997,10.624-3.381,0-2.593-5.249-6.797-11.097-6.797Z" fill="#6a4ea0"/>
      <path d="M21.451.311c-.576-.38-1.368-.415-2.016-.089-.617.309-.995.892-1.036,1.598l-1.701,25.281c-1.586-.782-3.518-1.425-5.601-1.425-5.848,0-11.097,4.204-11.097,6.797,0,1.384,3.826,3.381,10.624,3.381,7.077,0,11.035-2,11.035-2.998,0-1.262-.104-2.31-.857-2.976,0,0-.155-.149-.442-.391l1.838-27.607c.039-.661-.233-1.234-.747-1.572Z" fill="#6a4ea0"/>
    </g>
  </g>
</svg>