<?xml version="1.0" encoding="UTF-8"?>
<svg id="b" data-name="Layer_2" xmlns="http://www.w3.org/2000/svg" width="53.975" height="37.191" viewBox="0 0 53.975 37.191">
  <g id="c" data-name="Icons">
    <path d="M51.608,2.917C50.483.957,48.259-.107,46.041.008c-.364.019-.728.05-1.092.075-2.067.141-4.134.283-6.201.424-6.601.451-13.202.903-19.803,1.354-4.396.301-8.793.583-13.188.902C2.305,3.013-.207,5.835.013,9.305c.138,2.17.297,4.339.445,6.509.36,5.262.64,10.535,1.08,15.791.186,2.226,1.542,4.27,3.64,5.131,1.003.411,2.044.506,3.112.433,1.672-.114,3.345-.229,5.017-.343,6.418-.439,12.836-.878,19.253-1.316,5.013-.343,10.027-.686,15.04-1.028l.815-.056c2.671-.238,4.982-2.181,5.469-4.863.153-.84.076-1.666.019-2.505-.183-2.683-.367-5.366-.55-8.049-.223-3.258-.446-6.516-.668-9.774-.142-2.072-.017-4.466-1.078-6.317ZM51.198,28.237c.09,1.776-1.2,3.257-2.971,3.415-3.507.24-7.015.48-10.522.719-6.508.445-13.015.89-19.523,1.335-3.485.238-6.972.541-10.46.715-1.779.089-3.257-1.214-3.408-2.985-.045-.533-.073-1.068-.109-1.601-.191-2.796-.382-5.592-.574-8.388-.211-3.093-.423-6.186-.634-9.28-.111-1.624-.646-3.911.389-5.318.941-1.28,2.383-1.317,3.798-1.398.146,2.131.291,4.262.437,6.393l.075,1.1c.05.726.735,1.377,1.482,1.292.749-.085,1.345-.704,1.292-1.482-.171-2.497-.341-4.994-.512-7.49,1.39-.095,2.78-.19,4.17-.285l1.683-.115c.313,4.581.626,9.162.94,13.742l.145,2.125c.122,1.785,2.897,1.598,2.774-.19-.345-5.043-.69-10.086-1.034-15.129l-.05-.737c1.951-.133,3.902-.267,5.853-.4.146,2.13.291,4.26.437,6.391l.075,1.1c.05.726.735,1.377,1.482,1.292.749-.085,1.345-.704,1.292-1.482-.171-2.497-.341-4.994-.512-7.49,1.867-.128,3.735-.255,5.602-.383.319,4.664.638,9.329.957,13.993l.145,2.125c.122,1.785,2.897,1.598,2.774-.19-.345-5.043-.69-10.086-1.034-15.129l-.068-.99c1.867-.13,3.735-.257,5.602-.386.146,2.132.292,4.264.437,6.395l.075,1.1c.05.726.735,1.377,1.482,1.292.749-.085,1.345-.704,1.292-1.482-.171-2.498-.342-4.995-.512-7.493.697-.046,1.393-.096,2.09-.141,1.047-.067,2.052.214,2.78,1.015.642.707.799,1.551.861,2.458.161,2.353.322,4.705.483,7.058.34,4.968.767,9.938,1.019,14.911Z" fill="#f4b31b"/>
  </g>
</svg>