<?xml version="1.0" encoding="UTF-8"?>
<svg id="b" data-name="Layer_2" xmlns="http://www.w3.org/2000/svg" width="42.428" height="44.731" viewBox="0 0 42.428 44.731">
  <g id="c" data-name="Icons">
    <g>
      <g>
        <path d="M2.31,6.417c1.994,3.009,3.988,6.054,6.018,9.063.653-4.278-2.03-9.317-6.018-9.063Z" fill="#2859a8"/>
        <path d="M30.731,40.928c-.58-.834-1.124-1.704-1.667-2.537-1.885-2.9-3.807-5.8-5.692-8.7l-4.459-6.852c-.218-.362-.471-.544-.254-.906.435-.689.942-1.378,1.377-2.066,3.48-5.22,6.924-10.477,10.404-15.697.616-.943,1.232-1.885.544-3.045-.616-1.088-1.668-1.124-2.755-1.124H2.201C.679.073-.191,1.341.063,2.683c0,.218.072.435.218.689.072.109.145.218.218.29v.036c.58.906,1.196,1.813,1.813,2.719,3.988-.254,6.67,4.785,6.018,9.063.326.544.689,1.051,1.051,1.595.761,1.16,1.559,2.356,2.32,3.516.29.435.834.979.979,1.486.109.362-.435.942-.653,1.232-.689,1.051-1.378,2.103-2.066,3.154-1.921,2.973-3.879,5.945-5.8,8.954-1.269,1.921-2.61,3.843-3.807,5.8-.943,1.595.109,3.408,1.921,3.48h21.751c1.704,0,3.371.072,5.039,0,1.704-.073,2.755-1.849,1.921-3.371-.073-.145-.181-.254-.254-.399ZM9.996,12.978c-2.175-3.263-4.35-6.525-6.489-9.788-.109-.145-.181-.29-.254-.399h24.723c-1.196,1.667-2.248,3.48-3.371,5.184-1.124,1.667-2.211,3.335-3.335,5.003h-11.274ZM14.745,32.228c-.29,2.139-2.647,3.408-7.432,3.408,1.232-1.885,2.465-3.77,3.698-5.655.943-1.45,3.009-4.93,3.952-6.344.435,3.263.181,5.836-.218,8.592ZM16.883,32.228c-.689-2.429-.326-6.852-.326-8.592.943,1.414,2.9,4.894,3.843,6.344,1.232,1.885,2.465,3.77,3.698,5.655-5.075,0-6.707-1.523-7.214-3.408Z" fill="#2859a8"/>
      </g>
      <path d="M41.396,26.244c-.198.354-.43.696-.65,1.004-1.935,2.633-4.848,5.659-6.547,7.377-.809.796-2.105.889-2.971.171-1.903-1.494-5.172-4.145-7.399-6.593-3.365-3.603-3.273-10.814,1.516-11.934,4.812-1.074,6.518,2.115,6.518,2.115.035-.103,1.184-3.35,5.995-2.853.298.025.538.108.778.19,3.855,1.051,4.762,6.687,2.76,10.523Z" fill="#2859a8"/>
    </g>
  </g>
</svg>