<?xml version="1.0" encoding="UTF-8"?>
<svg id="b" data-name="Layer_2" xmlns="http://www.w3.org/2000/svg" width="60.764" height="45.503" viewBox="0 0 60.764 45.503">
  <g id="c" data-name="Icons">
    <g>
      <g>
        <path d="M45.227,18.127c-.056-3.804-1.318-7.536-3.481-10.656-1.869-2.703-4.394-5.155-7.43-6.496C33.019.397,31.618-.032,30.177.002c-1.329.028-2.597.456-3.793,1.012-2.931,1.368-5.395,3.737-7.286,6.323-2.219,3.025-3.626,6.69-3.754,10.45-.122,3.698.656,7.525,2.353,10.823,1.49,2.881,3.86,5.411,6.846,6.752,3.209,1.435,6.952,1.602,10.322.606,3.053-.901,5.6-2.87,7.33-5.534,1.824-2.814,2.631-6.184,2.925-9.488.078-.879.111-1.757.111-2.636v-.017c0-.056,0-.111-.006-.167ZM40.927,26.358c-1.057,2.447-2.647,4.41-4.955,5.634-2.386,1.262-5.623,1.607-8.292.968-2.631-.628-4.894-2.241-6.451-4.449-3.621-5.133-4.182-11.94-1.19-17.469,1.407-2.592,3.47-4.955,5.867-6.557,1.068-.712,1.952-1.185,3.048-1.49.25-.072.506-.128.762-.178.028-.006.056-.011.072-.011q.006-.006.011-.006l-.006.006h.006c.128-.006.256-.022.378-.022.245-.006.489.006.729.028.033.006.056.006.067.006-.011-.006,0-.006.011,0,.017.006.056.017.128.028.156.033.306.061.456.095,2.475.595,4.722,2.33,6.501,4.321,2.141,2.397,3.621,5.378,4.182,8.542.145.823.195,1.657.2,2.492-.006,2.92-.4,5.456-1.524,8.064Z" fill="#e56da9"/>
        <path d="M30.984,2.816c-.006,0-.006-.006-.011,0-.011-.006,0-.006.011,0Z" fill="#e56da9"/>
      </g>
      <path d="M29.584,36.401c3.949,2.584,7.897,5.167,11.846,7.751.57.373,1.141.746,1.711,1.119,1.502.983,2.897-1.424,1.403-2.401-3.949-2.584-7.897-5.167-11.846-7.751l-1.711-1.119c-1.502-.983-2.897,1.424-1.403,2.401h0Z" fill="#e56da9"/>
      <g>
        <path d="M3.953,44.709c4.333-3.898,8.666-7.797,12.999-11.695.612-.551,1.225-1.102,1.837-1.653,1.333-1.199-.638-3.161-1.966-1.966-4.333,3.898-8.666,7.797-12.999,11.695-.612.551-1.225,1.102-1.837,1.653-1.333,1.199.638,3.161,1.966,1.966h0Z" fill="#e56da9"/>
        <path d="M8.491,37.755c-2.308.566-4.615,1.133-6.923,1.699l-.973.239c-1.042.256-.601,1.865.444,1.609,2.308-.566,4.615-1.133,6.923-1.699l.973-.239c1.042-.256.601-1.865-.444-1.609h0Z" fill="#e56da9"/>
      </g>
      <g>
        <path d="M6.108,36.591c1.762.122,3.523.245,5.285.367,4.232.294,8.464.588,12.697.883,5.146.358,10.292.716,15.438,1.073,4.429.308,8.858.616,13.287.924,2.142.149,4.318.427,6.465.45.031,0,.062.004.093.006.75.052,1.39-.676,1.39-1.39,0-.796-.638-1.338-1.39-1.39-1.762-.122-3.523-.245-5.285-.367-4.232-.294-8.464-.588-12.697-.883-5.146-.358-10.292-.716-15.438-1.073-4.429-.308-8.858-.616-13.287-.924-2.142-.149-4.318-.427-6.465-.45-.031,0-.062-.004-.093-.006-.75-.052-1.39.676-1.39,1.39,0,.796.638,1.338,1.39,1.39h0Z" fill="#e56da9"/>
        <path d="M39.568,38.347c3.768,1.434,7.535,2.868,11.303,4.302l1.606.611c1.004.382,1.439-1.23.444-1.609-3.768-1.434-7.535-2.868-11.303-4.302l-1.606-.611c-1.004-.382-1.439,1.23-.444,1.609h0Z" fill="#e56da9"/>
      </g>
      <path d="M55.326,30.089c-4.642.924-9.285,1.847-13.927,2.771-7.386,1.47-14.772,2.939-22.159,4.409-1.678.334-3.356.668-5.033,1.001-.737.147-1.16,1.024-.971,1.71.211.768.971,1.118,1.71.971,4.642-.924,9.285-1.847,13.927-2.771,7.386-1.47,14.772-2.939,22.159-4.409,1.678-.334,3.356-.668,5.033-1.001.737-.147,1.16-1.024.971-1.71-.211-.768-.971-1.118-1.71-.971h0Z" fill="#e56da9"/>
      <path d="M38.403,38.3c-3.344.457-6.687.914-10.031,1.37-5.32.727-10.64,1.453-15.959,2.18-1.208.165-2.417.33-3.625.495-.531.072-.947.899-.913,1.598.038.781.515,1.203,1.047,1.13,3.344-.457,6.687-.914,10.031-1.37,5.32-.727,10.64-1.453,15.959-2.18,1.208-.165,2.417-.33,3.625-.495.531-.072.947-.899.913-1.598-.038-.781-.515-1.203-1.047-1.13h0Z" fill="#e56da9"/>
    </g>
  </g>
</svg>