<?xml version="1.0" encoding="UTF-8"?>
<svg id="a" data-name="Layer 1" xmlns="http://www.w3.org/2000/svg" width="625.008" height="203.906" viewBox="0 0 625.008 203.906">
  <g>
    <path d="M625.008,109.97c-2.501,3.112-5.889,4.324-9.738,4.916-2.212.341-2.247.591-4.454,1.067-5.982,1.292-12.005,2.395-18.015,3.556-3.446.666-6.877,1.471-10.354,1.9-4.143.511-8.134-.443-11.494-2.877-1.077-.78-1.844-2.725-1.84-4.134.03-11.702.452-23.404.382-35.104-.038-6.354-.906-12.699-1.212-19.057-.3-6.225-.619-23.587.849-29.738.611-2.562,3.103-4.053,5.622-3.25,2.903.925,6.135,1.719,7.456,4.798.839,1.957,1.008,4.267,1.147,6.44.287,4.473.307,20.072.523,24.551.167,3.451.549,6.892.687,10.343.217,5.427.308,10.858.454,16.288.081,3.017.111,6.037.257,9.051.172,3.543.445,7.082.718,11.304,5.688-1.243,11.218-2.452,16.747-3.661,5.665-1.239,8.741-3.726,14.908-3.04,3.666.407,6.112,2.145,7.358,5.587v1.058Z" stroke-width="0"/>
    <path d="M324.911,79.122c-.582.138.276,5.88.275,6.512-.006,5.132.33,5.112.327,10.244-.004,5.464.039,10.945-.384,16.385-.276,3.552-4.013,5.466-8.997,5.359-3.481-.075-5.432-1.715-5.905-5.162-.281-2.049-.648-11.378-.724-13.948-.223-7.609-.417-15.22-.478-22.831-.049-6.176.204-12.354.158-18.53-.066-8.811-.394-17.621-.366-26.431.008-2.475-.381-5.178.409-7.546.921-2.762,4.646-3.009,7.584-3.301,2.781-.276,22.694-2.847,32.258-2.409,6.73.308,12.358,2.717,17.641,6.273,3.909,2.631,7.87,7.344,8.646,11.911,1.559,9.172-.535,17.43-5.045,22.379-6.991,7.673-15.112,12.225-15.042,13.116.486,6.141.724,10.108,1.45,16.227.481,4.057,1.294,8.075,1.751,12.134.172,1.523.665,2.073,2.128,1.81.777-.14,1.559-.374,2.337-.365,1.614.018,3.564-1.152,4.644,1.074,1.438,2.963.65,6.01-1.067,7.393-4.578,3.687-9.88,3.989-14.95,1.859-5.272-2.215-8.471-6.351-9.065-12.473-.707-7.287-2.3-15.18-3.372-22.431-.048-.328-10.213,1.803-14.216,2.752ZM324.665,67.004c4.123.625,14.525-1.315,26.018-8.977,6.604-4.403,8.708-9.295,10.456-14.767,1.551-4.854-.917-13.666-9.539-14.216-1.411-.09-20.959-.476-27.699,2.568-1.001.452-.114,17.346,0,20.086.027.645,1.133,10.971.764,15.306Z" stroke-width="0"/>
    <path d="M16.551,40.738c2.27-4.403,3.796-5.774,6.764-7.796,2.66-1.811,5.824-2.644,9.249-3.222,5.632-.951,10.734-.761,16.42.299,15.444,2.878,17.463,19.756,18.534,23.21,1.879,6.062,1.863,12.397,2.06,18.708.183,5.856.906,11.657.632,17.576-.292,6.301.578,12.648.697,18.98.061,3.233-.072,6.554-.789,9.682-.343,1.495-2.025,3.084-3.506,3.818-1.831.907-4.067,1.206-6.156,1.343-3.943.259-5.388-2.336-5.56-6.381-.159-3.739.015-7.491-.068-11.235-.1-4.504-.308-9.007-.486-13.509-.38-9.659-.419-18.331-1.288-27.946-.452-5.004,0-21.279-12.657-21.279-16.713,0-16.876,14.858-17.06,19.995-.256,7.162,3.735,52.76,4.344,57.332.283,2.122-1.37,4.675-3.537,5.255-2.198.589-4.474,1.019-6.741,1.192-2.909.222-4.519-1.564-4.888-4.5-.456-3.632-1.288-7.218-1.748-10.85-.798-6.298-3.94-21.463-4.293-23.86-.63-4.28-1.686-8.138-2.217-12.277-.995-7.753-2.395-15.456-3.335-23.215C.325,47.109-.13,42.087.034,37.121c.203-6.177.734-8.08,6.836-7.813,2.362.103,5.157-.258,7.205.928,1.138.659,1.995,7.613,2.476,10.502Z" stroke-width="0"/>
    <path d="M122.397,94.745c-8.354.751-16.203,1.457-24.45,2.198,0,1.969.353,12.738.417,17.307.049,3.443-.512,4.282-2.318,5.717-2.272,1.805-7.985,1.37-10.146-.639-1.01-.939-1.941-2.368-2.145-3.693-.958-6.2-1.388-19.64-1.452-25.912-.367-36.046,4.321-52.793,19.068-61.656,6.19-3.72,14.032-3.613,20.656-.217,12.382,5.87,17.243,19.169,17.333,30.189.041,4.993-.481,25.618-.609,30.936-.098,4.072-.857,15.874-.926,18.969-.037,1.665-.561,6.413-2.27,7.704-1.449,1.094-4.188,1.723-6.053,2.132-5.025,1.102-6.208-3.17-6.464-7.646-.356-6.226-.447-9.437-.642-15.391ZM122.786,83.639c0-3.743-.014-8.003.004-12.262.018-4.432-.108-8.874.143-13.294.369-6.511.258-12.392-4.216-17.703-3.317-3.938-9.253-3.412-12.749.275-4.404,4.645-6.318,9.976-6.695,16.234-.459,7.613-.797,23.851-.354,29.751,7.532-.947,15.396-1.935,23.869-3.001Z" stroke-width="0"/>
    <path d="M543.431,98.625c-8.372.152-15.844-.035-24.305-.241,0,1.969.208,11.138.272,15.707.049,3.443-.512,4.282-2.318,5.717-2.272,1.805-7.985,1.37-10.146-.639-1.01-.939-1.941-2.368-2.145-3.693-.958-6.2-1.388-16.61-1.452-22.882-.367-36.046,4.321-52.793,19.068-61.656,6.19-3.72,14.032-3.613,20.656-.217,12.382,5.87,17.243,19.169,17.333,30.189.041,4.993-.481,25.618-.609,30.936-.098,4.072-.857,18.904-.926,21.999-.037,1.665-.561,3.383-2.27,4.674-1.449,1.094-4.188,1.723-6.053,2.132-5.025,1.102-6.208-3.17-6.464-7.646-.356-6.226-.447-8.427-.642-14.381ZM544.002,88.527c0-3.743-.195-10.021-.178-14.28.018-4.432-.108-8.874.143-13.294.369-6.511.258-12.392-4.216-17.703-3.317-3.938-9.253-3.412-12.749.275-4.404,4.645-6.318,9.976-6.695,16.234-.459,7.613-.797,23.851-.354,29.751,7.636-.275,15.633-.319,24.05-.983Z" stroke-width="0"/>
    <path d="M473.094,89.589c1.738-5.007,3.414-10.036,5.229-15.015,2.577-7.071,8.296-21.766,9.298-24.435,1.251-3.332,4.724-9.447,9.997-8.117,4.289,1.082,6.408,6.751,4.357,11.969-1.445,3.677-12.528,39.132-13.61,43.114-1.863,6.857-2.356,14.182-6.881,20.129-3.134,4.12-11.64,5.495-15.807,2.408-1.136-.842-2.214-2.187-2.614-3.513-1.432-4.738-2.643-9.581-3.642-14.378-1.131-5.431-6.952-27.665-8.717-35.217-1.374-5.876-5.142-20.672-5.458-22.908-.306-2.17,2.17-5.084,4.472-5.635,6.351-1.519,9.461,3.686,11.989,10.978,2.25,6.488,10.408,38.885,10.853,40.64.178-.007.356-.014.534-.021Z" stroke-width="0"/>
    <path d="M247.04,56.989c.101-3.86-1.039-8.164,2.053-11.485.79-.849,2.122-1.476,3.282-1.63,1.354-.18,2.814.168,4.189.464,4.681,1.01,6.387,3.968,6.157,9.21-.175,3.978.362,7.983.487,11.978.079,2.522-.176,5.061-.003,7.573.405,5.896.448,11.89,1.638,17.638,1.084,5.239,2.063,7.422,4.166,12.391,1.243,2.936,6.537,3.086,8.324.482,4.009-5.843,4.932-9.477,5.636-16.537.819-8.214,1.341-16.459,1.896-24.697.167-2.479-1.042-14.348,3.991-15.07,6.55-.94,9.846,1.486,10.979,7.008,2.093,10.191.996,20.357-.054,30.437-.741,7.112-2.458,14.109-6.214,20.637-2.525,4.388-5.36,8.24-9.398,10.936-7.411,4.948-20.88,5.49-27.997-4.934-1.791-2.623-3.031-5.669-4.211-8.644-2.033-5.123-3.339-10.448-3.747-15.974-.251-3.397-1.342-23.266-1.172-29.783Z" stroke-width="0"/>
    <path d="M437.559,45.059c-.101-3.86,1.039-4.124-2.053-7.445-.79-.849-2.122-1.476-3.282-1.63-1.354-.18-2.814.168-4.189.464-4.681,1.01-6.387,3.968-6.157,9.21.175,3.978-.362,10.003-.487,13.998-.079,2.522.176,5.061.003,7.573-.405,5.896-.448,11.89-1.638,17.638-1.084,5.239-2.063,7.422-4.166,12.391-1.243,2.936-6.537,3.086-8.324.482-4.009-5.843-4.932-9.477-5.636-16.537-.819-8.214-1.341-22.519-1.896-30.757-.167-2.479,1.042-14.348-3.991-15.07-6.55-.94-9.846,1.486-10.979,7.008-2.093,10.191-.996,26.417.054,36.497.741,7.112,2.458,14.109,6.214,20.637,2.525,4.388,5.36,8.24,9.398,10.936,7.411,4.948,20.88,5.49,27.997-4.934,1.791-2.623,3.031-5.669,4.211-8.644,2.033-5.123,3.339-10.448,3.747-15.974.251-3.397,1.342-29.326,1.172-35.843Z" stroke-width="0"/>
    <path d="M177.431,37.606c0,3.479-.094,6.836.022,10.186.186,5.372.445,10.744.8,16.107.246,3.718,1.497,34.595,1.593,41.408.038,2.644-.154,5.379-.82,7.922-.67,2.557-2.865,3.889-5.522,4.156-3.225.324-6.411.35-8.651-2.593-.296-.388-.47-.951-.5-1.445-.338-5.556-1.33-40.395-1.484-44.129-.341-8.263-1.332-28.856-1.585-30.728-3.642.215-12.566,1.651-19.314,1.377-1.411-.057-2.662-2.22-2.932-3.588-.359-1.814.759-3.613,2.774-4.261,2.339-.753,4.698-1.581,7.114-1.932,9.319-1.352,18.672-2.473,27.997-3.787,5.915-.696,7.704-.971,13.711-1.75,3.353-.435,7.075-.602,9.765,2.357,2.506,2.757,1.861,5.552-1.717,6.561-2.775.782-15.473,3.154-21.252,4.138Z" stroke-width="0"/>
    <path d="M222.006,49.527c0,3.479-.094,6.836.022,10.186.186,5.372.445,10.744.8,16.107.246,3.718,1.439,42.747.773,45.29-.67,2.557-2.865,3.889-5.522,4.156-3.225.324-5.749-.267-7.543-3.501-1.38-2.488-2.938-36.892-3.092-40.625-.341-8.263-1.515-28.649-1.769-30.522-4.127.206-15.202,1.72-19.131,1.171-1.399-.196-2.662-2.22-2.932-3.588-.359-1.814.759-3.613,2.774-4.261,2.339-.753,4.698-1.581,7.114-1.932,9.319-1.352,18.672-2.473,27.997-3.787,5.817-.82,7.096-.832,12.935-1.335,3.369-.29,7.071-.26,9.762,2.699,2.506,2.757,1.861,5.552-1.717,6.561-2.775.782-14.693,2.396-20.472,3.38Z" stroke-width="0"/>
    <path d="M113.928,2.696h15.558v.142c0,7.871-6.391,14.262-14.262,14.262h-15.558v-.142c0-7.871,6.391-14.262,14.262-14.262Z" transform="translate(.202 21.904) rotate(-10.93)" fill="#00a54e" stroke-width="0"/>
    <path d="M275.511,20.593h15.558v.142c0,7.871-6.391,14.262-14.262,14.262h-15.558v-.142c0-7.871,6.391-14.262,14.262-14.262Z" transform="translate(4.117 82.834) rotate(-17.185)" fill="#00a54e" stroke-width="0"/>
  </g>
  <g>
    <path d="M21.279,167.557c-.048.852-.426,1.657-.426,2.461,0,.474.095.947.095,1.42,0,.663-.143,1.278-.332,1.893-.142.332-.331.615-.426.947-.095.426-.047.852-.142,1.23-.048.332-.237.615-.284.947-.048.473.047.947.047,1.42,0,.663-.331,1.136-.426,1.751-.095.568-.047,2.035-.189,2.461-.284.71-1.23,2.178-2.082,2.178-.899,0-2.083-.994-2.083-1.941,0-.615.331-1.136.331-1.704,0-.189-.047-.378-.095-.568.237-.663.427-.805.427-1.562,0-.236-.048-.568-.143-.805-.236-.095-.474-.142-.71-.142-.805,0-1.562.379-2.366.379-.615,0-1.231-.095-1.799-.095-.379,0-.758.047-1.136.047-.143,0-.284,0-.427-.047-.615-.142-3.124-2.461-3.312-2.982-.048-.237-.095-.521-.095-.757,0-.805.426-1.467.805-2.13.236-.426.473-1.042.805-1.373.142-.189.473-.237.662-.426.236-.142.331-.378.568-.521.994-.71,2.319-1.042,3.502-1.042.332,0,.71,0,1.042.047.71.142,1.23.568,1.893.852.237.095.947.142,1.089.284.095.047.143.142.143.236.236.095.473.047.71.142.473-.378.236-1.278.236-1.846,0-.947.284-1.894.284-2.888,0-1.23-.899-4.07-2.319-4.307h-.331c-1.184,0-1.799,1.089-3.219,1.089-.994.852-1.562,1.609-2.745,2.225-.237.095-.521.378-.805.378-.095,0-.189-.047-.284-.142-.143-.189-.237-.426-.237-.663,0-1.325,1.468-1.846,1.847-2.745.284-.095.521-.237.71-.426l.142-.237c.379-.189.853-.332,1.23-.568.143-.095.237-.284.379-.426.758-.426,2.13-.71,3.029-.71.568,0,1.799.095,2.319.332.189.047.284.189.426.284.899.379,1.42.71,2.035,1.467,1.231,1.467,1.704,3.692,1.704,5.538,0,.332,0,.71-.047,1.042ZM15.267,172.622c-.71-.71-3.124-1.136-4.117-1.136-.899,0-2.083.237-2.083,1.373,0,.757.521,1.798,1.136,2.225.615.426,1.562.378,2.319.426.426.047.853.142,1.278.142.757,0,1.704-.142,2.13-.805l.047-.284c0-.663-.236-1.467-.71-1.94Z" stroke-width="0"/>
    <path d="M56.348,187.91c-.094.899,0,1.94-.331,2.792-.284.615-.805.994-1.089,1.562-.236.379-.331.757-.521,1.136-.284.615-.662,1.278-.946,1.94-.379.757-.615,1.562-1.468,1.94-.236.379-.426.805-.757,1.089-.379.332-.899.426-1.325.757-.379.237-.663.805-1.089.947-.379.142-1.041.047-1.468.142-.426.047-.805.236-1.23.236s-1.325-.568-1.799-.757c-.615-.142-1.277-.095-1.846-.331-.426-.189-.805-.616-1.23-.852-1.136-.71-2.698-1.704-2.698-3.219,0-.378.143-.757.379-1.042.236-.094.426-.142.663-.142.898,0,1.467.71,1.42,1.562.757.473,1.277,1.183,2.082,1.609.379.189.805.237,1.23.379.237.095.853.473,1.089.473.379,0,.805-.047,1.23-.142,1.515-.379,3.172-2.556,3.645-4.023.095-.284.143-.568.237-.852.236-.568.757-1.089.757-1.751,0-.236-.047-.473-.047-.71,0-.757.426-1.515.521-2.272.047-.378,0-.757,0-1.088,0-.237.095-.379.095-.616,0-.142-.095-.284-.095-.473,0-.331.189-.663.236-.994.048-.378,0-.805,0-1.183,0-.663.189-1.325.189-1.988,0-.426-.095-.852-.331-1.231.047-.095.047-.237.047-.331,0-.379-.095-.757-.426-.994h-.142c-1.042-.047-1.468.899-2.272,1.088-.378.095-.852,0-1.23,0-.426,0-.852.047-1.278.047-.473,0-.993-.047-1.372-.284-.189-.095-.236-.284-.379-.379-.474-.284-1.799-.426-2.461-.71-.899-.426-1.988-1.798-2.414-2.698-.521-1.089-.947-3.171-.947-4.402,0-.332.048-.616.095-.947.095-.568,1.515-3.408,1.941-3.881.331-.379.852-.663,1.23-.994l.095-.236c.378-.189.757-.426,1.136-.616,1.23-.71,2.461-.852,3.881-.852.379,0,.71-.142,1.089-.142.853,0,1.704.805,2.557.994.331-.094.473-.331.473-.71s-.095-.71-.095-1.136c0-1.184-.047-3.408,1.704-3.408.284,0,.568.047.853,0,1.325.568,1.088,2.888,1.703,4.023-.095.615-.142,1.278-.142,1.894,0,1.041.284,1.278.379,2.13.047.426,0,.805,0,1.23,0,.994.521,1.941.521,2.887,0,.379-.142.757-.142,1.136,0,.284.188.568.236.852.189.946.095,1.893.095,2.887,0,.331.095.615.284.899-.048.426-.237.852-.237,1.325,0,.568.237,1.042.237,1.609,0,.473-.143.947-.143,1.42,0,.663.237,1.325.237,1.988,0,1.136-.427,2.272-.616,3.408ZM51.378,170.823c0-.378.143-.757.143-1.136,0-.994-1.137-1.609-1.752-2.272-.189-.189-.047-.237-.331-.332-.047-.095-.047-.189-.142-.284-.095-.047-.899-.189-1.089-.237-.143-.047-.899-.378-.994-.378-.047,0-.095.047-.095.142-.379,0-.757,0-1.089.142-.189.047-.331.237-.521.332-.189.142-.379.142-.615.284-1.089.616-2.13,1.988-2.13,3.266,0,.805.331,1.562.426,2.319.048.284,0,.521,0,.805,0,.947,1.846,4.544,2.982,4.544.426,0,.852-.237,1.325-.237.331,0,.71.142,1.041.142.426,0,.994-.521,1.373-.757.284-.142,1.136-.473,1.325-.71.284-.379.567-2.272.567-2.745,0-.994-.426-1.894-.426-2.888Z" stroke-width="0"/>
    <path d="M74.994,167.557c-.048.852-.426,1.657-.426,2.461,0,.474.095.947.095,1.42,0,.663-.143,1.278-.332,1.893-.142.332-.331.615-.426.947-.095.426-.047.852-.142,1.23-.048.332-.237.615-.284.947-.048.473.047.947.047,1.42,0,.663-.331,1.136-.426,1.751-.095.568-.047,2.035-.189,2.461-.284.71-1.23,2.178-2.082,2.178-.899,0-2.083-.994-2.083-1.941,0-.615.331-1.136.331-1.704,0-.189-.047-.378-.095-.568.237-.663.427-.805.427-1.562,0-.236-.048-.568-.143-.805-.236-.095-.474-.142-.71-.142-.805,0-1.562.379-2.366.379-.615,0-1.231-.095-1.799-.095-.379,0-.758.047-1.136.047-.143,0-.284,0-.427-.047-.615-.142-3.124-2.461-3.312-2.982-.048-.237-.095-.521-.095-.757,0-.805.426-1.467.805-2.13.236-.426.473-1.042.805-1.373.142-.189.473-.237.662-.426.236-.142.331-.378.568-.521.994-.71,2.319-1.042,3.502-1.042.332,0,.71,0,1.042.047.71.142,1.23.568,1.894.852.236.095.946.142,1.088.284.095.047.143.142.143.236.236.095.473.047.71.142.473-.378.236-1.278.236-1.846,0-.947.284-1.894.284-2.888,0-1.23-.899-4.07-2.319-4.307h-.331c-1.184,0-1.799,1.089-3.219,1.089-.994.852-1.562,1.609-2.745,2.225-.237.095-.521.378-.805.378-.095,0-.189-.047-.284-.142-.143-.189-.237-.426-.237-.663,0-1.325,1.468-1.846,1.847-2.745.284-.095.521-.237.71-.426l.142-.237c.379-.189.853-.332,1.23-.568.143-.095.237-.284.379-.426.758-.426,2.13-.71,3.029-.71.568,0,1.799.095,2.319.332.189.047.284.189.426.284.899.379,1.42.71,2.035,1.467,1.231,1.467,1.704,3.692,1.704,5.538,0,.332,0,.71-.047,1.042ZM68.983,172.622c-.71-.71-3.124-1.136-4.117-1.136-.899,0-2.083.237-2.083,1.373,0,.757.521,1.798,1.136,2.225.615.426,1.562.378,2.319.426.426.047.853.142,1.278.142.757,0,1.704-.142,2.13-.805l.047-.284c0-.663-.236-1.467-.71-1.94Z" stroke-width="0"/>
    <path d="M112.48,173.048c0,.237.143.474.143.757,0,.805-.237,1.609-.237,2.414,0,.426.143.852.143,1.231,0,.757-.663,1.23-.994,1.846-.568,0-1.041.332-1.562.332-.616,0-1.562-.947-1.752-1.467-.047-.237-.095-.521-.095-.805,0-1.184.474-2.272.474-3.456,0-.805-.236-1.609-.236-2.414v-1.278c0-1.278-.143-2.367-.379-3.597-.189-.994-.284-1.325-.947-2.083-.283-.284-.567-.71-.993-.71-.71,0-.947.615-1.468.946-.474.379-1.041.616-1.562.852-.143.332-.284.663-.379.994-.095.331-.095.663-.236.947-.427.852-1.562,1.373-1.941,2.225-.283.521-.283,1.893-.378,2.556-.095.474-.284.947-.379,1.467-.048.568,0,1.136-.095,1.704-.189.805-.474,1.325-1.42,1.325-.379,0-.663-.236-1.041-.236-.427-.237-1.042-.284-1.326-.757-.473-.757-.142-3.313-.378-4.355-.095-.473-.237-.189-.237-.899,0-.663-.805-1.326-.994-1.894-.047-.237.048-.521.048-.71,0-.331-.189-.378-.284-.663-.095-.379-.095-.805-.236-1.183-.237-.616-1.325-2.319-1.94-2.319h-.095c-1.137-.095-2.272,1.515-2.982,2.319-.236.284-.284,1.562-.474,2.035-.095.284-.236.568-.378.852-.427.946-1.941,2.367-2.036,2.698-.142.332-.094.757-.142,1.089-.095.805-.568.947-.568,2.083,0,.473.048.994.189,1.467-.189.568-.236,1.23-.236,1.846,0,.663.236,1.278.236,1.893,0,1.136-.615,2.367-1.846,2.367-.899,0-1.23-.568-1.894-.994-.236-.568-.142-1.136-.284-1.704-.094-.521-.378-.947-.473-1.467-.095-.426-.048-.899-.095-1.326-.095-.378-.189-.757-.284-1.136-.142-.852.047-1.751-.095-2.651-.095-.521-.284-.994-.379-1.467-.047-.284-.047-.568-.095-.852-.095-.236-.236-.378-.283-.615-.048-.284.047-.568.047-.852,0-.663-.521-1.467-.615-2.177-.095-.378,0-.757,0-1.136,0-1.941-1.136-3.739-1.136-5.728v-.473c.378-.426.899-.71,1.467-.71s1.278.378,1.609.852c.048.047.048.142.095.236.805,1.042.853,2.272,1.089,3.55.189.663.379,1.373.521,2.035.142.899.189,3.692,1.468,3.692.662,0,.946-.568,1.183-1.136.474-.994.805-2.083,1.373-3.029.142-.284.379-.568.615-.852,1.184-1.657.805-1.988,2.65-3.408.474-.378.947-.852,1.609-.852.71,0,1.42.521,2.035.852.521.284,1.089.426,1.609.71.71.426.994.947,1.468,1.609.284.426.757.852.946,1.325.426.852.095,1.562,1.136,2.225.71-.047.994-.473,1.421-.994l.283-.142c0-.095-.047,0-.047-.142l.047-.095.237-.095c.142-.331.236-.71.473-.994.332-.332.853-.521,1.231-.852.331-.284.615-.757.946-.994.142-.047.284-.047.379-.095.189-.095.331-.378.473-.473.143-.095.284-.095.379-.142.379-.237.71-.663,1.089-.852.189-.095.426-.047.615-.142.568-.189.331-.284,1.041-.284.994,0,2.319.568,2.888,1.42.047.095,0,.237.095.331.047.095.189.047.236.142.143.095.426,1.231.521,1.467.474,1.184.568.568.568,1.988,0,.805.474,1.704.615,2.508.142.71.521,2.793.521,3.408,0,.378-.284.71-.284,1.088Z" stroke-width="0"/>
    <path d="M128.806,179.532c-.236.189-.426.568-.71.71-.521.284-2.461.71-3.029.71s-1.089-.142-1.562-.473c-.236.047-.473.094-.71.094-.71,0-1.42-.142-2.13-.189-.473-.047-1.277-.852-1.609-1.136-.189-.142-.426-.236-.615-.378-.426-.237-.946-1.042-1.277-1.467-1.137-1.515-1.468-2.414-1.468-4.355,0-.757.048-1.704.236-2.461.143-.426,1.326-2.982,1.609-3.313l.284-.284c.048-.094.048-.236.095-.331.284-.426,2.319-1.988,2.84-2.367.805-.615,1.657-1.23,2.745-1.23.189,0,2.319.426,2.462.473.426.189,2.65,2.225,2.84,2.604.142.236.047.615.142.852.189.757.853,1.326.853,2.13,0,.521-.237.994-.237,1.515,0,.284-.805.71-1.041.71-.331,0-.615-.237-.946-.237s-.663.095-.994.095c-1.278,0-2.556-.284-3.834-.284-1.799,0-2.604,0-2.604,1.941,0,.805.048,1.798.236,2.556.189.757,1.042,2.461,1.752,2.84.189.142.521.094.757.142.189.047.284.189.474.237.284.095.663.095.946.095,1.137,0,3.172-.615,3.882-1.562l.236-.142c.048-.095,0-.189,0-.284,0-.568,1.515-1.609,2.178-1.609.71,0,.899,1.136.899,1.609,0,1.562-1.704,1.94-2.698,2.792ZM125.729,165.758c-.188-.047-.757-.095-.993-.095-.332-.047-.663-.142-1.042-.142-.662,0-1.94.947-2.319,1.467-.142.237-.142.521-.236.757-.095.189-.284.426-.284.616,0,.663.947.899,1.468.899.71,0,1.372-.189,2.035-.284h1.325c.474,0,1.089,0,1.42-.474,0-.994-.379-2.319-1.373-2.745Z" stroke-width="0"/>
    <path d="M162.691,177.071c-.283.284-.521.663-.852.852-.426.284-.994.426-1.468.615-.378.189-.946.521-1.325.615-.378.095-.805,0-1.183,0-.474,0-.947.095-1.42.095s-.899-.142-1.326-.473c-1.277-.095-2.556-.568-3.502-1.467-.189-.142-.237-.332-.379-.474-.142-.094-.331-.142-.474-.236-1.467-1.089-1.751-2.225-1.751-3.976,0-1.657.852-3.124,1.609-4.544.047-.142.047-.284.142-.378.143-.189.427-.284.615-.474.332-.378.521-.899.947-1.23.142-.142.331-.142.474-.237.283-.189.473-.615.757-.757.899-.473,2.461-.568,3.455-.568,1.988,0,4.733.663,5.774,2.556.237.332.332.663.615.947.379.332.853.568,1.137.994.047.095.047.237.095.331.426.899.567,1.799.567,2.793,0,2.225-.946,3.55-2.509,5.017ZM161.365,169.782c-.142-.142-.283-.237-.378-.379-.427-.473-.71-1.373-1.326-1.562-.331-.142-3.029-.757-3.266-.757-.284,0-1.041.568-1.278.757-.188.142-.378.237-.615.332-1.325.757-1.609,1.42-1.609,2.982,0,1.136.427,1.94,1.137,2.745.426.474,1.562,1.751,2.082,1.941.805.331,2.035.189,2.935.284.663-.426,1.609-1.136,1.941-1.846l.236-.142c.142-.189.142-.473.236-.71.332-.757.568-.71.568-1.799,0-.663-.284-1.325-.663-1.846Z" stroke-width="0"/>
    <path d="M183.752,152.789c-1.325.047-1.42-.947-1.704-1.94-.236-.757-1.325-1.467-1.94-1.941l-.142-.236c-.143-.047,0,0-.143,0h-.095l-.142-.237c-.426-.189-1.041-.379-1.515-.379-1.468,0-.899.899-1.515,1.231-1.562.805-1.656,1.94-1.94,3.502-.143.757-.048,1.562-.143,2.319-.095.994-.426,1.089-.426,2.414,0,1.23.236,2.556.663,3.692.331.189.662.237.994.237.521,0,1.041-.095,1.608-.095.189,0,.427.095.616.095.615,0,1.23-.379,1.846-.379s2.13.852,2.13,1.467c0,.284-.189.568-.331.757-.663.71-1.847.615-2.698.615-.236,0-.474-.142-.71-.142-.615,0-1.136.236-1.751.236-.332,0-.663-.095-1.042-.095-.899,0-.946,1.231-.946,1.846,0,1.089.331,1.941.331,2.84,0,.568-.047,1.184-.047,1.751,0,1.657.331,3.361.521,5.017.095.947.142,1.941.236,2.888.048.473.237.899.237,1.373s-.332,1.751-.71,2.083c-.379.237-.853.142-1.231.237-.331.047-.71.236-1.088.236-.758,0-1.468-1.373-1.468-2.035,0-.521.236-.994.236-1.515,0-1.23-.473-2.65-.473-3.976,0-.378.095-.757.095-1.136,0-.805-.284-1.515-.332-2.319-.095-.663,0-1.278,0-1.941,0-.852-.378-1.609-.378-2.414,0-.284.095-.568.095-.899,0-.474-.237-.947-.332-1.42-.142-.521.095-.994-.521-1.231-.142-.095-.284-.142-.426-.142-.521,0-.994.331-1.515.378-.284.047-.615,0-.899,0-.426,0-.805.047-1.23.047-.615,0-1.278-.142-1.278-.852,0-.852.994-1.136,1.657-1.136.898,0,1.846.236,2.745.236.473,0,.994-.047,1.325-.378.236-.521.284-1.136.284-1.704,0-.615-.048-1.183-.048-1.799,0-1.041,1.325-6.532,1.846-7.431.284-.521.758-.805,1.089-1.23.095-.142.048-.284.143-.379.047-.142.567-.426.71-.615,1.088-1.088,1.183-1.751,2.792-2.177.427-.095.853-.237,1.278-.237.758,0,.663.237,1.184.474.378.189.805.284,1.183.473.189.095.332.284.521.379.188.094.426.142.615.236.095.095.142.189.236.237.236.189.521.284.71.521.236.237.426.757.615,1.089.426.757,1.041,1.515,1.041,2.414,0,.426-.142.805-.426,1.088Z" stroke-width="0"/>
    <path d="M216.834,181.094c-.284.047-.521.047-.805.047-1.42,0-1.987-.521-2.319-1.846-.095-.331,0-.71-.095-1.041-.047-.237-.283-.426-.331-.663-.047-.473,0-1.041,0-1.562,0-.71-.095-1.988-.567-2.556-1.278.189-1.042,1.609-1.752,2.367-.426.426-1.089.473-1.515.899-.379.378-.474,1.041-.805,1.515-.521.757-1.372,1.42-2.035,2.083-.189.236-.379.568-.615.71-.236.189-.615.189-.853.331-.331.142-.567.474-.898.474-.427,0-.805-.142-1.184-.189-.474,0-.947.047-1.42.047-.426,0-1.041-.142-1.373-.473-.095-.095-.047-.284-.142-.379-.143-.189-.474-.284-.568-.473-.142-.332-.095-.994-.236-1.42-.095-.332-.379-.663-.474-.994-.095-.568-.142-1.136-.142-1.657,0-1.42.567-2.367.567-3.597,0-.521-.095-1.042-.095-1.562s.284-.852.332-1.325c.095-.332,0-.71.047-1.042.143-1.042.331-2.035.426-3.029.095-.947.521-2.982,1.752-2.982,1.751,0,1.846,1.609,1.846,2.935,0,.899-.331,1.42-.331,1.988,0,.426.142.852.142,1.278s-.142.805-.189,1.23c-.095,1.042-.095,2.083-.284,3.124,0,.142-.047.284-.047.426,0,.473.047.946.047,1.42,0,.568-.094,1.183-.094,1.798,0,.71.378,1.894,1.277,1.894.663,0,1.515-1.042,2.035-1.467.663-.568,1.278-1.042,1.799-1.704.236-.332.379-.852.71-1.089.095-.095.237-.095.379-.189.71-.616,1.94-2.272,2.366-3.171.237-.568.805-.947,1.042-1.515.047-.189,0-.568.047-.805.189-.71.663-1.325.663-2.083,0-.426-.048-.852-.048-1.278,0-.663.899-1.23,1.515-1.23,1.752,0,2.698,3.029,2.698,4.449,0,.615-.189,1.42-.189,2.225,0,1.609.474,3.171.474,4.733,0,.284-.048.615-.048.899,0,.757.427,1.467.427,2.225s-.521,1.798-1.137,2.225Z" stroke-width="0"/>
    <path d="M242.675,180.195c-.521.663-.758,1.515-1.752,1.515-.852,0-2.366-.378-2.745-1.23-.142-.379-.142-.757-.142-1.089,0-1.136.142-2.225.142-3.361,0-.804-.236-1.562-.236-2.13,0-.331.095-.568.095-.852,0-.663.047-1.325-.095-1.988-.189-.852-.994-1.609-.994-2.509,0-.284.047-.568.047-.852,0-.616-.283-.284-.283-1.231,0-.378-.427-1.467-.615-1.846-.189-.521-.332-1.136-.853-1.467h-.236c-2.13-.095-2.935,1.373-4.26,2.792-.474.521-.805,1.041-1.231,1.609-.521.663-.71.568-1.183,1.562-.237.473-.189,1.088-.379,1.609-.142.284-.379.521-.521.852-.143.284-.237.616-.331.947-.284.947-.189,1.988-.237,2.935-.047.568-.284,1.136-.284,1.704,0,1.042.568,1.988.568,3.077,0,1.23-.899,2.509-2.272,2.509-.662,0-1.42-.426-1.703-1.089-.143-.426-.095-.852-.095-1.325,0-.805-.379-1.467-.379-1.562,0-.332.142-.663.142-.994,0-.473-.426-.852-.521-1.325-.047-.332.048-.757.048-1.089,0-.568-.284-1.088-.379-1.609-.426-2.036-.663-5.302-.663-7.432,0-.946,0-2.745,1.278-2.745.805,0,1.42.71,1.94,1.278.331,1.184.237,2.887.853,3.881,1.562,0,1.798-1.657,2.414-2.65.283-.426.71-.71.993-1.089.284-.378.427-.852.71-1.23.048-.047,2.083-1.941,2.083-1.941.379-.284.853-.236,1.23-.521.426-.284.853-.852,1.42-.852.143,0,.284.142.474.142.426,0,.899-.142,1.325-.142,1.041,0,1.704,1.042,2.509,1.467.095.095.236.047.331.142.048.047.189.473.284.615.284.474.71.899.946,1.467.237.568.284,1.231.521,1.799.852,2.65,1.703,4.828,1.703,7.668,0,.568-.142,1.088-.142,1.609,0,1.467.521,2.84.521,4.307,0,.237,0,.473-.047.663Z" stroke-width="0"/>
    <path d="M258.766,179.532c-.236.189-.426.568-.71.71-.521.284-2.462.71-3.029.71s-1.089-.142-1.562-.473c-.236.047-.473.094-.71.094-.71,0-1.42-.142-2.13-.189-.473-.047-1.277-.852-1.609-1.136-.189-.142-.426-.236-.615-.378-.426-.237-.946-1.042-1.277-1.467-1.137-1.515-1.468-2.414-1.468-4.355,0-.757.048-1.704.236-2.461.143-.426,1.326-2.982,1.609-3.313l.284-.284c.048-.094.048-.236.095-.331.284-.426,2.319-1.988,2.84-2.367.805-.615,1.657-1.23,2.745-1.23.189,0,2.319.426,2.462.473.426.189,2.65,2.225,2.84,2.604.142.236.047.615.142.852.189.757.853,1.326.853,2.13,0,.521-.237.994-.237,1.515,0,.284-.805.71-1.041.71-.331,0-.615-.237-.946-.237s-.663.095-.994.095c-1.278,0-2.556-.284-3.834-.284-1.799,0-2.604,0-2.604,1.941,0,.805.048,1.798.236,2.556.189.757,1.042,2.461,1.752,2.84.189.142.521.094.757.142.189.047.284.189.474.237.284.095.663.095.946.095,1.137,0,3.172-.615,3.882-1.562l.236-.142c.048-.095,0-.189,0-.284,0-.568,1.515-1.609,2.178-1.609.71,0,.899,1.136.899,1.609,0,1.562-1.704,1.94-2.698,2.792ZM255.689,165.758c-.188-.047-.757-.095-.993-.095-.332-.047-.663-.142-1.042-.142-.662,0-1.94.947-2.319,1.467-.142.237-.142.521-.236.757-.095.189-.284.426-.284.616,0,.663.947.899,1.468.899.71,0,1.372-.189,2.035-.284h1.325c.474,0,1.089,0,1.42-.474,0-.994-.379-2.319-1.373-2.745Z" stroke-width="0"/>
    <path d="M280.583,181.71c-.946,0-1.136-.378-1.704-.994-.142-.189-.426-.331-.521-.568-.142-.237-.142-.521-.284-.805-.379-.757-1.325-2.035-1.94-2.603-.568-.568-1.373-.805-1.894-1.373-.379-.378-.662-.852-.994-1.23-.284-.378-.521-.947-1.088-.947-.899,0-.758.379-1.231.947-.142.189-.378.378-.521.568-.474.71-.852,1.467-1.277,2.177-.143.237-.237.568-.379.805-.189.237-.426.332-.568.568-.662,1.041-.899,2.935-2.461,2.935-.899,0-2.367-.474-2.367-1.515,0-.237.048-.426.189-.616.048-.142.284-.236.379-.378.426-.615.805-1.23,1.23-1.799.521-.663.853-1.373,1.23-2.083.284-.473.71-.852.994-1.373.331-.568.853-1.042,1.23-1.609.048-.142.048-.284.143-.426.236-.379.662-.332.662-.947,0-.71-1.136-1.515-1.515-2.083-.047-.142-.047-.284-.142-.426-.048-.047-.189-.047-.236-.142-.663-.426-1.326-1.183-1.799-1.751-.284-.332-.615-.616-.805-.947-.143-.189-.189-.426-.284-.568-.521-.663-1.278-.852-1.278-1.846,0-.142,0-.237.048-.331.284-.426,1.041-.474,1.467-.474,2.509,0,2.651,1.325,4.402,2.509.142.095.284.142.426.284.474.426,1.041,1.798,1.704,1.798.852,0,1.609-1.467,1.988-2.083.283-.474.662-.899.994-1.373.378-.616.757-1.326,1.23-1.941.095-.142.284-.236.378-.378.616-.805,1.373-1.941,2.509-1.941.379.284.663.521.663,1.042,0,.947-.426,1.609-.805,2.414-.095.095-.095.331-.142.378-.095.095-.237.095-.284.142-.237.284-.332,1.042-.568,1.373-.142.237-.379.332-.521.568-.095.094-.048.284-.143.426-.094.047-.188.047-.283.095-.237.236-2.178,3.597-2.178,3.739,0,.805.758,1.088,1.23,1.609.427.521.663,1.183,1.089,1.657.474.615,1.184,1.041,1.799,1.515,1.136.994,2.225,2.083,3.266,3.171.568.568,1.325,1.184,1.325,2.036,0,1.278-1.041,2.792-2.366,2.792Z" stroke-width="0"/>
    <path d="M302.685,171.864c-.143.71-.143,1.562-.427,2.225-.283.71-.898,1.23-1.325,1.846-.142.189-.188.378-.283.568-.899,1.088-1.562,1.373-2.698,2.083-.236-.095-.521-.095-.758-.095-.805,0-1.515.189-2.319.189s-1.704-.142-2.508-.284c-.521-.142-1.042-.473-1.609-.473-.048,0-.143,0-.237.047-.426.142-.426.237-.473.615-.095.521-.143,1.042-.143,1.562,0,.805.095,1.657.095,2.461,0,.237-.142.426-.142.615,0,1.515.047,3.077.047,4.591,0,1.751-.236,3.502-.284,5.301-.047,1.23-.047,4.307-.662,5.349-.331.521-1.562.899-2.13.899-.332,0-.805-.047-.947-.474-.521-.236-.615-.521-.615-1.041,0-.947.426-1.846.426-2.793,0-.615-.094-1.23-.094-1.893,0-.379.142-.71.142-1.089,0-2.982-.284-5.964-.284-8.993,0-1.278.284-2.509.284-3.787.047-1.23,0-2.461.047-3.645.095-1.704.143-3.361.143-5.017,0-1.231-.048-2.461-.048-3.692,0-.331,0-.71.048-1.041,0-.189.095-.332.095-.521,0-.379-.237-.71-.237-1.089s.237-.805.284-1.23c.095-.71-.095-1.326.615-1.799.237-.142.474-.237.758-.237,1.42,0,2.225,2.461,2.366,3.55.095.521.048,1.041.048,1.562s.095.994.378,1.467c.095,0,.143.047.237.047.426,0,.71-.616.994-.852.757-.71,2.13-1.704,3.076-2.083.189-.094.426-.047.663-.142.521-.189.946-.805,1.515-.805.426,0,.852.047,1.23.047,1.656,0,3.029,1.325,3.739,2.698.142.284.236.615.379.947.378.757.946,1.42.946,2.319,0,.71-.189,1.373-.331,2.083ZM296.626,166.611c-.805,0-1.657.852-2.272,1.278-.567.379-1.23.615-1.751,1.042-.426.378-2.178,2.509-2.414,3.029-.095.237-.189.473-.189.71,0,.805.521,1.467.568,2.225.567.521,1.325.899,1.94,1.373h2.035c1.42,0,2.509-.047,3.455-1.278.284-.379.189-1.373.284-1.846.189-1.041.474-1.136.474-2.367,0-1.183-.426-4.165-2.13-4.165Z" stroke-width="0"/>
    <path d="M318.965,179.532c-.236.189-.426.568-.71.71-.521.284-2.462.71-3.029.71s-1.089-.142-1.562-.473c-.236.047-.473.094-.71.094-.71,0-1.42-.142-2.13-.189-.473-.047-1.277-.852-1.609-1.136-.189-.142-.426-.236-.615-.378-.426-.237-.946-1.042-1.277-1.467-1.137-1.515-1.468-2.414-1.468-4.355,0-.757.048-1.704.236-2.461.143-.426,1.326-2.982,1.609-3.313l.284-.284c.048-.094.048-.236.095-.331.284-.426,2.319-1.988,2.84-2.367.805-.615,1.657-1.23,2.745-1.23.189,0,2.319.426,2.462.473.426.189,2.65,2.225,2.84,2.604.142.236.047.615.142.852.189.757.853,1.326.853,2.13,0,.521-.237.994-.237,1.515,0,.284-.805.71-1.041.71-.331,0-.615-.237-.946-.237s-.663.095-.994.095c-1.278,0-2.556-.284-3.834-.284-1.799,0-2.604,0-2.604,1.941,0,.805.048,1.798.236,2.556.189.757,1.042,2.461,1.752,2.84.189.142.521.094.757.142.189.047.284.189.474.237.284.095.663.095.946.095,1.137,0,3.172-.615,3.882-1.562l.236-.142c.048-.095,0-.189,0-.284,0-.568,1.515-1.609,2.178-1.609.71,0,.899,1.136.899,1.609,0,1.562-1.704,1.94-2.698,2.792ZM315.888,165.758c-.188-.047-.757-.095-.993-.095-.332-.047-.663-.142-1.042-.142-.662,0-1.94.947-2.319,1.467-.142.237-.142.521-.236.757-.095.189-.284.426-.284.616,0,.663.947.899,1.468.899.71,0,1.372-.189,2.035-.284h1.325c.474,0,1.089,0,1.42-.474,0-.994-.379-2.319-1.373-2.745Z" stroke-width="0"/>
    <path d="M338.937,173.474c-.426.284-.946.284-1.372.521-1.184.521-2.272,1.515-3.645,1.515-.521,0-.994-.284-1.515-.284-.331,0-.663.142-.994.142-.71,0-1.373-.236-2.035-.142-.379-.474-1.325-.332-1.515-.852-.095-.047,0,0-.143,0h-.095l-.142-.284c-.284-.142-.946-.568-1.136-.852-.048-.142-.048-.284-.095-.378-.284-.426-.71-.71-.994-1.136-.331-.426-.663-.899-.899-1.373-.142-.284-.142-.615-.236-.899-.095-.236-.332-.378-.379-.615-.142-.379-.142-.805-.142-1.183,0-.757.331-1.515.521-2.225.142-.521.426-.899.615-1.373.142-.284.095-.615.236-.899.189-.284.568-.474.758-.758.236-.236.284-.615.521-.852.284-.332.662-.474.994-.757.615-.521.852-.899,1.656-1.278.994-.473,2.083-.852,3.172-.852.662,0,1.372.095,1.94.379.805.331,2.981,2.035,2.981,2.982,0,.237-.142.473-.331.663-1.325,0-1.325-1.183-2.13-1.657-.236-.095-.994-.284-1.278-.378-.284-.047-.615-.095-.946-.095-.568,0-1.988.284-2.178.852-.473.237-.662.805-.852,1.278-.758,1.42-1.089,2.367-1.089,4.023,0,1.183.284,1.23.568,2.225.284,1.088.473,2.461,1.515,3.171.095.047.236.047.378.095.663.426.994.71,1.847.71.757,0,3.786-.616,4.307-1.184.143-.189.143-.473.379-.615.331-.284.899-.521,1.325-.521.758,0,1.325.852,1.325,1.562,0,.615-.426.994-.899,1.325Z" stroke-width="0"/>
    <path d="M353.845,163.439c-.427,0-.853-.237-1.278-.237-1.562,0-1.894.284-2.745,1.468.095.852.142,1.704.236,2.556.095.757.284,1.515.379,2.319.095,1.278-.048,2.604.095,3.881.047.378.284.71.284,1.136,0,.379-.095.805-.095,1.184s.095.757.331,1.088c-.142.332-.189.663-.189,1.042,0,.615.142,1.183.284,1.751.095.378.236,2.461.236,2.935,0,.994-1.277,2.461-2.271,2.461-.71,0-1.325-.616-1.752-1.136-.142-.142-.521-.663-.567-.852-.237-.521-.143-4.212-.143-5.064,0-.805-.047-1.562-.142-2.367-.047-.663-.236-1.089-.236-1.846,0-.616.047-1.231.047-1.894,0-1.373-.379-2.698-.379-4.023,0-.331.095-.568.095-.852,0-.473-.189-.899-.236-1.373-.048-.473.047-.994-.142-1.467-.284-.899-.805-1.088-1.704-1.183-.284-.047-.568-.142-.853-.142-.426,0-.852.237-1.372.237-.568,0-1.089-.142-1.657-.142-.379,0-.71-.047-.852-.474.142-2.083,5.064-.331,6.2-1.562.048-.142.048-.284.048-.426,0-.757-.284-1.515-.284-2.272,0-.378.142-.757.142-1.136s-.189-.663-.236-1.042c-.143-.805-.048-1.657-.143-2.461-.094-.663-.378-1.373-.378-2.035,0-.947.378-1.988,1.467-1.988.332,0,.758.047.853.378.142.047.047,0,.189,0h.047c.331.142.899,1.609.994,1.94.521,1.609.757,3.219.994,4.875.047.426.189.805.236,1.23,0,.379-.047.757-.047,1.136,0,.615.805,1.94,1.515,1.94.426,0,.852-.331,1.325-.378.331-.047.662,0,.994,0,.378,0,.757-.142,1.183-.142.71,0,1.609.899,1.609,1.657,0,.805-1.372,1.278-2.082,1.278Z" stroke-width="0"/>
    <path d="M369.18,179.532c-.236.189-.426.568-.71.71-.521.284-2.462.71-3.029.71s-1.089-.142-1.562-.473c-.236.047-.473.094-.71.094-.71,0-1.42-.142-2.13-.189-.473-.047-1.277-.852-1.609-1.136-.189-.142-.426-.236-.615-.378-.426-.237-.946-1.042-1.277-1.467-1.137-1.515-1.468-2.414-1.468-4.355,0-.757.048-1.704.236-2.461.143-.426,1.326-2.982,1.609-3.313l.284-.284c.048-.094.048-.236.095-.331.284-.426,2.319-1.988,2.84-2.367.805-.615,1.657-1.23,2.745-1.23.189,0,2.319.426,2.462.473.426.189,2.65,2.225,2.84,2.604.142.236.047.615.142.852.189.757.853,1.326.853,2.13,0,.521-.237.994-.237,1.515,0,.284-.805.71-1.041.71-.331,0-.615-.237-.946-.237s-.663.095-.994.095c-1.278,0-2.556-.284-3.834-.284-1.799,0-2.604,0-2.604,1.941,0,.805.048,1.798.236,2.556.189.757,1.042,2.461,1.752,2.84.189.142.521.094.757.142.189.047.284.189.474.237.284.095.663.095.946.095,1.137,0,3.172-.615,3.882-1.562l.236-.142c.048-.095,0-.189,0-.284,0-.568,1.515-1.609,2.178-1.609.71,0,.899,1.136.899,1.609,0,1.562-1.704,1.94-2.698,2.792ZM366.103,165.758c-.188-.047-.757-.095-.993-.095-.332-.047-.663-.142-1.042-.142-.662,0-1.94.947-2.319,1.467-.142.237-.142.521-.236.757-.095.189-.284.426-.284.616,0,.663.947.899,1.468.899.71,0,1.372-.189,2.035-.284h1.325c.474,0,1.089,0,1.42-.474,0-.994-.379-2.319-1.373-2.745Z" stroke-width="0"/>
    <path d="M392.181,151.511c-.237,1.42-.048,2.887-.237,4.307-.047.332-.189.568-.283.899,0,.237.047.521.047.805,0,.663-.284,1.373-.284,2.083-.047,1.609-.331,3.219-.474,4.828-.047.473-.236.899-.236,1.373,0,.284.095.521.095.805,0,.331-.189.426-.236.71-.189.805-.048,1.704-.143,2.556-.095.805-.426,1.562-.473,2.414-.095.71-.048,1.42-.521,1.988-.047.899,0,1.798-.142,2.698-.095.426-.284.805-.379,1.231-.236,1.136-.142,3.029-.757,3.928-.615.332-1.468.379-2.178.379-.521-.568-1.136-.994-1.136-1.894,0-.804.426-1.562.426-2.414,0-.237-.047-.521-.142-.757-.143-.047-.284-.047-.379-.047-.474,0-.852.236-1.278.331-.757.095-1.515.095-2.225.095-.662,0-1.325,0-1.94-.095-.331-.095-.615-.284-.899-.378-.284-.142-.615-.095-.899-.284-.283-.142-.473-.521-.757-.757-.615-.568-1.515-1.041-2.035-1.751-.663-1.041-1.184-2.603-1.184-3.787,0-1.42.71-2.272,1.325-3.455.142-.284.189-.615.379-.852.521-.757,1.846-1.657,2.65-2.035.284-.142.615-.142.899-.284.236-.047.379-.284.615-.378.379-.095,2.083-.237,2.461-.237.758,0,1.373.615,2.178.615.236,0,.474-.047.71-.095.853.332,1.136,1.42,1.988,1.751.757-.757.805-2.035.899-3.029.283-2.414.283-4.923.757-7.336.189-.852.663-1.657.663-2.509,0-.284-.143-.521-.143-.805,0-.426.284-.899.379-1.373.189-1.089.048-4.307,1.609-4.307.899,0,1.656,1.704,1.656,2.461,0,.852-.236,1.751-.378,2.604ZM385.223,168.22c-.332-.663-.805-.994-1.23-1.515-.143-.142-.143-.379-.284-.521-.237-.332-1.515-.663-1.94-.663-.143,0-.189,0-.332.047-.899.332-2.461.426-3.029,1.278-.142.189-.189.521-.236.757-.284.757-.426,1.562-.426,2.319,0,1.088.473,1.467.899,2.366.095.189.142.426.283.616.284.568,1.137,1.656,1.752,1.893.426.142.946.142,1.372.142,1.799,0,2.793-.426,3.551-2.035.236-.426.426-.899.426-1.373,0-.757-.426-2.603-.805-3.313Z" stroke-width="0"/>
    <path d="M424.646,173.474c-.426.284-.946.284-1.372.521-1.184.521-2.272,1.515-3.645,1.515-.521,0-.994-.284-1.515-.284-.331,0-.663.142-.994.142-.71,0-1.373-.236-2.035-.142-.379-.474-1.325-.332-1.515-.852-.095-.047,0,0-.143,0h-.095l-.142-.284c-.284-.142-.946-.568-1.136-.852-.048-.142-.048-.284-.095-.378-.284-.426-.71-.71-.994-1.136-.331-.426-.663-.899-.899-1.373-.142-.284-.142-.615-.236-.899-.095-.236-.332-.378-.379-.615-.142-.379-.142-.805-.142-1.183,0-.757.331-1.515.521-2.225.142-.521.426-.899.615-1.373.142-.284.095-.615.236-.899.189-.284.568-.474.758-.758.236-.236.284-.615.521-.852.284-.332.662-.474.994-.757.615-.521.852-.899,1.656-1.278.994-.473,2.083-.852,3.172-.852.662,0,1.372.095,1.94.379.805.331,2.981,2.035,2.981,2.982,0,.237-.142.473-.331.663-1.325,0-1.325-1.183-2.13-1.657-.236-.095-.994-.284-1.278-.378-.284-.047-.615-.095-.946-.095-.568,0-1.988.284-2.178.852-.473.237-.662.805-.852,1.278-.758,1.42-1.089,2.367-1.089,4.023,0,1.183.284,1.23.568,2.225.284,1.088.473,2.461,1.515,3.171.095.047.236.047.378.095.663.426.994.71,1.847.71.757,0,3.786-.616,4.307-1.184.143-.189.143-.473.379-.615.331-.284.899-.521,1.325-.521.758,0,1.325.852,1.325,1.562,0,.615-.426.994-.899,1.325Z" stroke-width="0"/>
    <path d="M441.541,177.071c-.283.284-.521.663-.852.852-.426.284-.994.426-1.467.615-.379.189-.947.521-1.326.615-.378.095-.805,0-1.183,0-.474,0-.947.095-1.42.095s-.899-.142-1.326-.473c-1.277-.095-2.556-.568-3.502-1.467-.189-.142-.237-.332-.379-.474-.142-.094-.331-.142-.474-.236-1.467-1.089-1.751-2.225-1.751-3.976,0-1.657.852-3.124,1.609-4.544.047-.142.047-.284.142-.378.143-.189.427-.284.615-.474.332-.378.521-.899.947-1.23.142-.142.331-.142.473-.237.284-.189.474-.615.758-.757.899-.473,2.461-.568,3.455-.568,1.988,0,4.733.663,5.774,2.556.237.332.332.663.616.947.378.332.852.568,1.136.994.047.095.047.237.095.331.426.899.567,1.799.567,2.793,0,2.225-.946,3.55-2.509,5.017ZM440.216,169.782c-.142-.142-.283-.237-.378-.379-.427-.473-.71-1.373-1.326-1.562-.331-.142-3.029-.757-3.266-.757-.284,0-1.041.568-1.278.757-.188.142-.378.237-.615.332-1.325.757-1.609,1.42-1.609,2.982,0,1.136.427,1.94,1.137,2.745.426.474,1.562,1.751,2.082,1.941.805.331,2.035.189,2.935.284.663-.426,1.609-1.136,1.941-1.846l.236-.142c.142-.189.142-.473.236-.71.332-.757.568-.71.568-1.799,0-.663-.284-1.325-.663-1.846Z" stroke-width="0"/>
    <path d="M480.968,173.048c0,.237.143.474.143.757,0,.805-.237,1.609-.237,2.414,0,.426.143.852.143,1.231,0,.757-.663,1.23-.994,1.846-.568,0-1.041.332-1.562.332-.616,0-1.562-.947-1.752-1.467-.047-.237-.095-.521-.095-.805,0-1.184.474-2.272.474-3.456,0-.805-.236-1.609-.236-2.414v-1.278c0-1.278-.143-2.367-.379-3.597-.189-.994-.284-1.325-.947-2.083-.283-.284-.567-.71-.993-.71-.71,0-.947.615-1.468.946-.474.379-1.041.616-1.562.852-.143.332-.284.663-.379.994-.095.331-.095.663-.236.947-.427.852-1.562,1.373-1.941,2.225-.283.521-.283,1.893-.378,2.556-.095.474-.284.947-.379,1.467-.048.568,0,1.136-.095,1.704-.189.805-.474,1.325-1.42,1.325-.379,0-.663-.236-1.041-.236-.427-.237-1.042-.284-1.326-.757-.473-.757-.142-3.313-.378-4.355-.095-.473-.237-.189-.237-.899,0-.663-.805-1.326-.994-1.894-.047-.237.048-.521.048-.71,0-.331-.189-.378-.284-.663-.095-.379-.095-.805-.236-1.183-.237-.616-1.325-2.319-1.94-2.319h-.095c-1.137-.095-2.272,1.515-2.982,2.319-.236.284-.284,1.562-.474,2.035-.095.284-.236.568-.378.852-.427.946-1.941,2.367-2.036,2.698-.142.332-.094.757-.142,1.089-.095.805-.568.947-.568,2.083,0,.473.048.994.189,1.467-.189.568-.236,1.23-.236,1.846,0,.663.236,1.278.236,1.893,0,1.136-.615,2.367-1.846,2.367-.899,0-1.23-.568-1.894-.994-.236-.568-.142-1.136-.284-1.704-.094-.521-.378-.947-.473-1.467-.095-.426-.048-.899-.095-1.326-.095-.378-.189-.757-.284-1.136-.142-.852.047-1.751-.095-2.651-.095-.521-.284-.994-.379-1.467-.047-.284-.047-.568-.095-.852-.095-.236-.236-.378-.283-.615-.048-.284.047-.568.047-.852,0-.663-.521-1.467-.615-2.177-.095-.378,0-.757,0-1.136,0-1.941-1.136-3.739-1.136-5.728v-.473c.378-.426.899-.71,1.467-.71s1.278.378,1.609.852c.048.047.048.142.095.236.805,1.042.853,2.272,1.089,3.55.189.663.379,1.373.521,2.035.142.899.189,3.692,1.468,3.692.662,0,.946-.568,1.183-1.136.474-.994.805-2.083,1.373-3.029.142-.284.379-.568.615-.852,1.184-1.657.805-1.988,2.65-3.408.474-.378.947-.852,1.609-.852.71,0,1.42.521,2.035.852.521.284,1.089.426,1.609.71.71.426.994.947,1.468,1.609.284.426.757.852.946,1.325.426.852.095,1.562,1.136,2.225.71-.047.994-.473,1.421-.994l.283-.142c0-.095-.047,0-.047-.142l.047-.095.237-.095c.142-.331.236-.71.473-.994.332-.332.853-.521,1.231-.852.331-.284.615-.757.946-.994.142-.047.284-.047.379-.095.189-.095.331-.378.473-.473.143-.095.284-.095.379-.142.379-.237.71-.663,1.089-.852.189-.095.426-.047.615-.142.568-.189.331-.284,1.041-.284.994,0,2.319.568,2.888,1.42.047.095,0,.237.095.331.047.095.189.047.236.142.143.095.426,1.231.521,1.467.474,1.184.568.568.568,1.988,0,.805.474,1.704.615,2.508.142.71.521,2.793.521,3.408,0,.378-.284.71-.284,1.088Z" stroke-width="0"/>
    <path d="M502.121,171.864c-.143.71-.143,1.562-.426,2.225-.284.71-.899,1.23-1.326,1.846-.142.189-.189.378-.283.568-.899,1.088-1.562,1.373-2.698,2.083-.237-.095-.521-.095-.758-.095-.805,0-1.515.189-2.319.189s-1.703-.142-2.508-.284c-.521-.142-1.042-.473-1.609-.473-.048,0-.143,0-.237.047-.426.142-.426.237-.473.615-.095.521-.143,1.042-.143,1.562,0,.805.095,1.657.095,2.461,0,.237-.142.426-.142.615,0,1.515.047,3.077.047,4.591,0,1.751-.236,3.502-.284,5.301-.047,1.23-.047,4.307-.662,5.349-.332.521-1.562.899-2.13.899-.332,0-.805-.047-.947-.474-.521-.236-.615-.521-.615-1.041,0-.947.426-1.846.426-2.793,0-.615-.095-1.23-.095-1.893,0-.379.143-.71.143-1.089,0-2.982-.284-5.964-.284-8.993,0-1.278.284-2.509.284-3.787.047-1.23,0-2.461.047-3.645.095-1.704.143-3.361.143-5.017,0-1.231-.048-2.461-.048-3.692,0-.331,0-.71.048-1.041,0-.189.095-.332.095-.521,0-.379-.237-.71-.237-1.089s.237-.805.284-1.23c.095-.71-.095-1.326.615-1.799.237-.142.474-.237.758-.237,1.42,0,2.225,2.461,2.366,3.55.095.521.048,1.041.048,1.562s.095.994.378,1.467c.095,0,.143.047.237.047.426,0,.71-.616.994-.852.757-.71,2.13-1.704,3.076-2.083.189-.094.426-.047.663-.142.521-.189.946-.805,1.515-.805.426,0,.852.047,1.23.047,1.656,0,3.029,1.325,3.739,2.698.142.284.236.615.379.947.378.757.946,1.42.946,2.319,0,.71-.189,1.373-.331,2.083ZM496.063,166.611c-.805,0-1.657.852-2.272,1.278-.567.379-1.23.615-1.751,1.042-.426.378-2.178,2.509-2.414,3.029-.095.237-.189.473-.189.71,0,.805.521,1.467.568,2.225.567.521,1.325.899,1.94,1.373h2.035c1.42,0,2.509-.047,3.455-1.278.284-.379.189-1.373.284-1.846.189-1.041.474-1.136.474-2.367,0-1.183-.426-4.165-2.13-4.165Z" stroke-width="0"/>
    <path d="M518.402,179.532c-.236.189-.426.568-.71.71-.521.284-2.461.71-3.029.71s-1.089-.142-1.562-.473c-.236.047-.473.094-.71.094-.71,0-1.42-.142-2.13-.189-.473-.047-1.277-.852-1.609-1.136-.189-.142-.426-.236-.615-.378-.426-.237-.946-1.042-1.277-1.467-1.137-1.515-1.468-2.414-1.468-4.355,0-.757.048-1.704.236-2.461.143-.426,1.326-2.982,1.609-3.313l.284-.284c.048-.094.048-.236.095-.331.284-.426,2.319-1.988,2.84-2.367.805-.615,1.657-1.23,2.745-1.23.189,0,2.319.426,2.462.473.426.189,2.65,2.225,2.84,2.604.142.236.047.615.142.852.189.757.853,1.326.853,2.13,0,.521-.237.994-.237,1.515,0,.284-.805.71-1.041.71-.331,0-.615-.237-.946-.237s-.663.095-.994.095c-1.278,0-2.556-.284-3.834-.284-1.799,0-2.604,0-2.604,1.941,0,.805.048,1.798.236,2.556.189.757,1.042,2.461,1.752,2.84.189.142.521.094.757.142.189.047.284.189.474.237.284.095.663.095.946.095,1.137,0,3.172-.615,3.882-1.562l.236-.142c.048-.095,0-.189,0-.284,0-.568,1.515-1.609,2.178-1.609.71,0,.899,1.136.899,1.609,0,1.562-1.704,1.94-2.698,2.792ZM515.324,165.758c-.188-.047-.757-.095-.993-.095-.332-.047-.663-.142-1.042-.142-.662,0-1.94.947-2.319,1.467-.142.237-.142.521-.236.757-.095.189-.284.426-.284.616,0,.663.947.899,1.468.899.71,0,1.372-.189,2.035-.284h1.325c.474,0,1.089,0,1.42-.474,0-.994-.379-2.319-1.373-2.745Z" stroke-width="0"/>
    <path d="M534.73,163.439c-.427,0-.853-.237-1.278-.237-1.562,0-1.894.284-2.745,1.468.095.852.142,1.704.236,2.556.095.757.284,1.515.379,2.319.095,1.278-.048,2.604.095,3.881.047.378.284.71.284,1.136,0,.379-.095.805-.095,1.184s.095.757.331,1.088c-.142.332-.189.663-.189,1.042,0,.615.142,1.183.284,1.751.095.378.236,2.461.236,2.935,0,.994-1.277,2.461-2.271,2.461-.71,0-1.325-.616-1.752-1.136-.142-.142-.521-.663-.567-.852-.237-.521-.143-4.212-.143-5.064,0-.805-.047-1.562-.142-2.367-.047-.663-.236-1.089-.236-1.846,0-.616.047-1.231.047-1.894,0-1.373-.379-2.698-.379-4.023,0-.331.095-.568.095-.852,0-.473-.189-.899-.236-1.373-.048-.473.047-.994-.142-1.467-.284-.899-.805-1.088-1.704-1.183-.284-.047-.568-.142-.853-.142-.426,0-.852.237-1.372.237-.568,0-1.089-.142-1.657-.142-.379,0-.71-.047-.852-.474.142-2.083,5.064-.331,6.2-1.562.048-.142.048-.284.048-.426,0-.757-.284-1.515-.284-2.272,0-.378.142-.757.142-1.136s-.189-.663-.236-1.042c-.143-.805-.048-1.657-.143-2.461-.094-.663-.378-1.373-.378-2.035,0-.947.378-1.988,1.467-1.988.332,0,.758.047.853.378.142.047.047,0,.189,0h.047c.331.142.899,1.609.994,1.94.521,1.609.757,3.219.994,4.875.047.426.189.805.236,1.23,0,.379-.047.757-.047,1.136,0,.615.805,1.94,1.515,1.94.426,0,.852-.331,1.325-.378.331-.047.662,0,.994,0,.378,0,.757-.142,1.183-.142.71,0,1.609.899,1.609,1.657,0,.805-1.372,1.278-2.082,1.278Z" stroke-width="0"/>
    <path d="M540.218,156.576c-.332.095-.615.189-.947.189-.142,0-1.325-.284-1.372-.332-.095-.047-.095-.142-.143-.236-.521-.237-.805-1.136-.805-1.704,0-1.042,1.184-1.42,2.083-1.42.946,0,2.035.426,2.604,1.183.236.284.521.568.521.947,0,.899-1.325,1.136-1.94,1.373ZM541.874,182.183c-.615,0-1.041-.426-1.562-.663-.427-.805-.379-1.988-.474-2.935-.047-.284-.189-.521-.236-.852-.048-.284,0-.568,0-.899,0-1.183-.237-2.556-.237-3.834-.047-.426,0-.899,0-1.325,0-.663-.189-1.23-.283-1.846-.143-1.42-.095-2.84-.095-4.26,0-.994.047-2.65,1.42-2.65.473,0,1.23.284,1.515.71.189.284.142.947.236,1.325.047.426.284.805.331,1.231.189.899.143,1.846.284,2.792.048.473.284.899.331,1.325.143.663.095,1.325.143,1.988.142,1.468.284,2.982.378,4.497.048.094.095.236.095.378,0,.095-.095.142-.095.332,0,.757.284,1.515.284,2.319,0,.899-1.088,2.366-2.035,2.366Z" stroke-width="0"/>
    <path d="M559.008,163.439c-.427,0-.853-.237-1.278-.237-1.562,0-1.894.284-2.745,1.468.095.852.142,1.704.236,2.556.095.757.284,1.515.379,2.319.095,1.278-.048,2.604.095,3.881.047.378.284.71.284,1.136,0,.379-.095.805-.095,1.184s.095.757.331,1.088c-.142.332-.189.663-.189,1.042,0,.615.143,1.183.284,1.751.095.378.236,2.461.236,2.935,0,.994-1.277,2.461-2.271,2.461-.71,0-1.325-.616-1.752-1.136-.142-.142-.521-.663-.567-.852-.237-.521-.143-4.212-.143-5.064,0-.805-.047-1.562-.142-2.367-.048-.663-.236-1.089-.236-1.846,0-.616.047-1.231.047-1.894,0-1.373-.379-2.698-.379-4.023,0-.331.095-.568.095-.852,0-.473-.189-.899-.236-1.373-.048-.473.047-.994-.142-1.467-.284-.899-.805-1.088-1.704-1.183-.284-.047-.568-.142-.853-.142-.426,0-.852.237-1.372.237-.568,0-1.089-.142-1.657-.142-.379,0-.71-.047-.852-.474.142-2.083,5.064-.331,6.2-1.562.048-.142.048-.284.048-.426,0-.757-.284-1.515-.284-2.272,0-.378.142-.757.142-1.136s-.189-.663-.236-1.042c-.142-.805-.048-1.657-.142-2.461-.095-.663-.379-1.373-.379-2.035,0-.947.379-1.988,1.467-1.988.332,0,.758.047.853.378.142.047.047,0,.189,0h.047c.331.142.899,1.609.994,1.94.521,1.609.757,3.219.994,4.875.047.426.189.805.236,1.23,0,.379-.047.757-.047,1.136,0,.615.805,1.94,1.515,1.94.426,0,.852-.331,1.325-.378.331-.047.662,0,.994,0,.378,0,.757-.142,1.183-.142.71,0,1.609.899,1.609,1.657,0,.805-1.372,1.278-2.082,1.278Z" stroke-width="0"/>
    <path d="M564.496,156.576c-.332.095-.615.189-.947.189-.142,0-1.325-.284-1.372-.332-.095-.047-.095-.142-.143-.236-.521-.237-.805-1.136-.805-1.704,0-1.042,1.184-1.42,2.083-1.42.946,0,2.035.426,2.604,1.183.236.284.521.568.521.947,0,.899-1.325,1.136-1.94,1.373ZM566.153,182.183c-.615,0-1.041-.426-1.562-.663-.427-.805-.379-1.988-.474-2.935-.047-.284-.189-.521-.236-.852-.048-.284,0-.568,0-.899,0-1.183-.237-2.556-.237-3.834-.047-.426,0-.899,0-1.325,0-.663-.189-1.23-.284-1.846-.142-1.42-.094-2.84-.094-4.26,0-.994.047-2.65,1.42-2.65.473,0,1.23.284,1.515.71.188.284.142.947.236,1.325.047.426.284.805.331,1.231.189.899.143,1.846.284,2.792.048.473.284.899.331,1.325.143.663.095,1.325.143,1.988.142,1.468.284,2.982.379,4.497.047.094.094.236.094.378,0,.095-.094.142-.094.332,0,.757.283,1.515.283,2.319,0,.899-1.088,2.366-2.035,2.366Z" stroke-width="0"/>
    <path d="M585.368,177.071c-.283.284-.521.663-.852.852-.426.284-.994.426-1.468.615-.378.189-.946.521-1.325.615-.378.095-.805,0-1.183,0-.474,0-.947.095-1.42.095s-.899-.142-1.326-.473c-1.277-.095-2.556-.568-3.502-1.467-.189-.142-.237-.332-.379-.474-.142-.094-.331-.142-.474-.236-1.467-1.089-1.751-2.225-1.751-3.976,0-1.657.852-3.124,1.609-4.544.047-.142.047-.284.142-.378.143-.189.427-.284.615-.474.332-.378.521-.899.947-1.23.142-.142.331-.142.474-.237.283-.189.473-.615.757-.757.899-.473,2.461-.568,3.455-.568,1.988,0,4.733.663,5.774,2.556.237.332.332.663.615.947.379.332.853.568,1.137.994.047.095.047.237.095.331.426.899.567,1.799.567,2.793,0,2.225-.946,3.55-2.509,5.017ZM584.043,169.782c-.142-.142-.283-.237-.378-.379-.427-.473-.71-1.373-1.326-1.562-.331-.142-3.029-.757-3.266-.757-.284,0-1.041.568-1.278.757-.188.142-.378.237-.615.332-1.325.757-1.609,1.42-1.609,2.982,0,1.136.427,1.94,1.137,2.745.426.474,1.562,1.751,2.082,1.941.805.331,2.035.189,2.935.284.663-.426,1.609-1.136,1.941-1.846l.236-.142c.142-.189.142-.473.236-.71.332-.757.568-.71.568-1.799,0-.663-.284-1.325-.663-1.846Z" stroke-width="0"/>
    <path d="M612.488,180.195c-.521.663-.758,1.515-1.752,1.515-.852,0-2.366-.378-2.745-1.23-.142-.379-.142-.757-.142-1.089,0-1.136.142-2.225.142-3.361,0-.804-.236-1.562-.236-2.13,0-.331.095-.568.095-.852,0-.663.047-1.325-.095-1.988-.189-.852-.994-1.609-.994-2.509,0-.284.047-.568.047-.852,0-.616-.283-.284-.283-1.231,0-.378-.427-1.467-.615-1.846-.189-.521-.332-1.136-.853-1.467h-.236c-2.13-.095-2.935,1.373-4.26,2.792-.474.521-.805,1.041-1.231,1.609-.521.663-.71.568-1.183,1.562-.237.473-.189,1.088-.379,1.609-.142.284-.379.521-.521.852-.143.284-.237.616-.331.947-.284.947-.189,1.988-.237,2.935-.047.568-.284,1.136-.284,1.704,0,1.042.568,1.988.568,3.077,0,1.23-.899,2.509-2.272,2.509-.662,0-1.42-.426-1.703-1.089-.143-.426-.095-.852-.095-1.325,0-.805-.379-1.467-.379-1.562,0-.332.142-.663.142-.994,0-.473-.426-.852-.521-1.325-.047-.332.048-.757.048-1.089,0-.568-.284-1.088-.379-1.609-.426-2.036-.663-5.302-.663-7.432,0-.946,0-2.745,1.278-2.745.805,0,1.42.71,1.94,1.278.331,1.184.237,2.887.853,3.881,1.562,0,1.798-1.657,2.414-2.65.283-.426.71-.71.993-1.089.284-.378.427-.852.71-1.23.048-.047,2.083-1.941,2.083-1.941.379-.284.853-.236,1.23-.521.426-.284.853-.852,1.42-.852.143,0,.284.142.474.142.426,0,.899-.142,1.325-.142,1.041,0,1.704,1.042,2.509,1.467.095.095.236.047.331.142.048.047.189.473.284.615.284.474.71.899.946,1.467.237.568.284,1.231.521,1.799.852,2.65,1.703,4.828,1.703,7.668,0,.568-.142,1.088-.142,1.609,0,1.467.521,2.84.521,4.307,0,.237,0,.473-.047.663Z" stroke-width="0"/>
  </g>
</svg>