<?xml version="1.0" encoding="UTF-8"?>
<svg id="b" data-name="Layer 2" xmlns="http://www.w3.org/2000/svg" width="864.601" height="577.949" xmlns:xlink="http://www.w3.org/1999/xlink" viewBox="0 0 864.601 577.949">
  <defs>
    <pattern id="d" data-name="SVGID 1 " x="0" y="0" width="624.4" height="539.4" patternTransform="translate(292.16 -598.233) scale(1.081 -1.351)" patternUnits="userSpaceOnUse" viewBox="0 0 624.4 539.4">
      <g>
        <rect width="624.4" height="539.4" fill="none" stroke-width="0"/>
        <g>
          <rect x="0" width="624.4" height="539.4" fill="none" stroke-width="0"/>
          <g>
            <rect x="0" width="624.4" height="539.4" fill="none" stroke-width="0"/>
            <g>
              <rect x="0" width="624.4" height="539.4" fill="none" stroke-width="0"/>
              <path d="M596.1,524.6v-.2l17.4,4.7c8.8,2.4,14,11.5,11.6,20.3v.2l-17.4-4.7c-8.8-2.4-14.1-11.5-11.6-20.3Z" fill="#06a54d" stroke-width="0"/>
              <g>
                <path d="M476,498.5h0l9.9,5c5,2.6,7,8.7,4.4,13.7v.1l-9.9-5c-5-2.7-7-8.8-4.4-13.8Z" fill="#f9ce7c" stroke-width="0"/>
                <path d="M400.1,453.8h0l9.4,1.8c4.7.9,7.8,5.5,6.9,10.3v.1l-9.4-1.8c-4.7-1.1-7.8-5.7-6.9-10.4Z" fill="#f4b31b" stroke-width="0"/>
                <path d="M516.8,496.4v-.2l17.7,3.5c9,1.8,14.8,10.5,13,19.5v.2l-17.7-3.5c-8.9-1.9-14.8-10.6-13-19.5Z" fill="#f4b31b" stroke-width="0"/>
                <path d="M482.7,482.6v-.2l17.2,5.3c8.7,2.7,13.6,12,10.9,20.7v.2l-17.2-5.3c-8.7-2.7-13.6-12-10.9-20.7Z" fill="#26a8e0" stroke-width="0"/>
                <path d="M408.7,468.8l.1-.2,16.9,6.3c8.6,3.2,12.9,12.7,9.7,21.3l-.1.2-16.9-6.3c-8.6-3.2-12.9-12.7-9.7-21.3Z" fill="#aed2ac" stroke-width="0"/>
                <path d="M497,511.1v-.2l17.9,2.6c9,1.3,15.3,9.7,14,18.8v.2l-17.9-2.6c-9.1-1.3-15.3-9.7-14-18.8Z" fill="#12733b" stroke-width="0"/>
                <path d="M494.7,527.2h0l10.1,6.2c5.1,3.2,6.6,9.9,3.4,14.9l-.1.1-10-6.3c-5-3.1-6.5-9.8-3.4-14.9Z" fill="#12733b" stroke-width="0"/>
                <path d="M439.1,536.2h0l13.8,3.3c7,1.7,11.3,8.8,9.5,15.8v.1l-13.8-3.4c-7-1.8-11.3-8.8-9.5-15.8Z" fill="#06a54d" stroke-width="0"/>
                <path d="M511.4,533.2h0l8.2,2.6c4.1,1.4,6.4,5.8,5,9.9v.1l-8.2-2.7c-4.1-1.3-6.3-5.7-5-9.9Z" fill="#06a54d" stroke-width="0"/>
                <path d="M398,504.1v-.2l17.7,3.5c9,1.8,14.8,10.5,13,19.5v.2l-17.7-3.5c-9-1.8-14.8-10.5-13-19.5Z" fill="#f9ce7c" stroke-width="0"/>
                <path d="M424,498.2v-.2l17.8,3.1c9,1.6,15,10.2,13.5,19.1v.2l-17.8-3.1c-9.1-1.5-15.1-10.1-13.5-19.1Z" fill="#b1d5f1" stroke-width="0"/>
                <path d="M422.9,447.1l.1-.1,16,8.3c8.1,4.2,11.3,14.2,7.1,22.3l-.1.1-16-8.3c-8.1-4.2-11.3-14.2-7.1-22.3Z" fill="#63b5e5" stroke-width="0"/>
                <path d="M447.1,525.2h0l8.8,2.2c4.5,1.1,7.2,5.7,6,10.1v.1l-8.8-2.2c-4.5-1.2-7.2-5.7-6-10.2Z" fill="#a4d7b7" stroke-width="0"/>
                <path d="M530.8,458.3h0l8.2,4c4.1,2.1,5.8,7.1,3.7,11.2v.1l-8.1-4.1c-4.2-2.1-5.9-7.1-3.8-11.2Z" fill="#a4d7b7" stroke-width="0"/>
                <path d="M453.6,472h0l8.8,2.1c4.4,1.1,7.1,5.6,6,10.1v.1l-8.7-2.2c-4.5-1.2-7.2-5.7-6.1-10.1Z" fill="#a4d7b7" stroke-width="0"/>
                <path d="M535.3,525.3v-.2l17.7,3.5c9,1.8,14.8,10.5,13,19.5v.2l-17.7-3.5c-9-1.8-14.8-10.5-13-19.5Z" fill="#06a54d" stroke-width="0"/>
                <path d="M440.8,483v-.2l17.7,3.5c9,1.8,14.8,10.5,13,19.5v.2l-17.7-3.5c-8.9-1.8-14.7-10.6-13-19.5Z" fill="#06a54d" stroke-width="0"/>
                <path d="M487.1,459.2v-.2l17.3,5c8.8,2.5,13.8,11.7,11.3,20.5v.2l-17.3-5c-8.7-2.5-13.8-11.7-11.3-20.5Z" fill="#b1d5f1" stroke-width="0"/>
                <path d="M370.5,511.5v-.2l17.7,3.5c9,1.8,14.8,10.5,13,19.5v.2l-17.7-3.5c-8.9-1.8-14.8-10.5-13-19.5Z" fill="#06a54d" stroke-width="0"/>
                <path d="M381.3,474.3l.1-.2,16.9,6.3c8.6,3.2,12.9,12.7,9.8,21.3l-.1.2-16.9-6.3c-8.6-3.2-13-12.8-9.8-21.3Z" fill="#06a54d" stroke-width="0"/>
                <path d="M462.9,510.4l.1-.1,16,8.5c8.1,4.3,11.2,14.3,6.9,22.4l-.1.1-16-8.5c-8.1-4.3-11.1-14.3-6.9-22.4Z" fill="#26a8e0" stroke-width="0"/>
                <path d="M467,538l.1-.1,16,8.5c8.1,4.3,11.2,14.3,6.9,22.4l-.1.1-16-8.5c-8.1-4.4-11.2-14.4-6.9-22.4Z" fill="#26a8e0" stroke-width="0"/>
                <path d="M407.6,525.9l.1-.2,17,6.2c8.6,3.1,13,12.6,9.9,21.2l-.1.2-17-6.2c-8.6-3.1-13-12.6-9.9-21.2Z" fill="#26a8e0" stroke-width="0"/>
                <path d="M456,448.5l.1-.1,16.4,7.6c8.3,3.9,11.9,13.7,8,22l-.1.1-16.4-7.6c-8.2-3.9-11.8-13.8-8-22Z" fill="#07723b" stroke-width="0"/>
                <path d="M440,423.4v-.2l17.4,4.7c8.8,2.4,14,11.5,11.6,20.3v.2l-17.4-4.7c-8.8-2.4-14-11.5-11.6-20.3Z" fill="#06a54d" stroke-width="0"/>
                <path d="M498.8,438.7l.1-.2,16.7,6.9c8.4,3.5,12.5,13.1,9,21.6l-.1.2-16.7-6.9c-8.4-3.4-12.5-13.1-9-21.6Z" fill="#06a54d" stroke-width="0"/>
              </g>
              <g>
                <path d="M319.9,532.2h0l9.9,5c5,2.6,7,8.7,4.4,13.7v.1l-9.9-5c-5-2.7-6.9-8.8-4.4-13.8Z" fill="#f9ce7c" stroke-width="0"/>
                <path d="M244,487.5h0l9.4,1.8c4.7.9,7.8,5.5,6.9,10.3v.1l-9.4-1.8c-4.7-1.1-7.8-5.7-6.9-10.4Z" fill="#f4b31b" stroke-width="0"/>
                <path d="M360.7,530.1v-.2l17.7,3.5c9,1.8,14.8,10.5,13,19.5v.2l-17.7-3.5c-8.9-1.9-14.8-10.6-13-19.5Z" fill="#f4b31b" stroke-width="0"/>
                <path d="M326.6,516.3v-.2l17.2,5.3c8.7,2.7,13.6,12,10.9,20.7v.2l-17.2-5.3c-8.7-2.7-13.6-12-10.9-20.7Z" fill="#26a8e0" stroke-width="0"/>
                <path d="M252.6,502.6l.1-.2,16.9,6.3c8.6,3.2,12.9,12.7,9.7,21.3l-.1.2-16.9-6.3c-8.5-3.2-12.9-12.8-9.7-21.3Z" fill="#aed2ac" stroke-width="0"/>
                <path d="M241.9,537.8v-.2l17.7,3.5c9,1.8,14.8,10.5,13,19.5v.2l-17.7-3.5c-9-1.8-14.8-10.5-13-19.5Z" fill="#f9ce7c" stroke-width="0"/>
                <path d="M267.9,531.9v-.2l17.8,3.1c9,1.6,15,10.2,13.5,19.1v.2l-17.8-3.1c-9.1-1.5-15.1-10.1-13.5-19.1Z" fill="#b1d5f1" stroke-width="0"/>
                <path d="M266.8,480.8l.1-.1,16,8.3c8.1,4.2,11.3,14.2,7.1,22.3l-.1.1-16-8.3c-8.1-4.2-11.3-14.2-7.1-22.3Z" fill="#63b5e5" stroke-width="0"/>
                <path d="M374.7,492h0l8.2,4c4.1,2.1,5.8,7.1,3.7,11.2v.1l-8.1-4.1c-4.2-2-5.9-7.1-3.8-11.2Z" fill="#a4d7b7" stroke-width="0"/>
                <path d="M297.6,505.7h0l8.8,2.1c4.4,1.1,7.1,5.6,6,10.1v.1l-8.7-2.2c-4.6-1.2-7.3-5.7-6.1-10.1Z" fill="#a4d7b7" stroke-width="0"/>
                <path d="M284.8,516.7v-.2l17.7,3.5c9,1.8,14.8,10.5,13,19.5v.2l-17.7-3.5c-9-1.8-14.8-10.5-13-19.5Z" fill="#06a54d" stroke-width="0"/>
                <path d="M331.1,493v-.2l17.3,5c8.8,2.5,13.8,11.7,11.3,20.5v.2l-17.3-5c-8.8-2.6-13.9-11.8-11.3-20.5Z" fill="#b1d5f1" stroke-width="0"/>
                <path d="M225.2,508l.1-.2,16.9,6.3c8.6,3.2,12.9,12.7,9.8,21.3l-.1.2-16.9-6.3c-8.6-3.2-13-12.8-9.8-21.3Z" fill="#06a54d" stroke-width="0"/>
                <path d="M300,482.2l.1-.1,16.4,7.6c8.3,3.9,11.9,13.7,8,22l-.1.1-16.4-7.6c-8.3-3.9-11.9-13.8-8-22Z" fill="#07723b" stroke-width="0"/>
                <path d="M283.9,457.1v-.2l17.4,4.7c8.8,2.4,14,11.5,11.6,20.3v.2l-17.4-4.7c-8.8-2.3-14-11.5-11.6-20.3Z" fill="#06a54d" stroke-width="0"/>
                <path d="M342.7,472.4l.1-.2,16.7,6.9c8.4,3.5,12.5,13.1,9,21.6l-.1.2-16.7-6.9c-8.4-3.4-12.5-13.1-9-21.6Z" fill="#06a54d" stroke-width="0"/>
              </g>
              <g>
                <path d="M87.9,521.2h0l9.4,1.8c4.7.9,7.8,5.5,6.9,10.3v.1l-9.4-1.8c-4.7-1-7.8-5.7-6.9-10.4Z" fill="#f4b31b" stroke-width="0"/>
                <path d="M96.5,536.3l.1-.2,16.9,6.3c8.6,3.2,12.9,12.7,9.7,21.3l-.1.2-16.9-6.3c-8.5-3.2-12.9-12.8-9.7-21.3Z" fill="#aed2ac" stroke-width="0"/>
                <path d="M110.7,514.5l.1-.1,16,8.3c8.1,4.2,11.3,14.2,7.1,22.3l-.1.1-16-8.3c-8.1-4.2-11.3-14.1-7.1-22.3Z" fill="#63b5e5" stroke-width="0"/>
                <path d="M218.6,525.7h0l8.2,4c4.1,2.1,5.8,7.1,3.7,11.2v.1l-8.1-4.1c-4.2-2-5.9-7-3.8-11.2Z" fill="#a4d7b7" stroke-width="0"/>
                <path d="M141.5,539.4h0l8.8,2.1c4.4,1.1,7.1,5.6,6,10.1v.1l-8.7-2.2c-4.6-1.2-7.3-5.7-6.1-10.1Z" fill="#a4d7b7" stroke-width="0"/>
                <path d="M175,526.7v-.2l17.3,5c8.8,2.5,13.8,11.7,11.3,20.5v.2l-17.3-5c-8.8-2.6-13.9-11.8-11.3-20.5Z" fill="#b1d5f1" stroke-width="0"/>
                <path d="M143.9,515.9l.1-.1,16.4,7.6c8.3,3.9,11.9,13.7,8,22l-.1.1-16.4-7.6c-8.3-3.9-11.9-13.7-8-22Z" fill="#07723b" stroke-width="0"/>
                <path d="M127.8,490.8v-.2l17.4,4.8c8.8,2.4,14,11.5,11.6,20.3v.2l-17.4-4.8c-8.8-2.3-14-11.4-11.6-20.3Z" fill="#06a54d" stroke-width="0"/>
                <path d="M186.6,506.2l.1-.2,16.7,6.9c8.4,3.5,12.5,13.1,9,21.6l-.1.2-16.7-6.9c-8.4-3.5-12.5-13.2-9-21.6Z" fill="#06a54d" stroke-width="0"/>
              </g>
              <path d="M-28.3,524.6v-.2l17.4,4.7c8.8,2.4,14,11.5,11.6,20.3v.2l-17.4-4.7c-8.8-2.4-14-11.5-11.6-20.3Z" fill="#06a54d" stroke-width="0"/>
              <g>
                <path d="M556.2,420.1h0l9.4,1.8c4.7.9,7.8,5.5,6.9,10.3v.1l-9.4-1.8c-4.7-1.1-7.8-5.7-6.9-10.4Z" fill="#f4b31b" stroke-width="0"/>
                <path d="M556.7,510.5l.1-.2,16.6,7c8.4,3.6,12.3,13.3,8.8,21.7l-.1.2-16.6-7c-8.4-3.5-12.4-13.2-8.8-21.7Z" fill="#07723b" stroke-width="0"/>
                <path d="M564.8,435.1l.1-.2,16.9,6.3c8.6,3.2,12.9,12.7,9.7,21.3l-.1.2-16.9-6.3c-8.6-3.2-12.9-12.7-9.7-21.3Z" fill="#aed2ac" stroke-width="0"/>
                <path d="M595.2,502.5h0l13.8,3.3c7,1.7,11.3,8.8,9.5,15.8v.1l-13.8-3.4c-7-1.8-11.3-8.8-9.5-15.8Z" fill="#06a54d" stroke-width="0"/>
                <path d="M554.1,470.4v-.2l17.7,3.5c9,1.8,14.8,10.5,13,19.5v.2l-17.7-3.5c-9-1.8-14.8-10.5-13-19.5Z" fill="#f9ce7c" stroke-width="0"/>
                <path d="M580.1,464.5v-.2l17.8,3.1c9,1.6,15,10.2,13.5,19.1v.2l-17.8-3.1c-9.1-1.5-15.1-10.1-13.5-19.1Z" fill="#b1d5f1" stroke-width="0"/>
                <path d="M579,413.4l.1-.1,16,8.3c8.1,4.2,11.3,14.2,7.1,22.3l-.1.1-16-8.3c-8.1-4.2-11.3-14.2-7.1-22.3Z" fill="#63b5e5" stroke-width="0"/>
                <path d="M603.2,491.5h0l8.8,2.2c4.5,1.1,7.2,5.7,6,10.1v.1l-8.8-2.2c-4.5-1.2-7.2-5.7-6-10.2Z" fill="#a4d7b7" stroke-width="0"/>
                <path d="M609.7,438.3h0l8.8,2.1c4.4,1.1,7.1,5.6,6,10.1v.1l-8.7-2.2c-4.5-1.2-7.2-5.7-6.1-10.1Z" fill="#a4d7b7" stroke-width="0"/>
                <path d="M596.9,449.3v-.2l17.7,3.5c9,1.8,14.8,10.5,13,19.5v.2l-17.7-3.5c-8.9-1.8-14.8-10.6-13-19.5Z" fill="#06a54d" stroke-width="0"/>
                <path d="M526.6,477.8v-.2l17.7,3.5c9,1.8,14.8,10.5,13,19.5v.2l-17.7-3.5c-8.9-1.8-14.8-10.5-13-19.5Z" fill="#06a54d" stroke-width="0"/>
                <path d="M537.4,440.6l.1-.2,16.9,6.3c8.6,3.2,12.9,12.7,9.8,21.3l-.1.2-16.9-6.3c-8.6-3.2-13-12.8-9.8-21.3Z" fill="#06a54d" stroke-width="0"/>
                <path d="M619,476.7h0l16.1,8.4c8.1,4.3,11.2,14.3,6.9,22.4l-.1.1-16-8.5c-8.1-4.3-11.1-14.3-6.9-22.4Z" fill="#26a8e0" stroke-width="0"/>
                <path d="M623,504.2h0l16.1,8.4c8.1,4.3,11.2,14.3,6.9,22.4l-.1.1-16-8.5c-8-4.3-11.1-14.3-6.9-22.4Z" fill="#26a8e0" stroke-width="0"/>
                <path d="M563.7,492.2l.1-.2,17,6.2c8.6,3.1,13,12.6,9.9,21.2l-.1.2-17-6.2c-8.6-3.1-13-12.6-9.9-21.2Z" fill="#26a8e0" stroke-width="0"/>
                <path d="M587.3,539.1h0l9.5,3.4c4.8,1.7,7.3,7,5.5,11.8v.1l-9.5-3.4c-4.8-1.8-7.3-7.1-5.5-11.9Z" fill="#26a8e0" stroke-width="0"/>
                <path d="M612.1,414.7h0l16.5,7.5c8.3,3.9,11.9,13.7,8,22l-.1.1-16.4-7.6c-8.2-3.8-11.8-13.7-8-22Z" fill="#07723b" stroke-width="0"/>
                <path d="M596.1,389.7v-.2l17.4,4.7c8.8,2.4,14,11.5,11.6,20.3v.2l-17.4-4.7c-8.8-2.4-14.1-11.5-11.6-20.3Z" fill="#06a54d" stroke-width="0"/>
              </g>
              <g>
                <path d="M497,414.8v-.2l17.5,4.5c8.8,2.3,14.2,11.3,11.9,20.2v.2l-17.5-4.5c-8.9-2.3-14.2-11.4-11.9-20.2Z" fill="#f4b31b" stroke-width="0"/>
                <path d="M476,363.6h0l9.9,5c5,2.6,7,8.7,4.4,13.7v.1l-9.9-5c-5-2.7-7-8.8-4.4-13.8Z" fill="#f9ce7c" stroke-width="0"/>
                <path d="M400.1,318.9h0l9.4,1.8c4.7.9,7.8,5.5,6.9,10.3v.1l-9.4-1.8c-4.7-1-7.8-5.6-6.9-10.4Z" fill="#f4b31b" stroke-width="0"/>
                <path d="M528.9,413.6l.1-.2,17.1,5.9c8.6,3,13.2,12.4,10.2,21l-.1.2-17.1-5.9c-8.6-2.9-13.2-12.3-10.2-21Z" fill="#a4d7b7" stroke-width="0"/>
                <path d="M472.5,430.2h0l12.3,5c6.2,2.6,9.2,9.7,6.6,15.9v.1l-12.3-5.1c-6.2-2.6-9.2-9.7-6.6-15.9Z" fill="#f9ce7c" stroke-width="0"/>
                <path d="M400.6,409.4l.1-.2,16.6,7c8.4,3.6,12.3,13.3,8.8,21.7l-.1.2-16.6-7c-8.4-3.6-12.4-13.3-8.8-21.7Z" fill="#07723b" stroke-width="0"/>
                <path d="M516.8,361.5v-.2l17.7,3.5c9,1.8,14.8,10.5,13,19.5v.2l-17.7-3.5c-8.9-1.8-14.8-10.5-13-19.5Z" fill="#f4b31b" stroke-width="0"/>
                <path d="M482.7,347.7v-.2l17.2,5.3c8.7,2.7,13.6,12,10.9,20.7v.2l-17.2-5.3c-8.7-2.7-13.6-12-10.9-20.7Z" fill="#26a8e0" stroke-width="0"/>
                <path d="M408.7,334l.1-.2,16.9,6.3c8.6,3.2,12.9,12.7,9.7,21.3l-.1.2-16.9-6.3c-8.6-3.2-12.9-12.7-9.7-21.3Z" fill="#aed2ac" stroke-width="0"/>
                <path d="M497,376.3v-.2l17.9,2.6c9,1.3,15.3,9.7,14,18.8v.2l-17.9-2.6c-9.1-1.3-15.3-9.8-14-18.8Z" fill="#12733b" stroke-width="0"/>
                <path d="M494.7,392.4h0l10.1,6.2c5.1,3.2,6.6,9.9,3.4,14.9l-.1.1-10-6.3c-5-3.1-6.5-9.8-3.4-14.9Z" fill="#12733b" stroke-width="0"/>
                <path d="M439.1,401.3v-.1l13.8,3.4c7,1.7,11.3,8.8,9.5,15.8v.1l-13.8-3.4c-7-1.7-11.3-8.8-9.5-15.8Z" fill="#06a54d" stroke-width="0"/>
                <path d="M511.4,398.4h0l8.2,2.6c4.1,1.4,6.4,5.8,5,9.9v.1l-8.2-2.7c-4.1-1.3-6.3-5.8-5-9.9Z" fill="#06a54d" stroke-width="0"/>
                <path d="M398,369.3v-.2l17.7,3.5c9,1.8,14.8,10.5,13,19.5v.2l-17.7-3.5c-9-1.8-14.8-10.6-13-19.5Z" fill="#f9ce7c" stroke-width="0"/>
                <path d="M424,363.4v-.2l17.8,3.1c9,1.6,15,10.2,13.5,19.1v.2l-17.8-3.1c-9.1-1.6-15.1-10.1-13.5-19.1Z" fill="#b1d5f1" stroke-width="0"/>
                <path d="M422.9,312.3l.1-.1,16,8.3c8.1,4.2,11.3,14.2,7.1,22.3l-.1.1-16-8.3c-8.1-4.2-11.3-14.2-7.1-22.3Z" fill="#63b5e5" stroke-width="0"/>
                <path d="M447.1,390.4h0l8.8,2.2c4.5,1.1,7.2,5.7,6,10.1v.1l-8.8-2.2c-4.5-1.2-7.2-5.8-6-10.2Z" fill="#a4d7b7" stroke-width="0"/>
                <path d="M530.8,323.5h0l8.2,4c4.1,2.1,5.8,7.1,3.7,11.2v.1l-8.1-4.1c-4.2-2.1-5.9-7.1-3.8-11.2Z" fill="#a4d7b7" stroke-width="0"/>
                <path d="M453.6,337.1h0l8.8,2.1c4.4,1.1,7.1,5.6,6,10.1v.1l-8.7-2.2c-4.5-1.1-7.2-5.6-6.1-10.1Z" fill="#a4d7b7" stroke-width="0"/>
                <path d="M535.3,390.5v-.2l17.7,3.5c9,1.8,14.8,10.5,13,19.5v.2l-17.7-3.5c-9-1.9-14.8-10.6-13-19.5Z" fill="#06a54d" stroke-width="0"/>
                <path d="M440.8,348.1v-.2l17.7,3.5c9,1.8,14.8,10.5,13,19.5v.2l-17.7-3.5c-8.9-1.8-14.7-10.5-13-19.5Z" fill="#06a54d" stroke-width="0"/>
                <path d="M487.1,324.4v-.2l17.3,5c8.8,2.5,13.8,11.7,11.3,20.5v.2l-17.3-5c-8.7-2.5-13.8-11.7-11.3-20.5Z" fill="#b1d5f1" stroke-width="0"/>
                <path d="M370.5,376.7v-.2l17.7,3.5c9,1.8,14.8,10.5,13,19.5v.2l-17.7-3.5c-8.9-1.8-14.8-10.5-13-19.5Z" fill="#06a54d" stroke-width="0"/>
                <path d="M381.3,339.4l.1-.2,16.9,6.3c8.6,3.2,12.9,12.7,9.8,21.3l-.1.2-16.9-6.3c-8.6-3.2-13-12.7-9.8-21.3Z" fill="#06a54d" stroke-width="0"/>
                <path d="M462.9,375.6l.1-.1,16,8.5c8.1,4.3,11.2,14.3,6.9,22.4l-.1.1-16-8.5c-8.1-4.3-11.1-14.4-6.9-22.4Z" fill="#26a8e0" stroke-width="0"/>
                <path d="M467,403.1l.1-.1,16,8.5c8.1,4.3,11.2,14.3,6.9,22.4l-.1.1-16-8.5c-8.1-4.3-11.2-14.3-6.9-22.4Z" fill="#26a8e0" stroke-width="0"/>
                <path d="M407.6,391.1l.1-.2,17,6.2c8.6,3.1,13,12.6,9.9,21.2l-.1.2-17-6.2c-8.6-3.1-13-12.7-9.9-21.2Z" fill="#26a8e0" stroke-width="0"/>
                <path d="M431.2,438h0l9.5,3.4c4.8,1.7,7.3,7,5.5,11.8v.1l-9.5-3.4c-4.8-1.8-7.3-7.1-5.5-11.9Z" fill="#26a8e0" stroke-width="0"/>
                <path d="M456,313.6l.1-.1,16.4,7.6c8.3,3.9,11.9,13.7,8,22l-.1.1-16.4-7.6c-8.2-3.9-11.8-13.7-8-22Z" fill="#07723b" stroke-width="0"/>
                <path d="M440,288.6v-.2l17.4,4.7c8.8,2.4,14,11.5,11.6,20.3v.2l-17.4-4.7c-8.8-2.4-14-11.5-11.6-20.3Z" fill="#06a54d" stroke-width="0"/>
                <path d="M498.8,303.9l.1-.2,16.7,6.9c8.4,3.5,12.5,13.1,9,21.6l-.1.2-16.7-6.9c-8.4-3.5-12.5-13.2-9-21.6Z" fill="#06a54d" stroke-width="0"/>
              </g>
              <g>
                <path d="M340.9,448.5v-.2l17.5,4.5c8.8,2.3,14.2,11.3,11.9,20.2v.2l-17.5-4.5c-8.9-2.3-14.2-11.4-11.9-20.2Z" fill="#f4b31b" stroke-width="0"/>
                <path d="M319.9,397.4h0l9.9,5c5,2.6,7,8.7,4.4,13.7v.1l-9.9-5c-5-2.7-6.9-8.9-4.4-13.8Z" fill="#f9ce7c" stroke-width="0"/>
                <path d="M244,352.6h0l9.4,1.8c4.7.9,7.8,5.5,6.9,10.3v.1l-9.4-1.8c-4.7-1-7.8-5.6-6.9-10.4Z" fill="#f4b31b" stroke-width="0"/>
                <path d="M372.8,447.4l.1-.2,17.1,5.9c8.6,3,13.2,12.4,10.2,21l-.1.2-17.1-5.9c-8.6-3-13.2-12.4-10.2-21Z" fill="#a4d7b7" stroke-width="0"/>
                <path d="M316.4,463.9v-.1l12.3,5.1c6.2,2.6,9.2,9.7,6.6,15.9v.1l-12.3-5.1c-6.2-2.6-9.2-9.7-6.6-15.9Z" fill="#f9ce7c" stroke-width="0"/>
                <path d="M244.5,443.1l.1-.2,16.6,7c8.4,3.6,12.3,13.3,8.8,21.7l-.1.2-16.6-7c-8.4-3.5-12.4-13.3-8.8-21.7Z" fill="#07723b" stroke-width="0"/>
                <path d="M360.7,395.2v-.2l17.7,3.5c9,1.8,14.8,10.5,13,19.5v.2l-17.7-3.5c-8.9-1.8-14.8-10.5-13-19.5Z" fill="#f4b31b" stroke-width="0"/>
                <path d="M326.6,381.4v-.2l17.2,5.3c8.7,2.7,13.6,12,10.9,20.7v.2l-17.2-5.3c-8.7-2.7-13.6-11.9-10.9-20.7Z" fill="#26a8e0" stroke-width="0"/>
                <path d="M252.6,367.7l.1-.2,16.9,6.3c8.6,3.2,12.9,12.7,9.7,21.3l-.1.2-16.9-6.3c-8.5-3.2-12.9-12.7-9.7-21.3Z" fill="#aed2ac" stroke-width="0"/>
                <path d="M340.9,410v-.2l17.9,2.6c9,1.3,15.3,9.7,14,18.8v.2l-17.9-2.6c-9-1.3-15.3-9.7-14-18.8Z" fill="#12733b" stroke-width="0"/>
                <path d="M338.7,426.1h0l10.1,6.2c5.1,3.2,6.6,9.9,3.4,14.9l-.1.1-10-6.3c-5.1-3.1-6.6-9.8-3.4-14.9Z" fill="#12733b" stroke-width="0"/>
                <path d="M283,435.1v-.1l13.8,3.4c7,1.7,11.3,8.8,9.5,15.8v.1l-13.8-3.4c-7-1.8-11.3-8.9-9.5-15.8Z" fill="#06a54d" stroke-width="0"/>
                <path d="M355.3,432.1h0l8.2,2.6c4.1,1.4,6.4,5.8,5,9.9v.1l-8.2-2.7c-4.1-1.3-6.3-5.8-5-9.9Z" fill="#06a54d" stroke-width="0"/>
                <path d="M241.9,403v-.2l17.7,3.5c9,1.8,14.8,10.5,13,19.5v.2l-17.7-3.5c-9-1.8-14.8-10.6-13-19.5Z" fill="#f9ce7c" stroke-width="0"/>
                <path d="M267.9,397.1v-.2l17.8,3.1c9,1.6,15,10.2,13.5,19.1v.2l-17.8-3.1c-9.1-1.5-15.1-10.1-13.5-19.1Z" fill="#b1d5f1" stroke-width="0"/>
                <path d="M266.8,346l.1-.1,16,8.3c8.1,4.2,11.3,14.2,7.1,22.3l-.1.1-16-8.3c-8.1-4.2-11.3-14.2-7.1-22.3Z" fill="#63b5e5" stroke-width="0"/>
                <path d="M291,424.1h0l8.8,2.2c4.5,1.1,7.2,5.7,6,10.1v.1l-8.8-2.2c-4.5-1.2-7.2-5.8-6-10.2Z" fill="#a4d7b7" stroke-width="0"/>
                <path d="M374.7,357.2h0l8.2,4c4.1,2.1,5.8,7.1,3.7,11.2v.1l-8.1-4.1c-4.2-2.1-5.9-7.1-3.8-11.2Z" fill="#a4d7b7" stroke-width="0"/>
                <path d="M297.6,370.8h0l8.8,2.1c4.4,1.1,7.1,5.6,6,10.1v.1l-8.7-2.2c-4.6-1.1-7.3-5.6-6.1-10.1Z" fill="#a4d7b7" stroke-width="0"/>
                <path d="M379.2,424.2v-.2l17.7,3.5c9,1.8,14.8,10.5,13,19.5v.2l-17.7-3.5c-9-1.8-14.8-10.6-13-19.5Z" fill="#06a54d" stroke-width="0"/>
                <path d="M284.8,381.9v-.2l17.7,3.5c9,1.8,14.8,10.5,13,19.5v.2l-17.7-3.5c-9-1.9-14.8-10.6-13-19.5Z" fill="#06a54d" stroke-width="0"/>
                <path d="M331.1,358.1v-.2l17.3,5c8.8,2.5,13.8,11.7,11.3,20.5v.2l-17.3-5c-8.8-2.5-13.9-11.7-11.3-20.5Z" fill="#b1d5f1" stroke-width="0"/>
                <path d="M214.5,410.4v-.2l17.7,3.5c9,1.8,14.8,10.5,13,19.5v.2l-17.7-3.5c-9-1.8-14.8-10.5-13-19.5Z" fill="#06a54d" stroke-width="0"/>
                <path d="M225.2,373.1l.1-.2,16.9,6.3c8.6,3.2,12.9,12.7,9.8,21.3l-.1.2-16.9-6.3c-8.6-3.2-13-12.7-9.8-21.3Z" fill="#06a54d" stroke-width="0"/>
                <path d="M306.9,409.3l.1-.1,16,8.5c8.1,4.3,11.2,14.3,6.9,22.4l-.1.1-16-8.5c-8.1-4.3-11.2-14.3-6.9-22.4Z" fill="#26a8e0" stroke-width="0"/>
                <path d="M310.9,436.8l.1-.1,16,8.5c8.1,4.3,11.2,14.3,6.9,22.4l-.1.1-16-8.5c-8.1-4.3-11.2-14.3-6.9-22.4Z" fill="#26a8e0" stroke-width="0"/>
                <path d="M251.5,424.8l.1-.2,17,6.2c8.6,3.1,13,12.6,9.9,21.2l-.1.2-17-6.2c-8.6-3.1-13-12.6-9.9-21.2Z" fill="#26a8e0" stroke-width="0"/>
                <path d="M275.1,471.7h0l9.5,3.4c4.8,1.7,7.3,7,5.5,11.8v.1l-9.5-3.4c-4.8-1.8-7.3-7.1-5.5-11.9Z" fill="#26a8e0" stroke-width="0"/>
                <path d="M300,347.3l.1-.1,16.4,7.6c8.3,3.9,11.9,13.7,8,22l-.1.1-16.4-7.6c-8.3-3.8-11.9-13.7-8-22Z" fill="#07723b" stroke-width="0"/>
                <path d="M283.9,322.3v-.2l17.4,4.7c8.8,2.4,14,11.5,11.6,20.3v.2l-17.4-4.7c-8.8-2.4-14-11.5-11.6-20.3Z" fill="#06a54d" stroke-width="0"/>
                <path d="M342.7,337.6l.1-.2,16.7,6.9c8.4,3.5,12.5,13.1,9,21.6l-.1.2-16.7-6.9c-8.4-3.5-12.5-13.2-9-21.6Z" fill="#06a54d" stroke-width="0"/>
              </g>
              <g>
                <path d="M184.8,482.2v-.2l17.5,4.5c8.8,2.3,14.2,11.3,11.9,20.2v.2l-17.5-4.5c-8.9-2.3-14.2-11.3-11.9-20.2Z" fill="#f4b31b" stroke-width="0"/>
                <path d="M163.8,431.1h0l9.9,5c5,2.6,7,8.7,4.4,13.7v.1l-9.9-5c-5-2.7-6.9-8.8-4.4-13.8Z" fill="#f9ce7c" stroke-width="0"/>
                <path d="M87.9,386.4h0l9.4,1.8c4.7.9,7.8,5.5,6.9,10.3v.1l-9.4-1.8c-4.7-1.1-7.8-5.7-6.9-10.4Z" fill="#f4b31b" stroke-width="0"/>
                <path d="M216.7,481.1l.1-.2,17.1,5.9c8.6,3,13.2,12.4,10.2,21l-.1.2-17.1-5.9c-8.6-3-13.2-12.4-10.2-21Z" fill="#a4d7b7" stroke-width="0"/>
                <path d="M160.3,497.6h0l12.3,5c6.2,2.6,9.2,9.7,6.6,15.9v.1l-12.3-5.1c-6.2-2.6-9.1-9.7-6.6-15.9Z" fill="#f9ce7c" stroke-width="0"/>
                <path d="M88.4,476.8l.1-.2,16.6,7c8.4,3.6,12.3,13.3,8.8,21.7l-.1.2-16.6-7c-8.4-3.5-12.3-13.3-8.8-21.7Z" fill="#07723b" stroke-width="0"/>
                <path d="M204.7,428.9v-.2l17.7,3.5c9,1.8,14.8,10.5,13,19.5v.2l-17.7-3.5c-9-1.8-14.8-10.5-13-19.5Z" fill="#f4b31b" stroke-width="0"/>
                <path d="M170.6,415.1v-.2l17.2,5.3c8.7,2.7,13.6,12,10.9,20.7v.2l-17.2-5.3c-8.8-2.7-13.6-11.9-10.9-20.7Z" fill="#26a8e0" stroke-width="0"/>
                <path d="M96.5,401.4l.1-.2,16.9,6.3c8.6,3.2,12.9,12.7,9.7,21.3l-.1.2-16.9-6.3c-8.5-3.2-12.9-12.7-9.7-21.3Z" fill="#aed2ac" stroke-width="0"/>
                <path d="M184.8,443.7v-.2l17.9,2.6c9,1.3,15.3,9.7,14,18.8v.2l-17.9-2.6c-9-1.3-15.3-9.7-14-18.8Z" fill="#12733b" stroke-width="0"/>
                <path d="M182.6,459.8h0l10.1,6.2c5.1,3.2,6.6,9.9,3.4,14.9l-.1.1-10-6.3c-5.1-3.1-6.6-9.8-3.4-14.9Z" fill="#12733b" stroke-width="0"/>
                <path d="M126.9,468.8v-.1l13.8,3.4c7,1.7,11.3,8.8,9.5,15.8v.1l-13.8-3.4c-7-1.8-11.2-8.8-9.5-15.8Z" fill="#06a54d" stroke-width="0"/>
                <path d="M199.2,465.8h0l8.2,2.6c4.1,1.4,6.4,5.8,5,9.9v.1l-8.2-2.7c-4.1-1.3-6.3-5.7-5-9.9Z" fill="#06a54d" stroke-width="0"/>
                <path d="M85.8,436.7v-.2l17.7,3.5c9,1.8,14.8,10.5,13,19.5v.2l-17.7-3.5c-9-1.8-14.8-10.5-13-19.5Z" fill="#f9ce7c" stroke-width="0"/>
                <path d="M111.8,430.8v-.2l17.8,3.1c9,1.6,15,10.2,13.5,19.1v.2l-17.8-3.1c-9.1-1.5-15.1-10.1-13.5-19.1Z" fill="#b1d5f1" stroke-width="0"/>
                <path d="M110.7,379.7l.1-.1,16,8.3c8.1,4.2,11.3,14.2,7.1,22.3l-.1.1-16-8.3c-8.1-4.2-11.3-14.2-7.1-22.3Z" fill="#63b5e5" stroke-width="0"/>
                <path d="M134.9,457.8h0l8.8,2.2c4.5,1.1,7.2,5.7,6,10.1v.1l-8.8-2.2c-4.4-1.2-7.1-5.7-6-10.2Z" fill="#a4d7b7" stroke-width="0"/>
                <path d="M218.6,390.9h0l8.2,4c4.1,2.1,5.8,7.1,3.7,11.2v.1l-8.1-4.1c-4.2-2.1-5.9-7.1-3.8-11.2Z" fill="#a4d7b7" stroke-width="0"/>
                <path d="M141.5,404.6h0l8.8,2.1c4.4,1.1,7.1,5.6,6,10.1v.1l-8.7-2.2c-4.6-1.2-7.3-5.7-6.1-10.1Z" fill="#a4d7b7" stroke-width="0"/>
                <path d="M223.1,457.9v-.2l17.7,3.5c9,1.8,14.8,10.5,13,19.5v.2l-17.7-3.5c-9-1.8-14.8-10.6-13-19.5Z" fill="#06a54d" stroke-width="0"/>
                <path d="M128.7,415.6v-.2l17.7,3.5c9,1.8,14.8,10.5,13,19.5v.2l-17.7-3.5c-9-1.9-14.8-10.6-13-19.5Z" fill="#06a54d" stroke-width="0"/>
                <path d="M175,391.8v-.2l17.3,5c8.8,2.5,13.8,11.7,11.3,20.5v.2l-17.3-5c-8.8-2.5-13.9-11.7-11.3-20.5Z" fill="#b1d5f1" stroke-width="0"/>
                <path d="M58.4,444.1v-.2l17.7,3.5c9,1.8,14.8,10.5,13,19.5v.2l-17.7-3.5c-9-1.8-14.8-10.5-13-19.5Z" fill="#06a54d" stroke-width="0"/>
                <path d="M69.1,406.8l.1-.2,16.9,6.3c8.6,3.2,12.9,12.7,9.8,21.3l-.1.2-16.9-6.3c-8.6-3.2-13-12.7-9.8-21.3Z" fill="#06a54d" stroke-width="0"/>
                <path d="M150.8,443l.1-.1,16,8.5c8.1,4.3,11.2,14.3,6.9,22.4l-.1.1-16-8.5c-8.1-4.3-11.2-14.3-6.9-22.4Z" fill="#26a8e0" stroke-width="0"/>
                <path d="M154.8,470.5l.1-.1,16,8.5c8.1,4.3,11.2,14.3,6.9,22.4l-.1.1-16-8.5c-8.1-4.3-11.2-14.3-6.9-22.4Z" fill="#26a8e0" stroke-width="0"/>
                <path d="M95.4,458.5l.1-.2,17,6.2c8.6,3.1,13,12.6,9.9,21.2l-.1.2-17-6.2c-8.6-3.1-13-12.6-9.9-21.2Z" fill="#26a8e0" stroke-width="0"/>
                <path d="M119,505.4h0l9.5,3.4c4.8,1.7,7.3,7,5.5,11.8v.1l-9.5-3.4c-4.8-1.8-7.3-7.1-5.5-11.9Z" fill="#26a8e0" stroke-width="0"/>
                <path d="M143.9,381l.1-.1,16.4,7.6c8.3,3.9,11.9,13.7,8,22l-.1.1-16.4-7.6c-8.3-3.8-11.9-13.7-8-22Z" fill="#07723b" stroke-width="0"/>
                <path d="M127.8,356v-.2l17.4,4.7c8.8,2.4,14,11.5,11.6,20.3v.2l-17.4-4.7c-8.8-2.4-14-11.5-11.6-20.3Z" fill="#06a54d" stroke-width="0"/>
                <path d="M186.6,371.3l.1-.2,16.7,6.9c8.4,3.5,12.5,13.1,9,21.6l-.1.2-16.7-6.9c-8.4-3.5-12.5-13.1-9-21.6Z" fill="#06a54d" stroke-width="0"/>
              </g>
              <g>
                <path d="M28.7,515.9v-.2l17.5,4.5c8.8,2.3,14.2,11.3,11.9,20.2v.2l-17.5-4.5c-8.8-2.3-14.2-11.3-11.9-20.2Z" fill="#f4b31b" stroke-width="0"/>
                <path d="M7.7,464.8h0l9.9,5c5,2.6,7,8.7,4.4,13.7v.1l-9.9-5c-4.9-2.7-6.9-8.8-4.4-13.8Z" fill="#f9ce7c" stroke-width="0"/>
                <path d="M60.6,514.8l.1-.2,17.1,5.9c8.6,3,13.2,12.4,10.2,21l-.1.2-17.1-5.9c-8.6-3-13.2-12.4-10.2-21Z" fill="#a4d7b7" stroke-width="0"/>
                <path d="M4.2,531.3h0l12.3,5c6.2,2.6,9.2,9.7,6.6,15.9v.1l-12.3-5.1c-6.2-2.6-9.1-9.7-6.6-15.9Z" fill="#f9ce7c" stroke-width="0"/>
                <path d="M48.6,462.6v-.2l17.7,3.5c9,1.8,14.8,10.5,13,19.5v.2l-17.7-3.5c-9-1.8-14.8-10.5-13-19.5Z" fill="#f4b31b" stroke-width="0"/>
                <path d="M14.5,448.9v-.2l17.2,5.3c8.7,2.7,13.6,12,10.9,20.7v.2l-17.2-5.3c-8.8-2.7-13.6-12-10.9-20.7Z" fill="#26a8e0" stroke-width="0"/>
                <path d="M28.7,477.4v-.2l17.9,2.6c9,1.3,15.3,9.7,14,18.8v.2l-17.9-2.6c-9-1.3-15.3-9.7-14-18.8Z" fill="#12733b" stroke-width="0"/>
                <path d="M26.5,493.5h0l10.1,6.2c5.1,3.2,6.6,9.9,3.4,14.9l-.1.1-10-6.3c-5.1-3.1-6.6-9.8-3.4-14.9Z" fill="#12733b" stroke-width="0"/>
                <path d="M43.2,499.5h0l8.2,2.6c4.1,1.4,6.4,5.8,5,9.9v.1l-8.2-2.7c-4.2-1.3-6.4-5.7-5-9.9Z" fill="#06a54d" stroke-width="0"/>
                <path d="M62.5,424.6h0l8.2,4c4.1,2.1,5.8,7.1,3.7,11.2v.1l-8.1-4.1c-4.2-2.1-5.8-7.1-3.8-11.2Z" fill="#a4d7b7" stroke-width="0"/>
                <path d="M-14.6,438.3h0l8.8,2.1c4.4,1.1,7.1,5.6,6,10.1v.1l-8.7-2.2c-4.6-1.2-7.3-5.7-6.1-10.1Z" fill="#a4d7b7" stroke-width="0"/>
                <path d="M67,491.6v-.2l17.7,3.5c9,1.8,14.8,10.5,13,19.5v.2l-17.7-3.5c-9-1.8-14.8-10.6-13-19.5Z" fill="#06a54d" stroke-width="0"/>
                <path d="M-27.4,449.3v-.2l17.7,3.5c9,1.8,14.8,10.5,13,19.5v.2l-17.7-3.5c-9-1.8-14.8-10.6-13-19.5Z" fill="#06a54d" stroke-width="0"/>
                <path d="M18.9,425.5v-.2l17.3,5c8.8,2.5,13.8,11.7,11.3,20.5v.2l-17.3-5c-8.8-2.5-13.9-11.7-11.3-20.5Z" fill="#b1d5f1" stroke-width="0"/>
                <path d="M-5.3,476.7l.1-.1,16,8.5c8.1,4.3,11.2,14.3,6.9,22.4l-.1.1-16-8.5c-8.1-4.3-11.2-14.3-6.9-22.4Z" fill="#26a8e0" stroke-width="0"/>
                <path d="M-1.3,504.2l.1-.1,16,8.5c8.1,4.3,11.2,14.3,6.9,22.4l-.1.1-16-8.5c-8.1-4.3-11.2-14.3-6.9-22.4Z" fill="#26a8e0" stroke-width="0"/>
                <path d="M-12.2,414.7l.1-.1,16.4,7.6c8.3,3.9,11.9,13.7,8,22l-.1.1-16.4-7.6c-8.3-3.8-11.9-13.7-8-22Z" fill="#07723b" stroke-width="0"/>
                <path d="M-28.3,389.7v-.2l17.4,4.7c8.8,2.4,14,11.5,11.6,20.3v.2l-17.4-4.7c-8.8-2.4-14-11.5-11.6-20.3Z" fill="#06a54d" stroke-width="0"/>
                <path d="M30.5,405l.1-.2,16.7,6.9c8.4,3.5,12.5,13.1,9,21.6l-.1.2-16.7-6.9c-8.4-3.5-12.5-13.1-9-21.6Z" fill="#06a54d" stroke-width="0"/>
              </g>
              <g>
                <path d="M556.2,285.2h0l9.4,1.8c4.7.9,7.8,5.5,6.9,10.3v.1l-9.4-1.8c-4.7-1-7.8-5.6-6.9-10.4Z" fill="#f4b31b" stroke-width="0"/>
                <path d="M556.7,375.7l.1-.2,16.6,7c8.4,3.6,12.3,13.3,8.8,21.7l-.1.2-16.6-7c-8.4-3.6-12.4-13.3-8.8-21.7Z" fill="#07723b" stroke-width="0"/>
                <path d="M564.8,300.3l.1-.2,16.9,6.3c8.6,3.2,12.9,12.7,9.7,21.3l-.1.2-16.9-6.3c-8.6-3.2-12.9-12.8-9.7-21.3Z" fill="#aed2ac" stroke-width="0"/>
                <path d="M595.2,367.6v-.1l13.8,3.4c7,1.7,11.3,8.8,9.5,15.8v.1l-13.8-3.4c-7-1.7-11.3-8.8-9.5-15.8Z" fill="#06a54d" stroke-width="0"/>
                <path d="M554.1,335.6v-.2l17.7,3.5c9,1.8,14.8,10.5,13,19.5v.2l-17.7-3.5c-9-1.8-14.8-10.6-13-19.5Z" fill="#f9ce7c" stroke-width="0"/>
                <path d="M580.1,329.7v-.2l17.8,3.1c9,1.6,15,10.2,13.5,19.1v.2l-17.8-3.1c-9.1-1.6-15.1-10.1-13.5-19.1Z" fill="#b1d5f1" stroke-width="0"/>
                <path d="M579,278.6l.1-.1,16,8.3c8.1,4.2,11.3,14.2,7.1,22.3l-.1.1-16-8.3c-8.1-4.2-11.3-14.2-7.1-22.3Z" fill="#63b5e5" stroke-width="0"/>
                <path d="M603.2,356.7h0l8.8,2.2c4.5,1.1,7.2,5.7,6,10.1v.1l-8.8-2.2c-4.5-1.2-7.2-5.8-6-10.2Z" fill="#a4d7b7" stroke-width="0"/>
                <path d="M609.7,303.4h0l8.8,2.1c4.4,1.1,7.1,5.6,6,10.1v.1l-8.7-2.2c-4.5-1.1-7.2-5.6-6.1-10.1Z" fill="#a4d7b7" stroke-width="0"/>
                <path d="M596.9,314.4v-.2l17.7,3.5c9,1.8,14.8,10.5,13,19.5v.2l-17.7-3.5c-8.9-1.8-14.8-10.5-13-19.5Z" fill="#06a54d" stroke-width="0"/>
                <path d="M526.6,343v-.2l17.7,3.5c9,1.8,14.8,10.5,13,19.5v.2l-17.7-3.5c-8.9-1.8-14.8-10.5-13-19.5Z" fill="#06a54d" stroke-width="0"/>
                <path d="M537.4,305.7l.1-.2,16.9,6.3c8.6,3.2,12.9,12.7,9.8,21.3l-.1.2-16.9-6.3c-8.6-3.2-13-12.7-9.8-21.3Z" fill="#06a54d" stroke-width="0"/>
                <path d="M619,341.9l.1-.1,16,8.5c8.1,4.3,11.2,14.3,6.9,22.4l-.1.1-16-8.5c-8.1-4.3-11.1-14.4-6.9-22.4Z" fill="#26a8e0" stroke-width="0"/>
                <path d="M623,369.4l.1-.1,16,8.5c8.1,4.3,11.2,14.3,6.9,22.4l-.1.1-16-8.5c-8-4.3-11.1-14.3-6.9-22.4Z" fill="#26a8e0" stroke-width="0"/>
                <path d="M563.7,357.4l.1-.2,17,6.2c8.6,3.1,13,12.6,9.9,21.2l-.1.2-17-6.2c-8.6-3.2-13-12.7-9.9-21.2Z" fill="#26a8e0" stroke-width="0"/>
                <path d="M587.3,404.3h0l9.5,3.4c4.8,1.7,7.3,7,5.5,11.8v.1l-9.5-3.4c-4.8-1.8-7.3-7.1-5.5-11.9Z" fill="#26a8e0" stroke-width="0"/>
                <path d="M612.1,279.9l.1-.1,16.4,7.6c8.3,3.9,11.9,13.7,8,22l-.1.1-16.4-7.6c-8.2-3.9-11.8-13.7-8-22Z" fill="#07723b" stroke-width="0"/>
                <path d="M596.1,254.9v-.2l17.4,4.7c8.8,2.4,14,11.5,11.6,20.3v.2l-17.4-4.7c-8.8-2.4-14.1-11.5-11.6-20.3Z" fill="#06a54d" stroke-width="0"/>
              </g>
              <g>
                <path d="M497,279.9v-.2l17.5,4.5c8.8,2.3,14.2,11.3,11.9,20.2v.2l-17.5-4.5c-8.9-2.3-14.2-11.3-11.9-20.2Z" fill="#f4b31b" stroke-width="0"/>
                <path d="M476,228.8h0l9.9,5c5,2.6,7,8.7,4.4,13.7v.1l-9.9-5c-5-2.7-7-8.8-4.4-13.8Z" fill="#f9ce7c" stroke-width="0"/>
                <path d="M400.1,184.1h0l9.4,1.8c4.7.9,7.8,5.5,6.9,10.3v.1l-9.4-1.8c-4.7-1-7.8-5.7-6.9-10.4Z" fill="#f4b31b" stroke-width="0"/>
                <path d="M528.9,278.8l.1-.2,17.1,5.9c8.6,3,13.2,12.4,10.2,21l-.1.2-17.1-5.9c-8.6-2.9-13.2-12.4-10.2-21Z" fill="#a4d7b7" stroke-width="0"/>
                <path d="M472.5,295.3v-.1l12.3,5.1c6.2,2.6,9.2,9.7,6.6,15.9v.1l-12.3-5.1c-6.2-2.5-9.2-9.7-6.6-15.9Z" fill="#f9ce7c" stroke-width="0"/>
                <path d="M400.6,274.6l.1-.2,16.6,7c8.4,3.6,12.3,13.3,8.8,21.7l-.1.2-16.6-7c-8.4-3.6-12.4-13.3-8.8-21.7Z" fill="#07723b" stroke-width="0"/>
                <path d="M516.8,226.7v-.2l17.7,3.5c9,1.8,14.8,10.5,13,19.5v.2l-17.7-3.5c-8.9-1.8-14.8-10.6-13-19.5Z" fill="#f4b31b" stroke-width="0"/>
                <path d="M482.7,212.9v-.2l17.2,5.3c8.7,2.7,13.6,12,10.9,20.7v.2l-17.2-5.3c-8.7-2.7-13.6-12-10.9-20.7Z" fill="#26a8e0" stroke-width="0"/>
                <path d="M408.7,199.2l.1-.2,16.9,6.3c8.6,3.2,12.9,12.7,9.7,21.3l-.1.2-16.9-6.3c-8.6-3.2-12.9-12.8-9.7-21.3Z" fill="#aed2ac" stroke-width="0"/>
                <path d="M497,241.5v-.2l17.9,2.6c9,1.3,15.3,9.7,14,18.8v.2l-17.9-2.6c-9.1-1.4-15.3-9.8-14-18.8Z" fill="#12733b" stroke-width="0"/>
                <path d="M494.7,257.6h0l10.1,6.2c5.1,3.2,6.6,9.9,3.4,14.9l-.1.1-10-6.3c-5-3.2-6.5-9.9-3.4-14.9Z" fill="#12733b" stroke-width="0"/>
                <path d="M439.1,266.5v-.1l13.8,3.4c7,1.7,11.3,8.8,9.5,15.8v.1l-13.8-3.4c-7-1.7-11.3-8.8-9.5-15.8Z" fill="#06a54d" stroke-width="0"/>
                <path d="M511.4,263.6h0l8.2,2.6c4.1,1.4,6.4,5.8,5,9.9v.1l-8.2-2.7c-4.1-1.4-6.3-5.8-5-9.9Z" fill="#06a54d" stroke-width="0"/>
                <path d="M398,234.4v-.2l17.7,3.5c9,1.8,14.8,10.5,13,19.5v.2l-17.7-3.5c-9-1.8-14.8-10.5-13-19.5Z" fill="#f9ce7c" stroke-width="0"/>
                <path d="M424,228.5v-.2l17.8,3.1c9,1.6,15,10.2,13.5,19.1v.2l-17.8-3.1c-9.1-1.5-15.1-10.1-13.5-19.1Z" fill="#b1d5f1" stroke-width="0"/>
                <path d="M422.9,177.4l.1-.1,16,8.3c8.1,4.2,11.3,14.2,7.1,22.3l-.1.1-16-8.3c-8.1-4.2-11.3-14.2-7.1-22.3Z" fill="#63b5e5" stroke-width="0"/>
                <path d="M447.1,255.5h0l8.8,2.2c4.5,1.1,7.2,5.7,6,10.1v.1l-8.8-2.2c-4.5-1.2-7.2-5.7-6-10.2Z" fill="#a4d7b7" stroke-width="0"/>
                <path d="M530.8,188.6h0l8.2,4c4.1,2.1,5.8,7.1,3.7,11.2v.1l-8.1-4.1c-4.2-2-5.9-7.1-3.8-11.2Z" fill="#a4d7b7" stroke-width="0"/>
                <path d="M453.6,202.3h0l8.8,2.1c4.4,1.1,7.1,5.6,6,10.1v.1l-8.7-2.2c-4.5-1.2-7.2-5.7-6.1-10.1Z" fill="#a4d7b7" stroke-width="0"/>
                <path d="M535.3,255.6v-.2l17.7,3.5c9,1.8,14.8,10.5,13,19.5v.2l-17.7-3.5c-9-1.8-14.8-10.5-13-19.5Z" fill="#06a54d" stroke-width="0"/>
                <path d="M440.8,213.3v-.2l17.7,3.5c9,1.8,14.8,10.5,13,19.5v.2l-17.7-3.5c-8.9-1.8-14.7-10.5-13-19.5Z" fill="#06a54d" stroke-width="0"/>
                <path d="M487.1,189.6v-.2l17.3,5c8.8,2.5,13.8,11.7,11.3,20.5v.2l-17.3-5c-8.7-2.6-13.8-11.8-11.3-20.5Z" fill="#b1d5f1" stroke-width="0"/>
                <path d="M370.5,241.9v-.2l17.7,3.5c9,1.8,14.8,10.5,13,19.5v.2l-17.7-3.5c-8.9-1.9-14.8-10.6-13-19.5Z" fill="#06a54d" stroke-width="0"/>
                <path d="M381.3,204.6l.1-.2,16.9,6.3c8.6,3.2,12.9,12.7,9.8,21.3l-.1.2-16.9-6.3c-8.6-3.2-13-12.8-9.8-21.3Z" fill="#06a54d" stroke-width="0"/>
                <path d="M462.9,240.7l.1-.1,16,8.5c8.1,4.3,11.2,14.3,6.9,22.4l-.1.1-16-8.5c-8.1-4.3-11.1-14.3-6.9-22.4Z" fill="#26a8e0" stroke-width="0"/>
                <path d="M467,268.3l.1-.1,16,8.5c8,4.2,11,14.2,6.8,22.2l-.1.1-16-8.5c-8-4.1-11.1-14.2-6.8-22.2Z" fill="#26a8e0" stroke-width="0"/>
                <path d="M407.6,256.2l.1-.2,17,6.2c8.6,3.1,13,12.6,9.9,21.2l-.1.2-17-6.2c-8.6-3.1-13-12.6-9.9-21.2Z" fill="#26a8e0" stroke-width="0"/>
                <path d="M431.2,303.1h0l9.5,3.4c4.8,1.7,7.3,7,5.5,11.8v.1l-9.5-3.4c-4.8-1.8-7.3-7.1-5.5-11.9Z" fill="#26a8e0" stroke-width="0"/>
                <path d="M456,178.8l.1-.1,16.4,7.6c8.3,3.9,11.9,13.7,8,22l-.1.1-16.4-7.6c-8.2-3.9-11.8-13.7-8-22Z" fill="#07723b" stroke-width="0"/>
                <path d="M440,153.7v-.2l17.4,4.7c8.8,2.4,14,11.5,11.6,20.3v.2l-17.4-4.7c-8.8-2.3-14-11.4-11.6-20.3Z" fill="#06a54d" stroke-width="0"/>
                <path d="M498.8,169l.1-.2,16.7,6.9c8.4,3.5,12.5,13.1,9,21.6l-.1.2-16.7-6.9c-8.4-3.4-12.5-13.1-9-21.6Z" fill="#06a54d" stroke-width="0"/>
              </g>
              <g>
                <path d="M340.9,313.7v-.2l17.5,4.5c8.8,2.3,14.2,11.3,11.9,20.2v.2l-17.5-4.5c-8.9-2.4-14.2-11.4-11.9-20.2Z" fill="#f4b31b" stroke-width="0"/>
                <path d="M319.9,262.5h0l9.9,5c5,2.6,7,8.7,4.4,13.7v.1l-9.9-5c-5-2.7-6.9-8.8-4.4-13.8Z" fill="#f9ce7c" stroke-width="0"/>
                <path d="M244,217.8h0l9.4,1.8c4.7.9,7.8,5.5,6.9,10.3v.1l-9.4-1.8c-4.7-1-7.8-5.6-6.9-10.4Z" fill="#f4b31b" stroke-width="0"/>
                <path d="M372.8,312.5l.1-.2,17.1,5.9c8.6,3,13.2,12.4,10.2,21l-.1.2-17.1-5.9c-8.6-2.9-13.2-12.4-10.2-21Z" fill="#a4d7b7" stroke-width="0"/>
                <path d="M316.4,329v-.1l12.3,5.1c6.2,2.6,9.2,9.7,6.6,15.9v.1l-12.3-5.1c-6.2-2.5-9.2-9.7-6.6-15.9Z" fill="#f9ce7c" stroke-width="0"/>
                <path d="M244.5,308.3l.1-.2,16.6,7c8.4,3.6,12.3,13.3,8.8,21.7l-.1.2-16.6-7c-8.4-3.6-12.4-13.3-8.8-21.7Z" fill="#07723b" stroke-width="0"/>
                <path d="M360.7,260.4v-.2l17.7,3.5c9,1.8,14.8,10.5,13,19.5v.2l-17.7-3.5c-8.9-1.8-14.8-10.6-13-19.5Z" fill="#f4b31b" stroke-width="0"/>
                <path d="M326.6,246.6v-.2l17.2,5.3c8.7,2.7,13.6,12,10.9,20.7v.2l-17.2-5.3c-8.7-2.7-13.6-12-10.9-20.7Z" fill="#26a8e0" stroke-width="0"/>
                <path d="M252.6,232.9l.1-.2,16.9,6.3c8.6,3.2,12.9,12.7,9.7,21.3l-.1.2-16.9-6.3c-8.5-3.2-12.9-12.8-9.7-21.3Z" fill="#aed2ac" stroke-width="0"/>
                <path d="M340.9,275.2v-.2l17.9,2.6c9,1.3,15.3,9.7,14,18.8v.2l-17.9-2.6c-9-1.4-15.3-9.8-14-18.8Z" fill="#12733b" stroke-width="0"/>
                <path d="M338.7,291.3h0l10.1,6.2c5.1,3.2,6.6,9.9,3.4,14.9l-.1.1-10-6.3c-5.1-3.2-6.6-9.9-3.4-14.9Z" fill="#12733b" stroke-width="0"/>
                <path d="M283,300.2v-.1l13.8,3.4c7,1.7,11.3,8.8,9.5,15.8v.1l-13.8-3.4c-7-1.7-11.3-8.8-9.5-15.8Z" fill="#06a54d" stroke-width="0"/>
                <path d="M355.3,297.3h0l8.2,2.6c4.1,1.4,6.4,5.8,5,9.9v.1l-8.2-2.7c-4.1-1.3-6.3-5.8-5-9.9Z" fill="#06a54d" stroke-width="0"/>
                <path d="M241.9,268.1v-.2l17.7,3.5c9,1.8,14.8,10.5,13,19.5v.2l-17.7-3.5c-9-1.8-14.8-10.5-13-19.5Z" fill="#f9ce7c" stroke-width="0"/>
                <path d="M267.9,262.2v-.2l17.8,3.1c9,1.6,15,10.2,13.5,19.1v.2l-17.8-3.1c-9.1-1.5-15.1-10.1-13.5-19.1Z" fill="#b1d5f1" stroke-width="0"/>
                <path d="M266.8,211.1l.1-.1,16,8.3c8.1,4.2,11.3,14.2,7.1,22.3l-.1.1-16-8.3c-8.1-4.2-11.3-14.1-7.1-22.3Z" fill="#63b5e5" stroke-width="0"/>
                <path d="M291,289.2h0l8.8,2.2c4.5,1.1,7.2,5.7,6,10.1v.1l-8.8-2.2c-4.5-1.2-7.2-5.7-6-10.2Z" fill="#a4d7b7" stroke-width="0"/>
                <path d="M374.7,222.3h0l8.2,4c4.1,2.1,5.8,7.1,3.7,11.2v.1l-8.1-4.1c-4.2-2-5.9-7-3.8-11.2Z" fill="#a4d7b7" stroke-width="0"/>
                <path d="M297.6,236h0l8.8,2.1c4.4,1.1,7.1,5.6,6,10.1v.1l-8.7-2.2c-4.6-1.2-7.3-5.7-6.1-10.1Z" fill="#a4d7b7" stroke-width="0"/>
                <path d="M379.2,289.3v-.2l17.7,3.5c9,1.8,14.8,10.5,13,19.5v.2l-17.7-3.5c-9-1.8-14.8-10.5-13-19.5Z" fill="#06a54d" stroke-width="0"/>
                <path d="M284.8,247v-.2l17.7,3.5c9,1.8,14.8,10.5,13,19.5v.2l-17.7-3.5c-9-1.8-14.8-10.5-13-19.5Z" fill="#06a54d" stroke-width="0"/>
                <path d="M331.1,223.3v-.2l17.3,5c8.8,2.5,13.8,11.7,11.3,20.5v.2l-17.3-5c-8.8-2.6-13.9-11.8-11.3-20.5Z" fill="#b1d5f1" stroke-width="0"/>
                <path d="M214.5,275.6v-.2l17.7,3.5c9,1.8,14.8,10.5,13,19.5v.2l-17.7-3.5c-9-1.8-14.8-10.6-13-19.5Z" fill="#06a54d" stroke-width="0"/>
                <path d="M225.2,238.3l.1-.2,16.9,6.3c8.6,3.2,12.9,12.7,9.8,21.3l-.1.2-16.9-6.3c-8.6-3.2-13-12.7-9.8-21.3Z" fill="#06a54d" stroke-width="0"/>
                <path d="M306.9,274.4l.1-.1,16,8.5c8.1,4.3,11.2,14.3,6.9,22.4l-.1.1-16-8.5c-8.1-4.3-11.2-14.3-6.9-22.4Z" fill="#26a8e0" stroke-width="0"/>
                <path d="M310.9,302l.1-.1,16,8.5c8.1,4.3,11.2,14.3,6.9,22.4l-.1.1-16-8.5c-8.1-4.3-11.2-14.3-6.9-22.4Z" fill="#26a8e0" stroke-width="0"/>
                <path d="M251.5,289.9l.1-.2,17,6.2c8.6,3.1,13,12.6,9.9,21.2l-.1.2-17-6.2c-8.6-3.1-13-12.6-9.9-21.2Z" fill="#26a8e0" stroke-width="0"/>
                <path d="M275.1,336.9h0l9.5,3.4c4.8,1.7,7.3,7,5.5,11.8v.1l-9.5-3.4c-4.8-1.9-7.3-7.2-5.5-11.9Z" fill="#26a8e0" stroke-width="0"/>
                <path d="M300,212.5l.1-.1,16.4,7.6c8.3,3.9,11.9,13.7,8,22l-.1.1-16.4-7.6c-8.3-3.9-11.9-13.7-8-22Z" fill="#07723b" stroke-width="0"/>
                <path d="M283.9,187.5v-.2l17.4,4.7c8.8,2.4,14,11.5,11.6,20.3v.2l-17.4-4.7c-8.8-2.4-14-11.5-11.6-20.3Z" fill="#06a54d" stroke-width="0"/>
                <path d="M342.7,202.8l.1-.2,16.7,6.9c8.4,3.5,12.5,13.1,9,21.6l-.1.2-16.7-6.9c-8.4-3.5-12.5-13.2-9-21.6Z" fill="#06a54d" stroke-width="0"/>
              </g>
              <g>
                <path d="M184.8,347.4v-.2l17.5,4.5c8.8,2.3,14.2,11.3,11.9,20.2v.2l-17.5-4.5c-8.9-2.4-14.2-11.4-11.9-20.2Z" fill="#f4b31b" stroke-width="0"/>
                <path d="M163.8,296.2h0l9.9,5c5,2.6,7,8.7,4.4,13.7v.1l-9.9-5c-5-2.7-6.9-8.8-4.4-13.8Z" fill="#f9ce7c" stroke-width="0"/>
                <path d="M87.9,251.5h0l9.4,1.8c4.7.9,7.8,5.5,6.9,10.3v.1l-9.4-1.8c-4.7-1-7.8-5.6-6.9-10.4Z" fill="#f4b31b" stroke-width="0"/>
                <path d="M216.7,346.2l.1-.2,17.1,5.9c8.6,3,13.2,12.4,10.2,21l-.1.2-17.1-5.9c-8.6-2.9-13.2-12.3-10.2-21Z" fill="#a4d7b7" stroke-width="0"/>
                <path d="M160.3,362.7h0l12.3,5c6.2,2.6,9.2,9.7,6.6,15.9v.1l-12.3-5.1c-6.2-2.5-9.1-9.6-6.6-15.9Z" fill="#f9ce7c" stroke-width="0"/>
                <path d="M88.4,342l.1-.2,16.6,7c8.4,3.6,12.3,13.3,8.8,21.7l-.1.2-16.6-7c-8.4-3.6-12.3-13.3-8.8-21.7Z" fill="#07723b" stroke-width="0"/>
                <path d="M204.7,294.1v-.2l17.7,3.5c9,1.8,14.8,10.5,13,19.5v.2l-17.7-3.5c-9-1.8-14.8-10.6-13-19.5Z" fill="#f4b31b" stroke-width="0"/>
                <path d="M170.6,280.3v-.2l17.2,5.3c8.7,2.7,13.6,12,10.9,20.7v.2l-17.2-5.3c-8.8-2.7-13.6-12-10.9-20.7Z" fill="#26a8e0" stroke-width="0"/>
                <path d="M96.5,266.6l.1-.2,16.9,6.3c8.6,3.2,12.9,12.7,9.7,21.3l-.1.2-16.9-6.3c-8.5-3.2-12.9-12.8-9.7-21.3Z" fill="#aed2ac" stroke-width="0"/>
                <path d="M184.8,308.9v-.2l17.9,2.6c9,1.3,15.3,9.7,14,18.8v.2l-17.9-2.6c-9-1.4-15.3-9.8-14-18.8Z" fill="#12733b" stroke-width="0"/>
                <path d="M182.6,325h0l10.1,6.2c5.1,3.2,6.6,9.9,3.4,14.9l-.1.1-10-6.3c-5.1-3.2-6.6-9.8-3.4-14.9Z" fill="#12733b" stroke-width="0"/>
                <path d="M126.9,333.9v-.1l13.8,3.4c7,1.7,11.3,8.8,9.5,15.8v.1l-13.8-3.4c-7-1.7-11.2-8.8-9.5-15.8Z" fill="#06a54d" stroke-width="0"/>
                <path d="M199.2,331h0l8.2,2.6c4.1,1.4,6.4,5.8,5,9.9v.1l-8.2-2.7c-4.1-1.3-6.3-5.8-5-9.9Z" fill="#06a54d" stroke-width="0"/>
                <path d="M85.8,301.9v-.2l17.7,3.5c9,1.8,14.8,10.5,13,19.5v.2l-17.7-3.5c-9-1.9-14.8-10.6-13-19.5Z" fill="#f9ce7c" stroke-width="0"/>
                <path d="M111.8,295.9v-.2l17.8,3.1c9,1.6,15,10.2,13.5,19.1v.2l-17.8-3.1c-9.1-1.5-15.1-10.1-13.5-19.1Z" fill="#b1d5f1" stroke-width="0"/>
                <path d="M110.7,244.9l.1-.1,16,8.3c8.1,4.2,11.3,14.2,7.1,22.3l-.1.1-16-8.3c-8.1-4.2-11.3-14.2-7.1-22.3Z" fill="#63b5e5" stroke-width="0"/>
                <path d="M134.9,323h0l8.8,2.2c4.5,1.1,7.2,5.7,6,10.1v.1l-8.8-2.2c-4.4-1.2-7.1-5.8-6-10.2Z" fill="#a4d7b7" stroke-width="0"/>
                <path d="M218.6,256.1h0l8.2,4c4.1,2.1,5.8,7.1,3.7,11.2v.1l-8.1-4.1c-4.2-2.1-5.9-7.1-3.8-11.2Z" fill="#a4d7b7" stroke-width="0"/>
                <path d="M141.5,269.7h0l8.8,2.1c4.4,1.1,7.1,5.6,6,10.1v.1l-8.7-2.2c-4.6-1.1-7.3-5.7-6.1-10.1Z" fill="#a4d7b7" stroke-width="0"/>
                <path d="M223.1,323v-.2l17.7,3.5c9,1.8,14.8,10.5,13,19.5v.2l-17.7-3.5c-9-1.8-14.8-10.5-13-19.5Z" fill="#06a54d" stroke-width="0"/>
                <path d="M128.7,280.7v-.2l17.7,3.5c9,1.8,14.8,10.5,13,19.5v.2l-17.7-3.5c-9-1.8-14.8-10.5-13-19.5Z" fill="#06a54d" stroke-width="0"/>
                <path d="M175,257v-.2l17.3,5c8.8,2.5,13.8,11.7,11.3,20.5v.2l-17.3-5c-8.8-2.6-13.9-11.7-11.3-20.5Z" fill="#b1d5f1" stroke-width="0"/>
                <path d="M58.4,309.3v-.2l17.7,3.5c9,1.8,14.8,10.5,13,19.5v.2l-17.7-3.5c-9-1.8-14.8-10.6-13-19.5Z" fill="#06a54d" stroke-width="0"/>
                <path d="M69.1,272l.1-.2,16.9,6.3c8.6,3.2,12.9,12.7,9.8,21.3l-.1.2-16.9-6.3c-8.6-3.2-13-12.7-9.8-21.3Z" fill="#06a54d" stroke-width="0"/>
                <path d="M150.8,308.2l.1-.1,16,8.5c8.1,4.3,11.2,14.3,6.9,22.4l-.1.1-16-8.5c-8.1-4.4-11.2-14.4-6.9-22.4Z" fill="#26a8e0" stroke-width="0"/>
                <path d="M154.8,335.7l.1-.1,16,8.5c8.1,4.3,11.2,14.3,6.9,22.4l-.1.1-16-8.5c-8.1-4.3-11.2-14.3-6.9-22.4Z" fill="#26a8e0" stroke-width="0"/>
                <path d="M95.4,323.6l.1-.2,17,6.2c8.6,3.1,13,12.6,9.9,21.2l-.1.2-17-6.2c-8.6-3.1-13-12.6-9.9-21.2Z" fill="#26a8e0" stroke-width="0"/>
                <path d="M119,370.6h0l9.5,3.4c4.8,1.7,7.3,7,5.5,11.8v.1l-9.5-3.4c-4.8-1.8-7.3-7.1-5.5-11.9Z" fill="#26a8e0" stroke-width="0"/>
                <path d="M143.9,246.2l.1-.1,16.4,7.6c8.3,3.9,11.9,13.7,8,22l-.1.1-16.4-7.6c-8.3-3.9-11.9-13.7-8-22Z" fill="#07723b" stroke-width="0"/>
                <path d="M127.8,221.2v-.2l17.4,4.7c8.8,2.4,14,11.5,11.6,20.3v.2l-17.4-4.7c-8.8-2.4-14-11.5-11.6-20.3Z" fill="#06a54d" stroke-width="0"/>
                <path d="M186.6,236.5l.1-.2,16.7,6.9c8.4,3.5,12.5,13.1,9,21.6l-.1.2-16.7-6.9c-8.4-3.5-12.5-13.2-9-21.6Z" fill="#06a54d" stroke-width="0"/>
              </g>
              <g>
                <path d="M28.7,381.1v-.2l17.5,4.5c8.8,2.3,14.2,11.3,11.9,20.2v.2l-17.5-4.5c-8.8-2.3-14.2-11.4-11.9-20.2Z" fill="#f4b31b" stroke-width="0"/>
                <path d="M7.7,329.9h0l9.9,5c5,2.6,7,8.7,4.4,13.7v.1l-9.9-5c-4.9-2.7-6.9-8.8-4.4-13.8Z" fill="#f9ce7c" stroke-width="0"/>
                <path d="M60.6,379.9l.1-.2,17.1,5.9c8.6,3,13.2,12.4,10.2,21l-.1.2-17.1-5.9c-8.6-2.9-13.2-12.3-10.2-21Z" fill="#a4d7b7" stroke-width="0"/>
                <path d="M4.2,396.4v-.1l12.3,5.1c6.2,2.6,9.2,9.7,6.6,15.9v.1l-12.3-5.1c-6.2-2.5-9.1-9.6-6.6-15.9Z" fill="#f9ce7c" stroke-width="0"/>
                <path d="M48.6,327.8v-.2l17.7,3.5c9,1.8,14.8,10.5,13,19.5v.2l-17.7-3.5c-9-1.8-14.8-10.5-13-19.5Z" fill="#f4b31b" stroke-width="0"/>
                <path d="M14.5,314v-.2l17.2,5.3c8.7,2.7,13.6,12,10.9,20.7v.2l-17.2-5.3c-8.8-2.7-13.6-12-10.9-20.7Z" fill="#26a8e0" stroke-width="0"/>
                <path d="M28.7,342.6v-.2l17.9,2.6c9,1.3,15.3,9.7,14,18.8v.2l-17.9-2.6c-9-1.4-15.3-9.8-14-18.8Z" fill="#12733b" stroke-width="0"/>
                <path d="M26.5,358.7h0l10.1,6.2c5.1,3.2,6.6,9.9,3.4,14.9l-.1.1-10-6.3c-5.1-3.1-6.6-9.8-3.4-14.9Z" fill="#12733b" stroke-width="0"/>
                <path d="M43.2,364.7h0l8.2,2.6c4.1,1.4,6.4,5.8,5,9.9v.1l-8.2-2.7c-4.2-1.3-6.4-5.8-5-9.9Z" fill="#06a54d" stroke-width="0"/>
                <path d="M62.5,289.8h0l8.2,4c4.1,2.1,5.8,7.1,3.7,11.2v.1l-8.1-4.1c-4.2-2.1-5.8-7.1-3.8-11.2Z" fill="#a4d7b7" stroke-width="0"/>
                <path d="M-14.6,303.4h0l8.8,2.1c4.4,1.1,7.1,5.6,6,10.1v.1l-8.7-2.2c-4.6-1.1-7.3-5.6-6.1-10.1Z" fill="#a4d7b7" stroke-width="0"/>
                <path d="M67,356.7v-.2l17.7,3.5c9,1.8,14.8,10.5,13,19.5v.2l-17.7-3.5c-9-1.8-14.8-10.5-13-19.5Z" fill="#06a54d" stroke-width="0"/>
                <path d="M-27.4,314.4v-.2l17.7,3.5c9,1.8,14.8,10.5,13,19.5v.2l-17.8-3.5c-8.9-1.8-14.7-10.5-12.9-19.5Z" fill="#06a54d" stroke-width="0"/>
                <path d="M18.9,290.7v-.2l17.3,5c8.8,2.5,13.8,11.7,11.3,20.5v.2l-17.3-5c-8.8-2.6-13.9-11.7-11.3-20.5Z" fill="#b1d5f1" stroke-width="0"/>
                <path d="M-5.3,341.9l.1-.1,16,8.5c8.1,4.3,11.2,14.3,6.9,22.4l-.1.1-16-8.5c-8.1-4.3-11.2-14.4-6.9-22.4Z" fill="#26a8e0" stroke-width="0"/>
                <path d="M-1.3,369.4l.1-.1,16,8.5c8.1,4.3,11.2,14.3,6.9,22.4l-.1.1-16-8.5c-8.1-4.3-11.2-14.3-6.9-22.4Z" fill="#26a8e0" stroke-width="0"/>
                <path d="M-12.2,279.9l.1-.1,16.4,7.6c8.3,3.9,11.9,13.7,8,22l-.1.1-16.4-7.6c-8.3-3.9-11.9-13.7-8-22Z" fill="#07723b" stroke-width="0"/>
                <path d="M-28.3,254.9v-.2l17.4,4.7c8.8,2.4,14,11.5,11.6,20.3v.2l-17.4-4.7c-8.8-2.4-14-11.5-11.6-20.3Z" fill="#06a54d" stroke-width="0"/>
                <path d="M30.5,270.2l.1-.2,16.7,6.9c8.4,3.5,12.5,13.1,9,21.6l-.1.2-16.7-6.9c-8.4-3.5-12.5-13.2-9-21.6Z" fill="#06a54d" stroke-width="0"/>
              </g>
              <g>
                <path d="M556.2,150.4h0l9.4,1.8c4.7.9,7.8,5.5,6.9,10.3v.1l-9.4-1.8c-4.7-1.1-7.8-5.7-6.9-10.4Z" fill="#f4b31b" stroke-width="0"/>
                <path d="M556.7,240.9l.1-.2,16.6,7c8.4,3.6,12.3,13.3,8.8,21.7l-.1.2-16.6-7c-8.4-3.6-12.4-13.3-8.8-21.7Z" fill="#07723b" stroke-width="0"/>
                <path d="M564.8,165.4l.1-.2,16.9,6.3c8.6,3.2,12.9,12.7,9.7,21.3l-.1.2-16.9-6.3c-8.6-3.2-12.9-12.7-9.7-21.3Z" fill="#aed2ac" stroke-width="0"/>
                <path d="M595.2,232.8v-.1l13.8,3.4c7,1.7,11.3,8.8,9.5,15.8v.1l-13.8-3.4c-7-1.7-11.3-8.8-9.5-15.8Z" fill="#06a54d" stroke-width="0"/>
                <path d="M554.1,200.7v-.2l17.7,3.5c9,1.8,14.8,10.5,13,19.5v.2l-17.7-3.5c-9-1.8-14.8-10.5-13-19.5Z" fill="#f9ce7c" stroke-width="0"/>
                <path d="M580.1,194.8v-.2l17.8,3.1c9,1.6,15,10.2,13.5,19.1v.2l-17.8-3.1c-9.1-1.5-15.1-10.1-13.5-19.1Z" fill="#b1d5f1" stroke-width="0"/>
                <path d="M579,143.7h0l16.1,8.2c8.1,4.2,11.3,14.2,7.1,22.3l-.1.1-16-8.3c-8.1-4.2-11.3-14.2-7.1-22.3Z" fill="#63b5e5" stroke-width="0"/>
                <path d="M603.2,221.8h0l8.8,2.2c4.5,1.1,7.2,5.7,6,10.1v.1l-8.8-2.2c-4.5-1.2-7.2-5.7-6-10.2Z" fill="#a4d7b7" stroke-width="0"/>
                <path d="M609.7,168.6h0l8.8,2.1c4.4,1.1,7.1,5.6,6,10.1v.1l-8.7-2.2c-4.5-1.2-7.2-5.7-6.1-10.1Z" fill="#a4d7b7" stroke-width="0"/>
                <path d="M596.9,179.6v-.2l17.7,3.5c9,1.8,14.8,10.5,13,19.5v.2l-17.7-3.5c-8.9-1.8-14.8-10.6-13-19.5Z" fill="#06a54d" stroke-width="0"/>
                <path d="M526.6,208.2v-.2l17.7,3.5c9,1.8,14.8,10.5,13,19.5v.2l-17.7-3.5c-8.9-1.9-14.8-10.6-13-19.5Z" fill="#06a54d" stroke-width="0"/>
                <path d="M537.4,170.9l.1-.2,16.9,6.3c8.6,3.2,12.9,12.7,9.8,21.3l-.1.2-16.9-6.3c-8.6-3.2-13-12.8-9.8-21.3Z" fill="#06a54d" stroke-width="0"/>
                <path d="M619,207l.1-.1,16,8.5c8.1,4.3,11.2,14.3,6.9,22.4l-.1.1-16-8.5c-8.1-4.3-11.1-14.3-6.9-22.4Z" fill="#26a8e0" stroke-width="0"/>
                <path d="M623,234.6l.1-.1,16,8.5c8.1,4.3,11.2,14.3,6.9,22.4l-.1.1-16-8.5c-8-4.3-11.1-14.4-6.9-22.4Z" fill="#26a8e0" stroke-width="0"/>
                <path d="M563.7,222.5l.1-.2,17,6.2c8.6,3.1,13,12.6,9.9,21.2l-.1.2-17-6.2c-8.6-3.1-13-12.6-9.9-21.2Z" fill="#26a8e0" stroke-width="0"/>
                <path d="M587.3,269.4h0l9.5,3.4c4.8,1.7,7.3,7,5.5,11.8v.1l-9.5-3.4c-4.8-1.8-7.3-7.1-5.5-11.9Z" fill="#26a8e0" stroke-width="0"/>
                <path d="M612.1,145.1l.1-.1,16.4,7.6c8.3,3.9,11.9,13.7,8,22l-.1.1-16.4-7.6c-8.2-3.9-11.8-13.8-8-22Z" fill="#07723b" stroke-width="0"/>
                <path d="M596.1,120v-.2l17.4,4.7c8.8,2.4,14,11.5,11.6,20.3v.2l-17.4-4.7c-8.8-2.4-14.1-11.5-11.6-20.3Z" fill="#06a54d" stroke-width="0"/>
              </g>
              <g>
                <path d="M497,145.1v-.2l17.5,4.5c8.8,2.3,14.2,11.3,11.9,20.2v.2l-17.5-4.5c-8.9-2.3-14.2-11.3-11.9-20.2Z" fill="#f4b31b" stroke-width="0"/>
                <path d="M476,94h0l9.9,5c5,2.6,7,8.7,4.4,13.7v.1l-9.9-5c-5-2.7-7-8.9-4.4-13.8Z" fill="#f9ce7c" stroke-width="0"/>
                <path d="M400.1,49.3h0l9.4,1.8c4.7.9,7.8,5.5,6.9,10.3v.1l-9.4-1.8c-4.7-1.1-7.8-5.7-6.9-10.4Z" fill="#f4b31b" stroke-width="0"/>
                <path d="M528.9,144l.1-.2,17.1,5.9c8.6,3,13.2,12.4,10.2,21l-.1.2-17.1-5.9c-8.6-3-13.2-12.4-10.2-21Z" fill="#a4d7b7" stroke-width="0"/>
                <path d="M472.5,160.5v-.1l12.3,5.1c6.2,2.6,9.2,9.7,6.6,15.9v.1l-12.3-5.1c-6.2-2.6-9.2-9.7-6.6-15.9Z" fill="#f9ce7c" stroke-width="0"/>
                <path d="M400.6,139.7l.1-.2,16.6,7c8.4,3.6,12.3,13.3,8.8,21.7l-.1.2-16.6-7c-8.4-3.5-12.4-13.3-8.8-21.7Z" fill="#07723b" stroke-width="0"/>
                <path d="M516.8,91.8v-.2l17.7,3.5c9,1.8,14.8,10.5,13,19.5v.2l-17.7-3.5c-8.9-1.8-14.8-10.5-13-19.5Z" fill="#f4b31b" stroke-width="0"/>
                <path d="M482.7,78v-.2l17.2,5.3c8.7,2.7,13.6,12,10.9,20.7v.2l-17.2-5.3c-8.7-2.7-13.6-11.9-10.9-20.7Z" fill="#26a8e0" stroke-width="0"/>
                <path d="M408.7,64.3l.1-.2,16.9,6.3c8.6,3.2,12.9,12.7,9.7,21.3l-.1.2-16.9-6.3c-8.6-3.2-12.9-12.7-9.7-21.3Z" fill="#aed2ac" stroke-width="0"/>
                <path d="M497,106.6v-.2l17.9,2.6c9,1.3,15.3,9.7,14,18.8v.2l-17.9-2.6c-9.1-1.3-15.3-9.7-14-18.8Z" fill="#12733b" stroke-width="0"/>
                <path d="M494.7,122.7h0l10.1,6.2c5.1,3.2,6.6,9.9,3.4,14.9l-.1.1-10-6.3c-5-3.1-6.5-9.8-3.4-14.9Z" fill="#12733b" stroke-width="0"/>
                <path d="M439.1,131.7h0l13.8,3.3c7,1.7,11.3,8.8,9.5,15.8v.1l-13.8-3.4c-7-1.8-11.3-8.9-9.5-15.8Z" fill="#06a54d" stroke-width="0"/>
                <path d="M511.4,128.7h0l8.2,2.6c4.1,1.4,6.4,5.8,5,9.9v.1l-8.2-2.7c-4.1-1.3-6.3-5.8-5-9.9Z" fill="#06a54d" stroke-width="0"/>
                <path d="M398,99.6v-.2l17.7,3.5c9,1.8,14.8,10.5,13,19.5v.2l-17.7-3.5c-9-1.8-14.8-10.5-13-19.5Z" fill="#f9ce7c" stroke-width="0"/>
                <path d="M424,93.7v-.2l17.8,3.1c9,1.6,15,10.2,13.5,19.1v.2l-17.8-3.1c-9.1-1.5-15.1-10.1-13.5-19.1Z" fill="#b1d5f1" stroke-width="0"/>
                <path d="M422.9,42.6l.1-.1,16,8.3c8.1,4.1,11.3,14.1,7.1,22.2l-.1.1-16-8.3c-8.1-4.1-11.3-14.1-7.1-22.2Z" fill="#63b5e5" stroke-width="0"/>
                <path d="M447.1,120.7h0l8.8,2.2c4.5,1.1,7.2,5.7,6,10.1v.1l-8.8-2.2c-4.5-1.2-7.2-5.8-6-10.2Z" fill="#a4d7b7" stroke-width="0"/>
                <path d="M530.8,53.8h0l8.2,4c4.1,2.1,5.8,7.1,3.7,11.2v.1l-8.1-4.1c-4.2-2.1-5.9-7.1-3.8-11.2Z" fill="#a4d7b7" stroke-width="0"/>
                <path d="M453.6,67.5h0l8.8,2.1c4.4,1.1,7.1,5.6,6,10.1v.1l-8.7-2.2c-4.5-1.2-7.2-5.7-6.1-10.1Z" fill="#a4d7b7" stroke-width="0"/>
                <path d="M535.3,120.8v-.2l17.7,3.5c9,1.8,14.8,10.5,13,19.5v.2l-17.7-3.5c-9-1.8-14.8-10.6-13-19.5Z" fill="#06a54d" stroke-width="0"/>
                <path d="M440.8,78.5v-.2l17.7,3.5c9,1.8,14.8,10.5,13,19.5v.2l-17.7-3.5c-8.9-1.9-14.7-10.6-13-19.5Z" fill="#06a54d" stroke-width="0"/>
                <path d="M487.1,54.7v-.2l17.3,5c8.8,2.5,13.8,11.7,11.3,20.5v.2l-17.3-5c-8.7-2.5-13.8-11.7-11.3-20.5Z" fill="#b1d5f1" stroke-width="0"/>
                <path d="M370.5,107v-.2l17.7,3.5c9,1.8,14.8,10.5,13,19.5v.2l-17.7-3.5c-8.9-1.8-14.8-10.5-13-19.5Z" fill="#06a54d" stroke-width="0"/>
                <path d="M381.3,69.7l.1-.2,16.9,6.3c8.6,3.2,12.9,12.7,9.8,21.3l-.1.2-16.9-6.3c-8.6-3.2-13-12.7-9.8-21.3Z" fill="#06a54d" stroke-width="0"/>
                <path d="M462.9,105.9l.1-.1,16,8.5c8.1,4.3,11.2,14.3,6.9,22.4l-.1.1-16-8.5c-8.1-4.3-11.1-14.3-6.9-22.4Z" fill="#26a8e0" stroke-width="0"/>
                <path d="M467,133.4l.1-.1,16,8.5c8.1,4.3,11.2,14.3,6.9,22.4l-.1.1-16-8.5c-8.1-4.3-11.2-14.3-6.9-22.4Z" fill="#26a8e0" stroke-width="0"/>
                <path d="M407.6,121.4l.1-.2,17,6.2c8.6,3.1,13,12.6,9.9,21.2l-.1.2-17-6.2c-8.6-3.1-13-12.6-9.9-21.2Z" fill="#26a8e0" stroke-width="0"/>
                <path d="M431.2,168.3h0l9.5,3.4c4.8,1.7,7.3,7,5.5,11.8v.1l-9.5-3.4c-4.8-1.8-7.3-7.1-5.5-11.9Z" fill="#26a8e0" stroke-width="0"/>
                <path d="M456,43.9l.1-.1,16.4,7.6c8.3,3.9,11.9,13.7,8,22l-.1.1-16.4-7.6c-8.2-3.8-11.8-13.7-8-22Z" fill="#07723b" stroke-width="0"/>
                <path d="M440,18.9v-.2l17.4,4.7c8.8,2.4,14,11.5,11.6,20.3v.2l-17.4-4.7c-8.8-2.4-14-11.5-11.6-20.3Z" fill="#06a54d" stroke-width="0"/>
                <path d="M498.8,34.2l.1-.2,16.7,6.9c8.4,3.5,12.5,13.1,9,21.6l-.1.2-16.7-6.9c-8.4-3.5-12.5-13.1-9-21.6Z" fill="#06a54d" stroke-width="0"/>
              </g>
              <g>
                <path d="M340.9,178.8v-.2l17.5,4.5c8.8,2.3,14.2,11.3,11.9,20.2v.2l-17.5-4.5c-8.9-2.3-14.2-11.3-11.9-20.2Z" fill="#f4b31b" stroke-width="0"/>
                <path d="M319.9,127.7h0l9.9,5c5,2.6,7,8.7,4.4,13.7v.1l-9.9-5c-5-2.7-6.9-8.8-4.4-13.8Z" fill="#f9ce7c" stroke-width="0"/>
                <path d="M244,83h0l9.4,1.8c4.7.9,7.8,5.5,6.9,10.3v.1l-9.4-1.8c-4.7-1.1-7.8-5.7-6.9-10.4Z" fill="#f4b31b" stroke-width="0"/>
                <path d="M372.8,177.7l.1-.2,17.1,5.9c8.6,3,13.2,12.4,10.2,21l-.1.2-17.1-5.9c-8.6-3-13.2-12.4-10.2-21Z" fill="#a4d7b7" stroke-width="0"/>
                <path d="M316.4,194.2h0l12.3,5c6.2,2.6,9.2,9.7,6.6,15.9v.1l-12.3-5.1c-6.2-2.6-9.2-9.7-6.6-15.9Z" fill="#f9ce7c" stroke-width="0"/>
                <path d="M244.5,173.4l.1-.2,16.6,7c8.4,3.6,12.3,13.3,8.8,21.7l-.1.2-16.6-7c-8.4-3.5-12.4-13.2-8.8-21.7Z" fill="#07723b" stroke-width="0"/>
                <path d="M360.7,125.5v-.2l17.7,3.5c9,1.8,14.8,10.5,13,19.5v.2l-17.7-3.5c-8.9-1.8-14.8-10.5-13-19.5Z" fill="#f4b31b" stroke-width="0"/>
                <path d="M326.6,111.8v-.2l17.2,5.3c8.7,2.7,13.6,12,10.9,20.7v.2l-17.2-5.3c-8.7-2.7-13.6-12-10.9-20.7Z" fill="#26a8e0" stroke-width="0"/>
                <path d="M252.6,98l.1-.2,16.9,6.3c8.6,3.2,12.9,12.7,9.7,21.3l-.1.2-16.9-6.3c-8.5-3.2-12.9-12.7-9.7-21.3Z" fill="#aed2ac" stroke-width="0"/>
                <path d="M340.9,140.3v-.2l17.9,2.6c9,1.3,15.3,9.7,14,18.8v.2l-17.9-2.6c-9-1.3-15.3-9.7-14-18.8Z" fill="#12733b" stroke-width="0"/>
                <path d="M338.7,156.4h0l10.1,6.2c5.1,3.2,6.6,9.9,3.4,14.9l-.1.1-10-6.3c-5.1-3.1-6.6-9.8-3.4-14.9Z" fill="#12733b" stroke-width="0"/>
                <path d="M283,165.4v-.1l13.8,3.4c7,1.7,11.3,8.8,9.5,15.8v.1l-13.8-3.4c-7-1.8-11.3-8.8-9.5-15.8Z" fill="#06a54d" stroke-width="0"/>
                <path d="M355.3,162.4h0l8.2,2.6c4.1,1.4,6.4,5.8,5,9.9v.1l-8.2-2.7c-4.1-1.3-6.3-5.7-5-9.9Z" fill="#06a54d" stroke-width="0"/>
                <path d="M241.9,133.3v-.2l17.7,3.5c9,1.8,14.8,10.5,13,19.5v.2l-17.7-3.5c-9-1.8-14.8-10.5-13-19.5Z" fill="#f9ce7c" stroke-width="0"/>
                <path d="M267.9,127.4v-.2l17.8,3.1c9,1.6,15,10.2,13.5,19.1v.2l-17.8-3.1c-9.1-1.5-15.1-10.1-13.5-19.1Z" fill="#b1d5f1" stroke-width="0"/>
                <path d="M266.8,76.3l.1-.1,16,8.3c8.1,4.2,11.3,14.2,7.1,22.3l-.1.1-16-8.3c-8.1-4.2-11.3-14.2-7.1-22.3Z" fill="#63b5e5" stroke-width="0"/>
                <path d="M291,154.4h0l8.8,2.2c4.5,1.1,7.2,5.7,6,10.1v.1l-8.8-2.2c-4.5-1.2-7.2-5.7-6-10.2Z" fill="#a4d7b7" stroke-width="0"/>
                <path d="M374.7,87.5h0l8.2,4c4.1,2.1,5.8,7.1,3.7,11.2v.1l-8.1-4.1c-4.2-2.1-5.9-7.1-3.8-11.2Z" fill="#a4d7b7" stroke-width="0"/>
                <path d="M297.6,101.2h0l8.8,2.1c4.4,1.1,7.1,5.6,6,10.1v.1l-8.7-2.2c-4.6-1.2-7.3-5.7-6.1-10.1Z" fill="#a4d7b7" stroke-width="0"/>
                <path d="M379.2,154.5v-.2l17.7,3.5c9,1.8,14.8,10.5,13,19.5v.2l-17.7-3.5c-9-1.8-14.8-10.6-13-19.5Z" fill="#06a54d" stroke-width="0"/>
                <path d="M284.8,112.2v-.2l17.7,3.5c9,1.8,14.8,10.5,13,19.5v.2l-17.7-3.5c-9-1.8-14.8-10.6-13-19.5Z" fill="#06a54d" stroke-width="0"/>
                <path d="M331.1,88.4v-.2l17.3,5c8.8,2.5,13.8,11.7,11.3,20.5v.2l-17.3-5c-8.8-2.5-13.9-11.7-11.3-20.5Z" fill="#b1d5f1" stroke-width="0"/>
                <path d="M214.5,140.7v-.2l17.7,3.5c9,1.8,14.8,10.5,13,19.5v.2l-17.7-3.5c-9-1.8-14.8-10.5-13-19.5Z" fill="#06a54d" stroke-width="0"/>
                <path d="M225.2,103.5l.1-.2,16.9,6.3c8.6,3.2,12.9,12.7,9.8,21.3l-.1.2-16.9-6.3c-8.6-3.3-13-12.8-9.8-21.3Z" fill="#06a54d" stroke-width="0"/>
                <path d="M306.9,139.6l.1-.1,16,8.5c8.1,4.3,11.2,14.3,6.9,22.4l-.1.1-16-8.5c-8.1-4.3-11.2-14.3-6.9-22.4Z" fill="#26a8e0" stroke-width="0"/>
                <path d="M310.9,167.1l.1-.1,16,8.5c8.1,4.3,11.2,14.3,6.9,22.4l-.1.1-16-8.5c-8.1-4.3-11.2-14.3-6.9-22.4Z" fill="#26a8e0" stroke-width="0"/>
                <path d="M251.5,155.1l.1-.2,17,6.2c8.6,3.1,13,12.6,9.9,21.2l-.1.2-17-6.2c-8.6-3.1-13-12.6-9.9-21.2Z" fill="#26a8e0" stroke-width="0"/>
                <path d="M275.1,202h0l9.5,3.4c4.8,1.7,7.3,7,5.5,11.8v.1l-9.5-3.4c-4.8-1.8-7.3-7.1-5.5-11.9Z" fill="#26a8e0" stroke-width="0"/>
                <path d="M300,77.6l.1-.1,16.4,7.6c8.3,3.9,11.9,13.7,8,22l-.1.1-16.4-7.6c-8.3-3.8-11.9-13.7-8-22Z" fill="#07723b" stroke-width="0"/>
                <path d="M283.9,52.6v-.2l17.4,4.7c8.8,2.4,14,11.5,11.6,20.3v.2l-17.4-4.7c-8.8-2.4-14-11.5-11.6-20.3Z" fill="#06a54d" stroke-width="0"/>
                <path d="M342.7,67.9l.1-.2,16.7,6.9c8.4,3.5,12.5,13.1,9,21.6l-.1.2-16.7-6.9c-8.4-3.5-12.5-13.1-9-21.6Z" fill="#06a54d" stroke-width="0"/>
              </g>
              <g>
                <path d="M184.8,212.5v-.2l17.5,4.5c8.8,2.3,14.2,11.3,11.9,20.2v.2l-17.5-4.5c-8.9-2.3-14.2-11.3-11.9-20.2Z" fill="#f4b31b" stroke-width="0"/>
                <path d="M163.8,161.4h0l9.9,5c5,2.6,7,8.7,4.4,13.7v.1l-9.9-5c-5-2.7-6.9-8.8-4.4-13.8Z" fill="#f9ce7c" stroke-width="0"/>
                <path d="M87.9,116.7h0l9.4,1.8c4.7.9,7.8,5.5,6.9,10.3v.1l-9.4-1.8c-4.7-1.1-7.8-5.7-6.9-10.4Z" fill="#f4b31b" stroke-width="0"/>
                <path d="M216.7,211.4l.1-.2,17.1,5.9c8.6,3,13.2,12.4,10.2,21l-.1.2-17.1-5.9c-8.6-3-13.2-12.4-10.2-21Z" fill="#a4d7b7" stroke-width="0"/>
                <path d="M160.3,227.9v-.1l12.3,5.1c6.2,2.6,9.2,9.7,6.6,15.9v.1l-12.3-5.1c-6.2-2.6-9.1-9.7-6.6-15.9Z" fill="#f9ce7c" stroke-width="0"/>
                <path d="M88.4,207.2l.1-.2,16.6,7c8.4,3.6,12.3,13.3,8.8,21.7l-.1.2-16.6-7c-8.4-3.6-12.3-13.3-8.8-21.7Z" fill="#07723b" stroke-width="0"/>
                <path d="M204.7,159.3v-.2l17.7,3.5c9,1.8,14.8,10.5,13,19.5v.2l-17.7-3.5c-9-1.9-14.8-10.6-13-19.5Z" fill="#f4b31b" stroke-width="0"/>
                <path d="M170.6,145.5v-.2l17.2,5.3c8.7,2.7,13.6,12,10.9,20.7v.2l-17.2-5.3c-8.8-2.7-13.6-12-10.9-20.7Z" fill="#26a8e0" stroke-width="0"/>
                <path d="M96.5,131.7l.1-.2,16.9,6.3c8.6,3.2,12.9,12.7,9.7,21.3l-.1.2-16.9-6.3c-8.5-3.2-12.9-12.7-9.7-21.3Z" fill="#aed2ac" stroke-width="0"/>
                <path d="M184.8,174v-.2l17.9,2.6c9,1.3,15.3,9.7,14,18.8v.2l-17.9-2.6c-9-1.3-15.3-9.7-14-18.8Z" fill="#12733b" stroke-width="0"/>
                <path d="M182.6,190.1h0l10.1,6.2c5.1,3.2,6.6,9.9,3.4,14.9l-.1.1-10-6.3c-5.1-3.1-6.6-9.8-3.4-14.9Z" fill="#12733b" stroke-width="0"/>
                <path d="M126.9,199.1v-.1l13.8,3.4c7,1.7,11.3,8.8,9.5,15.8v.1l-13.8-3.4c-7-1.8-11.2-8.8-9.5-15.8Z" fill="#06a54d" stroke-width="0"/>
                <path d="M199.2,196.1h0l8.2,2.6c4.1,1.4,6.4,5.8,5,9.9v.1l-8.2-2.7c-4.1-1.3-6.3-5.7-5-9.9Z" fill="#06a54d" stroke-width="0"/>
                <path d="M85.8,167v-.2l17.7,3.5c9,1.8,14.8,10.5,13,19.5v.2l-17.7-3.5c-9-1.8-14.8-10.5-13-19.5Z" fill="#f9ce7c" stroke-width="0"/>
                <path d="M111.8,161.1v-.2l17.8,3.1c9,1.6,15,10.2,13.5,19.1v.2l-17.8-3.1c-9.1-1.5-15.1-10.1-13.5-19.1Z" fill="#b1d5f1" stroke-width="0"/>
                <path d="M110.7,110l.1-.1,16,8.3c8.1,4.2,11.3,14.2,7.1,22.3l-.1.1-16-8.3c-8.1-4.2-11.3-14.2-7.1-22.3Z" fill="#63b5e5" stroke-width="0"/>
                <path d="M134.9,188.1h0l8.8,2.2c4.5,1.1,7.2,5.7,6,10.1v.1l-8.8-2.2c-4.4-1.2-7.1-5.7-6-10.2Z" fill="#a4d7b7" stroke-width="0"/>
                <path d="M218.6,121.2h0l8.2,4c4.1,2.1,5.8,7.1,3.7,11.2v.1l-8.1-4.1c-4.2-2.1-5.9-7.1-3.8-11.2Z" fill="#a4d7b7" stroke-width="0"/>
                <path d="M141.5,134.9h0l8.8,2.1c4.4,1.1,7.1,5.6,6,10.1v.1l-8.7-2.2c-4.6-1.2-7.3-5.7-6.1-10.1Z" fill="#a4d7b7" stroke-width="0"/>
                <path d="M223.1,188.2v-.2l17.7,3.5c9,1.8,14.8,10.5,13,19.5v.2l-17.7-3.5c-9-1.8-14.8-10.6-13-19.5Z" fill="#06a54d" stroke-width="0"/>
                <path d="M128.7,145.9v-.2l17.7,3.5c9,1.8,14.8,10.5,13,19.5v.2l-17.7-3.5c-9-1.8-14.8-10.6-13-19.5Z" fill="#06a54d" stroke-width="0"/>
                <path d="M175,122.1v-.2l17.3,5c8.8,2.5,13.8,11.7,11.3,20.5v.2l-17.3-5c-8.8-2.5-13.9-11.7-11.3-20.5Z" fill="#b1d5f1" stroke-width="0"/>
                <path d="M58.4,174.4v-.2l17.7,3.5c9,1.8,14.8,10.5,13,19.5v.2l-17.7-3.5c-9-1.8-14.8-10.5-13-19.5Z" fill="#06a54d" stroke-width="0"/>
                <path d="M69.1,137.2l.1-.2,16.9,6.3c8.6,3.2,12.9,12.7,9.8,21.3l-.1.2-16.9-6.3c-8.6-3.2-13-12.8-9.8-21.3Z" fill="#06a54d" stroke-width="0"/>
                <path d="M150.8,173.3l.1-.1,16,8.5c8.1,4.3,11.2,14.3,6.9,22.4l-.1.1-16-8.5c-8.1-4.3-11.2-14.3-6.9-22.4Z" fill="#26a8e0" stroke-width="0"/>
                <path d="M154.8,200.8l.1-.1,16,8.5c8.1,4.3,11.2,14.3,6.9,22.4l-.1.1-16-8.5c-8.1-4.3-11.2-14.3-6.9-22.4Z" fill="#26a8e0" stroke-width="0"/>
                <path d="M95.4,188.8l.1-.2,17,6.2c8.6,3.1,13,12.6,9.9,21.2l-.1.2-17-6.2c-8.6-3.1-13-12.6-9.9-21.2Z" fill="#26a8e0" stroke-width="0"/>
                <path d="M119,235.7h0l9.5,3.4c4.8,1.7,7.3,7,5.5,11.8v.1l-9.5-3.4c-4.8-1.8-7.3-7.1-5.5-11.9Z" fill="#26a8e0" stroke-width="0"/>
                <path d="M143.9,111.4l.1-.1,16.4,7.6c8.3,3.9,11.9,13.7,8,22l-.1.1-16.4-7.6c-8.3-3.9-11.9-13.8-8-22Z" fill="#07723b" stroke-width="0"/>
                <path d="M127.8,86.3v-.2l17.4,4.7c8.8,2.4,14,11.5,11.6,20.3v.2l-17.4-4.7c-8.8-2.4-14-11.5-11.6-20.3Z" fill="#06a54d" stroke-width="0"/>
                <path d="M186.6,101.6l.1-.2,16.7,6.9c8.4,3.5,12.5,13.1,9,21.6l-.1.2-16.7-6.9c-8.4-3.4-12.5-13.1-9-21.6Z" fill="#06a54d" stroke-width="0"/>
              </g>
              <g>
                <path d="M28.7,246.2v-.2l17.5,4.5c8.9,2.4,14.2,11.4,11.9,20.2v.2l-17.5-4.5c-8.8-2.3-14.2-11.3-11.9-20.2Z" fill="#f4b31b" stroke-width="0"/>
                <path d="M7.7,195.1h0l9.9,5c5,2.6,7,8.7,4.4,13.7v.1l-9.9-5c-4.9-2.7-6.9-8.8-4.4-13.8Z" fill="#f9ce7c" stroke-width="0"/>
                <path d="M60.6,245.1l.1-.2,17.1,5.9c8.6,3,13.2,12.4,10.2,21l-.1.2-17.1-5.9c-8.6-2.9-13.2-12.4-10.2-21Z" fill="#a4d7b7" stroke-width="0"/>
                <path d="M4.2,261.6v-.1l12.3,5.1c6.2,2.6,9.2,9.7,6.6,15.9v.1l-12.3-5.1c-6.2-2.5-9.1-9.7-6.6-15.9Z" fill="#f9ce7c" stroke-width="0"/>
                <path d="M48.6,193v-.2l17.7,3.5c9,1.8,14.8,10.5,13,19.5v.2l-17.7-3.5c-9-1.9-14.8-10.6-13-19.5Z" fill="#f4b31b" stroke-width="0"/>
                <path d="M14.5,179.2v-.2l17.2,5.3c8.7,2.7,13.6,12,10.9,20.7v.2l-17.2-5.3c-8.8-2.7-13.6-12-10.9-20.7Z" fill="#26a8e0" stroke-width="0"/>
                <path d="M28.7,207.8v-.2l17.9,2.6c9,1.3,15.3,9.7,14,18.8v.2l-17.9-2.6c-9-1.4-15.3-9.8-14-18.8Z" fill="#12733b" stroke-width="0"/>
                <path d="M26.5,223.8h0l10.1,6.2c5.1,3.2,6.6,9.9,3.4,14.9l-.1.1-10-6.3c-5.1-3.1-6.6-9.8-3.4-14.9Z" fill="#12733b" stroke-width="0"/>
                <path d="M43.2,229.9h0l8.2,2.6c4.1,1.4,6.4,5.8,5,9.9v.1l-8.2-2.7c-4.2-1.4-6.4-5.8-5-9.9Z" fill="#06a54d" stroke-width="0"/>
                <path d="M62.5,154.9h0l8.2,4c4.1,2.1,5.8,7.1,3.7,11.2v.1l-8.1-4.1c-4.2-2.1-5.8-7.1-3.8-11.2Z" fill="#a4d7b7" stroke-width="0"/>
                <path d="M-14.6,168.6h0l8.8,2.1c4.4,1.1,7.1,5.6,6,10.1v.1l-8.7-2.2c-4.6-1.2-7.3-5.7-6.1-10.1Z" fill="#a4d7b7" stroke-width="0"/>
                <path d="M67,221.9v-.2l17.7,3.5c9,1.8,14.8,10.5,13,19.5v.2l-17.7-3.5c-9-1.8-14.8-10.5-13-19.5Z" fill="#06a54d" stroke-width="0"/>
                <path d="M-27.4,179.6v-.2l17.7,3.5c9,1.8,14.8,10.5,13,19.5v.2l-17.7-3.5c-9-1.8-14.8-10.6-13-19.5Z" fill="#06a54d" stroke-width="0"/>
                <path d="M18.9,155.8v-.2l17.3,5c8.8,2.5,13.8,11.7,11.3,20.5v.2l-17.3-5c-8.8-2.5-13.9-11.7-11.3-20.5Z" fill="#b1d5f1" stroke-width="0"/>
                <path d="M-5.3,207l.1-.1,16,8.5c8.1,4.3,11.2,14.3,6.9,22.4l-.1.1-16-8.5c-8.1-4.3-11.2-14.3-6.9-22.4Z" fill="#26a8e0" stroke-width="0"/>
                <path d="M-1.3,234.6l.1-.1,16,8.5c8.1,4.3,11.2,14.3,6.9,22.4l-.1.1-16-8.5c-8.1-4.3-11.2-14.4-6.9-22.4Z" fill="#26a8e0" stroke-width="0"/>
                <path d="M-12.2,145.1l.1-.1,16.4,7.6c8.3,3.9,11.9,13.7,8,22l-.1.1-16.4-7.6c-8.3-3.9-11.9-13.8-8-22Z" fill="#07723b" stroke-width="0"/>
                <path d="M-28.3,120v-.2l17.4,4.7c8.8,2.4,14,11.5,11.6,20.3v.2l-17.4-4.7c-8.8-2.4-14-11.5-11.6-20.3Z" fill="#06a54d" stroke-width="0"/>
                <path d="M30.5,135.3l.1-.2,16.7,6.9c8.4,3.5,12.5,13.1,9,21.6l-.1.2-16.7-6.9c-8.4-3.4-12.5-13.1-9-21.6Z" fill="#06a54d" stroke-width="0"/>
              </g>
              <g>
                <path d="M556.2,15.5h0l9.4,1.8c4.7.9,7.8,5.5,6.9,10.3v.1l-9.4-1.8c-4.7-1-7.8-5.6-6.9-10.4Z" fill="#f4b31b" stroke-width="0"/>
                <path d="M556.7,106l.1-.2,16.6,7c8.4,3.6,12.3,13.3,8.8,21.7l-.1.2-16.6-7c-8.4-3.5-12.4-13.3-8.8-21.7Z" fill="#07723b" stroke-width="0"/>
                <path d="M564.8,30.6l.1-.2,16.9,6.3c8.6,3.2,12.9,12.7,9.7,21.3l-.1.2-16.9-6.3c-8.6-3.2-12.9-12.7-9.7-21.3Z" fill="#aed2ac" stroke-width="0"/>
                <path d="M595.2,98v-.1l13.8,3.4c7,1.7,11.3,8.8,9.5,15.8v.1l-13.8-3.4c-7-1.8-11.3-8.9-9.5-15.8Z" fill="#06a54d" stroke-width="0"/>
                <path d="M554.1,65.9v-.2l17.7,3.5c9,1.8,14.8,10.5,13,19.5v.2l-17.7-3.5c-9-1.8-14.8-10.6-13-19.5Z" fill="#f9ce7c" stroke-width="0"/>
                <path d="M580.1,60v-.2l17.8,3.1c9,1.6,15,10.2,13.5,19.1v.2l-17.8-3.1c-9.1-1.6-15.1-10.1-13.5-19.1Z" fill="#b1d5f1" stroke-width="0"/>
                <path d="M579,8.9h0l16.1,8.2c8.1,4.2,11.3,14.2,7.1,22.3l-.1.1-16-8.3c-8.1-4.2-11.3-14.2-7.1-22.3Z" fill="#63b5e5" stroke-width="0"/>
                <path d="M603.2,87h0l8.8,2.2c4.5,1.1,7.2,5.7,6,10.1v.1l-8.8-2.2c-4.5-1.2-7.2-5.8-6-10.2Z" fill="#a4d7b7" stroke-width="0"/>
                <path d="M609.7,33.7h0l8.8,2.1c4.4,1.1,7.1,5.6,6,10.1v.1l-8.7-2.2c-4.5-1.1-7.2-5.6-6.1-10.1Z" fill="#a4d7b7" stroke-width="0"/>
                <path d="M596.9,44.8v-.2l17.7,3.5c9,1.8,14.8,10.5,13,19.5v.2l-17.7-3.5c-8.9-1.9-14.8-10.6-13-19.5Z" fill="#06a54d" stroke-width="0"/>
                <path d="M526.6,73.3v-.2l17.7,3.5c9,1.8,14.8,10.5,13,19.5v.2l-17.7-3.5c-8.9-1.8-14.8-10.5-13-19.5Z" fill="#06a54d" stroke-width="0"/>
                <path d="M537.4,36l.1-.2,16.9,6.3c8.6,3.2,12.9,12.7,9.8,21.3l-.1.2-16.9-6.3c-8.6-3.2-13-12.7-9.8-21.3Z" fill="#06a54d" stroke-width="0"/>
                <path d="M619,72.2h0l16.1,8.4c8.1,4.3,11.2,14.3,6.9,22.4l-.1.1-16-8.5c-8.1-4.3-11.1-14.4-6.9-22.4Z" fill="#26a8e0" stroke-width="0"/>
                <path d="M623,99.7h0l16.1,8.4c8.1,4.3,11.2,14.3,6.9,22.4l-.1.1-16-8.5c-8-4.3-11.1-14.3-6.9-22.4Z" fill="#26a8e0" stroke-width="0"/>
                <path d="M563.7,87.7l.1-.2,17,6.2c8.6,3.1,13,12.6,9.9,21.2l-.1.2-17-6.2c-8.6-3.1-13-12.6-9.9-21.2Z" fill="#26a8e0" stroke-width="0"/>
                <path d="M587.3,134.6h0l9.5,3.4c4.8,1.7,7.3,7,5.5,11.8v.1l-9.5-3.4c-4.8-1.8-7.3-7.1-5.5-11.9Z" fill="#26a8e0" stroke-width="0"/>
                <path d="M612.1,10.2h0l16.5,7.5c8.3,3.9,11.9,13.7,8,22l-.1.1-16.4-7.6c-8.2-3.8-11.8-13.7-8-22Z" fill="#07723b" stroke-width="0"/>
                <path d="M596.1-14.8v-.2l17.4,4.7c8.8,2.4,14,11.5,11.6,20.3v.2l-17.4-4.7c-8.8-2.4-14.1-11.5-11.6-20.3Z" fill="#06a54d" stroke-width="0"/>
              </g>
              <g>
                <path d="M497,10.3v-.2l17.5,4.5c8.8,2.3,14.2,11.3,11.9,20.2v.2l-17.5-4.5c-8.9-2.4-14.2-11.4-11.9-20.2Z" fill="#f4b31b" stroke-width="0"/>
                <path d="M528.9,9.1l.1-.2,17.1,5.9c8.6,3,13.2,12.4,10.2,21l-.1.2-17.1-5.8c-8.6-3-13.2-12.5-10.2-21.1Z" fill="#a4d7b7" stroke-width="0"/>
                <path d="M472.5,25.6h0l12.3,5c6.2,2.6,9.2,9.7,6.6,15.9v.1l-12.3-5.1c-6.2-2.5-9.2-9.6-6.6-15.9Z" fill="#f9ce7c" stroke-width="0"/>
                <path d="M400.6,4.9l.1-.2,16.6,7c8.4,3.6,12.3,13.3,8.8,21.7l-.1.2-16.6-7c-8.4-3.6-12.4-13.3-8.8-21.7Z" fill="#07723b" stroke-width="0"/>
                <path d="M494.7-12.1h0l10.1,6.2c5.1,3.2,6.6,9.9,3.4,14.9l-.1.1-10-6.3c-5-3.2-6.5-9.9-3.4-14.9Z" fill="#12733b" stroke-width="0"/>
                <path d="M439.1-3.2h0l13.8,3.3c7,1.7,11.3,8.8,9.5,15.8v.1l-13.8-3.4c-7-1.7-11.3-8.8-9.5-15.8Z" fill="#06a54d" stroke-width="0"/>
                <path d="M511.4-6.1h0l8.2,2.6c4.1,1.4,6.4,5.8,5,9.9v.1l-8.2-2.7c-4.1-1.3-6.3-5.8-5-9.9Z" fill="#06a54d" stroke-width="0"/>
                <path d="M535.3-14.1v-.2l17.7,3.5c9,1.8,14.8,10.5,13,19.5v.2l-17.7-3.5c-9-1.8-14.8-10.5-13-19.5Z" fill="#06a54d" stroke-width="0"/>
                <path d="M462.9-29l.1-.1,16,8.5c8.1,4.3,11.2,14.3,6.9,22.4l-.1.1-16-8.5c-8.1-4.3-11.1-14.3-6.9-22.4Z" fill="#26a8e0" stroke-width="0"/>
                <path d="M467-1.4l.1-.1,16,8.5c8.1,4.3,11.2,14.3,6.9,22.4l-.1.1-16-8.5c-8.1-4.3-11.2-14.3-6.9-22.4Z" fill="#26a8e0" stroke-width="0"/>
                <path d="M407.6-13.5l.1-.2,17,6.2c8.6,3.1,13,12.6,9.9,21.2l-.1.2-17-6.2c-8.6-3.1-13-12.6-9.9-21.2Z" fill="#26a8e0" stroke-width="0"/>
                <path d="M431.2,33.5h0l9.5,3.4c4.8,1.7,7.3,7,5.5,11.8v.1l-9.5-3.4c-4.8-1.8-7.3-7.2-5.5-11.9Z" fill="#26a8e0" stroke-width="0"/>
              </g>
              <g>
                <path d="M340.9,44v-.2l17.5,4.5c8.8,2.3,14.2,11.3,11.9,20.2v.2l-17.5-4.5c-8.9-2.4-14.2-11.4-11.9-20.2Z" fill="#f4b31b" stroke-width="0"/>
                <path d="M319.9-7.2h0l9.9,5c5,2.6,7,8.7,4.4,13.7v.1l-9.9-5c-5-2.7-6.9-8.8-4.4-13.8Z" fill="#f9ce7c" stroke-width="0"/>
                <path d="M372.8,42.8l.1-.2,17.1,5.9c8.6,3,13.2,12.4,10.2,21l-.1.2-17.1-5.8c-8.6-3-13.2-12.4-10.2-21.1Z" fill="#a4d7b7" stroke-width="0"/>
                <path d="M316.4,59.3v-.1l12.3,5.1c6.2,2.6,9.2,9.7,6.6,15.9v.1l-12.3-5.1c-6.2-2.5-9.2-9.6-6.6-15.9Z" fill="#f9ce7c" stroke-width="0"/>
                <path d="M244.5,38.6l.1-.2,16.6,7c8.4,3.6,12.3,13.3,8.8,21.7l-.1.2-16.6-7c-8.4-3.6-12.4-13.3-8.8-21.7Z" fill="#07723b" stroke-width="0"/>
                <path d="M360.7-9.3v-.2l17.7,3.5c9,1.8,14.8,10.5,13,19.5v.2l-17.7-3.5c-8.9-1.8-14.8-10.5-13-19.5Z" fill="#f4b31b" stroke-width="0"/>
                <path d="M326.6-23.1v-.2l17.2,5.3c8.7,2.7,13.6,12,10.9,20.7v.2l-17.2-5.3c-8.7-2.7-13.6-12-10.9-20.7Z" fill="#26a8e0" stroke-width="0"/>
                <path d="M340.9,5.5v-.2l17.9,2.6c9,1.3,15.3,9.7,14,18.8v.2l-17.9-2.6c-9-1.4-15.3-9.8-14-18.8Z" fill="#12733b" stroke-width="0"/>
                <path d="M338.7,21.6h0l10.1,6.2c5.1,3.2,6.6,9.9,3.4,14.9l-.1.1-10-6.3c-5.1-3.1-6.6-9.8-3.4-14.9Z" fill="#12733b" stroke-width="0"/>
                <path d="M283,30.5h0l13.8,3.3c7,1.7,11.3,8.8,9.5,15.8v.1l-13.8-3.4c-7-1.7-11.3-8.8-9.5-15.8Z" fill="#06a54d" stroke-width="0"/>
                <path d="M355.3,27.6h0l8.2,2.6c4.1,1.4,6.4,5.8,5,9.9v.1l-8.2-2.7c-4.1-1.3-6.3-5.8-5-9.9Z" fill="#06a54d" stroke-width="0"/>
                <path d="M241.9-1.5v-.2l17.7,3.5c9,1.8,14.8,10.5,13,19.5v.2l-17.7-3.6c-9-1.8-14.8-10.5-13-19.4Z" fill="#f9ce7c" stroke-width="0"/>
                <path d="M267.9-7.5v-.2l17.8,3.1c9,1.6,15,10.2,13.5,19.1v.2l-17.8-3.1c-9.1-1.5-15.1-10.1-13.5-19.1Z" fill="#b1d5f1" stroke-width="0"/>
                <path d="M291,19.6h0l8.8,2.2c4.5,1.1,7.2,5.7,6,10.1v.1l-8.8-2.2c-4.5-1.2-7.2-5.8-6-10.2Z" fill="#a4d7b7" stroke-width="0"/>
                <path d="M379.2,19.6v-.2l17.7,3.5c9,1.8,14.8,10.5,13,19.5v.2l-17.7-3.5c-9-1.8-14.8-10.5-13-19.5Z" fill="#06a54d" stroke-width="0"/>
                <path d="M284.8-22.7v-.2l17.7,3.5c9,1.8,14.8,10.5,13,19.5v.2l-17.7-3.5c-9-1.8-14.8-10.5-13-19.5Z" fill="#06a54d" stroke-width="0"/>
                <path d="M214.5,5.9v-.2l17.7,3.5c9,1.8,14.8,10.5,13,19.5v.2l-17.7-3.5c-9-1.8-14.8-10.6-13-19.5Z" fill="#06a54d" stroke-width="0"/>
                <path d="M306.9,4.8l.1-.1,16,8.5c8.1,4.3,11.2,14.3,6.9,22.4l-.1.1-16-8.5c-8.1-4.3-11.2-14.4-6.9-22.4Z" fill="#26a8e0" stroke-width="0"/>
                <path d="M310.9,32.3l.1-.1,16,8.5c8.1,4.3,11.2,14.3,6.9,22.4l-.1.1-16-8.5c-8.1-4.3-11.2-14.3-6.9-22.4Z" fill="#26a8e0" stroke-width="0"/>
                <path d="M251.5,20.2l.1-.2,17,6.2c8.6,3.1,13,12.6,9.9,21.2l-.1.2-17-6.2c-8.6-3.1-13-12.6-9.9-21.2Z" fill="#26a8e0" stroke-width="0"/>
                <path d="M275.1,67.2h0l9.5,3.4c4.8,1.7,7.3,7,5.5,11.8v.1l-9.5-3.4c-4.8-1.8-7.3-7.1-5.5-11.9Z" fill="#26a8e0" stroke-width="0"/>
              </g>
              <g>
                <path d="M184.8,77.7v-.2l17.5,4.5c8.8,2.3,14.2,11.3,11.9,20.2v.2l-17.5-4.5c-8.9-2.3-14.2-11.4-11.9-20.2Z" fill="#f4b31b" stroke-width="0"/>
                <path d="M163.8,26.5h0l9.9,5c5,2.6,7,8.7,4.4,13.7v.1l-9.9-5c-5-2.7-6.9-8.8-4.4-13.8Z" fill="#f9ce7c" stroke-width="0"/>
                <path d="M216.7,76.5l.1-.2,17.1,5.9c8.6,3,13.2,12.4,10.2,21l-.1.2-17.1-5.9c-8.6-2.9-13.2-12.3-10.2-21Z" fill="#a4d7b7" stroke-width="0"/>
                <path d="M160.3,93.1v-.1l12.3,5.1c6.2,2.6,9.2,9.7,6.6,15.9v.1l-12.3-5.1c-6.2-2.6-9.1-9.7-6.6-15.9Z" fill="#f9ce7c" stroke-width="0"/>
                <path d="M88.4,72.3l.1-.2,16.6,7c8.4,3.6,12.3,13.3,8.8,21.7l-.1.2-16.6-7c-8.4-3.6-12.3-13.3-8.8-21.7Z" fill="#07723b" stroke-width="0"/>
                <path d="M204.7,24.4v-.2l17.7,3.5c9,1.8,14.8,10.5,13,19.5v.2l-17.8-3.5c-8.9-1.8-14.7-10.5-12.9-19.5Z" fill="#f4b31b" stroke-width="0"/>
                <path d="M170.6,10.6v-.2l17.2,5.3c8.7,2.7,13.6,12,10.9,20.7v.2l-17.2-5.3c-8.8-2.7-13.6-12-10.9-20.7Z" fill="#26a8e0" stroke-width="0"/>
                <path d="M96.5-3.1l.1-.2,16.9,6.3c8.6,3.2,12.9,12.7,9.7,21.3l-.1.2-16.9-6.3c-8.5-3.2-12.9-12.7-9.7-21.3Z" fill="#aed2ac" stroke-width="0"/>
                <path d="M184.8,39.2v-.2l17.9,2.6c9,1.3,15.3,9.7,14,18.8v.2l-17.9-2.6c-9-1.3-15.3-9.8-14-18.8Z" fill="#12733b" stroke-width="0"/>
                <path d="M182.6,55.3h0l10.1,6.2c5.1,3.2,6.6,9.9,3.4,14.9l-.1.1-10-6.3c-5.1-3.1-6.6-9.8-3.4-14.9Z" fill="#12733b" stroke-width="0"/>
                <path d="M126.9,64.2h0l13.8,3.3c7,1.7,11.3,8.8,9.5,15.8v.1l-13.8-3.4c-7-1.7-11.2-8.8-9.5-15.8Z" fill="#06a54d" stroke-width="0"/>
                <path d="M199.2,61.3h0l8.2,2.6c4.1,1.4,6.4,5.8,5,9.9v.1l-8.2-2.7c-4.1-1.3-6.3-5.8-5-9.9Z" fill="#06a54d" stroke-width="0"/>
                <path d="M85.8,32.2v-.2l17.7,3.5c9,1.8,14.8,10.5,13,19.5v.2l-17.7-3.5c-9-1.8-14.8-10.6-13-19.5Z" fill="#f9ce7c" stroke-width="0"/>
                <path d="M111.8,26.3v-.2l17.8,3.1c9,1.6,15,10.2,13.5,19.1v.2l-17.8-3.1c-9.1-1.6-15.1-10.1-13.5-19.1Z" fill="#b1d5f1" stroke-width="0"/>
                <path d="M110.7-24.8l.1-.1,16,8.3c8.1,4.2,11.3,14.2,7.1,22.3l-.1.1-16-8.3c-8.1-4.2-11.3-14.2-7.1-22.3Z" fill="#63b5e5" stroke-width="0"/>
                <path d="M134.9,53.3h0l8.8,2.2c4.5,1.1,7.2,5.7,6,10.1v.1l-8.8-2.2c-4.4-1.2-7.1-5.8-6-10.2Z" fill="#a4d7b7" stroke-width="0"/>
                <path d="M218.6-13.6h0l8.2,4c4.1,2.1,5.8,7.1,3.7,11.2v.1l-8.1-4.1c-4.2-2.1-5.9-7.1-3.8-11.2Z" fill="#a4d7b7" stroke-width="0"/>
                <path d="M141.5,0h0l8.8,2.1c4.4,1.1,7.1,5.6,6,10.1v.1l-8.7-2.2C143,9,140.3,4.5,141.5,0Z" fill="#a4d7b7" stroke-width="0"/>
                <path d="M223.1,53.4v-.2l17.7,3.5c9,1.8,14.8,10.5,13,19.5v.2l-17.7-3.5c-9-1.9-14.8-10.6-13-19.5Z" fill="#06a54d" stroke-width="0"/>
                <path d="M128.7,11v-.2l17.7,3.5c9,1.8,14.8,10.5,13,19.5v.2l-17.7-3.5c-9-1.8-14.8-10.5-13-19.5Z" fill="#06a54d" stroke-width="0"/>
                <path d="M175-12.7v-.2l17.3,5c8.8,2.5,13.8,11.7,11.3,20.5v.2l-17.3-5c-8.8-2.6-13.9-11.7-11.3-20.5Z" fill="#b1d5f1" stroke-width="0"/>
                <path d="M58.4,39.6v-.2l17.7,3.5c9,1.8,14.8,10.5,13,19.5v.2l-17.7-3.5c-9-1.8-14.8-10.5-13-19.5Z" fill="#06a54d" stroke-width="0"/>
                <path d="M69.1,2.3l.1-.2,16.9,6.3c8.6,3.2,12.9,12.7,9.8,21.3l-.1.2-16.9-6.3c-8.6-3.2-13-12.7-9.8-21.3Z" fill="#06a54d" stroke-width="0"/>
                <path d="M150.8,38.5l.1-.1,16,8.5c8.1,4.3,11.2,14.3,6.9,22.4l-.1.1-16-8.5c-8.1-4.3-11.2-14.4-6.9-22.4Z" fill="#26a8e0" stroke-width="0"/>
                <path d="M154.8,66l.1-.1,16,8.5c8.1,4.3,11.2,14.3,6.9,22.4l-.1.1-16-8.5c-8.1-4.3-11.2-14.3-6.9-22.4Z" fill="#26a8e0" stroke-width="0"/>
                <path d="M95.4,54l.1-.2,17,6.2c8.6,3.1,13,12.6,9.9,21.2l-.1.2-17-6.2c-8.6-3.2-13-12.7-9.9-21.2Z" fill="#26a8e0" stroke-width="0"/>
                <path d="M119,100.9h0l9.5,3.4c4.8,1.7,7.3,7,5.5,11.8v.1l-9.5-3.4c-4.8-1.8-7.3-7.1-5.5-11.9Z" fill="#26a8e0" stroke-width="0"/>
                <path d="M143.9-23.5l.1-.1,16.4,7.6c8.3,3.9,11.9,13.7,8,22l-.1.1-16.4-7.6c-8.3-3.9-11.9-13.7-8-22Z" fill="#07723b" stroke-width="0"/>
              </g>
              <g>
                <path d="M28.7,111.4v-.2l17.5,4.5c8.9,2.3,14.2,11.3,11.9,20.2v.2l-17.5-4.5c-8.8-2.3-14.2-11.4-11.9-20.2Z" fill="#f4b31b" stroke-width="0"/>
                <path d="M7.7,60.2h0l9.9,5c5,2.6,7,8.7,4.4,13.7v.1l-9.9-5c-4.9-2.6-6.9-8.8-4.4-13.8Z" fill="#f9ce7c" stroke-width="0"/>
                <path d="M60.6,110.2l.1-.2,17.1,5.9c8.6,3,13.2,12.4,10.2,21l-.1.2-17.1-5.9c-8.6-2.9-13.2-12.3-10.2-21Z" fill="#a4d7b7" stroke-width="0"/>
                <path d="M4.2,126.8v-.1l12.3,5.1c6.2,2.6,9.2,9.7,6.6,15.9v.1l-12.3-5.1c-6.2-2.6-9.1-9.7-6.6-15.9Z" fill="#f9ce7c" stroke-width="0"/>
                <path d="M48.6,58.1v-.2l17.7,3.5c9,1.8,14.8,10.5,13,19.5v.2l-17.7-3.5c-9-1.8-14.8-10.5-13-19.5Z" fill="#f4b31b" stroke-width="0"/>
                <path d="M14.5,44.3v-.2l17.2,5.3c8.7,2.7,13.6,12,10.9,20.7v.2l-17.2-5.3c-8.8-2.7-13.6-11.9-10.9-20.7Z" fill="#26a8e0" stroke-width="0"/>
                <path d="M28.7,72.9v-.2l17.9,2.6c9,1.3,15.3,9.7,14,18.8v.2l-17.9-2.6c-9-1.3-15.3-9.8-14-18.8Z" fill="#12733b" stroke-width="0"/>
                <path d="M26.5,89h0l10.1,6.2c5.1,3.2,6.6,9.9,3.4,14.9l-.1.1-10-6.3c-5.1-3.1-6.6-9.8-3.4-14.9Z" fill="#12733b" stroke-width="0"/>
                <path d="M43.2,95h0l8.2,2.6c4.1,1.4,6.4,5.8,5,9.9v.1l-8.2-2.7c-4.2-1.3-6.4-5.8-5-9.9Z" fill="#06a54d" stroke-width="0"/>
                <path d="M62.5,20.1h0l8.2,4c4.1,2.1,5.8,7.1,3.7,11.2v.1l-8.1-4.1c-4.2-2.1-5.8-7.1-3.8-11.2Z" fill="#a4d7b7" stroke-width="0"/>
                <path d="M-14.6,33.7h0l8.7,2.2c4.4,1.1,7.1,5.6,6,10.1v.1l-8.7-2.2c-4.5-1.2-7.2-5.7-6-10.2Z" fill="#a4d7b7" stroke-width="0"/>
                <path d="M67,87.1v-.2l17.7,3.5c9,1.8,14.8,10.5,13,19.5v.2l-17.7-3.5c-9-1.9-14.8-10.6-13-19.5Z" fill="#06a54d" stroke-width="0"/>
                <path d="M-27.4,44.8v-.2l17.7,3.5c9,1.8,14.8,10.5,13,19.5v.2l-17.7-3.5c-9-1.9-14.8-10.6-13-19.5Z" fill="#06a54d" stroke-width="0"/>
                <path d="M18.9,21v-.2l17.3,5c8.8,2.5,13.8,11.7,11.3,20.5v.2l-17.3-5c-8.8-2.5-13.9-11.7-11.3-20.5Z" fill="#b1d5f1" stroke-width="0"/>
                <path d="M-5.3,72.2l.1-.1,16,8.5c8.1,4.3,11.2,14.3,6.9,22.4l-.1.1L1.6,94.6c-8.1-4.3-11.2-14.4-6.9-22.4Z" fill="#26a8e0" stroke-width="0"/>
                <path d="M-1.3,99.7l.1-.1,16,8.5c8.1,4.3,11.2,14.3,6.9,22.4l-.1.1-16-8.5c-8.1-4.3-11.2-14.3-6.9-22.4Z" fill="#26a8e0" stroke-width="0"/>
                <path d="M-12.2,10.2l.1-.1,16.4,7.6c8.3,3.9,11.9,13.7,8,22l-.2.1-16.4-7.6c-8.2-3.8-11.8-13.7-7.9-22Z" fill="#07723b" stroke-width="0"/>
                <path d="M-28.3-14.8v-.2l17.4,4.8C-2.1-7.8,3.1,1.3.7,10.1v.2l-17.4-4.7c-8.8-2.5-14-11.6-11.6-20.4Z" fill="#06a54d" stroke-width="0"/>
                <path d="M30.5.5l.1-.2,16.7,6.9c8.4,3.5,12.5,13.1,9,21.6l-.1.2-16.7-6.9c-8.4-3.5-12.5-13.2-9-21.6Z" fill="#06a54d" stroke-width="0"/>
              </g>
              <path d="M587.3-.2h0l9.5,3.4c4.8,1.7,7.3,7,5.5,11.8v.1l-9.5-3.4c-4.8-1.9-7.3-7.2-5.5-11.9Z" fill="#26a8e0" stroke-width="0"/>
              <g>
                <path d="M28.7-23.4v-.2l17.5,4.5c8.9,2.3,14.2,11.3,11.9,20.1v.2l-17.5-4.5c-8.8-2.3-14.2-11.3-11.9-20.1Z" fill="#f4b31b" stroke-width="0"/>
                <path d="M60.6-24.6l.1-.2,17.1,5.9c8.6,3,13.2,12.4,10.2,21l-.1.2-17.1-5.9c-8.6-2.9-13.2-12.4-10.2-21Z" fill="#a4d7b7" stroke-width="0"/>
                <path d="M4.2-8.1h0l12.4,5c6.2,2.6,9.2,9.7,6.6,15.9v.1l-12.3-5.1C4.6,5.3,1.7-1.9,4.2-8.1Z" fill="#f9ce7c" stroke-width="0"/>
              </g>
            </g>
          </g>
        </g>
      </g>
    </pattern>
  </defs>
  <g id="c" data-name="Border">
    <path d="M844.142,524.826c.096-211.441.024-278.882,0-490.354.048-8.258-.48-6.967-7.204-7.057-6.195,0-12.391,0-18.61-.03-265.539-.15-531.055-.03-796.594-.03-.192.27-.456.45-.672.691-.12.27-.264.541-.384.811-.048,222.312-.048,300.624,0,522.936,149.027.12,298.078.06,447.104.12,121.532-.03,243.063.03,364.594-.12,2.786,0,5.643,0,8.357-.09.72-.06,1.417-.18,2.113-.36.408-.24.816-.39,1.033-.931.288-.751.216-1.592.264-2.432v-3.513c0-6.516,0-13.063,0-19.64ZM864.601,1.229v576.72H.121V1.229h864.48Z" fill="#33b774" stroke-width="0"/>
    <path d="M844.021,523.597c.096-211.441.024-278.882,0-490.354.048-8.258-.48-6.967-7.204-7.057-6.195,0-12.391,0-18.61-.03-265.539-.15-531.055-.03-796.594-.03-.192.27-.456.45-.672.691-.12.27-.264.541-.384.811-.048,222.312-.048,300.624,0,522.936,149.027.12,298.078.06,447.104.12,121.532-.03,243.063.03,364.594-.12,2.786,0,5.643,0,8.357-.09.72-.06,1.417-.18,2.113-.36.408-.24.816-.39,1.033-.931.288-.751.216-1.592.264-2.432v-3.513c0-6.516,0-13.063,0-19.64ZM864.48,0v576.72H0V0h864.48Z" fill="url(#d)" stroke-width="0"/>
  </g>
</svg>