<?xml version="1.0" encoding="UTF-8"?>
<svg id="a" xmlns="http://www.w3.org/2000/svg" version="1.1" viewBox="0 0 625 203.9">
  <defs>
    <style>
      .cls-1 {
        fill: #00a54e;
      }

      .cls-1, .cls-2, .cls-3 {
        stroke-width: 0px;
      }

      .cls-2 {
        fill: #000;
      }

      .cls-3 {
        fill: #231f20;
      }
    </style>
  </defs>
  <g>
    <path class="cls-2" d="M625,110c-2.5,3.1-5.9,4.3-9.7,4.9-2.2.3-2.2.6-4.5,1.1-6,1.3-12,2.4-18,3.6-3.4.7-6.9,1.5-10.4,1.9-4.1.5-8.1-.4-11.5-2.9-1.1-.8-1.8-2.7-1.8-4.1,0-11.7.5-23.4.4-35.1,0-6.4-.9-12.7-1.2-19.1-.3-6.2-.6-23.6.8-29.7.6-2.6,3.1-4.1,5.6-3.2,2.9.9,6.1,1.7,7.5,4.8.8,2,1,4.3,1.1,6.4.3,4.5.3,20.1.5,24.6.2,3.5.5,6.9.7,10.3.2,5.4.3,10.9.5,16.3,0,3,.1,6,.3,9.1.2,3.5.4,7.1.7,11.3,5.7-1.2,11.2-2.5,16.7-3.7,5.7-1.2,8.7-3.7,14.9-3,3.7.4,6.1,2.1,7.4,5.6v1.1h0Z"/>
    <path class="cls-2" d="M324.9,79.1c-.6.1.3,5.9.3,6.5,0,5.1.3,5.1.3,10.2,0,5.5,0,10.9-.4,16.4-.3,3.6-4,5.5-9,5.4-3.5,0-5.4-1.7-5.9-5.2-.3-2-.6-11.4-.7-13.9-.2-7.6-.4-15.2-.5-22.8,0-6.2.2-12.4.2-18.5,0-8.8-.4-17.6-.4-26.4,0-2.5-.4-5.2.4-7.5.9-2.8,4.6-3,7.6-3.3,2.8-.3,22.7-2.8,32.3-2.4,6.7.3,12.4,2.7,17.6,6.3,3.9,2.6,7.9,7.3,8.6,11.9,1.6,9.2-.5,17.4-5,22.4-7,7.7-15.1,12.2-15,13.1.5,6.1.7,10.1,1.5,16.2.5,4.1,1.3,8.1,1.8,12.1.2,1.5.7,2.1,2.1,1.8.8-.1,1.6-.4,2.3-.4,1.6,0,3.6-1.2,4.6,1.1,1.4,3,.6,6-1.1,7.4-4.6,3.7-9.9,4-15,1.9-5.3-2.2-8.5-6.4-9.1-12.5-.7-7.3-2.3-15.2-3.4-22.4,0-.3-10.2,1.8-14.2,2.8h0ZM324.7,67c4.1.6,14.5-1.3,26-9,6.6-4.4,8.7-9.3,10.5-14.8,1.6-4.9-.9-13.7-9.5-14.2-1.4,0-21-.5-27.7,2.6-1,.5-.1,17.3,0,20.1,0,.6,1.1,11,.8,15.3Z"/>
    <path class="cls-2" d="M16.6,40.7c2.3-4.4,3.8-5.8,6.8-7.8,2.7-1.8,5.8-2.6,9.2-3.2,5.6-1,10.7-.8,16.4.3,15.4,2.9,17.5,19.8,18.5,23.2,1.9,6.1,1.9,12.4,2.1,18.7.2,5.9.9,11.7.6,17.6-.3,6.3.6,12.6.7,19,0,3.2,0,6.6-.8,9.7-.3,1.5-2,3.1-3.5,3.8-1.8.9-4.1,1.2-6.2,1.3-3.9.3-5.4-2.3-5.6-6.4-.2-3.7,0-7.5,0-11.2,0-4.5-.3-9-.5-13.5-.4-9.7-.4-18.3-1.3-27.9-.5-5,0-21.3-12.7-21.3s-16.9,14.9-17.1,20c-.3,7.2,3.7,52.8,4.3,57.3.3,2.1-1.4,4.7-3.5,5.3-2.2.6-4.5,1-6.7,1.2-2.9.2-4.5-1.6-4.9-4.5-.5-3.6-1.3-7.2-1.7-10.8-.8-6.3-3.9-21.5-4.3-23.9-.6-4.3-1.7-8.1-2.2-12.3-1-7.8-2.4-15.5-3.3-23.2C.3,47.1-.1,42.1,0,37.1c.2-6.2.7-8.1,6.8-7.8,2.4.1,5.2-.3,7.2.9,1.1.7,2,7.6,2.5,10.5Z"/>
    <path class="cls-2" d="M122.4,94.7c-8.4.8-16.2,1.5-24.4,2.2,0,2,.4,12.7.4,17.3,0,3.4-.5,4.3-2.3,5.7-2.3,1.8-8,1.4-10.1-.6-1-.9-1.9-2.4-2.1-3.7-1-6.2-1.4-19.6-1.5-25.9-.4-36,4.3-52.8,19.1-61.7,6.2-3.7,14-3.6,20.7-.2,12.4,5.9,17.2,19.2,17.3,30.2,0,5-.5,25.6-.6,30.9,0,4.1-.9,15.9-.9,19,0,1.7-.6,6.4-2.3,7.7-1.4,1.1-4.2,1.7-6.1,2.1-5,1.1-6.2-3.2-6.5-7.6-.4-6.2-.4-9.4-.6-15.4h0ZM122.8,83.6c0-3.7,0-8,0-12.3,0-4.4-.1-8.9.1-13.3.4-6.5.3-12.4-4.2-17.7-3.3-3.9-9.3-3.4-12.7.3-4.4,4.6-6.3,10-6.7,16.2-.5,7.6-.8,23.9-.4,29.8,7.5-.9,15.4-1.9,23.9-3h0Z"/>
    <path class="cls-2" d="M543.4,98.6c-8.4.2-15.8,0-24.3-.2,0,2,.2,11.1.3,15.7,0,3.4-.5,4.3-2.3,5.7-2.3,1.8-8,1.4-10.1-.6-1-.9-1.9-2.4-2.1-3.7-1-6.2-1.4-16.6-1.5-22.9-.4-36,4.3-52.8,19.1-61.7,6.2-3.7,14-3.6,20.7-.2,12.4,5.9,17.2,19.2,17.3,30.2,0,5-.5,25.6-.6,30.9,0,4.1-.9,18.9-.9,22,0,1.7-.6,3.4-2.3,4.7-1.4,1.1-4.2,1.7-6.1,2.1-5,1.1-6.2-3.2-6.5-7.6-.4-6.2-.4-8.4-.6-14.4h0ZM544,88.5c0-3.7-.2-10-.2-14.3,0-4.4-.1-8.9.1-13.3.4-6.5.3-12.4-4.2-17.7-3.3-3.9-9.3-3.4-12.7.3-4.4,4.6-6.3,10-6.7,16.2-.5,7.6-.8,23.9-.4,29.8,7.6-.3,15.6-.3,24-1h0Z"/>
    <path class="cls-2" d="M473.1,89.6c1.7-5,3.4-10,5.2-15,2.6-7.1,8.3-21.8,9.3-24.4,1.3-3.3,4.7-9.4,10-8.1,4.3,1.1,6.4,6.8,4.4,12-1.4,3.7-12.5,39.1-13.6,43.1-1.9,6.9-2.4,14.2-6.9,20.1-3.1,4.1-11.6,5.5-15.8,2.4-1.1-.8-2.2-2.2-2.6-3.5-1.4-4.7-2.6-9.6-3.6-14.4-1.1-5.4-7-27.7-8.7-35.2-1.4-5.9-5.1-20.7-5.5-22.9-.3-2.2,2.2-5.1,4.5-5.6,6.4-1.5,9.5,3.7,12,11,2.2,6.5,10.4,38.9,10.9,40.6.2,0,.4,0,.5,0h0Z"/>
    <path class="cls-2" d="M247,57c.1-3.9-1-8.2,2.1-11.5.8-.8,2.1-1.5,3.3-1.6,1.4-.2,2.8.2,4.2.5,4.7,1,6.4,4,6.2,9.2-.2,4,.4,8,.5,12,0,2.5-.2,5.1,0,7.6.4,5.9.4,11.9,1.6,17.6,1.1,5.2,2.1,7.4,4.2,12.4,1.2,2.9,6.5,3.1,8.3.5,4-5.8,4.9-9.5,5.6-16.5.8-8.2,1.3-16.5,1.9-24.7.2-2.5-1-14.3,4-15.1,6.5-.9,9.8,1.5,11,7,2.1,10.2,1,20.4,0,30.4-.7,7.1-2.5,14.1-6.2,20.6-2.5,4.4-5.4,8.2-9.4,10.9-7.4,4.9-20.9,5.5-28-4.9-1.8-2.6-3-5.7-4.2-8.6-2-5.1-3.3-10.4-3.7-16-.3-3.4-1.3-23.3-1.2-29.8h0Z"/>
    <path class="cls-2" d="M437.6,45.1c-.1-3.9,1-4.1-2.1-7.4-.8-.8-2.1-1.5-3.3-1.6-1.4-.2-2.8.2-4.2.5-4.7,1-6.4,4-6.2,9.2.2,4-.4,10-.5,14,0,2.5.2,5.1,0,7.6-.4,5.9-.4,11.9-1.6,17.6-1.1,5.2-2.1,7.4-4.2,12.4-1.2,2.9-6.5,3.1-8.3.5-4-5.8-4.9-9.5-5.6-16.5-.8-8.2-1.3-22.5-1.9-30.8-.2-2.5,1-14.3-4-15.1-6.5-.9-9.8,1.5-11,7-2.1,10.2-1,26.4,0,36.5.7,7.1,2.5,14.1,6.2,20.6,2.5,4.4,5.4,8.2,9.4,10.9,7.4,4.9,20.9,5.5,28-4.9,1.8-2.6,3-5.7,4.2-8.6,2-5.1,3.3-10.4,3.7-16,.3-3.4,1.3-29.3,1.2-35.8h0Z"/>
    <path class="cls-2" d="M177.4,37.6c0,3.5,0,6.8,0,10.2.2,5.4.4,10.7.8,16.1.2,3.7,1.5,34.6,1.6,41.4,0,2.6-.2,5.4-.8,7.9-.7,2.6-2.9,3.9-5.5,4.2-3.2.3-6.4.3-8.7-2.6-.3-.4-.5-1-.5-1.4-.3-5.6-1.3-40.4-1.5-44.1-.3-8.3-1.3-28.9-1.6-30.7-3.6.2-12.6,1.7-19.3,1.4-1.4,0-2.7-2.2-2.9-3.6-.4-1.8.8-3.6,2.8-4.3,2.3-.8,4.7-1.6,7.1-1.9,9.3-1.4,18.7-2.5,28-3.8,5.9-.7,7.7-1,13.7-1.8,3.4-.4,7.1-.6,9.8,2.4,2.5,2.8,1.9,5.6-1.7,6.6-2.8.8-15.5,3.2-21.3,4.1h0Z"/>
    <path class="cls-2" d="M222,49.5c0,3.5,0,6.8,0,10.2.2,5.4.4,10.7.8,16.1.2,3.7,1.4,42.7.8,45.3-.7,2.6-2.9,3.9-5.5,4.2-3.2.3-5.7-.3-7.5-3.5-1.4-2.5-2.9-36.9-3.1-40.6-.3-8.3-1.5-28.6-1.8-30.5-4.1.2-15.2,1.7-19.1,1.2-1.4-.2-2.7-2.2-2.9-3.6-.4-1.8.8-3.6,2.8-4.3,2.3-.8,4.7-1.6,7.1-1.9,9.3-1.4,18.7-2.5,28-3.8,5.8-.8,7.1-.8,12.9-1.3,3.4-.3,7.1-.3,9.8,2.7,2.5,2.8,1.9,5.6-1.7,6.6-2.8.8-14.7,2.4-20.5,3.4h0Z"/>
    <path class="cls-1" d="M112.6,2.9L127.9,0h0c1.5,7.9-3.6,15.4-11.3,16.8l-15.3,2.9h0c-1.5-7.9,3.6-15.4,11.3-16.8Z"/>
    <path class="cls-1" d="M273.4,21.1l14.9-4.6h0c2.3,7.7-1.9,15.6-9.4,18l-14.9,4.6h0c-2.3-7.7,1.9-15.6,9.4-18Z"/>
  </g>
  <g>
    <path class="cls-3" d="M11.5,177.9c-1,0-1.4-.8-2-1.4,0-.6,0-1.2,0-1.9s-.2-1.3-.3-2c0-.4,0-.9,0-1.3,0-.7-.3-1.2-.4-1.9,0-.6,0-1.1,0-1.7s-.2-1.4-.3-2.1c0-.6-.1-1.3-.2-1.9,0-.6-.2-1.2-.3-1.8-.3-2.5-.2-5-.7-7.4v-.2c0-.4.2-.7.2-1.1,0-1.1-.4-2.2-.4-3.3,0-.7,0-1.5,0-2.2s-.2-1.7-.3-2.6c-.1-1-.2-2.1-.2-3.1s0-2.1.5-2.6c.2-.2.4-.3.5-.4.3,0,.5.2.7.3,1.1.6,1.4,1.8,1.5,3,0,.6,0,1.2.1,1.8,0,.2.2.4.3.7.2.6.2,1.2.3,1.8.4,2,.3,4.2.5,6.2,0,.6.2,1.2.3,1.8.3,3.6.6,7.1,1,10.6,0,.6,0,1.2.2,1.8,0,.6.3,1.2.4,1.8.1.6,0,1.3.2,1.9,0,.4.3.8.4,1.2.2.9.7,2.7.7,3.5,0,1.2-1.5,2.5-2.7,2.5Z"/>
    <path class="cls-3" d="M33.9,163.1c-.5,1-.9,2.2-1.4,3.1-.1.2-.3.4-.4.6-.1.2,0,.4-.1.6-.1.2-.3.4-.4.6s0,.4-.2.7c-.4,1.2-1.2,2.3-1.8,3.6-.4.8-.9,1.6-1.2,2.5s-.6,1.8-1,2.6-.9,1.7-1.3,2.5c-.2.4-.3.9-.5,1.2-.1.2-.3.4-.4.6-.3.6-.3,1.4-.6,2-.1.2-.3.4-.4.6-.3.5-.5,1.2-.9,1.8-.1.2-.3.3-.4.5-.1.2,0,.5-.2.7-.3.6-.9,1.2-1.1,1.8-.2.4-.3.9-.4,1.3-.4,1-1.1,1.8-1.4,2.8-.2.6-.4,1.9-1,2.3-.4.3-1.3.3-1.8.3s-1.5,0-2-.5c-.3-.3-.6-.9-.6-1.3,0-.6.2-1.3.4-1.8.3-.6.7-1,1-1.5.3-.5.2-1.2.4-1.7.1-.2.3-.4.4-.6.2-.4.3-.9.5-1.3.4-.6,1.4-2.5,1.7-3,.2-.4.2-1,.4-1.4.3-.6.9-1,1.2-1.7.3-.5.3-1,.5-1.5.2-.4.5-.8.7-1.2.4-1,.7-1.9,1.1-2.9.4-1,.7-1.9,1.2-2.8.4-.7,1-1.8,1-2.7v-.2c0-.7-1-1.5-1.4-2-1-1.2-1.9-2.4-2.7-3.7-.8-1.4-1.8-2.7-3-3.6-.3-1.8-2.1-2.7-2.1-4.6s0-.5,0-.7c.4-.2.9-.4,1.3-.4.9,0,1.6.6,2.1,1.3.4.5.6,1,1,1.5.2.3.4.5.5.7.6.9,1.1,1.8,1.8,2.6,0,.1.2.2.3.3.2.3.2.6.4.9.5.7,2.9,4.2,3.8,4.3,1-.3,1.2-2,1.6-2.8.3-.5.8-1,1.1-1.5.3-.5.3-1,.5-1.5.5-1.1,1.1-2.2,1.7-3.2.3-.4.5-.9.8-1.3,0-.2,0-.3.1-.4,0-.1.2,0,.3-.2.1-.1.2-.5.3-.6.4-.9,1.1-2.6,1.8-3,.2-.1.9-.4,1.1-.4.8,0,1.5.5,1.5,1.4,0,2-3.2,8.5-4.2,10.5Z"/>
    <path class="cls-3" d="M57.7,184.6c-.1,1,0,2.2-.4,3.1-.3.7-.9,1.1-1.2,1.8-.3.4-.4.9-.6,1.3-.3.7-.7,1.4-1.1,2.2-.4.9-.7,1.8-1.7,2.2-.3.4-.5.9-.9,1.2-.4.4-1,.5-1.5.9-.4.3-.7.9-1.2,1.1-.4.2-1.2,0-1.7.2-.5,0-.9.3-1.4.3s-1.5-.6-2-.9c-.7-.2-1.4-.1-2.1-.4-.5-.2-.9-.7-1.4-1-1.3-.8-3-1.9-3-3.6s.2-.9.4-1.2c.3-.1.5-.2.7-.2,1,0,1.7.8,1.6,1.8.9.5,1.4,1.3,2.3,1.8.4.2.9.3,1.4.4.3.1,1,.5,1.2.5.4,0,.9,0,1.4-.2,1.7-.4,3.6-2.9,4.1-4.5.1-.3.2-.6.3-1,.3-.6.9-1.2.9-2s0-.5,0-.8c0-.9.5-1.7.6-2.6,0-.4,0-.9,0-1.2s.1-.4.1-.7-.1-.3-.1-.5c0-.4.2-.7.3-1.1,0-.4,0-.9,0-1.3,0-.7.2-1.5.2-2.2s-.1-1-.4-1.4c0-.1,0-.3,0-.4,0-.4-.1-.9-.5-1.1h-.2c-1.2,0-1.7,1-2.6,1.2-.4.1-1,0-1.4,0s-1,0-1.4,0-1.1,0-1.5-.3c-.2-.1-.3-.3-.4-.4-.5-.3-2-.5-2.8-.8-1-.5-2.2-2-2.7-3-.6-1.2-1.1-3.6-1.1-5s0-.7.1-1.1c.1-.6,1.7-3.8,2.2-4.4.4-.4,1-.7,1.4-1.1v-.3c.5-.2,1-.5,1.4-.7,1.4-.8,2.8-1,4.4-1s.8-.2,1.2-.2c1,0,1.9.9,2.9,1.1.4-.1.5-.4.5-.8s-.1-.8-.1-1.3c0-1.3,0-3.8,1.9-3.8s.6,0,1,0c1.5.6,1.2,3.3,1.9,4.5-.1.7-.2,1.4-.2,2.1,0,1.2.3,1.4.4,2.4,0,.5,0,.9,0,1.4,0,1.1.6,2.2.6,3.2s-.2.9-.2,1.3.2.6.3,1c.2,1.1.1,2.1.1,3.3s.1.7.3,1c0,.5-.3,1-.3,1.5s.3,1.2.3,1.8-.2,1.1-.2,1.6.3,1.5.3,2.2c0,1.3-.5,2.6-.7,3.8ZM52.1,165.4c0-.4.2-.9.2-1.3,0-1.1-1.3-1.8-2-2.6-.2-.2,0-.3-.4-.4,0-.1,0-.2-.2-.3-.1,0-1-.2-1.2-.3-.2,0-1-.4-1.1-.4s-.1,0-.1.2c-.4,0-.9,0-1.2.2-.2,0-.4.3-.6.4-.2.2-.4.2-.7.3-1.2.7-2.4,2.2-2.4,3.7s.4,1.8.5,2.6c0,.3,0,.6,0,.9,0,1.1,2.1,5.1,3.4,5.1s1-.3,1.5-.3.8.2,1.2.2,1.1-.6,1.5-.9c.3-.2,1.3-.5,1.5-.8.3-.4.6-2.6.6-3.1,0-1.1-.5-2.1-.5-3.2Z"/>
    <path class="cls-3" d="M64.3,149.4c-.4.1-.7.2-1.1.2s-1.5-.3-1.5-.4c-.1,0-.1-.2-.2-.3-.6-.3-.9-1.3-.9-1.9,0-1.2,1.3-1.6,2.3-1.6s2.3.5,2.9,1.3c.3.3.6.6.6,1.1,0,1-1.5,1.3-2.2,1.5ZM66.2,178.2c-.7,0-1.2-.5-1.8-.7-.5-.9-.4-2.2-.5-3.3,0-.3-.2-.6-.3-1,0-.3,0-.6,0-1,0-1.3-.3-2.9-.3-4.3,0-.5,0-1,0-1.5,0-.7-.2-1.4-.3-2.1-.2-1.6-.1-3.2-.1-4.8s0-3,1.6-3,1.4.3,1.7.8c.2.3.2,1.1.3,1.5,0,.5.3.9.4,1.4.2,1,.2,2.1.3,3.1,0,.5.3,1,.4,1.5.2.7.1,1.5.2,2.2.2,1.7.3,3.4.4,5.1,0,.1.1.3.1.4s-.1.2-.1.4c0,.9.3,1.7.3,2.6s-1.2,2.7-2.3,2.7Z"/>
    <path class="cls-3" d="M76.8,177.9c-1,0-1.4-.8-2-1.4,0-.6,0-1.2,0-1.9s-.2-1.3-.3-2c0-.4,0-.9,0-1.3,0-.7-.3-1.2-.4-1.9,0-.6,0-1.1,0-1.7s-.2-1.4-.3-2.1c0-.6-.1-1.3-.2-1.9,0-.6-.2-1.2-.3-1.8-.3-2.5-.2-5-.7-7.4v-.2c0-.4.2-.7.2-1.1,0-1.1-.4-2.2-.4-3.3,0-.7,0-1.5,0-2.2s-.2-1.7-.3-2.6c-.1-1-.2-2.1-.2-3.1s0-2.1.5-2.6c.2-.2.4-.3.5-.4.3,0,.5.2.7.3,1.1.6,1.4,1.8,1.5,3,0,.6,0,1.2.1,1.8,0,.2.2.4.3.7.2.6.2,1.2.3,1.8.4,2,.3,4.2.5,6.2,0,.6.2,1.2.3,1.8.3,3.6.6,7.1,1,10.6,0,.6,0,1.2.2,1.8,0,.6.3,1.2.4,1.8.1.6,0,1.3.2,1.9,0,.4.3.8.4,1.2.2.9.7,2.7.7,3.5,0,1.2-1.5,2.5-2.7,2.5Z"/>
    <path class="cls-3" d="M97.6,175.2c-.3.2-.5.6-.8.8-.6.3-2.8.8-3.4.8s-1.2-.2-1.8-.5c-.3,0-.5.1-.8.1-.8,0-1.6-.2-2.4-.2-.5,0-1.4-1-1.8-1.3-.2-.2-.5-.3-.7-.4-.5-.3-1.1-1.2-1.4-1.7-1.3-1.7-1.7-2.7-1.7-4.9s0-1.9.3-2.8c.2-.5,1.5-3.4,1.8-3.7.1-.1.2-.2.3-.3,0-.1,0-.3.1-.4.3-.5,2.6-2.2,3.2-2.7.9-.7,1.9-1.4,3.1-1.4s2.6.5,2.8.5c.5.2,3,2.5,3.2,2.9.2.3,0,.7.2,1,.2.9,1,1.5,1,2.4s-.3,1.1-.3,1.7-.9.8-1.2.8-.7-.3-1.1-.3-.7.1-1.1.1c-1.4,0-2.9-.3-4.3-.3s-2.9,0-2.9,2.2,0,2,.3,2.9,1.2,2.8,2,3.2c.2.2.6.1.9.2.2,0,.3.2.5.3.3.1.7.1,1.1.1,1.3,0,3.6-.7,4.4-1.8l.3-.2c0-.1,0-.2,0-.3,0-.6,1.7-1.8,2.5-1.8s1,1.3,1,1.8c0,1.8-1.9,2.2-3,3.1ZM94.1,159.7c-.2,0-.9-.1-1.1-.1-.4,0-.7-.2-1.2-.2-.7,0-2.2,1.1-2.6,1.7-.2.3-.2.6-.3.9-.1.2-.3.5-.3.7,0,.7,1.1,1,1.7,1s1.5-.2,2.3-.3h1.5c.5,0,1.2,0,1.6-.5,0-1.1-.4-2.6-1.5-3.1Z"/>
    <path class="cls-3" d="M122.1,184.6c-.1,1,0,2.2-.4,3.1-.3.7-.9,1.1-1.2,1.8-.3.4-.4.9-.6,1.3-.3.7-.7,1.4-1.1,2.2-.4.9-.7,1.8-1.7,2.2-.3.4-.5.9-.9,1.2-.4.4-1,.5-1.5.9-.4.3-.7.9-1.2,1.1-.4.2-1.2,0-1.7.2-.5,0-.9.3-1.4.3s-1.5-.6-2-.9c-.7-.2-1.4-.1-2.1-.4-.5-.2-.9-.7-1.4-1-1.3-.8-3-1.9-3-3.6s.2-.9.4-1.2c.3-.1.5-.2.7-.2,1,0,1.7.8,1.6,1.8.9.5,1.4,1.3,2.3,1.8.4.2.9.3,1.4.4.3.1,1,.5,1.2.5.4,0,.9,0,1.4-.2,1.7-.4,3.6-2.9,4.1-4.5.1-.3.2-.6.3-1,.3-.6.9-1.2.9-2s0-.5,0-.8c0-.9.5-1.7.6-2.6,0-.4,0-.9,0-1.2s.1-.4.1-.7-.1-.3-.1-.5c0-.4.2-.7.3-1.1,0-.4,0-.9,0-1.3,0-.7.2-1.5.2-2.2s-.1-1-.4-1.4c0-.1,0-.3,0-.4,0-.4-.1-.9-.5-1.1h-.2c-1.2,0-1.7,1-2.6,1.2-.4.1-1,0-1.4,0s-1,0-1.4,0-1.1,0-1.5-.3c-.2-.1-.3-.3-.4-.4-.5-.3-2-.5-2.8-.8-1-.5-2.2-2-2.7-3-.6-1.2-1.1-3.6-1.1-5s0-.7.1-1.1c.1-.6,1.7-3.8,2.2-4.4.4-.4,1-.7,1.4-1.1v-.3c.5-.2,1-.5,1.4-.7,1.4-.8,2.8-1,4.4-1s.8-.2,1.2-.2c1,0,1.9.9,2.9,1.1.4-.1.5-.4.5-.8s-.1-.8-.1-1.3c0-1.3,0-3.8,1.9-3.8s.6,0,1,0c1.5.6,1.2,3.3,1.9,4.5-.1.7-.2,1.4-.2,2.1,0,1.2.3,1.4.4,2.4,0,.5,0,.9,0,1.4,0,1.1.6,2.2.6,3.2s-.2.9-.2,1.3.2.6.3,1c.2,1.1.1,2.1.1,3.3s.1.7.3,1c0,.5-.3,1-.3,1.5s.3,1.2.3,1.8-.2,1.1-.2,1.6.3,1.5.3,2.2c0,1.3-.5,2.6-.7,3.8ZM116.5,165.4c0-.4.2-.9.2-1.3,0-1.1-1.3-1.8-2-2.6-.2-.2,0-.3-.4-.4,0-.1,0-.2-.2-.3-.1,0-1-.2-1.2-.3-.2,0-1-.4-1.1-.4s-.1,0-.1.2c-.4,0-.9,0-1.2.2-.2,0-.4.3-.6.4-.2.2-.4.2-.7.3-1.2.7-2.4,2.2-2.4,3.7s.4,1.8.5,2.6c0,.3,0,.6,0,.9,0,1.1,2.1,5.1,3.4,5.1s1-.3,1.5-.3.8.2,1.2.2,1.1-.6,1.5-.9c.3-.2,1.3-.5,1.5-.8.3-.4.6-2.6.6-3.1,0-1.1-.5-2.1-.5-3.2Z"/>
    <path class="cls-3" d="M143.1,161.7c0,1-.5,1.9-.5,2.8s.1,1.1.1,1.6-.2,1.4-.4,2.1c-.2.4-.4.7-.5,1.1-.1.5,0,1-.2,1.4,0,.4-.3.7-.3,1.1,0,.5,0,1.1,0,1.6s-.4,1.3-.5,2c-.1.6,0,2.3-.2,2.8-.3.8-1.4,2.5-2.3,2.5s-2.3-1.1-2.3-2.2.4-1.3.4-1.9,0-.4-.1-.6c.3-.7.5-.9.5-1.8s0-.6-.2-.9c-.3-.1-.5-.2-.8-.2-.9,0-1.8.4-2.7.4s-1.4-.1-2-.1-.9,0-1.3,0-.3,0-.5,0c-.7-.2-3.5-2.8-3.7-3.4,0-.3-.1-.6-.1-.9,0-.9.5-1.7.9-2.4.3-.5.5-1.2.9-1.5.2-.2.5-.3.7-.5.3-.2.4-.4.6-.6,1.1-.8,2.6-1.2,3.9-1.2s.8,0,1.2,0c.8.2,1.4.6,2.1,1,.3.1,1.1.2,1.2.3.1,0,.2.2.2.3.3.1.5,0,.8.2.5-.4.3-1.4.3-2.1,0-1.1.3-2.1.3-3.2s-1-4.6-2.6-4.8h-.4c-1.3,0-2,1.2-3.6,1.2-1.1,1-1.8,1.8-3.1,2.5-.3.1-.6.4-.9.4s-.2,0-.3-.2c-.2-.2-.3-.5-.3-.7,0-1.5,1.7-2.1,2.1-3.1.3-.1.6-.3.8-.5l.2-.3c.4-.2,1-.4,1.4-.6.2-.1.3-.3.4-.5.9-.5,2.4-.8,3.4-.8s2,.1,2.6.4c.2,0,.3.2.5.3,1,.4,1.6.8,2.3,1.7,1.4,1.7,1.9,4.2,1.9,6.2s0,.8,0,1.2ZM136.3,167.4c-.8-.8-3.5-1.3-4.6-1.3s-2.3.3-2.3,1.5.6,2,1.3,2.5,1.8.4,2.6.5c.5,0,1,.2,1.4.2.9,0,1.9-.2,2.4-.9v-.3c0-.7-.2-1.7-.7-2.2Z"/>
    <path class="cls-3" d="M179.2,172.4c-.3.3-.6.7-1,1-.5.3-1.1.5-1.7.7-.4.2-1.1.6-1.5.7-.4.1-.9,0-1.3,0s-1.1.1-1.6.1-1-.2-1.5-.5c-1.4-.1-2.9-.6-3.9-1.7-.2-.2-.3-.4-.4-.5-.2-.1-.4-.2-.5-.3-1.7-1.2-2-2.5-2-4.5s1-3.5,1.8-5.1c0-.2,0-.3.2-.4.2-.2.5-.3.7-.5.4-.4.6-1,1.1-1.4.2-.2.4-.2.5-.3.3-.2.5-.7.9-.9,1-.5,2.8-.6,3.9-.6,2.2,0,5.3.7,6.5,2.9.3.4.4.7.7,1.1.4.4,1,.6,1.3,1.1,0,.1,0,.3.1.4.5,1,.6,2,.6,3.1,0,2.5-1.1,4-2.8,5.6ZM177.7,164.2c-.2-.2-.3-.3-.4-.4-.5-.5-.8-1.5-1.5-1.8-.4-.2-3.4-.9-3.7-.9s-1.2.6-1.4.9c-.2.2-.4.3-.7.4-1.5.9-1.8,1.6-1.8,3.4s.5,2.2,1.3,3.1c.5.5,1.8,2,2.3,2.2.9.4,2.3.2,3.3.3.7-.5,1.8-1.3,2.2-2.1l.3-.2c.2-.2.2-.5.3-.8.4-.9.6-.8.6-2s-.3-1.5-.7-2.1ZM177,154.8c-.9.5-1.7,1.7-2.7,1.7s-.6-.2-.9-.4c0-.1,0-.2,0-.4,0-1.5,2.2-2.3,3.3-2.9,1.1-.6,2.2-1.9,3.5-1.9s1.2.7,1.2,1.2c0,1.2-3.5,2.2-4.4,2.8Z"/>
    <path class="cls-3" d="M202.9,145.1c-1.5,0-1.6-1.1-1.9-2.2-.3-.9-1.5-1.7-2.2-2.2l-.2-.3c-.2,0,0,0-.2,0h-.1l-.2-.3c-.5-.2-1.2-.4-1.7-.4-1.7,0-1,1-1.7,1.4-1.8.9-1.9,2.2-2.2,3.9-.2.9,0,1.8-.2,2.6-.1,1.1-.5,1.2-.5,2.7s.3,2.9.7,4.2c.4.2.7.3,1.1.3.6,0,1.2-.1,1.8-.1s.5.1.7.1c.7,0,1.4-.4,2.1-.4s2.4,1,2.4,1.7-.2.6-.4.9c-.7.8-2.1.7-3,.7s-.5-.2-.8-.2c-.7,0-1.3.3-2,.3s-.7-.1-1.2-.1c-1,0-1.1,1.4-1.1,2.1,0,1.2.4,2.2.4,3.2s0,1.3,0,2c0,1.9.4,3.8.6,5.6.1,1.1.2,2.2.3,3.3,0,.5.3,1,.3,1.5s-.4,2-.8,2.3c-.4.3-1,.2-1.4.3-.4,0-.8.3-1.2.3-.9,0-1.7-1.5-1.7-2.3s.3-1.1.3-1.7c0-1.4-.5-3-.5-4.5s.1-.9.1-1.3c0-.9-.3-1.7-.4-2.6-.1-.7,0-1.4,0-2.2s-.4-1.8-.4-2.7.1-.6.1-1c0-.5-.3-1.1-.4-1.6-.2-.6.1-1.1-.6-1.4-.2-.1-.3-.2-.5-.2-.6,0-1.1.4-1.7.4-.3,0-.7,0-1,0-.5,0-.9,0-1.4,0-.7,0-1.4-.2-1.4-1s1.1-1.3,1.9-1.3,2.1.3,3.1.3,1.1,0,1.5-.4c.3-.6.3-1.3.3-1.9s0-1.3,0-2c0-1.2,1.5-7.4,2.1-8.4.3-.6.9-.9,1.2-1.4.1-.2,0-.3.2-.4,0-.2.6-.5.8-.7,1.2-1.2,1.3-2,3.1-2.5.5-.1,1-.3,1.4-.3.9,0,.7.3,1.3.5.4.2.9.3,1.3.5.2.1.4.3.6.4s.5.2.7.3c.1.1.2.2.3.3.3.2.6.3.8.6.3.3.5.9.7,1.2.5.9,1.2,1.7,1.2,2.7s-.2.9-.5,1.2Z"/>
    <path class="cls-3" d="M218.9,163.1c-.5,1-.9,2.2-1.4,3.1-.1.2-.3.4-.4.6-.1.2,0,.4-.1.6-.1.2-.3.4-.4.6s0,.4-.2.7c-.4,1.2-1.2,2.3-1.8,3.6-.4.8-.9,1.6-1.2,2.5s-.6,1.8-1,2.6-.9,1.7-1.3,2.5c-.2.4-.3.9-.5,1.2-.1.2-.3.4-.4.6-.3.6-.3,1.4-.6,2s-.3.4-.4.6c-.3.5-.5,1.2-.9,1.8-.1.2-.3.3-.4.5-.1.2,0,.5-.2.7-.3.6-.9,1.2-1.1,1.8-.2.4-.3.9-.4,1.3-.4,1-1.1,1.8-1.4,2.8-.2.6-.4,1.9-1,2.3-.4.3-1.3.3-1.8.3s-1.5,0-2-.5c-.3-.3-.6-.9-.6-1.3,0-.6.2-1.3.4-1.8.3-.6.7-1,1-1.5.3-.5.2-1.2.4-1.7.1-.2.3-.4.4-.6.2-.4.3-.9.5-1.3.4-.6,1.4-2.5,1.7-3,.2-.4.2-1,.4-1.4.3-.6.9-1,1.2-1.7.3-.5.3-1,.5-1.5.2-.4.5-.8.7-1.2.4-1,.7-1.9,1.1-2.9.4-1,.7-1.9,1.2-2.8.4-.7,1-1.8,1-2.7v-.2c0-.7-1-1.5-1.4-2-1-1.2-1.9-2.4-2.7-3.7-.8-1.4-1.8-2.7-3-3.6-.3-1.8-2.1-2.7-2.1-4.6s0-.5,0-.7c.4-.2.9-.4,1.3-.4.9,0,1.6.6,2.1,1.3.4.5.6,1,1,1.5.2.3.4.5.5.7.6.9,1.1,1.8,1.8,2.6,0,.1.2.2.3.3.2.3.2.6.4.9.5.7,2.9,4.2,3.8,4.3,1-.3,1.2-2,1.6-2.8.3-.5.8-1,1.1-1.5.3-.5.3-1,.5-1.5.5-1.1,1.1-2.2,1.7-3.2.3-.4.5-.9.8-1.3,0-.2,0-.3.1-.4,0-.1.2,0,.3-.2.1-.1.2-.5.3-.6.4-.9,1.1-2.6,1.8-3,.2-.1.9-.4,1.1-.4.8,0,1.5.5,1.5,1.4,0,2-3.2,8.5-4.2,10.5Z"/>
    <path class="cls-3" d="M237.8,158.6c-.5,0-1-.3-1.5-.3-1.4,0-2.8,2.2-3.5,3.3-.6.9-1.4,1.8-1.4,2.9s.2.9.2,1.3c0,.7-.4,1.4-.4,2.3s.4,2.1.6,3.1c.1.9,0,1.7.3,2.5.2,1,.3,2,.4,3-.3.5-1.8,1.5-2.3,1.5s-1.2-.4-1.5-.6c-.7-1.9-.8-3.8-1.3-5.8,0-.3-.2-.5-.3-.7,0-.2,0-.4,0-.6,0-.4-.3-.4-.3-.7,0-.2,0-.4,0-.6,0-.5-.3-1.1-.4-1.5,0-.5,0-1-.1-1.5-.1-.6-.4-1.1-.6-1.7-.2-.9,0-1.7-.3-2.5,0-.4-.2-.7-.3-1.1-.1-.3-.3-.5-.4-.9-.1-.4-.4-2.9-.4-3.5s0-.7.1-1.1c.4-.3.9-.6,1.5-.6s1.2.4,1.7.9c1.2,1.3,1.1,3.6,2.1,4.3,1.1,0,1.4-1.3,2.1-1.9.3-.3.6-.5,1-.8,1.5-1.4,2.4-2.8,4.7-2.8s2.2,1,2.2,2.1-.9,1.9-1.9,1.9Z"/>
    <path class="cls-3" d="M243.8,149.4c-.4.1-.7.2-1.1.2s-1.5-.3-1.5-.4c-.1,0-.1-.2-.2-.3-.6-.3-.9-1.3-.9-1.9,0-1.2,1.3-1.6,2.3-1.6s2.3.5,2.9,1.3c.3.3.6.6.6,1.1,0,1-1.5,1.3-2.2,1.5ZM245.7,178.2c-.7,0-1.2-.5-1.8-.7-.5-.9-.4-2.2-.5-3.3,0-.3-.2-.6-.3-1,0-.3,0-.6,0-1,0-1.3-.3-2.9-.3-4.3,0-.5,0-1,0-1.5,0-.7-.2-1.4-.3-2.1-.2-1.6-.1-3.2-.1-4.8s0-3,1.6-3,1.4.3,1.7.8c.2.3.2,1.1.3,1.5,0,.5.3.9.4,1.4.2,1,.2,2.1.3,3.1,0,.5.3,1,.4,1.5.2.7.1,1.5.2,2.2.2,1.7.3,3.4.4,5.1,0,.1.1.3.1.4s-.1.2-.1.4c0,.9.3,1.7.3,2.6s-1.2,2.7-2.3,2.7Z"/>
    <path class="cls-3" d="M265,158.6c-.5,0-1-.3-1.5-.3-1.4,0-2.8,2.2-3.5,3.3-.6.9-1.4,1.8-1.4,2.9s.2.9.2,1.3c0,.7-.4,1.4-.4,2.3s.4,2.1.6,3.1c.1.9,0,1.7.3,2.5.2,1,.3,2,.4,3-.3.5-1.8,1.5-2.3,1.5s-1.2-.4-1.5-.6c-.7-1.9-.8-3.8-1.3-5.8,0-.3-.2-.5-.3-.7,0-.2,0-.4,0-.6,0-.4-.3-.4-.3-.7,0-.2,0-.4,0-.6,0-.5-.3-1.1-.4-1.5,0-.5,0-1-.1-1.5-.1-.6-.4-1.1-.6-1.7-.2-.9,0-1.7-.3-2.5,0-.4-.2-.7-.3-1.1-.1-.3-.3-.5-.4-.9-.1-.4-.4-2.9-.4-3.5s0-.7.1-1.1c.4-.3.9-.6,1.5-.6s1.2.4,1.7.9c1.2,1.3,1.1,3.6,2.1,4.3,1.1,0,1.4-1.3,2.1-1.9.3-.3.6-.5,1-.8,1.5-1.4,2.4-2.8,4.7-2.8s2.2,1,2.2,2.1-.9,1.9-1.9,1.9Z"/>
    <path class="cls-3" d="M280.8,158.3c-1.2,0-.6-2.3-3.5-2.3s-2.3.9-2.3,2.7.5,2.3,1.1,3.6c.2.5.3,1,.5,1.5.4.7.9,1.3,1.1,2.2.2.6.3,1.3.5,1.9.3.9.7,1.6,1.1,2.5.1.3.1.6.3,1,.1.3.3.4.4.7.1.5.1,1,.1,1.5,0,1.7-.2,2.8-1.1,4.3-.3.3-.4.8-.7,1.1-.3.3-.7.4-1.1.7-.6.3-1.1.7-1.7,1.2-.2-.1-.4-.1-.6-.1-.6,0-1.1.3-1.5.5-.7,0-1.5,0-2.3,0s-1.4-.4-1.9-.7l-.2-.3h-.3c-.4-.4-.5-1-.9-1.4-.2-.3-.9-.7-1-1.1,0-.3-.1-.5-.1-.8,0-.6.4-1.3,1.1-1.3s.9.3,1.1.6c.2.2.2.5.3.7.4.7,1.9,2.3,2.8,2.3s1.4-.4,1.9-.7c1.3-.9,1.1-2.6,1.2-4,0-.3.2-.7.2-1h0c0-.4-1.1-3.2-1.2-3.4,0-.1-.2-.1-.3-.2-.5-1.2-.3-2.5-.8-3.4-.5-.8-.8-1.7-1.2-2.5-.7-1.3-1.5-2.3-1.5-4s1.2-4,2.7-5.1c.1,0,.3-.2.4-.3.5-.3,1.9-1.1,2.4-1.2.5-.1,1.1-.2,1.7-.2,1.7,0,4.3,1.8,4.3,3.6s-.3,1.2-1,1.2Z"/>
    <path class="cls-3" d="M291.4,179.8c0,.7.1,1.4.1,2.1s0,.8-.1,1.2c0,.2-.2.3-.3.5,0,.2,0,.4,0,.7,0,1.1-.9,4-1.4,5.1-.2.4-.2.9-.4,1.2-.1.2-.4.3-.4.4-.1.2,0,.5-.2.7-.1.2-.4.3-.5.5-.1.2,0,.3-.2.4,0,.1-.2,0-.3.2-.1.1-.2.5-.3.7,0,.1-.2.2-.3.3,0,0,0,.2-.2.3-.3.3-1.2.6-1.7,1.1-.2.3-.3.7-.5,1-1.4,2.3-2.1,2.2-4.4,3.2-.9.4-1.7,1-2.7,1s-1.3-.4-2-.4-.6,0-1,0c-.9,0-3.6-1.9-4.3-2.6-.1-.2-.8-1.8-.8-1.9,0-.6.6-1.3,1.2-1.3.9,0,2.2,2.1,2.9,2.8.9.7,1.2.8,2.3,1,.3,0,.6.2,1,.2.6,0,.9-.4,1.4-.6.4-.2.9-.3,1.2-.5.6-.5,1.1-1.3,1.7-1.9.6-.7,1.4-1.4,1.9-2.2.5-1,1.1-1.9,1.5-2.9.5-1.4.8-3.9,1.2-5.5.1-.3.3-.5.3-.7.3-2,.2-4.1.2-6.1s0-1.8,0-2.6c0-1.4-.5-2.8-.5-4.2s.2-1,.2-1.4-.2-.9-.3-1.3c-.1-.4,0-.9-.2-1.3,0-.4-.3-.7-.4-1.1,0-.4,0-.7,0-1.1,0-.9-.7-1.7-.7-2.5s.1-.7.1-1.1c0-.9-.1-2.5.9-2.9.1-.3.5-.3.8-.3s.6,0,1,0c.2.3.6.4.9.7.2.3.2.7.4,1,.1.2.3.3.4.4.2.4.3,1.2.3,1.7,0,.9.4,1.4.4,2.5s.5,1.1.5,1.5c.1.6.1,1.1.2,1.7.2,1,.4,1.9.5,2.9.3,1.4.3,2.9.4,4.4,0,.8.2,1.6.2,2.5s-.3,1.9-.3,2.9ZM286.5,150.4c-1.3,0-3.4-.4-3.4-2.1s.9-2.2,2-2.2,2,.6,3,1c.3.5.6,1.2.6,1.8,0,1.2-1.3,1.5-2.2,1.5Z"/>
    <path class="cls-3" d="M312,161.7c0,1-.5,1.9-.5,2.8s.1,1.1.1,1.6-.2,1.4-.4,2.1c-.2.4-.4.7-.5,1.1-.1.5,0,1-.2,1.4,0,.4-.3.7-.3,1.1,0,.5,0,1.1,0,1.6s-.4,1.3-.5,2c-.1.6,0,2.3-.2,2.8-.3.8-1.4,2.5-2.3,2.5s-2.3-1.1-2.3-2.2.4-1.3.4-1.9,0-.4-.1-.6c.3-.7.5-.9.5-1.8s0-.6-.2-.9c-.3-.1-.5-.2-.8-.2-.9,0-1.8.4-2.7.4s-1.4-.1-2-.1-.9,0-1.3,0-.3,0-.5,0c-.7-.2-3.5-2.8-3.7-3.4,0-.3-.1-.6-.1-.9,0-.9.5-1.7.9-2.4.3-.5.5-1.2.9-1.5.2-.2.5-.3.7-.5.3-.2.4-.4.6-.6,1.1-.8,2.6-1.2,3.9-1.2s.8,0,1.2,0c.8.2,1.4.6,2.1,1,.3.1,1.1.2,1.2.3.1,0,.2.2.2.3.3.1.5,0,.8.2.5-.4.3-1.4.3-2.1,0-1.1.3-2.1.3-3.2s-1-4.6-2.6-4.8h-.4c-1.3,0-2,1.2-3.6,1.2-1.1,1-1.8,1.8-3.1,2.5-.3.1-.6.4-.9.4s-.2,0-.3-.2c-.2-.2-.3-.5-.3-.7,0-1.5,1.7-2.1,2.1-3.1.3-.1.6-.3.8-.5l.2-.3c.4-.2,1-.4,1.4-.6.2-.1.3-.3.4-.5.9-.5,2.4-.8,3.4-.8s2,.1,2.6.4c.2,0,.3.2.5.3,1,.4,1.6.8,2.3,1.7,1.4,1.7,1.9,4.2,1.9,6.2s0,.8,0,1.2ZM305.2,167.4c-.8-.8-3.5-1.3-4.6-1.3s-2.3.3-2.3,1.5.6,2,1.3,2.5,1.8.4,2.6.5c.5,0,1,.2,1.4.2.9,0,1.9-.2,2.4-.9v-.3c0-.7-.2-1.7-.7-2.2ZM310.6,148.9c-.9.5-1.7,1.7-2.7,1.7s-.6-.2-.9-.4c0-.1,0-.2,0-.4,0-1.5,2.2-2.3,3.3-2.9,1.1-.6,2.2-1.9,3.5-1.9s1.2.7,1.2,1.2c0,1.2-3.5,2.2-4.4,2.8Z"/>
    <path class="cls-3" d="M332.1,161.7c0,1-.5,1.9-.5,2.8s.1,1.1.1,1.6-.2,1.4-.4,2.1c-.2.4-.4.7-.5,1.1-.1.5,0,1-.2,1.4,0,.4-.3.7-.3,1.1,0,.5,0,1.1,0,1.6s-.4,1.3-.5,2c-.1.6,0,2.3-.2,2.8-.3.8-1.4,2.5-2.3,2.5s-2.3-1.1-2.3-2.2.4-1.3.4-1.9,0-.4-.1-.6c.3-.7.5-.9.5-1.8s0-.6-.2-.9c-.3-.1-.5-.2-.8-.2-.9,0-1.8.4-2.7.4s-1.4-.1-2-.1-.9,0-1.3,0-.3,0-.5,0c-.7-.2-3.5-2.8-3.7-3.4,0-.3-.1-.6-.1-.9,0-.9.5-1.7.9-2.4.3-.5.5-1.2.9-1.5.2-.2.5-.3.7-.5.3-.2.4-.4.6-.6,1.1-.8,2.6-1.2,3.9-1.2s.8,0,1.2,0c.8.2,1.4.6,2.1,1,.3.1,1.1.2,1.2.3.1,0,.2.2.2.3.3.1.5,0,.8.2.5-.4.3-1.4.3-2.1,0-1.1.3-2.1.3-3.2s-1-4.6-2.6-4.8h-.4c-1.3,0-2,1.2-3.6,1.2-1.1,1-1.8,1.8-3.1,2.5-.3.1-.6.4-.9.4s-.2,0-.3-.2c-.2-.2-.3-.5-.3-.7,0-1.5,1.7-2.1,2.1-3.1.3-.1.6-.3.8-.5l.2-.3c.4-.2,1-.4,1.4-.6.2-.1.3-.3.4-.5.9-.5,2.4-.8,3.4-.8s2,.1,2.6.4c.2,0,.3.2.5.3,1,.4,1.6.8,2.3,1.7,1.4,1.7,1.9,4.2,1.9,6.2s0,.8,0,1.2ZM325.3,167.4c-.8-.8-3.5-1.3-4.6-1.3s-2.3.3-2.3,1.5.6,2,1.3,2.5,1.8.4,2.6.5c.5,0,1,.2,1.4.2.9,0,1.9-.2,2.4-.9v-.3c0-.7-.2-1.7-.7-2.2Z"/>
    <path class="cls-3" d="M360,176c-.6.7-.9,1.7-2,1.7s-2.7-.4-3.1-1.4c-.2-.4-.2-.9-.2-1.2,0-1.3.2-2.5.2-3.8s-.3-1.8-.3-2.4.1-.6.1-1c0-.7,0-1.5-.1-2.2-.2-1-1.1-1.8-1.1-2.8s0-.6,0-1c0-.7-.3-.3-.3-1.4s-.5-1.7-.7-2.1c-.2-.6-.4-1.3-1-1.7h-.3c-2.4-.1-3.3,1.5-4.8,3.1-.5.6-.9,1.2-1.4,1.8-.6.7-.8.6-1.3,1.8-.3.5-.2,1.2-.4,1.8-.2.3-.4.6-.6,1-.2.3-.3.7-.4,1.1-.3,1.1-.2,2.2-.3,3.3,0,.6-.3,1.3-.3,1.9,0,1.2.6,2.2.6,3.5s-1,2.8-2.6,2.8-1.6-.5-1.9-1.2c-.2-.5-.1-1-.1-1.5,0-.9-.4-1.7-.4-1.8,0-.4.2-.7.2-1.1,0-.5-.5-1-.6-1.5,0-.4,0-.9,0-1.2,0-.6-.3-1.2-.4-1.8-.5-2.3-.7-6-.7-8.4s0-3.1,1.4-3.1,1.6.8,2.2,1.4c.4,1.3.3,3.2,1,4.4,1.8,0,2-1.9,2.7-3,.3-.5.8-.8,1.1-1.2s.5-1,.8-1.4c0,0,2.3-2.2,2.3-2.2.4-.3,1-.3,1.4-.6.5-.3,1-1,1.6-1s.3.2.5.2c.5,0,1-.2,1.5-.2,1.2,0,1.9,1.2,2.8,1.7.1.1.3,0,.4.2,0,0,.2.5.3.7.3.5.8,1,1.1,1.7.3.6.3,1.4.6,2,1,3,1.9,5.4,1.9,8.6s-.2,1.2-.2,1.8c0,1.7.6,3.2.6,4.8s0,.5,0,.7Z"/>
    <path class="cls-3" d="M367.8,177.9c-1,0-1.4-.8-2-1.4,0-.6,0-1.2,0-1.9s-.2-1.3-.3-2c0-.4,0-.9,0-1.3,0-.7-.3-1.2-.4-1.9,0-.6,0-1.1,0-1.7s-.2-1.4-.3-2.1c0-.6-.1-1.3-.2-1.9,0-.6-.2-1.2-.3-1.8-.3-2.5-.2-5-.7-7.4v-.2c0-.4.2-.7.2-1.1,0-1.1-.4-2.2-.4-3.3,0-.7,0-1.5,0-2.2s-.2-1.7-.3-2.6c-.1-1-.2-2.1-.2-3.1s0-2.1.5-2.6c.2-.2.4-.3.5-.4.3,0,.5.2.7.3,1.1.6,1.4,1.8,1.5,3,0,.6,0,1.2.1,1.8,0,.2.2.4.3.7.2.6.2,1.2.3,1.8.4,2,.3,4.2.5,6.2,0,.6.2,1.2.3,1.8.3,3.6.6,7.1,1,10.6,0,.6,0,1.2.2,1.8,0,.6.3,1.2.4,1.8s0,1.3.2,1.9c0,.4.3.8.4,1.2.2.9.7,2.7.7,3.5,0,1.2-1.5,2.5-2.7,2.5Z"/>
    <path class="cls-3" d="M388.6,175.2c-.3.2-.5.6-.8.8-.6.3-2.8.8-3.4.8s-1.2-.2-1.8-.5c-.3,0-.5.1-.8.1-.8,0-1.6-.2-2.4-.2-.5,0-1.4-1-1.8-1.3-.2-.2-.5-.3-.7-.4-.5-.3-1.1-1.2-1.4-1.7-1.3-1.7-1.7-2.7-1.7-4.9s0-1.9.3-2.8c.2-.5,1.5-3.4,1.8-3.7.1-.1.2-.2.3-.3,0-.1,0-.3.1-.4.3-.5,2.6-2.2,3.2-2.7.9-.7,1.9-1.4,3.1-1.4s2.6.5,2.8.5c.5.2,3,2.5,3.2,2.9.2.3,0,.7.2,1,.2.9,1,1.5,1,2.4s-.3,1.1-.3,1.7-.9.8-1.2.8-.7-.3-1.1-.3-.7.1-1.1.1c-1.4,0-2.9-.3-4.3-.3s-2.9,0-2.9,2.2,0,2,.3,2.9c.2.9,1.2,2.8,2,3.2.2.2.6.1.9.2.2,0,.3.2.5.3.3.1.7.1,1.1.1,1.3,0,3.6-.7,4.4-1.8l.3-.2c0-.1,0-.2,0-.3,0-.6,1.7-1.8,2.5-1.8s1,1.3,1,1.8c0,1.8-1.9,2.2-3,3.1ZM385.2,159.7c-.2,0-.9-.1-1.1-.1-.4,0-.7-.2-1.2-.2-.7,0-2.2,1.1-2.6,1.7-.2.3-.2.6-.3.9-.1.2-.3.5-.3.7,0,.7,1.1,1,1.7,1s1.5-.2,2.3-.3h1.5c.5,0,1.2,0,1.6-.5,0-1.1-.4-2.6-1.5-3.1Z"/>
    <path class="cls-3" d="M413.1,184.6c-.1,1,0,2.2-.4,3.1-.3.7-.9,1.1-1.2,1.8-.3.4-.4.9-.6,1.3-.3.7-.7,1.4-1.1,2.2-.4.9-.7,1.8-1.7,2.2-.3.4-.5.9-.9,1.2-.4.4-1,.5-1.5.9-.4.3-.7.9-1.2,1.1-.4.2-1.2,0-1.7.2-.5,0-.9.3-1.4.3s-1.5-.6-2-.9c-.7-.2-1.4-.1-2.1-.4-.5-.2-.9-.7-1.4-1-1.3-.8-3-1.9-3-3.6s.2-.9.4-1.2c.3-.1.5-.2.7-.2,1,0,1.7.8,1.6,1.8.9.5,1.4,1.3,2.3,1.8.4.2.9.3,1.4.4.3.1,1,.5,1.2.5.4,0,.9,0,1.4-.2,1.7-.4,3.6-2.9,4.1-4.5.1-.3.2-.6.3-1,.3-.6.9-1.2.9-2s0-.5,0-.8c0-.9.5-1.7.6-2.6,0-.4,0-.9,0-1.2s.1-.4.1-.7-.1-.3-.1-.5c0-.4.2-.7.3-1.1,0-.4,0-.9,0-1.3,0-.7.2-1.5.2-2.2s-.1-1-.4-1.4c0-.1,0-.3,0-.4,0-.4-.1-.9-.5-1.1h-.2c-1.2,0-1.7,1-2.6,1.2-.4.1-1,0-1.4,0s-1,0-1.4,0-1.1,0-1.5-.3c-.2-.1-.3-.3-.4-.4-.5-.3-2-.5-2.8-.8-1-.5-2.2-2-2.7-3-.6-1.2-1.1-3.6-1.1-5s0-.7.1-1.1c.1-.6,1.7-3.8,2.2-4.4.4-.4,1-.7,1.4-1.1v-.3c.5-.2,1-.5,1.4-.7,1.4-.8,2.8-1,4.4-1s.8-.2,1.2-.2c1,0,1.9.9,2.9,1.1.4-.1.5-.4.5-.8s-.1-.8-.1-1.3c0-1.3,0-3.8,1.9-3.8s.6,0,1,0c1.5.6,1.2,3.3,1.9,4.5-.1.7-.2,1.4-.2,2.1,0,1.2.3,1.4.4,2.4,0,.5,0,.9,0,1.4,0,1.1.6,2.2.6,3.2s-.2.9-.2,1.3.2.6.3,1c.2,1.1.1,2.1.1,3.3s.1.7.3,1c0,.5-.3,1-.3,1.5s.3,1.2.3,1.8-.2,1.1-.2,1.6.3,1.5.3,2.2c0,1.3-.5,2.6-.7,3.8ZM407.5,165.4c0-.4.2-.9.2-1.3,0-1.1-1.3-1.8-2-2.6-.2-.2,0-.3-.4-.4,0-.1,0-.2-.2-.3-.1,0-1-.2-1.2-.3-.2,0-1-.4-1.1-.4s-.1,0-.1.2c-.4,0-.9,0-1.2.2-.2,0-.4.3-.6.4-.2.2-.4.2-.7.3-1.2.7-2.4,2.2-2.4,3.7s.4,1.8.5,2.6c0,.3,0,.6,0,.9,0,1.1,2.1,5.1,3.4,5.1s1-.3,1.5-.3.8.2,1.2.2,1.1-.6,1.5-.9c.3-.2,1.3-.5,1.5-.8.3-.4.6-2.6.6-3.1,0-1.1-.5-2.1-.5-3.2Z"/>
    <path class="cls-3" d="M439.1,177.9c-1,0-1.4-.8-2-1.4,0-.6,0-1.2,0-1.9s-.2-1.3-.3-2c0-.4,0-.9,0-1.3,0-.7-.3-1.2-.4-1.9,0-.6,0-1.1,0-1.7s-.2-1.4-.3-2.1c0-.6-.1-1.3-.2-1.9,0-.6-.2-1.2-.3-1.8-.3-2.5-.2-5-.7-7.4v-.2c0-.4.2-.7.2-1.1,0-1.1-.4-2.2-.4-3.3,0-.7,0-1.5,0-2.2s-.2-1.7-.3-2.6c-.1-1-.2-2.1-.2-3.1s0-2.1.5-2.6c.2-.2.4-.3.5-.4.3,0,.5.2.7.3,1.1.6,1.4,1.8,1.5,3,0,.6,0,1.2.1,1.8,0,.2.2.4.3.7.2.6.2,1.2.3,1.8.4,2,.3,4.2.5,6.2,0,.6.2,1.2.3,1.8.3,3.6.6,7.1,1,10.6,0,.6,0,1.2.2,1.8,0,.6.3,1.2.4,1.8.1.6,0,1.3.2,1.9,0,.4.3.8.4,1.2.2.9.7,2.7.7,3.5,0,1.2-1.5,2.5-2.7,2.5Z"/>
    <path class="cls-3" d="M449.2,178.2c-.7,0-1.1-.5-1.8-.7-.5-.9-.4-2.2-.5-3.3,0-.3-.2-.6-.3-1,0-.3,0-.6,0-1,0-1.3-.3-2.9-.3-4.3v-1.5c0-.7-.2-1.4-.3-2.1-.2-1.6-.2-3.2-.2-4.8s0-3,1.6-3,1.4.3,1.7.8c.2.3.2,1.1.3,1.5.1.5.3.9.4,1.4.2,1,.1,2.1.3,3.1,0,.5.3,1,.4,1.5.1.7,0,1.5.1,2.2.2,1.7.4,3.4.4,5.1.1.1.2.3.2.4s-.2.2-.2.4c0,.9.3,1.7.3,2.6s-1.2,2.7-2.3,2.7ZM451.7,153.5c-.9.5-1.7,1.7-2.7,1.7s-.6-.2-.9-.4c0-.1,0-.2,0-.4,0-1.5,2.2-2.3,3.3-2.9,1.1-.6,2.2-1.9,3.5-1.9s1.2.7,1.2,1.2c0,1.2-3.5,2.2-4.4,2.8Z"/>
    <path class="cls-3" d="M474.9,145.1c-1.5,0-1.6-1.1-1.9-2.2-.3-.9-1.5-1.7-2.2-2.2l-.2-.3c-.2,0,0,0-.2,0h-.1l-.2-.3c-.5-.2-1.2-.4-1.7-.4-1.7,0-1,1-1.7,1.4-1.8.9-1.9,2.2-2.2,3.9-.2.9,0,1.8-.2,2.6-.1,1.1-.5,1.2-.5,2.7s.3,2.9.7,4.2c.4.2.7.3,1.1.3.6,0,1.2-.1,1.8-.1s.5.1.7.1c.7,0,1.4-.4,2.1-.4s2.4,1,2.4,1.7-.2.6-.4.9c-.7.8-2.1.7-3,.7s-.5-.2-.8-.2c-.7,0-1.3.3-2,.3s-.7-.1-1.2-.1c-1,0-1.1,1.4-1.1,2.1,0,1.2.4,2.2.4,3.2s0,1.3,0,2c0,1.9.4,3.8.6,5.6.1,1.1.2,2.2.3,3.3,0,.5.3,1,.3,1.5s-.4,2-.8,2.3c-.4.3-1,.2-1.4.3-.4,0-.8.3-1.2.3-.9,0-1.7-1.5-1.7-2.3s.3-1.1.3-1.7c0-1.4-.5-3-.5-4.5s.1-.9.1-1.3c0-.9-.3-1.7-.4-2.6-.1-.7,0-1.4,0-2.2s-.4-1.8-.4-2.7.1-.6.1-1c0-.5-.3-1.1-.4-1.6-.2-.6.1-1.1-.6-1.4-.2-.1-.3-.2-.5-.2-.6,0-1.1.4-1.7.4-.3,0-.7,0-1,0-.5,0-.9,0-1.4,0-.7,0-1.4-.2-1.4-1s1.1-1.3,1.9-1.3,2.1.3,3.1.3,1.1,0,1.5-.4c.3-.6.3-1.3.3-1.9s0-1.3,0-2c0-1.2,1.5-7.4,2.1-8.4.3-.6.9-.9,1.2-1.4.1-.2,0-.3.2-.4,0-.2.6-.5.8-.7,1.2-1.2,1.3-2,3.1-2.5.5-.1,1-.3,1.4-.3.9,0,.7.3,1.3.5.4.2.9.3,1.3.5.2.1.4.3.6.4.2.1.5.2.7.3.1.1.2.2.3.3.3.2.6.3.8.6.3.3.5.9.7,1.2.5.9,1.2,1.7,1.2,2.7s-.2.9-.5,1.2Z"/>
    <path class="cls-3" d="M486.2,158.3c-1.2,0-.6-2.3-3.5-2.3s-2.3.9-2.3,2.7.5,2.3,1.1,3.6c.2.5.3,1,.5,1.5.4.7.9,1.3,1.1,2.2.2.6.3,1.3.5,1.9.3.9.7,1.6,1.1,2.5.1.3.1.6.3,1,.1.3.3.4.4.7.1.5.1,1,.1,1.5,0,1.7-.2,2.8-1.1,4.3-.3.3-.4.8-.7,1.1-.3.3-.7.4-1.1.7-.6.3-1.1.7-1.7,1.2-.2-.1-.4-.1-.6-.1-.6,0-1.1.3-1.5.5-.7,0-1.5,0-2.3,0s-1.4-.4-1.9-.7l-.2-.3h-.3c-.4-.4-.5-1-.9-1.4-.2-.3-.9-.7-1-1.1,0-.3-.1-.5-.1-.8,0-.6.4-1.3,1.1-1.3s.9.3,1.1.6c.2.2.2.5.3.7.4.7,1.9,2.3,2.8,2.3s1.4-.4,1.9-.7c1.3-.9,1.1-2.6,1.2-4,0-.3.2-.7.2-1h0c0-.4-1.1-3.2-1.2-3.4,0-.1-.2-.1-.3-.2-.5-1.2-.3-2.5-.8-3.4-.5-.8-.8-1.7-1.2-2.5-.7-1.3-1.5-2.3-1.5-4s1.2-4,2.7-5.1c.1,0,.3-.2.4-.3.5-.3,1.9-1.1,2.4-1.2.5-.1,1.1-.2,1.7-.2,1.7,0,4.3,1.8,4.3,3.6s-.3,1.2-1,1.2Z"/>
    <path class="cls-3" d="M509.6,169.9c-.2.9-.7,1.4-1.2,2.2-.3.4-.6,1.4-1,1.7-.4.4-.9.4-1.4.5-.7.3-1,1.1-1.9,1.1s-.6,0-.9,0c-1,0-1.7.8-2.7,1-.5,0-1.1,0-1.7,0s-.6,0-1,.1c-.5-.2-1.1-.6-1.7-.6s-.5.2-.9.3c-.1,0-.3,0-.4.1-.6.5-.5.8-1.5.8s-2.5-1.2-2.5-2.2.3-2.3.3-3.5-.2-1.5-.3-2.2c-.2-1.8-.3-3.6-.3-5.3s.2-.6.2-1c0-.7-.4-1.4-.4-2.2s.2-.6.2-.9-.3-.6-.3-.9.2-.8.2-1.2c0-1.9-.4-3.7-.4-5.6s.2-.6.2-.9c0-.6-.3-1.2-.4-1.8-.2-1.3-.1-2.7-.3-4.1,0-.6-.3-1.2-.3-1.8s.2-.7.2-1.1c0-1.2-.4-2.3-.4-3.6s.2-2.8,1.3-2.8,1.1-.1,1.2.4h.3c1,.9,1.2,4.3,1.4,5.6.1.6.4,1.2.5,1.8.1.7,0,1.5.1,2.2.1,1.4.3,2.9.4,4.3.1.6.2,1.3.3,1.9,0,.6,0,1.2,0,1.8s.2,1.1.3,1.7c.2,1.3,0,2.6.2,3.9,0,.9,0,2.7,1,2.9.1,0,.2,0,.3,0,1.2,0,1.8-1.4,2.7-1.9.2-.1.4,0,.5-.2,1.1-.3,2.2-.6,3.3-.6s2.6.3,3.6,1.1c.2.1.3.3.4.4.4.3.9.5,1.2.9.3.3.3.7.5,1.1.1.2.3.2.4.4.1.1,0,.2.2.3.5.6.5,1.5,1,2.2-.1,1.3-.3,2.6-.5,3.9ZM505.1,165.5c0-.3-.3-.5-.4-.8-.5-1.1-.5-1.5-1.4-2.3-.1,0-.2,0-.3,0-.4,0-.7-.1-1.1-.1-1.1,0-1.4.7-2.3,1.2-.6.5-.9,1.2-1.4,1.8-.4.5-1.3,1.2-1.3,1.9s0,.6,0,.9c0,.9-.7,1.3-.7,2.3s.4,2.1.4,3.2c.7.5,1.6.4,2.5.4s.7.1,1.1.1.7-.3,1-.4c.4-.1.8,0,1.2-.1.2-.1.3-.3.5-.4,1.5-1,2.1-1.3,2.3-3.2,0-.3,0-.5,0-.8,0-1,0-2.7-.2-3.6Z"/>
    <path class="cls-3" d="M529.3,161.7c0,1-.5,1.9-.5,2.8s.1,1.1.1,1.6-.2,1.4-.4,2.1c-.2.4-.4.7-.5,1.1-.1.5,0,1-.2,1.4,0,.4-.3.7-.3,1.1,0,.5,0,1.1,0,1.6s-.4,1.3-.5,2c-.1.6,0,2.3-.2,2.8-.3.8-1.4,2.5-2.3,2.5s-2.3-1.1-2.3-2.2.4-1.3.4-1.9,0-.4-.1-.6c.3-.7.5-.9.5-1.8s0-.6-.2-.9c-.3-.1-.5-.2-.8-.2-.9,0-1.8.4-2.7.4s-1.4-.1-2-.1-.9,0-1.3,0-.3,0-.5,0c-.7-.2-3.5-2.8-3.7-3.4,0-.3-.1-.6-.1-.9,0-.9.5-1.7.9-2.4.3-.5.5-1.2.9-1.5.2-.2.5-.3.7-.5.3-.2.4-.4.6-.6,1.1-.8,2.6-1.2,3.9-1.2s.8,0,1.2,0c.8.2,1.4.6,2.1,1,.3.1,1.1.2,1.2.3.1,0,.2.2.2.3.3.1.5,0,.8.2.5-.4.3-1.4.3-2.1,0-1.1.3-2.1.3-3.2s-1-4.6-2.6-4.8h-.4c-1.3,0-2,1.2-3.6,1.2-1.1,1-1.8,1.8-3.1,2.5-.3.1-.6.4-.9.4s-.2,0-.3-.2c-.2-.2-.3-.5-.3-.7,0-1.5,1.7-2.1,2.1-3.1.3-.1.6-.3.8-.5l.2-.3c.4-.2,1-.4,1.4-.6.2-.1.3-.3.4-.5.9-.5,2.4-.8,3.4-.8s2,.1,2.6.4c.2,0,.3.2.5.3,1,.4,1.6.8,2.3,1.7,1.4,1.7,1.9,4.2,1.9,6.2s0,.8,0,1.2ZM522.5,167.4c-.8-.8-3.5-1.3-4.6-1.3s-2.3.3-2.3,1.5.6,2,1.3,2.5,1.8.4,2.6.5c.5,0,1,.2,1.4.2.9,0,1.9-.2,2.4-.9v-.3c0-.7-.2-1.7-.7-2.2Z"/>
    <path class="cls-3" d="M546,158.6c-.5,0-1-.3-1.5-.3-1.4,0-2.8,2.2-3.5,3.3-.6.9-1.4,1.8-1.4,2.9s.2.9.2,1.3c0,.7-.4,1.4-.4,2.3s.4,2.1.6,3.1c.1.9,0,1.7.3,2.5.2,1,.3,2,.4,3-.3.5-1.8,1.5-2.3,1.5s-1.2-.4-1.5-.6c-.7-1.9-.8-3.8-1.3-5.8,0-.3-.2-.5-.3-.7,0-.2,0-.4,0-.6,0-.4-.3-.4-.3-.7,0-.2,0-.4,0-.6,0-.5-.3-1.1-.4-1.5,0-.5,0-1-.1-1.5-.1-.6-.4-1.1-.6-1.7-.2-.9,0-1.7-.3-2.5,0-.4-.2-.7-.3-1.1-.1-.3-.3-.5-.4-.9-.1-.4-.4-2.9-.4-3.5s0-.7.1-1.1c.4-.3.9-.6,1.5-.6s1.2.4,1.7.9c1.2,1.3,1.1,3.6,2.1,4.3,1.1,0,1.4-1.3,2.1-1.9.3-.3.6-.5,1-.8,1.5-1.4,2.4-2.8,4.7-2.8s2.2,1,2.2,2.1-.9,1.9-1.9,1.9Z"/>
    <path class="cls-3" d="M566.3,161.7c0,1-.5,1.9-.5,2.8s.1,1.1.1,1.6-.2,1.4-.4,2.1c-.2.4-.4.7-.5,1.1-.1.5,0,1-.2,1.4,0,.4-.3.7-.3,1.1,0,.5,0,1.1,0,1.6s-.4,1.3-.5,2c-.1.6,0,2.3-.2,2.8-.3.8-1.4,2.5-2.3,2.5s-2.3-1.1-2.3-2.2.4-1.3.4-1.9,0-.4-.1-.6c.3-.7.5-.9.5-1.8s0-.6-.2-.9c-.3-.1-.5-.2-.8-.2-.9,0-1.8.4-2.7.4s-1.4-.1-2-.1-.9,0-1.3,0-.3,0-.5,0c-.7-.2-3.5-2.8-3.7-3.4,0-.3-.1-.6-.1-.9,0-.9.5-1.7.9-2.4.3-.5.5-1.2.9-1.5.2-.2.5-.3.7-.5.3-.2.4-.4.6-.6,1.1-.8,2.6-1.2,3.9-1.2s.8,0,1.2,0c.8.2,1.4.6,2.1,1,.3.1,1.1.2,1.2.3.1,0,.2.2.2.3.3.1.5,0,.8.2.5-.4.3-1.4.3-2.1,0-1.1.3-2.1.3-3.2s-1-4.6-2.6-4.8h-.4c-1.3,0-2,1.2-3.6,1.2-1.1,1-1.8,1.8-3.1,2.5-.3.1-.6.4-.9.4s-.2,0-.3-.2c-.2-.2-.3-.5-.3-.7,0-1.5,1.7-2.1,2.1-3.1.3-.1.6-.3.8-.5l.2-.3c.4-.2,1-.4,1.4-.6.2-.1.3-.3.4-.5.9-.5,2.4-.8,3.4-.8s2,.1,2.6.4c.2,0,.3.2.5.3,1,.4,1.6.8,2.3,1.7,1.4,1.7,1.9,4.2,1.9,6.2s0,.8,0,1.2ZM559.5,167.4c-.8-.8-3.5-1.3-4.6-1.3s-2.3.3-2.3,1.5.6,2,1.3,2.5,1.8.4,2.6.5c.5,0,1,.2,1.4.2.9,0,1.9-.2,2.4-.9v-.3c0-.7-.2-1.7-.7-2.2ZM564.9,148.9c-.9.5-1.7,1.7-2.7,1.7s-.6-.2-.9-.4c0-.1,0-.2,0-.4,0-1.5,2.2-2.3,3.3-2.9,1.1-.6,2.2-1.9,3.5-1.9s1.2.7,1.2,1.2c0,1.2-3.5,2.2-4.4,2.8Z"/>
    <path class="cls-3" d="M603.3,160c-.2.1-.4.1-.6.1-.4,0-.8-.1-1.2-.1-2.6,0-5.2.5-7.8.9-.2.2-.2.5-.2.7,0,1.7-.3,3.4-.3,5.2s.1,1,.1,1.5-.1.5-.1.7c0,1.1.4,2,.4,3.1s-.3,1-.3,1.5.3,1.1.3,1.6-.3.7-.3,1.1c0,1.2.2,2.5.4,3.7,0,.4.2.7.3,1.1,0,.6,0,1.2,0,1.8,0,1.4,0,2-1.1,2.9-.7-.2-2.5,0-2.8-.6-.1-.1-.1-.3-.2-.4h-.2c-.1-.3-.2-.6-.2-.8,0-.5.2-1.1.2-1.7,0-1.5-.3-3.1-.3-4.6s.1-2.6.1-3.9-.2-2.9-.2-4.3.1-1.3.1-2-.2-1-.3-1.4c0-.7,0-1.5,0-2.2s-.3-1.9-.4-2.8c-.2,0-.3,0-.4,0-.6,0-1.1.3-1.6.4-.4,0-.7,0-1.1,0s-.9.2-1.4.3c-.4,0-.8.1-1.2.2-.4,0-.7.2-1.1.2s-.5-.1-.7-.1c-.6,0-1.3,0-1.8.4-.1.2-.2.4-.2.6,0,.6.2,1.1.3,1.7,0,.4,0,.8,0,1.2s.2,1.1.3,1.6c.3,2.2.3,4.4.5,6.6.2,1.9.9,3.7.9,5.5s0,1.2-.3,1.7c-.5,1-1.5,1.9-2.7,1.9s-1.5-.6-1.5-1.3.2-.9.2-1.3v-1.3c0-.9-.3-1.5-.4-2.4-.1-.6,0-1.3,0-1.9s0-.8-.1-1.2c0-.3-.2-.5-.2-.7-.1-.6-.1-1.3-.2-2-.2-1.9-.3-3.8-.6-5.6-.2-1.2-.5-2.3-.5-3.6-.3-.1-.6-.2-.9-.2-.5,0-1.5.2-2,.4-.3.2-.7,0-1.1,0-.5,0-1.1.3-1.6.3s-1.7-.7-1.7-1.4c0-1.1,1.9-.8,2.6-.9.4-.1.7-.3,1.1-.4.9-.2,2.5.2,3.1-.6-.1-.6,0-1.2,0-1.8,0-1.2-.6-2.2-.8-3.4,0-.3,0-.5,0-.7,0-1-.6-2.6-.6-3.8s.1-.6.1-.9c0-.9-.5-1.5-.5-2.4s.7-1.3,1.6-1.3.4,0,.5,0c.3.2,1.1.6,1.2.9.7.8.8,2.6,1.1,3.6,0,.2.2.4.2.6.2.5,0,1.1.2,1.6.1.5.4,1,.5,1.6,0,.3,0,.6,0,1,0,.6.4,1.9.6,2.5.2.7,0,1.8.6,2.5.3.1.6.2.9.2.7,0,1.4-.2,2.2-.3.5,0,1,0,1.5,0,.7,0,1.5-.2,2.2-.3.5,0,1,0,1.4,0s1,0,1.4-.4c0-1.7.2-3.5.2-5.2s-.3-2-.3-3,.3-1.1.4-1.7c.2-1.2-.2-4.4,1.7-4.4s1.5,3.8,1.5,5.1.2,2.2.3,3.3c.1.8.3,1.5.3,2.3s-.2.6-.2.9.2.7.3,1.1c0,.3,0,.8.3,1,.3.3,1.2.3,1.7.3,1.2,0,2.5-.1,3.7-.3,1.4-.2,2-.7,3.6-.7s1.2.2,1.7.6c0,.2.1.4.1.6,0,.6-.3,1.4-.7,1.8Z"/>
    <path class="cls-3" d="M621.3,161.7c0,1-.5,1.9-.5,2.8s.1,1.1.1,1.6-.2,1.4-.4,2.1c-.2.4-.4.7-.5,1.1-.1.5,0,1-.2,1.4,0,.4-.3.7-.3,1.1,0,.5,0,1.1,0,1.6s-.4,1.3-.5,2c-.1.6,0,2.3-.2,2.8-.3.8-1.4,2.5-2.3,2.5s-2.3-1.1-2.3-2.2.4-1.3.4-1.9,0-.4-.1-.6c.3-.7.5-.9.5-1.8s0-.6-.2-.9c-.3-.1-.5-.2-.8-.2-.9,0-1.8.4-2.7.4s-1.4-.1-2-.1-.9,0-1.3,0-.3,0-.5,0c-.7-.2-3.5-2.8-3.7-3.4,0-.3-.1-.6-.1-.9,0-.9.5-1.7.9-2.4.3-.5.5-1.2.9-1.5.2-.2.5-.3.7-.5.3-.2.4-.4.6-.6,1.1-.8,2.6-1.2,3.9-1.2s.8,0,1.2,0c.8.2,1.4.6,2.1,1,.3.1,1.1.2,1.2.3.1,0,.2.2.2.3.3.1.5,0,.8.2.5-.4.3-1.4.3-2.1,0-1.1.3-2.1.3-3.2s-1-4.6-2.6-4.8h-.4c-1.3,0-2,1.2-3.6,1.2-1.1,1-1.8,1.8-3.1,2.5-.3.1-.6.4-.9.4s-.2,0-.3-.2c-.2-.2-.3-.5-.3-.7,0-1.5,1.7-2.1,2.1-3.1.3-.1.6-.3.8-.5l.2-.3c.4-.2,1-.4,1.4-.6.2-.1.3-.3.4-.5.9-.5,2.4-.8,3.4-.8s2,.1,2.6.4c.2,0,.3.2.5.3,1,.4,1.6.8,2.3,1.7,1.4,1.7,1.9,4.2,1.9,6.2s0,.8,0,1.2ZM614.6,167.4c-.8-.8-3.5-1.3-4.6-1.3s-2.3.3-2.3,1.5.6,2,1.3,2.5,1.8.4,2.6.5c.5,0,1,.2,1.4.2.9,0,1.9-.2,2.4-.9v-.3c0-.7-.2-1.7-.7-2.2Z"/>
  </g>
</svg>