<?xml version="1.0" encoding="UTF-8" standalone="no"?>
<svg
   xmlns:dc="http://purl.org/dc/elements/1.1/"
   xmlns:cc="http://creativecommons.org/ns#"
   xmlns:rdf="http://www.w3.org/1999/02/22-rdf-syntax-ns#"
   xmlns:svg="http://www.w3.org/2000/svg"
   xmlns="http://www.w3.org/2000/svg"
   viewBox="0 0 800 800"
   height="800"
   width="800"
   xml:space="preserve"
   id="svg2"
   version="1.1"><metadata
     id="metadata8"><rdf:RDF><cc:Work
         rdf:about=""><dc:format>image/svg+xml</dc:format><dc:type
           rdf:resource="http://purl.org/dc/dcmitype/StillImage" /></cc:Work></rdf:RDF></metadata><defs
     id="defs6"><clipPath
       id="clipPath22"
       clipPathUnits="userSpaceOnUse"><path
         id="path20"
         d="M 0,600 H 600 V 0 H 0 Z" /></clipPath></defs><g
     transform="matrix(1.3333333,0,0,-1.3333333,0,800)"
     id="g10"><path
       id="path12"
       style="fill:#ffffff;fill-opacity:1;fill-rule:nonzero;stroke:none"
       d="M 3,597 H 597 V 3 H 3 Z" /><path
       id="path14"
       style="fill:#373535;fill-opacity:1;fill-rule:nonzero;stroke:none"
       d="M 0,0 H 600 V 600 H 0 Z M 6,594 H 594 V 6 H 6 Z" /><g
       id="g16"><g
         clip-path="url(#clipPath22)"
         id="g18"><g
           transform="translate(475.1253,272.7125)"
           id="g24"><path
             id="path26"
             style="fill:#2aa859;fill-opacity:1;fill-rule:nonzero;stroke:none"
             d="m 0,0 c -17.734,0 -35.461,5.601 -53.195,5.601 -20.537,0 -27.999,-0.93 -47.6,-7.468 -13.999,-5.595 -40.132,-6.531 -40.132,-27.063 0,-8.398 2.798,-15.866 2.798,-23.334 0,-6.532 -2.798,-12.133 -2.798,-18.664 0,-13.07 3.728,-25.202 3.728,-38.265 0,-13.069 -7.462,-24.272 -15.866,-34.537 -8.399,-1.867 -17.728,-4.665 -26.133,-4.665 -11.196,0 -12.132,6.532 -19.6,7.468 -6.532,21.462 -6.532,41.063 -7.462,62.53 -0.937,6.532 -2.804,12.133 -2.804,18.664 0,10.272 3.734,20.538 3.734,30.803 0,17.734 -13.063,42.93 -32.664,42.93 -9.335,0 -19.6,-3.728 -28.935,-3.728 -16.797,0 -32.664,0.93 -48.531,2.797 -7.468,0.931 -13.999,3.734 -20.531,4.665 -7.468,1.867 -15.867,0 -23.335,2.803 -10.265,3.734 -21.467,14 -22.398,25.196 3.728,9.335 11.196,12.133 20.531,12.133 7.468,0 14.93,-0.931 22.398,-1.868 40.132,-2.797 80.264,-6.531 119.466,-10.265 6.531,3.734 13.999,8.405 13.999,15.867 0,12.132 -3.734,22.404 -3.734,34.537 0,20.531 -5.595,41.062 -5.595,62.53 0,13.999 0.931,57.865 21.462,57.865 7.468,0 28.936,-1.867 34.537,-5.601 10.265,-6.531 11.196,-24.265 12.132,-35.467 4.665,-27.063 12.133,-55.062 12.133,-83.061 0,-8.399 -1.867,-16.804 -1.867,-25.202 0,-7.468 1.867,-14.93 5.601,-21.468 8.398,-5.601 34.531,-5.601 44.796,-5.601 h 23.335 c 23.335,0.937 46.663,8.405 69.998,8.405 14.936,0 27.069,-5.601 27.069,-22.405 C 34.537,8.405 14,0 0,0" /></g></g></g></g></svg>