<?xml version="1.0" encoding="UTF-8"?>
<svg id="b" data-name="Layer_2" xmlns="http://www.w3.org/2000/svg" width="52.511" height="39.889" viewBox="0 0 52.511 39.889">
  <g id="c" data-name="Icons">
    <path d="M51.561,0h-5.288c-.525,0-.95.425-.95.95h0c0,1.556-1.261,2.817-2.817,2.817H11.935c-1.556,0-2.817-1.261-2.817-2.817h0c0-.525-.425-.95-.95-.95H2.879c-.525,0-.95.425-.95.95v4.217c0,2.497,2.024,4.521,4.521,4.521h19.278v2.553c-7.458.189-14.77,3.531-19.628,9.406C2.184,26.383.024,32.314,0,38.464c-.003.752.639,1.39,1.39,1.39h43.582c2.015,0,4.048.08,6.062,0,.029-.001.057,0,.086,0,.401,0,.707-.144.929-.361.276-.223.464-.565.462-1.03-.021-5.4-1.676-10.766-4.827-15.165-3.121-4.357-7.463-7.683-12.498-9.528-2.105-.771-4.282-1.241-6.473-1.436v-2.647h19.278c2.497,0,4.521-2.024,4.521-4.521V.95c0-.525-.425-.95-.95-.95ZM44.387,23.543c3.173,3.81,4.988,8.606,5.293,13.53h-20.632c.067-.244.114-.497.114-.762,0-1.605-1.301-2.906-2.906-2.906-.915,0-1.721.431-2.254,1.092-3.953-1.613-7.907-3.225-11.86-4.838-.162-.066-.325-.132-.487-.199l.477-1.105c.15-.347-.141-.723-.514-.666l-3.591.55c-.351.054-.525.456-.323.749l2.062,2.991c.215.311.688.265.838-.082l.395-.915c4.127,1.683,8.254,3.367,12.38,5.05-.009.093-.028.184-.028.279,0,.266.047.518.114.762H3.43c-.197,0-.396-.005-.597-.011.59-9.129,6.541-17.424,15.232-20.61,4.675-1.714,9.817-1.934,14.611-.574,4.587,1.301,8.663,4.006,11.711,7.665Z" fill="#c62127"/>
  </g>
</svg>