<?xml version="1.0" encoding="UTF-8"?>
<svg id="b" data-name="Layer_2" xmlns="http://www.w3.org/2000/svg" width="55.619" height="36.27" viewBox="0 0 55.619 36.27">
  <g id="c" data-name="Icons">
    <g>
      <path d="M47.608,1.841c-1.084-.083-2.175-.145-3.259-.217-5.556-.361-11.112-.729-16.668-1.096-2.269-.15-4.538-.3-6.807-.45-2.102-.139-4.054-.206-6.029.812-.968.495-1.746,1.262-2.575,1.958-.84.712-1.68,1.418-2.519,2.13-2.152,1.813-4.299,3.626-6.451,5.445-.517.434-1.057.851-1.552,1.307C.23,13.137-.332,15.467.191,17.441c.517,1.947,2.297,3.57,3.554,5.078,1.835,2.197,3.671,4.394,5.506,6.596.578.69,1.157,1.385,1.735,2.08.056.061.106.122.161.189.011.011.022.022.039.05.045.056.111.145.15.195.756.968,1.746,1.741,2.87,2.236,1.613.706,3.354.706,5.078.823,2.492.161,4.978.328,7.463.489,5.211.345,10.422.69,15.633,1.034,2.18.139,4.243.095,6.296-.834,3.498-1.574,5.639-5.033,5.895-8.798.328-4.788.634-9.577.945-14.36.033-.478.067-.957.095-1.435v-.072c.206-4.661-3.409-8.515-8.003-8.871ZM52.83,10.784c-.289,4.366-.573,8.737-.862,13.108-.122,1.874-.072,3.871-.951,5.584-1.424,2.753-4.26,4.232-7.319,4.038-4.115-.256-8.231-.539-12.346-.812-4.605-.306-9.21-.606-13.815-.912-.539-.033-1.046-.072-1.574-.228-1.313-.378-2.119-1.257-2.953-2.269-1.351-1.635-2.72-3.253-4.077-4.883-1.646-1.974-3.292-3.943-4.939-5.917l-.617-.734c-.039-.05-.083-.095-.122-.15-.028-.061-.133-.245-.167-.317-.59-1.207-.328-2.72.667-3.626,1.496-1.368,3.109-2.625,4.655-3.932,1.908-1.607,3.815-3.22,5.723-4.833.623-.523,1.212-1.112,1.924-1.507,1.012-.562,2.113-.706,3.259-.634,1.49.095,2.981.195,4.471.295,5.472.362,10.951.723,16.429,1.079,2.024.133,4.054.267,6.079.4,1.724.117,3.348.311,4.694,1.563,1.318,1.229,1.935,2.897,1.841,4.688Z" fill="#26a8e0"/>
      <circle cx="12.272" cy="16.968" r="2.682" fill="#26a8e0"/>
      <path d="M47.048,13.456c-2.842-.187-5.684-.375-8.526-.562-4.56-.301-9.121-.601-13.681-.901-1.047-.069-2.094-.138-3.141-.207-.75-.049-1.39.674-1.39,1.39,0,.794.638,1.341,1.39,1.39,2.842.187,5.684.375,8.526.562,4.56.301,9.121.601,13.681.901,1.047.069,2.094.138,3.141.207.75.049,1.39-.674,1.39-1.39,0-.794-.638-1.341-1.39-1.39Z" fill="#26a8e0"/>
      <path d="M44.563,21.706c-6.282-.414-12.563-.828-18.845-1.242-.879-.058-1.758-.116-2.637-.174-.75-.049-1.39.674-1.39,1.39,0,.794.638,1.341,1.39,1.39,6.282.414,12.563.828,18.845,1.242.879.058,1.758.116,2.637.174.75.049,1.39-.674,1.39-1.39,0-.794-.638-1.341-1.39-1.39Z" fill="#26a8e0"/>
    </g>
  </g>
</svg>