<?xml version="1.0" encoding="utf-8"?>
<!-- Generator: Adobe Adobe Illustrator 24.2.0, SVG Export Plug-In . SVG Version: 6.00 Build 0)  -->
<svg version="1.1" id="Layer_1" xmlns="http://www.w3.org/2000/svg" xmlns:xlink="http://www.w3.org/1999/xlink" x="0px" y="0px"
	  viewBox="0 0 1920 50" style="enable-background:new 0 0 1920 1080;" xml:space="preserve">
<style type="text/css">
	.st0{clip-path:url(#SVGID_2_);}
	.st1{fill:none;stroke:#04A242;stroke-width:3;stroke-linejoin:round;stroke-miterlimit:10;}
</style>
<g>
	<defs>
		<rect id="SVGID_1_" x="-1.3" y="7.23" width="1915.54" height="1075.58"/>
	</defs>
	<clipPath id="SVGID_2_">
		<use xlink:href="#SVGID_1_"  style="overflow:visible;"/>
	</clipPath>
	<g class="st0">
		<path class="st1" d="M1756.72,1009.5c0.96-19.9-3.75-40.04-13.44-57.44c-4.68,11.31-0.27,24.12,4.13,35.54
			c3.33,8.65,6.67,17.29,10,25.94c6.8-10.93,12.38-22.62,16.62-34.78c-4.63,10.28-9.26,20.56-13.89,30.84
			c1.33-11.86,0.94-23.91-1.14-35.66"/>
		<path class="st1" d="M1940.7,1049.91c-5.01-3.26-10.03-6.53-15.04-9.79c-2.68-1.74-6.43-3.43-8.77-1.25
			c-1.67,1.56-1.46,4.42-0.11,6.25c1.36,1.84,3.54,2.86,5.68,3.64c6.35,2.34,13.2,3.29,19.94,2.78
			c-7.45,4.34-13.99,10.25-19.06,17.22c8.84-3.78,16.88-9.39,23.48-16.37c-3.41-6.52-5.35-13.8-5.65-21.15
			c1.99,7.78,2.81,15.86,2.4,23.88c4.14-2.83,9.02-4.58,14.01-5.02"/>
		<path class="st1" d="M1852.21,995.56c-0.92-13.92-4.57-27.66-10.68-40.21c1.17,15.12,4.42,30.07,9.65,44.3
			c-7.28-10.1-14.56-20.2-21.85-30.3c-1.04,11.64,6.53,23.51,17.52,27.49c7.05-9.4,12.81-19.76,17.07-30.71
			c-0.74,9.91-4.29,19.59-10.13,27.62c-0.55,0.76-1.15,1.7-0.8,2.56c0.35,0.87,2.12,0.55,1.75-0.31"/>
		<path class="st1" d="M1877.26,921c1.8-13.58,2.33-27.33,1.56-41.01c-0.23-4.14-2.07-9.6-6.19-9.14c-4.92,14.98-3.25,32,4.49,45.73
			c-4.16-5.7-8.32-11.39-12.49-17.09c-2.62,10.05,4.52,21.55,14.68,23.67c1.79-10.02,7.21-19.35,15.04-25.86
			c-1.01,8.73-5.18,17.07-11.56,23.11"/>
		<path class="st1" d="M1860.9,1118.09c-0.62-16.67-1.24-33.34-1.86-50.01c-0.14-3.87-0.77-8.5-4.29-10.12
			c-1.98,18.95-0.33,38.28,4.84,56.62c-5.77-8.82-11.54-17.65-17.3-26.47c5.85,10,12.42,19.59,19.63,28.65
			c-0.25-1.16-0.49-2.32-0.74-3.48"/>
		<path class="st1" d="M1771.94,1088.13c1.75-9.17,2.74-18.49,2.95-27.82c0.1-4.66-1.44-10.89-6.1-10.89
			c-2.69,9.78-0.08,20.84,6.69,28.39c-2.47-1.16-4.94-2.31-7.4-3.47c5.58-4.59,11.5-8.76,17.69-12.46c1.5-0.9,3.44-1.76,4.89-0.78
			c1.08,0.73,1.36,2.21,1.27,3.51c-0.46,6.73-7.61,10.72-13.97,12.95c-0.18-0.92,1.68-0.08,1.11,0.67
			c-0.57,0.75-1.74,0.45-2.61,0.09c-5.88-2.5-11.76-5-17.63-7.51c-0.17,4.99,2.89,9.95,7.43,12.03c4.54,2.08,10.3,1.16,13.96-2.24"
			/>
		<path class="st1" d="M1706.46,937.57c-3.43-14.41-7.75-28.61-12.93-42.48c2.6,13.56,7.35,26.7,14.03,38.78
			c-0.72-12.86,2.31-25.9,8.61-37.13c-1.87,12.37-4.96,24.56-9.21,36.33c0.26-2.53,1.66-4.92,3.75-6.38
			c-8.35,6.32-21.05,6.03-29.11-0.66c9.33,6.29,21.01,9.02,32.16,7.52c-1.39,0.24-2.78,0.49-4.17,0.73
			c3.75-7.18,9.24-13.45,15.87-18.1c-3.24,6.77-6.47,13.54-9.71,20.32c-0.39,0.82-0.26,1.95-0.99,2.49s-1.44-1.33-0.61-0.95"/>
		<path class="st1" d="M1696.34,1039.57c-2.07-10.3-4.13-20.6-6.2-30.91c-0.73-3.64-2.29-8.09-5.98-8.48
			c-5.29,15.87-1.17,34.5,10.32,46.65c-4.16-6.11-9.12-11.67-14.7-16.51c-1.25-1.08-2.86-2.19-4.41-1.64
			c-1.04,0.37-1.69,1.38-2.15,2.38c-1.78,3.93-1.48,8.83,1.1,12.29c2.58,3.46,7.46,5.14,11.51,3.65c3.04-1.12,5.26-3.72,7.33-6.21
			c5.8-6.98,11.61-13.95,17.41-20.93c-3.98,10.62-10.1,20.44-17.9,28.69c6.12-4.18,12.24-8.35,18.35-12.53
			c-5.91,5.42-11.83,10.84-17.74,16.26"/>
		<path class="st1" d="M1427.07,1009.5c0.96-19.9-3.75-40.04-13.44-57.44c-4.68,11.31-0.27,24.12,4.13,35.54
			c3.33,8.65,6.67,17.29,10,25.94c6.8-10.93,12.38-22.62,16.62-34.78c-4.63,10.28-9.26,20.56-13.89,30.84
			c1.33-11.86,0.94-23.91-1.14-35.66"/>
		<path class="st1" d="M1611.05,1049.91c-5.01-3.26-10.03-6.53-15.04-9.79c-2.68-1.74-6.43-3.43-8.77-1.25
			c-1.67,1.56-1.46,4.42-0.11,6.25c1.36,1.84,3.54,2.86,5.68,3.64c6.35,2.34,13.2,3.29,19.94,2.78
			c-7.45,4.34-13.99,10.25-19.06,17.22c8.84-3.78,16.88-9.39,23.48-16.37c-3.41-6.52-5.35-13.8-5.65-21.15
			c1.99,7.78,2.81,15.86,2.4,23.88c4.14-2.83,9.02-4.58,14.01-5.02"/>
		<path class="st1" d="M1522.55,995.56c-0.92-13.92-4.57-27.66-10.68-40.21c1.17,15.12,4.42,30.07,9.65,44.3
			c-7.28-10.1-14.56-20.2-21.85-30.3c-1.04,11.64,6.53,23.51,17.52,27.49c7.05-9.4,12.81-19.76,17.07-30.71
			c-0.74,9.91-4.29,19.59-10.13,27.62c-0.55,0.76-1.15,1.7-0.8,2.56c0.35,0.87,2.12,0.55,1.75-0.31"/>
		<path class="st1" d="M1620.17,979.62c3.6-16.62,9.43-32.76,17.31-47.83c0.34,16.75-4.23,33.57-13.01,47.84
			c-2.44-11.53-6.07-22.81-10.82-33.6c-1.45,11.08,2.15,22.73,9.61,31.05c-0.92-1.19-1.83-2.38-2.75-3.56"/>
		<path class="st1" d="M1547.61,921c1.8-13.58,2.33-27.33,1.56-41.01c-0.23-4.14-2.07-9.6-6.19-9.14c-4.92,14.98-3.25,32,4.49,45.73
			c-4.16-5.7-8.32-11.39-12.49-17.09c-2.62,10.05,4.52,21.55,14.68,23.67c1.79-10.02,7.21-19.35,15.04-25.86
			c-1.01,8.73-5.18,17.07-11.56,23.11"/>
		<path class="st1" d="M1531.24,1118.09c-0.62-16.67-1.24-33.34-1.86-50.01c-0.14-3.87-0.77-8.5-4.29-10.12
			c-1.98,18.95-0.33,38.28,4.84,56.62c-5.77-8.82-11.54-17.65-17.3-26.47c5.85,10,12.42,19.59,19.63,28.65
			c-0.25-1.16-0.49-2.32-0.74-3.48"/>
		<path class="st1" d="M1442.29,1088.13c1.75-9.17,2.74-18.49,2.95-27.82c0.1-4.66-1.44-10.89-6.1-10.89
			c-2.69,9.78-0.08,20.84,6.69,28.39c-2.47-1.16-4.94-2.31-7.4-3.47c5.58-4.59,11.5-8.76,17.69-12.46c1.5-0.9,3.44-1.76,4.89-0.78
			c1.08,0.73,1.36,2.21,1.27,3.51c-0.46,6.73-7.61,10.72-13.97,12.95c-0.18-0.92,1.68-0.08,1.11,0.67c-0.57,0.75-1.74,0.45-2.6,0.09
			c-5.88-2.5-11.76-5-17.63-7.51c-0.17,4.99,2.89,9.95,7.43,12.03c4.54,2.08,10.3,1.16,13.96-2.24"/>
		<path class="st1" d="M1376.81,937.57c-3.43-14.41-7.75-28.61-12.93-42.48c2.6,13.56,7.35,26.7,14.03,38.78
			c-0.72-12.86,2.31-25.9,8.61-37.13c-1.87,12.37-4.96,24.56-9.21,36.33c0.26-2.53,1.66-4.92,3.75-6.38
			c-8.35,6.32-21.05,6.03-29.11-0.66c9.33,6.29,21.01,9.02,32.16,7.52c-1.39,0.24-2.78,0.49-4.17,0.73
			c3.75-7.18,9.24-13.45,15.87-18.1c-3.24,6.77-6.47,13.54-9.71,20.32c-0.39,0.82-0.26,1.95-0.99,2.49s-1.44-1.33-0.61-0.95"/>
		<path class="st1" d="M1366.69,1039.57c-2.07-10.3-4.13-20.6-6.2-30.91c-0.73-3.64-2.29-8.09-5.98-8.48
			c-5.29,15.87-1.17,34.5,10.32,46.65c-4.16-6.11-9.12-11.67-14.7-16.51c-1.25-1.08-2.86-2.19-4.41-1.64
			c-1.04,0.37-1.69,1.38-2.14,2.38c-1.78,3.93-1.48,8.83,1.1,12.29c2.58,3.46,7.46,5.14,11.51,3.65c3.04-1.12,5.26-3.72,7.33-6.21
			c5.8-6.98,11.61-13.95,17.41-20.93c-3.98,10.62-10.1,20.44-17.9,28.69c6.12-4.18,12.24-8.35,18.35-12.53
			c-5.91,5.42-11.83,10.84-17.74,16.26"/>
		<path class="st1" d="M1097.42,1009.5c0.96-19.9-3.75-40.04-13.44-57.44c-4.68,11.31-0.27,24.12,4.13,35.54
			c3.33,8.65,6.67,17.29,10,25.94c6.8-10.93,12.38-22.62,16.62-34.78c-4.63,10.28-9.26,20.56-13.89,30.84
			c1.33-11.86,0.94-23.91-1.14-35.66"/>
		<path class="st1" d="M1281.4,1049.91c-5.01-3.26-10.03-6.53-15.04-9.79c-2.68-1.74-6.43-3.43-8.77-1.25
			c-1.67,1.56-1.46,4.42-0.11,6.25c1.36,1.84,3.54,2.86,5.68,3.64c6.35,2.34,13.2,3.29,19.94,2.78
			c-7.45,4.34-13.99,10.25-19.06,17.22c8.84-3.78,16.88-9.39,23.48-16.37c-3.41-6.52-5.35-13.8-5.65-21.15
			c1.99,7.78,2.81,15.86,2.4,23.88c4.14-2.83,9.02-4.58,14.01-5.02"/>
		<path class="st1" d="M1192.9,995.56c-0.92-13.92-4.57-27.66-10.68-40.21c1.17,15.12,4.42,30.07,9.65,44.3
			c-7.28-10.1-14.56-20.2-21.85-30.3c-1.04,11.64,6.53,23.51,17.52,27.49c7.05-9.4,12.81-19.76,17.07-30.71
			c-0.74,9.91-4.29,19.59-10.13,27.62c-0.55,0.76-1.15,1.7-0.8,2.56c0.35,0.87,2.12,0.55,1.75-0.31"/>
		<path class="st1" d="M1290.52,979.62c3.6-16.62,9.43-32.76,17.31-47.83c0.34,16.75-4.23,33.57-13.01,47.84
			c-2.44-11.53-6.07-22.81-10.82-33.6c-1.45,11.08,2.15,22.73,9.61,31.05c-0.92-1.19-1.83-2.38-2.75-3.56"/>
		<path class="st1" d="M1217.96,921c1.8-13.58,2.33-27.33,1.56-41.01c-0.23-4.14-2.07-9.6-6.19-9.14c-4.92,14.98-3.25,32,4.49,45.73
			c-4.16-5.7-8.32-11.39-12.49-17.09c-2.62,10.05,4.52,21.55,14.68,23.67c1.79-10.02,7.21-19.35,15.04-25.86
			c-1.01,8.73-5.18,17.07-11.56,23.11"/>
		<path class="st1" d="M1201.59,1118.09c-0.62-16.67-1.24-33.34-1.86-50.01c-0.14-3.87-0.77-8.5-4.29-10.12
			c-1.98,18.95-0.33,38.28,4.84,56.62c-5.77-8.82-11.54-17.65-17.3-26.47c5.85,10,12.42,19.59,19.63,28.65
			c-0.25-1.16-0.49-2.32-0.74-3.48"/>
		<path class="st1" d="M1112.64,1088.13c1.75-9.17,2.74-18.49,2.95-27.82c0.11-4.66-1.44-10.89-6.1-10.89
			c-2.69,9.78-0.08,20.84,6.69,28.39c-2.47-1.16-4.94-2.31-7.4-3.47c5.58-4.59,11.5-8.76,17.69-12.46c1.5-0.9,3.44-1.76,4.89-0.78
			c1.08,0.73,1.36,2.21,1.27,3.51c-0.46,6.73-7.61,10.72-13.97,12.95c-0.18-0.92,1.68-0.08,1.11,0.67c-0.57,0.75-1.74,0.45-2.6,0.09
			c-5.88-2.5-11.76-5-17.63-7.51c-0.17,4.99,2.89,9.95,7.43,12.03c4.54,2.08,10.3,1.16,13.96-2.24"/>
		<path class="st1" d="M1047.16,937.57c-3.43-14.41-7.75-28.61-12.93-42.48c2.6,13.56,7.35,26.7,14.03,38.78
			c-0.72-12.86,2.31-25.9,8.61-37.13c-1.87,12.37-4.96,24.56-9.21,36.33c0.26-2.53,1.66-4.92,3.75-6.38
			c-8.35,6.32-21.05,6.03-29.11-0.66c9.33,6.29,21.01,9.02,32.16,7.52c-1.39,0.24-2.78,0.49-4.17,0.73
			c3.75-7.18,9.24-13.45,15.87-18.1c-3.24,6.77-6.47,13.54-9.71,20.32c-0.39,0.82-0.26,1.95-0.99,2.49s-1.44-1.33-0.61-0.95"/>
		<path class="st1" d="M1037.04,1039.57c-2.07-10.3-4.13-20.6-6.2-30.91c-0.73-3.64-2.29-8.09-5.98-8.48
			c-5.29,15.87-1.17,34.5,10.32,46.65c-4.16-6.11-9.12-11.67-14.7-16.51c-1.25-1.08-2.86-2.19-4.41-1.64
			c-1.04,0.37-1.69,1.38-2.14,2.38c-1.78,3.93-1.48,8.83,1.1,12.29c2.58,3.46,7.46,5.14,11.51,3.65c3.04-1.12,5.26-3.72,7.33-6.21
			c5.8-6.98,11.61-13.95,17.41-20.93c-3.98,10.62-10.1,20.44-17.9,28.69c6.12-4.18,12.24-8.35,18.35-12.53
			c-5.91,5.42-11.83,10.84-17.74,16.26"/>
		<path class="st1" d="M767.77,1009.5c0.96-19.9-3.75-40.04-13.44-57.44c-4.68,11.31-0.27,24.12,4.13,35.54
			c3.33,8.65,6.67,17.29,10,25.94c6.8-10.93,12.38-22.62,16.62-34.78c-4.63,10.28-9.26,20.56-13.89,30.84
			c1.33-11.86,0.94-23.91-1.14-35.66"/>
		<path class="st1" d="M951.75,1049.91c-5.01-3.26-10.03-6.53-15.04-9.79c-2.68-1.74-6.43-3.43-8.77-1.25
			c-1.67,1.56-1.46,4.42-0.11,6.25c1.36,1.84,3.54,2.86,5.68,3.64c6.35,2.34,13.2,3.29,19.94,2.78
			c-7.45,4.34-13.99,10.25-19.06,17.22c8.84-3.78,16.88-9.39,23.48-16.37c-3.41-6.52-5.35-13.8-5.65-21.15
			c1.99,7.78,2.81,15.86,2.4,23.88c4.14-2.83,9.02-4.58,14.01-5.02"/>
		<path class="st1" d="M863.25,995.56c-0.92-13.92-4.57-27.66-10.68-40.21c1.17,15.12,4.42,30.07,9.65,44.3
			c-7.28-10.1-14.56-20.2-21.85-30.3c-1.04,11.64,6.53,23.51,17.52,27.49c7.05-9.4,12.81-19.76,17.07-30.71
			c-0.74,9.91-4.29,19.59-10.13,27.62c-0.55,0.76-1.15,1.7-0.8,2.56c0.35,0.87,2.12,0.55,1.75-0.31"/>
		<path class="st1" d="M960.87,979.62c3.6-16.62,9.43-32.76,17.31-47.83c0.34,16.75-4.23,33.57-13.01,47.84
			c-2.44-11.53-6.07-22.81-10.82-33.6c-1.45,11.08,2.15,22.73,9.61,31.05c-0.92-1.19-1.83-2.38-2.75-3.56"/>
		<path class="st1" d="M888.31,921c1.8-13.58,2.33-27.33,1.56-41.01c-0.23-4.14-2.07-9.6-6.19-9.14c-4.92,14.98-3.25,32,4.49,45.73
			c-4.16-5.7-8.32-11.39-12.49-17.09c-2.62,10.05,4.52,21.55,14.68,23.67c1.79-10.02,7.21-19.35,15.04-25.86
			c-1.01,8.73-5.18,17.07-11.56,23.11"/>
		<path class="st1" d="M871.94,1118.09c-0.62-16.67-1.24-33.34-1.86-50.01c-0.14-3.87-0.77-8.5-4.29-10.12
			c-1.98,18.95-0.33,38.28,4.84,56.62c-5.77-8.82-11.54-17.65-17.3-26.47c5.85,10,12.42,19.59,19.63,28.65
			c-0.25-1.16-0.49-2.32-0.74-3.48"/>
		<path class="st1" d="M782.99,1088.13c1.75-9.17,2.74-18.49,2.95-27.82c0.11-4.66-1.44-10.89-6.1-10.89
			c-2.69,9.78-0.08,20.84,6.69,28.39c-2.47-1.16-4.94-2.31-7.4-3.47c5.58-4.59,11.5-8.76,17.69-12.46c1.5-0.9,3.44-1.76,4.89-0.78
			c1.08,0.73,1.36,2.21,1.27,3.51c-0.46,6.73-7.61,10.72-13.97,12.95c-0.18-0.92,1.68-0.08,1.11,0.67c-0.57,0.75-1.74,0.45-2.6,0.09
			c-5.88-2.5-11.76-5-17.63-7.51c-0.17,4.99,2.89,9.95,7.43,12.03s10.3,1.16,13.96-2.24"/>
		<path class="st1" d="M717.5,937.57c-3.43-14.41-7.75-28.61-12.93-42.48c2.6,13.56,7.35,26.7,14.03,38.78
			c-0.72-12.86,2.31-25.9,8.61-37.13c-1.87,12.37-4.96,24.56-9.21,36.33c0.26-2.53,1.66-4.92,3.75-6.38
			c-8.35,6.32-21.05,6.03-29.11-0.66c9.33,6.29,21.01,9.02,32.16,7.52c-1.39,0.24-2.78,0.49-4.17,0.73
			c3.75-7.18,9.24-13.45,15.87-18.1c-3.24,6.77-6.47,13.54-9.71,20.32c-0.39,0.82-0.26,1.95-0.99,2.49
			c-0.73,0.54-1.44-1.33-0.61-0.95"/>
		<path class="st1" d="M707.39,1039.57c-2.07-10.3-4.13-20.6-6.2-30.91c-0.73-3.64-2.29-8.09-5.98-8.48
			c-5.29,15.87-1.17,34.5,10.32,46.65c-4.16-6.11-9.12-11.67-14.7-16.51c-1.25-1.08-2.86-2.19-4.41-1.64
			c-1.04,0.37-1.69,1.38-2.14,2.38c-1.78,3.93-1.48,8.83,1.1,12.29c2.58,3.46,7.46,5.14,11.51,3.65c3.04-1.12,5.26-3.72,7.33-6.21
			c5.8-6.98,11.61-13.95,17.41-20.93c-3.98,10.62-10.1,20.44-17.9,28.69c6.12-4.18,12.24-8.35,18.35-12.53
			c-5.91,5.42-11.83,10.84-17.74,16.26"/>
		<path class="st1" d="M438.12,1009.5c0.96-19.9-3.75-40.04-13.44-57.44c-4.68,11.31-0.27,24.12,4.13,35.54
			c3.33,8.65,6.67,17.29,10,25.94c6.8-10.93,12.38-22.62,16.62-34.78c-4.63,10.28-9.26,20.56-13.89,30.84
			c1.33-11.86,0.94-23.91-1.14-35.66"/>
		<path class="st1" d="M622.1,1049.91c-5.01-3.26-10.03-6.53-15.04-9.79c-2.68-1.74-6.43-3.43-8.77-1.25
			c-1.67,1.56-1.46,4.42-0.11,6.25c1.36,1.84,3.54,2.86,5.68,3.64c6.35,2.34,13.2,3.29,19.94,2.78
			c-7.45,4.34-13.99,10.25-19.06,17.22c8.84-3.78,16.88-9.39,23.48-16.37c-3.41-6.52-5.35-13.8-5.65-21.15
			c1.99,7.78,2.81,15.86,2.4,23.88c4.14-2.83,9.02-4.58,14.01-5.02"/>
		<path class="st1" d="M533.6,995.56c-0.92-13.92-4.57-27.66-10.68-40.21c1.17,15.12,4.42,30.07,9.65,44.3
			c-7.28-10.1-14.56-20.2-21.85-30.3c-1.04,11.64,6.53,23.51,17.52,27.49c7.05-9.4,12.81-19.76,17.07-30.71
			c-0.74,9.91-4.29,19.59-10.13,27.62c-0.55,0.76-1.15,1.7-0.8,2.56c0.35,0.87,2.12,0.55,1.75-0.31"/>
		<path class="st1" d="M631.22,979.62c3.6-16.62,9.43-32.76,17.31-47.83c0.34,16.75-4.23,33.57-13.01,47.84
			c-2.44-11.53-6.07-22.81-10.82-33.6c-1.45,11.08,2.15,22.73,9.61,31.05c-0.92-1.19-1.83-2.38-2.75-3.56"/>
		<path class="st1" d="M558.65,921c1.8-13.58,2.33-27.33,1.56-41.01c-0.23-4.14-2.07-9.6-6.19-9.14c-4.92,14.98-3.25,32,4.49,45.73
			c-4.16-5.7-8.32-11.39-12.49-17.09c-2.62,10.05,4.52,21.55,14.68,23.67c1.79-10.02,7.21-19.35,15.04-25.86
			c-1.01,8.73-5.18,17.07-11.56,23.11"/>
		<path class="st1" d="M542.29,1118.09c-0.62-16.67-1.24-33.34-1.86-50.01c-0.14-3.87-0.77-8.5-4.29-10.12
			c-1.98,18.95-0.33,38.28,4.84,56.62c-5.77-8.82-11.54-17.65-17.3-26.47c5.85,10,12.42,19.59,19.63,28.65
			c-0.25-1.16-0.49-2.32-0.74-3.48"/>
		<path class="st1" d="M453.33,1088.13c1.75-9.17,2.74-18.49,2.95-27.82c0.11-4.66-1.44-10.89-6.1-10.89
			c-2.69,9.78-0.08,20.84,6.69,28.39c-2.47-1.16-4.94-2.31-7.4-3.47c5.58-4.59,11.5-8.76,17.69-12.46c1.5-0.9,3.44-1.76,4.89-0.78
			c1.08,0.73,1.36,2.21,1.27,3.51c-0.46,6.73-7.61,10.72-13.97,12.95c-0.18-0.92,1.68-0.08,1.11,0.67
			c-0.57,0.75-1.74,0.45-2.61,0.09c-5.88-2.5-11.76-5-17.63-7.51c-0.17,4.99,2.89,9.95,7.43,12.03c4.54,2.08,10.3,1.16,13.96-2.24"
			/>
		<path class="st1" d="M387.85,937.57c-3.43-14.41-7.75-28.61-12.93-42.48c2.6,13.56,7.35,26.7,14.03,38.78
			c-0.72-12.86,2.31-25.9,8.61-37.13c-1.87,12.37-4.96,24.56-9.21,36.33c0.26-2.53,1.66-4.92,3.75-6.38
			c-8.35,6.32-21.05,6.03-29.11-0.66c9.33,6.29,21.01,9.02,32.16,7.52c-1.39,0.24-2.78,0.49-4.17,0.73
			c3.75-7.18,9.24-13.45,15.87-18.1c-3.24,6.77-6.47,13.54-9.71,20.32c-0.39,0.82-0.26,1.95-0.99,2.49s-1.44-1.33-0.61-0.95"/>
		<path class="st1" d="M377.74,1039.57c-2.07-10.3-4.13-20.6-6.2-30.91c-0.73-3.64-2.29-8.09-5.98-8.48
			c-5.29,15.87-1.17,34.5,10.32,46.65c-4.16-6.11-9.12-11.67-14.7-16.51c-1.25-1.08-2.86-2.19-4.41-1.64
			c-1.04,0.37-1.69,1.38-2.14,2.38c-1.78,3.93-1.48,8.83,1.1,12.29c2.58,3.46,7.46,5.14,11.51,3.65c3.04-1.12,5.26-3.72,7.33-6.21
			c5.8-6.98,11.61-13.95,17.41-20.93c-3.98,10.62-10.1,20.44-17.9,28.69c6.12-4.18,12.24-8.35,18.35-12.53
			c-5.91,5.42-11.83,10.84-17.74,16.26"/>
		<path class="st1" d="M108.47,1009.5c0.96-19.9-3.75-40.04-13.44-57.44c-4.68,11.31-0.27,24.12,4.13,35.54
			c3.33,8.65,6.67,17.29,10,25.94c6.8-10.93,12.38-22.62,16.62-34.78c-4.63,10.28-9.26,20.56-13.89,30.84
			c1.33-11.86,0.94-23.91-1.14-35.66"/>
		<path class="st1" d="M292.45,1049.91c-5.01-3.26-10.03-6.53-15.04-9.79c-2.68-1.74-6.43-3.43-8.77-1.25
			c-1.67,1.56-1.46,4.42-0.11,6.25c1.36,1.84,3.54,2.86,5.68,3.64c6.35,2.34,13.2,3.29,19.94,2.78
			c-7.45,4.34-13.99,10.25-19.06,17.22c8.84-3.78,16.88-9.39,23.48-16.37c-3.41-6.52-5.35-13.8-5.65-21.15
			c1.99,7.78,2.81,15.86,2.4,23.88c4.14-2.83,9.02-4.58,14.01-5.02"/>
		<path class="st1" d="M203.95,995.56c-0.92-13.92-4.57-27.66-10.68-40.21c1.17,15.12,4.42,30.07,9.65,44.3
			c-7.28-10.1-14.56-20.2-21.85-30.3c-1.04,11.64,6.53,23.51,17.52,27.49c7.05-9.4,12.81-19.76,17.07-30.71
			c-0.74,9.91-4.29,19.59-10.13,27.62c-0.55,0.76-1.15,1.7-0.8,2.56c0.35,0.87,2.12,0.55,1.75-0.31"/>
		<path class="st1" d="M301.57,979.62c3.6-16.62,9.43-32.76,17.31-47.83c0.34,16.75-4.23,33.57-13.01,47.84
			c-2.44-11.53-6.07-22.81-10.82-33.6c-1.45,11.08,2.15,22.73,9.61,31.05c-0.92-1.19-1.83-2.38-2.75-3.56"/>
		<path class="st1" d="M229,921c1.8-13.58,2.33-27.33,1.56-41.01c-0.23-4.14-2.07-9.6-6.19-9.14c-4.92,14.98-3.25,32,4.49,45.73
			c-4.16-5.7-8.32-11.39-12.49-17.09c-2.62,10.05,4.52,21.55,14.68,23.67c1.79-10.02,7.21-19.35,15.04-25.86
			c-1.01,8.73-5.18,17.07-11.56,23.11"/>
		<path class="st1" d="M212.64,1118.09c-0.62-16.67-1.24-33.34-1.86-50.01c-0.14-3.87-0.77-8.5-4.29-10.12
			c-1.98,18.95-0.33,38.28,4.84,56.62c-5.77-8.82-11.54-17.65-17.3-26.47c5.85,10,12.42,19.59,19.63,28.65
			c-0.25-1.16-0.49-2.32-0.74-3.48"/>
		<path class="st1" d="M123.68,1088.13c1.75-9.17,2.74-18.49,2.95-27.82c0.11-4.66-1.44-10.89-6.1-10.89
			c-2.69,9.78-0.08,20.84,6.69,28.39c-2.47-1.16-4.94-2.31-7.4-3.47c5.58-4.59,11.5-8.76,17.69-12.46c1.5-0.9,3.44-1.76,4.89-0.78
			c1.08,0.73,1.36,2.21,1.27,3.51c-0.46,6.73-7.61,10.72-13.97,12.95c-0.18-0.92,1.68-0.08,1.11,0.67
			c-0.57,0.75-1.74,0.45-2.61,0.09c-5.88-2.5-11.76-5-17.63-7.51c-0.17,4.99,2.89,9.95,7.43,12.03s10.3,1.16,13.96-2.24"/>
		<path class="st1" d="M58.2,937.57c-3.43-14.41-7.75-28.61-12.93-42.48c2.6,13.56,7.35,26.7,14.03,38.78
			c-0.72-12.86,2.31-25.9,8.61-37.13c-1.87,12.37-4.96,24.56-9.21,36.33c0.26-2.53,1.66-4.92,3.75-6.38
			c-8.35,6.32-21.05,6.03-29.11-0.66c9.33,6.29,21.01,9.02,32.16,7.52c-1.39,0.24-2.78,0.49-4.17,0.73
			c3.75-7.18,9.24-13.45,15.87-18.1c-3.24,6.77-6.47,13.54-9.71,20.32c-0.39,0.82-0.26,1.95-0.99,2.49s-1.44-1.33-0.61-0.95"/>
		<path class="st1" d="M48.08,1039.57c-2.07-10.3-4.13-20.6-6.2-30.91c-0.73-3.64-2.29-8.09-5.98-8.48
			c-5.29,15.87-1.17,34.5,10.32,46.65c-4.16-6.11-9.12-11.67-14.7-16.51c-1.25-1.08-2.86-2.19-4.41-1.64
			c-1.04,0.37-1.69,1.38-2.14,2.38c-1.78,3.93-1.48,8.83,1.1,12.29c2.58,3.46,7.46,5.14,11.51,3.65c3.04-1.12,5.26-3.72,7.33-6.21
			c5.8-6.98,11.61-13.95,17.41-20.93c-3.98,10.62-10.1,20.44-17.9,28.69c6.12-4.18,12.24-8.35,18.35-12.53
			c-5.91,5.42-11.83,10.84-17.74,16.26"/>
		<path class="st1" d="M1756.72,682.75c0.96-19.9-3.75-40.04-13.44-57.44c-4.68,11.31-0.27,24.12,4.13,35.54
			c3.33,8.65,6.67,17.29,10,25.94c6.8-10.93,12.38-22.62,16.62-34.78c-4.63,10.28-9.26,20.56-13.89,30.84
			c1.33-11.86,0.94-23.91-1.14-35.66"/>
		<path class="st1" d="M1940.7,723.17c-5.01-3.26-10.03-6.53-15.04-9.79c-2.68-1.74-6.43-3.43-8.77-1.25
			c-1.67,1.56-1.46,4.42-0.11,6.25c1.36,1.84,3.54,2.86,5.68,3.64c6.35,2.34,13.2,3.29,19.94,2.78
			c-7.45,4.34-13.99,10.25-19.06,17.22c8.84-3.78,16.88-9.39,23.48-16.37c-3.41-6.52-5.35-13.8-5.65-21.15
			c1.99,7.78,2.81,15.86,2.4,23.88c4.14-2.83,9.02-4.58,14.01-5.02"/>
		<path class="st1" d="M1852.21,668.81c-0.92-13.92-4.57-27.66-10.68-40.21c1.17,15.12,4.42,30.07,9.65,44.3
			c-7.28-10.1-14.56-20.2-21.85-30.3c-1.04,11.64,6.53,23.51,17.52,27.49c7.05-9.4,12.81-19.76,17.07-30.71
			c-0.74,9.91-4.29,19.59-10.13,27.62c-0.55,0.76-1.15,1.7-0.8,2.56c0.35,0.87,2.12,0.55,1.75-0.31"/>
		<path class="st1" d="M1877.26,594.25c1.8-13.58,2.33-27.33,1.56-41.01c-0.23-4.14-2.07-9.6-6.19-9.14
			c-4.92,14.98-3.25,32,4.49,45.73c-4.16-5.7-8.32-11.39-12.49-17.09c-2.62,10.05,4.52,21.55,14.68,23.67
			c1.79-10.02,7.21-19.35,15.04-25.86c-1.01,8.73-5.18,17.07-11.56,23.11"/>
		<path class="st1" d="M1783.11,862c-0.59-16.85-4.52-33.58-11.5-48.93c-4.58,15.14,3.07,31.01,10.49,44.98
			c3.63-9.18,8.45-17.9,14.3-25.86c-1.5,10.42-6.39,20.32-13.74,27.86c0.44-1.16,0.88-2.33,1.33-3.49"/>
		<path class="st1" d="M1860.9,791.34c-0.62-16.67-1.24-33.34-1.86-50.01c-0.14-3.87-0.77-8.5-4.29-10.12
			c-1.98,18.95-0.33,38.28,4.84,56.62c-5.77-8.82-11.54-17.65-17.3-26.47c5.85,10,12.42,19.59,19.63,28.65
			c-0.25-1.16-0.49-2.32-0.74-3.49"/>
		<path class="st1" d="M1771.94,761.38c1.75-9.17,2.74-18.49,2.95-27.82c0.1-4.66-1.44-10.89-6.1-10.89
			c-2.69,9.78-0.08,20.84,6.69,28.39c-2.47-1.16-4.94-2.31-7.4-3.47c5.58-4.59,11.5-8.76,17.69-12.46c1.5-0.9,3.44-1.76,4.89-0.78
			c1.08,0.73,1.36,2.21,1.27,3.51c-0.46,6.73-7.61,10.72-13.97,12.95c-0.18-0.92,1.68-0.08,1.11,0.67
			c-0.57,0.75-1.74,0.45-2.61,0.09c-5.88-2.5-11.76-5-17.63-7.51c-0.17,4.99,2.89,9.95,7.43,12.03c4.54,2.08,10.3,1.16,13.96-2.24"
			/>
		<path class="st1" d="M1909.58,833.24c-1.75-9.17-2.74-18.49-2.95-27.82c-0.11-4.66,1.44-10.89,6.1-10.89
			c2.69,9.78,0.08,20.84-6.69,28.39c2.47-1.16,4.94-2.31,7.4-3.47c-5.58-4.59-11.5-8.76-17.69-12.46c-1.5-0.9-3.44-1.76-4.89-0.78
			c-1.08,0.73-1.36,2.21-1.27,3.51c0.46,6.73,7.61,10.72,13.97,12.95c0.18-0.92-1.68-0.08-1.11,0.67c0.57,0.75,1.74,0.45,2.6,0.09
			c5.88-2.5,11.76-5,17.63-7.51c0.17,4.99-2.89,9.95-7.43,12.03c-4.54,2.08-10.3,1.16-13.96-2.24"/>
		<path class="st1" d="M1712.37,806.1c-4.38-10.74-6.66-22.33-6.66-33.92c0-5.51,0.75-11.56,4.79-15.31
			c5.25,16.38,6.12,34.14,2.49,50.96c2.26-13.17,5.58-26.16,9.91-38.8c0.36-1.05,0.93-2.26,2.03-2.38c1.13-0.12,1.96,1.03,2.36,2.09
			c1.67,4.48,0.11,9.44-1.45,13.96c-3.05,8.83-6.1,17.67-9.15,26.5c3.5-8.34,7.93-16.29,13.19-23.65c2.2-3.08,6.08-6.39,9.28-4.36
			c-1.35,10.47-5.94,20.49-12.98,28.35c-0.82,0.91-1.75,1.84-2.96,2.07c-1.92,0.36-3.63-1.18-4.98-2.59
			c-5.78-6.03-11.57-12.07-17.35-18.1c1.25,5.74,2.63,11.75,6.52,16.14c3.89,4.39,11.17,6.38,15.7,2.66"/>
		<path class="st1" d="M1706.46,610.82c-3.43-14.41-7.75-28.61-12.93-42.48c2.6,13.56,7.35,26.7,14.03,38.78
			c-0.72-12.86,2.31-25.9,8.61-37.13c-1.87,12.37-4.96,24.56-9.21,36.33c0.26-2.53,1.66-4.92,3.75-6.38
			c-8.35,6.32-21.05,6.03-29.11-0.66c9.33,6.29,21.01,9.02,32.16,7.52c-1.39,0.24-2.78,0.49-4.17,0.73
			c3.75-7.18,9.24-13.45,15.87-18.1c-3.24,6.77-6.47,13.54-9.71,20.32c-0.39,0.82-0.26,1.95-0.99,2.49s-1.44-1.33-0.61-0.95"/>
		<path class="st1" d="M1696.34,712.82c-2.07-10.3-4.13-20.6-6.2-30.91c-0.73-3.64-2.29-8.09-5.98-8.48
			c-5.29,15.87-1.17,34.5,10.32,46.65c-4.16-6.11-9.12-11.67-14.7-16.51c-1.25-1.08-2.86-2.19-4.41-1.64
			c-1.04,0.37-1.69,1.38-2.15,2.38c-1.78,3.93-1.48,8.83,1.1,12.29s7.46,5.14,11.51,3.65c3.04-1.12,5.26-3.72,7.33-6.21
			c5.8-6.98,11.61-13.95,17.41-20.93c-3.98,10.62-10.1,20.44-17.9,28.69c6.12-4.18,12.24-8.35,18.35-12.53
			c-5.91,5.42-11.83,10.84-17.74,16.26"/>
		<path class="st1" d="M1427.07,682.75c0.96-19.9-3.75-40.04-13.44-57.44c-4.68,11.31-0.27,24.12,4.13,35.54
			c3.33,8.65,6.67,17.29,10,25.94c6.8-10.93,12.38-22.62,16.62-34.78c-4.63,10.28-9.26,20.56-13.89,30.84
			c1.33-11.86,0.94-23.91-1.14-35.66"/>
		<path class="st1" d="M1611.05,723.17c-5.01-3.26-10.03-6.53-15.04-9.79c-2.68-1.74-6.43-3.43-8.77-1.25
			c-1.67,1.56-1.46,4.42-0.11,6.25s3.54,2.86,5.68,3.64c6.35,2.34,13.2,3.29,19.94,2.78c-7.45,4.34-13.99,10.25-19.06,17.22
			c8.84-3.78,16.88-9.39,23.48-16.37c-3.41-6.52-5.35-13.8-5.65-21.15c1.99,7.78,2.81,15.86,2.4,23.88
			c4.14-2.83,9.02-4.58,14.01-5.02"/>
		<path class="st1" d="M1657.98,846.98c2.03-14.67,2.05-29.61,0.06-44.28c-1.13-8.3-3.72-17.64-11.26-21.3
			c-3.5,21.39-0.74,43.76,7.86,63.66c-4.42-2.35-9.68-3.05-14.56-1.93c7.46,2.07,15.44,2.21,22.96,0.39"/>
		<path class="st1" d="M1522.55,668.81c-0.92-13.92-4.57-27.66-10.68-40.21c1.17,15.12,4.42,30.07,9.65,44.3
			c-7.28-10.1-14.56-20.2-21.85-30.3c-1.04,11.64,6.53,23.51,17.52,27.49c7.05-9.4,12.81-19.76,17.07-30.71
			c-0.74,9.91-4.29,19.59-10.13,27.62c-0.55,0.76-1.15,1.7-0.8,2.56c0.35,0.87,2.12,0.55,1.75-0.31"/>
		<path class="st1" d="M1620.17,652.87c3.6-16.62,9.43-32.76,17.31-47.83c0.34,16.75-4.23,33.57-13.01,47.84
			c-2.44-11.53-6.07-22.81-10.82-33.6c-1.45,11.08,2.15,22.73,9.61,31.05c-0.92-1.19-1.83-2.38-2.75-3.56"/>
		<path class="st1" d="M1547.61,594.25c1.8-13.58,2.33-27.33,1.56-41.01c-0.23-4.14-2.07-9.6-6.19-9.14
			c-4.92,14.98-3.25,32,4.49,45.73c-4.16-5.7-8.32-11.39-12.49-17.09c-2.62,10.05,4.52,21.55,14.68,23.67
			c1.79-10.02,7.21-19.35,15.04-25.86c-1.01,8.73-5.18,17.07-11.56,23.11"/>
		<path class="st1" d="M1453.46,862c-0.59-16.85-4.52-33.58-11.5-48.93c-4.58,15.14,3.07,31.01,10.49,44.98
			c3.63-9.18,8.45-17.9,14.3-25.86c-1.5,10.42-6.39,20.32-13.74,27.86c0.44-1.16,0.88-2.33,1.33-3.49"/>
		<path class="st1" d="M1531.24,791.34c-0.62-16.67-1.24-33.34-1.86-50.01c-0.14-3.87-0.77-8.5-4.29-10.12
			c-1.98,18.95-0.33,38.28,4.84,56.62c-5.77-8.82-11.54-17.65-17.3-26.47c5.85,10,12.42,19.59,19.63,28.65
			c-0.25-1.16-0.49-2.32-0.74-3.49"/>
		<path class="st1" d="M1442.29,761.38c1.75-9.17,2.74-18.49,2.95-27.82c0.1-4.66-1.44-10.89-6.1-10.89
			c-2.69,9.78-0.08,20.84,6.69,28.39c-2.47-1.16-4.94-2.31-7.4-3.47c5.58-4.59,11.5-8.76,17.69-12.46c1.5-0.9,3.44-1.76,4.89-0.78
			c1.08,0.73,1.36,2.21,1.27,3.51c-0.46,6.73-7.61,10.72-13.97,12.95c-0.18-0.92,1.68-0.08,1.11,0.67c-0.57,0.75-1.74,0.45-2.6,0.09
			c-5.88-2.5-11.76-5-17.63-7.51c-0.17,4.99,2.89,9.95,7.43,12.03c4.54,2.08,10.3,1.16,13.96-2.24"/>
		<path class="st1" d="M1579.93,833.24c-1.75-9.17-2.74-18.49-2.95-27.82c-0.1-4.66,1.44-10.89,6.1-10.89
			c2.69,9.78,0.08,20.84-6.69,28.39c2.47-1.16,4.94-2.31,7.4-3.47c-5.58-4.59-11.5-8.76-17.69-12.46c-1.5-0.9-3.44-1.76-4.89-0.78
			c-1.08,0.73-1.36,2.21-1.27,3.51c0.46,6.73,7.61,10.72,13.97,12.95c0.18-0.92-1.68-0.08-1.11,0.67c0.57,0.75,1.74,0.45,2.6,0.09
			c5.88-2.5,11.76-5,17.63-7.51c0.17,4.99-2.89,9.95-7.43,12.03c-4.54,2.08-10.3,1.16-13.96-2.24"/>
		<path class="st1" d="M1382.72,806.1c-4.38-10.74-6.66-22.33-6.66-33.92c0-5.51,0.75-11.56,4.79-15.31
			c5.25,16.38,6.12,34.14,2.49,50.96c2.26-13.17,5.58-26.16,9.91-38.8c0.36-1.05,0.93-2.26,2.03-2.38c1.13-0.12,1.96,1.03,2.36,2.09
			c1.67,4.48,0.11,9.44-1.45,13.96c-3.05,8.83-6.1,17.67-9.15,26.5c3.5-8.34,7.93-16.29,13.19-23.65c2.2-3.08,6.08-6.39,9.28-4.36
			c-1.35,10.47-5.94,20.49-12.98,28.35c-0.82,0.91-1.75,1.84-2.96,2.07c-1.92,0.36-3.63-1.18-4.98-2.59
			c-5.78-6.03-11.57-12.07-17.35-18.1c1.25,5.74,2.63,11.75,6.52,16.14c3.89,4.39,11.17,6.38,15.7,2.66"/>
		<path class="st1" d="M1376.81,610.82c-3.43-14.41-7.75-28.61-12.93-42.48c2.6,13.56,7.35,26.7,14.03,38.78
			c-0.72-12.86,2.31-25.9,8.61-37.13c-1.87,12.37-4.96,24.56-9.21,36.33c0.26-2.53,1.66-4.92,3.75-6.38
			c-8.35,6.32-21.05,6.03-29.11-0.66c9.33,6.29,21.01,9.02,32.16,7.52c-1.39,0.24-2.78,0.49-4.17,0.73
			c3.75-7.18,9.24-13.45,15.87-18.1c-3.24,6.77-6.47,13.54-9.71,20.32c-0.39,0.82-0.26,1.95-0.99,2.49s-1.44-1.33-0.61-0.95"/>
		<path class="st1" d="M1366.69,712.82c-2.07-10.3-4.13-20.6-6.2-30.91c-0.73-3.64-2.29-8.09-5.98-8.48
			c-5.29,15.87-1.17,34.5,10.32,46.65c-4.16-6.11-9.12-11.67-14.7-16.51c-1.25-1.08-2.86-2.19-4.41-1.64
			c-1.04,0.37-1.69,1.38-2.14,2.38c-1.78,3.93-1.48,8.83,1.1,12.29c2.58,3.46,7.46,5.14,11.51,3.65c3.04-1.12,5.26-3.72,7.33-6.21
			c5.8-6.98,11.61-13.95,17.41-20.93c-3.98,10.62-10.1,20.44-17.9,28.69c6.12-4.18,12.24-8.35,18.35-12.53
			c-5.91,5.42-11.83,10.84-17.74,16.26"/>
		<path class="st1" d="M1097.42,682.75c0.96-19.9-3.75-40.04-13.44-57.44c-4.68,11.31-0.27,24.12,4.13,35.54
			c3.33,8.65,6.67,17.29,10,25.94c6.8-10.93,12.38-22.62,16.62-34.78c-4.63,10.28-9.26,20.56-13.89,30.84
			c1.33-11.86,0.94-23.91-1.14-35.66"/>
		<path class="st1" d="M1281.4,723.17c-5.01-3.26-10.03-6.53-15.04-9.79c-2.68-1.74-6.43-3.43-8.77-1.25
			c-1.67,1.56-1.46,4.42-0.11,6.25s3.54,2.86,5.68,3.64c6.35,2.34,13.2,3.29,19.94,2.78c-7.45,4.34-13.99,10.25-19.06,17.22
			c8.84-3.78,16.88-9.39,23.48-16.37c-3.41-6.52-5.35-13.8-5.65-21.15c1.99,7.78,2.81,15.86,2.4,23.88
			c4.14-2.83,9.02-4.58,14.01-5.02"/>
		<path class="st1" d="M1328.33,846.98c2.03-14.67,2.05-29.61,0.06-44.28c-1.13-8.3-3.72-17.64-11.26-21.3
			c-3.51,21.39-0.74,43.76,7.86,63.66c-4.42-2.35-9.68-3.05-14.56-1.93c7.46,2.07,15.44,2.21,22.96,0.39"/>
		<path class="st1" d="M1192.9,668.81c-0.92-13.92-4.57-27.66-10.68-40.21c1.17,15.12,4.42,30.07,9.65,44.3
			c-7.28-10.1-14.56-20.2-21.85-30.3c-1.04,11.64,6.53,23.51,17.52,27.49c7.05-9.4,12.81-19.76,17.07-30.71
			c-0.74,9.91-4.29,19.59-10.13,27.62c-0.55,0.76-1.15,1.7-0.8,2.56c0.35,0.87,2.12,0.55,1.75-0.31"/>
		<path class="st1" d="M1290.52,652.87c3.6-16.62,9.43-32.76,17.31-47.83c0.34,16.75-4.23,33.57-13.01,47.84
			c-2.44-11.53-6.07-22.81-10.82-33.6c-1.45,11.08,2.15,22.73,9.61,31.05c-0.92-1.19-1.83-2.38-2.75-3.56"/>
		<path class="st1" d="M1217.96,594.25c1.8-13.58,2.33-27.33,1.56-41.01c-0.23-4.14-2.07-9.6-6.19-9.14
			c-4.92,14.98-3.25,32,4.49,45.73c-4.16-5.7-8.32-11.39-12.49-17.09c-2.62,10.05,4.52,21.55,14.68,23.67
			c1.79-10.02,7.21-19.35,15.04-25.86c-1.01,8.73-5.18,17.07-11.56,23.11"/>
		<path class="st1" d="M1123.81,862c-0.59-16.85-4.52-33.58-11.5-48.93c-4.58,15.14,3.07,31.01,10.49,44.98
			c3.63-9.18,8.45-17.9,14.3-25.86c-1.5,10.42-6.39,20.32-13.74,27.86c0.44-1.16,0.88-2.33,1.33-3.49"/>
		<path class="st1" d="M1201.59,791.34c-0.62-16.67-1.24-33.34-1.86-50.01c-0.14-3.87-0.77-8.5-4.29-10.12
			c-1.98,18.95-0.33,38.28,4.84,56.62c-5.77-8.82-11.54-17.65-17.3-26.47c5.85,10,12.42,19.59,19.63,28.65
			c-0.25-1.16-0.49-2.32-0.74-3.49"/>
		<path class="st1" d="M1112.64,761.38c1.75-9.17,2.74-18.49,2.95-27.82c0.11-4.66-1.44-10.89-6.1-10.89
			c-2.69,9.78-0.08,20.84,6.69,28.39c-2.47-1.16-4.94-2.31-7.4-3.47c5.58-4.59,11.5-8.76,17.69-12.46c1.5-0.9,3.44-1.76,4.89-0.78
			c1.08,0.73,1.36,2.21,1.27,3.51c-0.46,6.73-7.61,10.72-13.97,12.95c-0.18-0.92,1.68-0.08,1.11,0.67c-0.57,0.75-1.74,0.45-2.6,0.09
			c-5.88-2.5-11.76-5-17.63-7.51c-0.17,4.99,2.89,9.95,7.43,12.03c4.54,2.08,10.3,1.16,13.96-2.24"/>
		<path class="st1" d="M1250.28,833.24c-1.75-9.17-2.74-18.49-2.95-27.82c-0.1-4.66,1.44-10.89,6.1-10.89
			c2.69,9.78,0.08,20.84-6.69,28.39c2.47-1.16,4.94-2.31,7.4-3.47c-5.58-4.59-11.5-8.76-17.69-12.46c-1.5-0.9-3.44-1.76-4.89-0.78
			c-1.08,0.73-1.36,2.21-1.27,3.51c0.46,6.73,7.61,10.72,13.97,12.95c0.18-0.92-1.68-0.08-1.11,0.67c0.57,0.75,1.74,0.45,2.61,0.09
			c5.88-2.5,11.76-5,17.63-7.51c0.17,4.99-2.89,9.95-7.43,12.03c-4.54,2.08-10.3,1.16-13.96-2.24"/>
		<path class="st1" d="M1053.06,806.1c-4.38-10.74-6.66-22.33-6.66-33.92c0-5.51,0.75-11.56,4.79-15.31
			c5.25,16.38,6.12,34.14,2.49,50.96c2.26-13.17,5.58-26.16,9.91-38.8c0.36-1.05,0.93-2.26,2.03-2.38c1.13-0.12,1.96,1.03,2.36,2.09
			c1.67,4.48,0.11,9.44-1.45,13.96c-3.05,8.83-6.1,17.67-9.15,26.5c3.5-8.34,7.93-16.29,13.19-23.65c2.2-3.08,6.08-6.39,9.28-4.36
			c-1.35,10.47-5.94,20.49-12.98,28.35c-0.82,0.91-1.75,1.84-2.96,2.07c-1.92,0.36-3.63-1.18-4.98-2.59
			c-5.78-6.03-11.57-12.07-17.35-18.1c1.25,5.74,2.63,11.75,6.52,16.14c3.89,4.39,11.17,6.38,15.7,2.66"/>
		<path class="st1" d="M1047.16,610.82c-3.43-14.41-7.75-28.61-12.93-42.48c2.6,13.56,7.35,26.7,14.03,38.78
			c-0.72-12.86,2.31-25.9,8.61-37.13c-1.87,12.37-4.96,24.56-9.21,36.33c0.26-2.53,1.66-4.92,3.75-6.38
			c-8.35,6.32-21.05,6.03-29.11-0.66c9.33,6.29,21.01,9.02,32.16,7.52c-1.39,0.24-2.78,0.49-4.17,0.73
			c3.75-7.18,9.24-13.45,15.87-18.1c-3.24,6.77-6.47,13.54-9.71,20.32c-0.39,0.82-0.26,1.95-0.99,2.49s-1.44-1.33-0.61-0.95"/>
		<path class="st1" d="M1037.04,712.82c-2.07-10.3-4.13-20.6-6.2-30.91c-0.73-3.64-2.29-8.09-5.98-8.48
			c-5.29,15.87-1.17,34.5,10.32,46.65c-4.16-6.11-9.12-11.67-14.7-16.51c-1.25-1.08-2.86-2.19-4.41-1.64
			c-1.04,0.37-1.69,1.38-2.14,2.38c-1.78,3.93-1.48,8.83,1.1,12.29c2.58,3.46,7.46,5.14,11.51,3.65c3.04-1.12,5.26-3.72,7.33-6.21
			c5.8-6.98,11.61-13.95,17.41-20.93c-3.98,10.62-10.1,20.44-17.9,28.69c6.12-4.18,12.24-8.35,18.35-12.53
			c-5.91,5.42-11.83,10.84-17.74,16.26"/>
		<path class="st1" d="M767.77,682.75c0.96-19.9-3.75-40.04-13.44-57.44c-4.68,11.31-0.27,24.12,4.13,35.54
			c3.33,8.65,6.67,17.29,10,25.94c6.8-10.93,12.38-22.62,16.62-34.78c-4.63,10.28-9.26,20.56-13.89,30.84
			c1.33-11.86,0.94-23.91-1.14-35.66"/>
		<path class="st1" d="M951.75,723.17c-5.01-3.26-10.03-6.53-15.04-9.79c-2.68-1.74-6.43-3.43-8.77-1.25
			c-1.67,1.56-1.46,4.42-0.11,6.25c1.36,1.84,3.54,2.86,5.68,3.64c6.35,2.34,13.2,3.29,19.94,2.78
			c-7.45,4.34-13.99,10.25-19.06,17.22c8.84-3.78,16.88-9.39,23.48-16.37c-3.41-6.52-5.35-13.8-5.65-21.15
			c1.99,7.78,2.81,15.86,2.4,23.88c4.14-2.83,9.02-4.58,14.01-5.02"/>
		<path class="st1" d="M998.68,846.98c2.03-14.67,2.05-29.61,0.06-44.28c-1.13-8.3-3.72-17.64-11.26-21.3
			c-3.5,21.39-0.74,43.76,7.86,63.66c-4.42-2.35-9.68-3.05-14.56-1.93c7.46,2.07,15.44,2.21,22.96,0.39"/>
		<path class="st1" d="M863.25,668.81c-0.92-13.92-4.57-27.66-10.68-40.21c1.17,15.12,4.42,30.07,9.65,44.3
			c-7.28-10.1-14.56-20.2-21.85-30.3c-1.04,11.64,6.53,23.51,17.52,27.49c7.05-9.4,12.81-19.76,17.07-30.71
			c-0.74,9.91-4.29,19.59-10.13,27.62c-0.55,0.76-1.15,1.7-0.8,2.56c0.35,0.87,2.12,0.55,1.75-0.31"/>
		<path class="st1" d="M960.87,652.87c3.6-16.62,9.43-32.76,17.31-47.83c0.34,16.75-4.23,33.57-13.01,47.84
			c-2.44-11.53-6.07-22.81-10.82-33.6c-1.45,11.08,2.15,22.73,9.61,31.05c-0.92-1.19-1.83-2.38-2.75-3.56"/>
		<path class="st1" d="M888.31,594.25c1.8-13.58,2.33-27.33,1.56-41.01c-0.23-4.14-2.07-9.6-6.19-9.14
			c-4.92,14.98-3.25,32,4.49,45.73c-4.16-5.7-8.32-11.39-12.49-17.09c-2.62,10.05,4.52,21.55,14.68,23.67
			c1.79-10.02,7.21-19.35,15.04-25.86c-1.01,8.73-5.18,17.07-11.56,23.11"/>
		<path class="st1" d="M794.16,862c-0.59-16.85-4.52-33.58-11.5-48.93c-4.58,15.14,3.07,31.01,10.49,44.98
			c3.63-9.18,8.45-17.9,14.3-25.86c-1.5,10.42-6.39,20.32-13.74,27.86c0.44-1.16,0.88-2.33,1.33-3.49"/>
		<path class="st1" d="M871.94,791.34c-0.62-16.67-1.24-33.34-1.86-50.01c-0.14-3.87-0.77-8.5-4.29-10.12
			c-1.98,18.95-0.33,38.28,4.84,56.62c-5.77-8.82-11.54-17.65-17.3-26.47c5.85,10,12.42,19.59,19.63,28.65
			c-0.25-1.16-0.49-2.32-0.74-3.49"/>
		<path class="st1" d="M782.99,761.38c1.75-9.17,2.74-18.49,2.95-27.82c0.11-4.66-1.44-10.89-6.1-10.89
			c-2.69,9.78-0.08,20.84,6.69,28.39c-2.47-1.16-4.94-2.31-7.4-3.47c5.58-4.59,11.5-8.76,17.69-12.46c1.5-0.9,3.44-1.76,4.89-0.78
			c1.08,0.73,1.36,2.21,1.27,3.51c-0.46,6.73-7.61,10.72-13.97,12.95c-0.18-0.92,1.68-0.08,1.11,0.67c-0.57,0.75-1.74,0.45-2.6,0.09
			c-5.88-2.5-11.76-5-17.63-7.51c-0.17,4.99,2.89,9.95,7.43,12.03s10.3,1.16,13.96-2.24"/>
		<path class="st1" d="M920.63,833.24c-1.75-9.17-2.74-18.49-2.95-27.82c-0.1-4.66,1.44-10.89,6.1-10.89
			c2.69,9.78,0.08,20.84-6.69,28.39c2.47-1.16,4.94-2.31,7.4-3.47c-5.58-4.59-11.5-8.76-17.69-12.46c-1.5-0.9-3.44-1.76-4.89-0.78
			c-1.08,0.73-1.36,2.21-1.27,3.51c0.46,6.73,7.61,10.72,13.97,12.95c0.18-0.92-1.68-0.08-1.11,0.67c0.57,0.75,1.74,0.45,2.61,0.09
			c5.88-2.5,11.76-5,17.63-7.51c0.17,4.99-2.89,9.95-7.43,12.03s-10.3,1.16-13.96-2.24"/>
		<path class="st1" d="M723.41,806.1c-4.38-10.74-6.66-22.33-6.66-33.92c0-5.51,0.75-11.56,4.79-15.31
			c5.25,16.38,6.12,34.14,2.49,50.96c2.26-13.17,5.58-26.16,9.91-38.8c0.36-1.05,0.93-2.26,2.03-2.38c1.13-0.12,1.96,1.03,2.36,2.09
			c1.67,4.48,0.11,9.44-1.45,13.96c-3.05,8.83-6.1,17.67-9.15,26.5c3.5-8.34,7.93-16.29,13.19-23.65c2.2-3.08,6.08-6.39,9.28-4.36
			c-1.35,10.47-5.94,20.49-12.98,28.35c-0.82,0.91-1.75,1.84-2.96,2.07c-1.92,0.36-3.63-1.18-4.98-2.59
			c-5.78-6.03-11.57-12.07-17.35-18.1c1.25,5.74,2.63,11.75,6.52,16.14c3.89,4.39,11.17,6.38,15.7,2.66"/>
		<path class="st1" d="M717.5,610.82c-3.43-14.41-7.75-28.61-12.93-42.48c2.6,13.56,7.35,26.7,14.03,38.78
			c-0.72-12.86,2.31-25.9,8.61-37.13c-1.87,12.37-4.96,24.56-9.21,36.33c0.26-2.53,1.66-4.92,3.75-6.38
			c-8.35,6.32-21.05,6.03-29.11-0.66c9.33,6.29,21.01,9.02,32.16,7.52c-1.39,0.24-2.78,0.49-4.17,0.73
			c3.75-7.18,9.24-13.45,15.87-18.1c-3.24,6.77-6.47,13.54-9.71,20.32c-0.39,0.82-0.26,1.95-0.99,2.49
			c-0.73,0.54-1.44-1.33-0.61-0.95"/>
		<path class="st1" d="M707.39,712.82c-2.07-10.3-4.13-20.6-6.2-30.91c-0.73-3.64-2.29-8.09-5.98-8.48
			c-5.29,15.87-1.17,34.5,10.32,46.65c-4.16-6.11-9.12-11.67-14.7-16.51c-1.25-1.08-2.86-2.19-4.41-1.64
			c-1.04,0.37-1.69,1.38-2.14,2.38c-1.78,3.93-1.48,8.83,1.1,12.29c2.58,3.46,7.46,5.14,11.51,3.65c3.04-1.12,5.26-3.72,7.33-6.21
			c5.8-6.98,11.61-13.95,17.41-20.93c-3.98,10.62-10.1,20.44-17.9,28.69c6.12-4.18,12.24-8.35,18.35-12.53
			c-5.91,5.42-11.83,10.84-17.74,16.26"/>
		<path class="st1" d="M438.12,682.75c0.96-19.9-3.75-40.04-13.44-57.44c-4.68,11.31-0.27,24.12,4.13,35.54
			c3.33,8.65,6.67,17.29,10,25.94c6.8-10.93,12.38-22.62,16.62-34.78c-4.63,10.28-9.26,20.56-13.89,30.84
			c1.33-11.86,0.94-23.91-1.14-35.66"/>
		<path class="st1" d="M622.1,723.17c-5.01-3.26-10.03-6.53-15.04-9.79c-2.68-1.74-6.43-3.43-8.77-1.25
			c-1.67,1.56-1.46,4.42-0.11,6.25c1.36,1.84,3.54,2.86,5.68,3.64c6.35,2.34,13.2,3.29,19.94,2.78
			c-7.45,4.34-13.99,10.25-19.06,17.22c8.84-3.78,16.88-9.39,23.48-16.37c-3.41-6.52-5.35-13.8-5.65-21.15
			c1.99,7.78,2.81,15.86,2.4,23.88c4.14-2.83,9.02-4.58,14.01-5.02"/>
		<path class="st1" d="M669.02,846.98c2.03-14.67,2.05-29.61,0.06-44.28c-1.13-8.3-3.72-17.64-11.26-21.3
			c-3.5,21.39-0.74,43.76,7.86,63.66c-4.42-2.35-9.68-3.05-14.56-1.93c7.46,2.07,15.44,2.21,22.96,0.39"/>
		<path class="st1" d="M533.6,668.81c-0.92-13.92-4.57-27.66-10.68-40.21c1.17,15.12,4.42,30.07,9.65,44.3
			c-7.28-10.1-14.56-20.2-21.85-30.3c-1.04,11.64,6.53,23.51,17.52,27.49c7.05-9.4,12.81-19.76,17.07-30.71
			c-0.74,9.91-4.29,19.59-10.13,27.62c-0.55,0.76-1.15,1.7-0.8,2.56c0.35,0.87,2.12,0.55,1.75-0.31"/>
		<path class="st1" d="M631.22,652.87c3.6-16.62,9.43-32.76,17.31-47.83c0.34,16.75-4.23,33.57-13.01,47.84
			c-2.44-11.53-6.07-22.81-10.82-33.6c-1.45,11.08,2.15,22.73,9.61,31.05c-0.92-1.19-1.83-2.38-2.75-3.56"/>
		<path class="st1" d="M558.65,594.25c1.8-13.58,2.33-27.33,1.56-41.01c-0.23-4.14-2.07-9.6-6.19-9.14
			c-4.92,14.98-3.25,32,4.49,45.73c-4.16-5.7-8.32-11.39-12.49-17.09c-2.62,10.05,4.52,21.55,14.68,23.67
			c1.79-10.02,7.21-19.35,15.04-25.86c-1.01,8.73-5.18,17.07-11.56,23.11"/>
		<path class="st1" d="M464.5,862c-0.59-16.85-4.52-33.58-11.5-48.93c-4.58,15.14,3.07,31.01,10.49,44.98
			c3.63-9.18,8.45-17.9,14.3-25.86c-1.5,10.42-6.39,20.32-13.74,27.86c0.44-1.16,0.88-2.33,1.33-3.49"/>
		<path class="st1" d="M542.29,791.34c-0.62-16.67-1.24-33.34-1.86-50.01c-0.14-3.87-0.77-8.5-4.29-10.12
			c-1.98,18.95-0.33,38.28,4.84,56.62c-5.77-8.82-11.54-17.65-17.3-26.47c5.85,10,12.42,19.59,19.63,28.65
			c-0.25-1.16-0.49-2.32-0.74-3.49"/>
		<path class="st1" d="M453.33,761.38c1.75-9.17,2.74-18.49,2.95-27.82c0.11-4.66-1.44-10.89-6.1-10.89
			c-2.69,9.78-0.08,20.84,6.69,28.39c-2.47-1.16-4.94-2.31-7.4-3.47c5.58-4.59,11.5-8.76,17.69-12.46c1.5-0.9,3.44-1.76,4.89-0.78
			c1.08,0.73,1.36,2.21,1.27,3.51c-0.46,6.73-7.61,10.72-13.97,12.95c-0.18-0.92,1.68-0.08,1.11,0.67
			c-0.57,0.75-1.74,0.45-2.61,0.09c-5.88-2.5-11.76-5-17.63-7.51c-0.17,4.99,2.89,9.95,7.43,12.03c4.54,2.08,10.3,1.16,13.96-2.24"
			/>
		<path class="st1" d="M590.97,833.24c-1.75-9.17-2.74-18.49-2.95-27.82c-0.11-4.66,1.44-10.89,6.1-10.89
			c2.69,9.78,0.08,20.84-6.69,28.39c2.47-1.16,4.94-2.31,7.4-3.47c-5.58-4.59-11.5-8.76-17.69-12.46c-1.5-0.9-3.44-1.76-4.89-0.78
			c-1.08,0.73-1.36,2.21-1.27,3.51c0.46,6.73,7.61,10.72,13.97,12.95c0.18-0.92-1.68-0.08-1.11,0.67c0.57,0.75,1.74,0.45,2.6,0.09
			c5.88-2.5,11.76-5,17.63-7.51c0.17,4.99-2.89,9.95-7.43,12.03s-10.3,1.16-13.96-2.24"/>
		<path class="st1" d="M393.76,806.1c-4.38-10.74-6.66-22.33-6.66-33.92c0-5.51,0.75-11.56,4.79-15.31
			c5.25,16.38,6.12,34.14,2.49,50.96c2.26-13.17,5.58-26.16,9.91-38.8c0.36-1.05,0.93-2.26,2.03-2.38c1.13-0.12,1.96,1.03,2.36,2.09
			c1.67,4.48,0.11,9.44-1.45,13.96c-3.05,8.83-6.1,17.67-9.15,26.5c3.5-8.34,7.93-16.29,13.19-23.65c2.2-3.08,6.08-6.39,9.28-4.36
			c-1.35,10.47-5.94,20.49-12.98,28.35c-0.82,0.91-1.75,1.84-2.96,2.07c-1.92,0.36-3.63-1.18-4.98-2.59
			c-5.78-6.03-11.57-12.07-17.35-18.1c1.25,5.74,2.63,11.75,6.52,16.14c3.89,4.39,11.17,6.38,15.7,2.66"/>
		<path class="st1" d="M387.85,610.82c-3.43-14.41-7.75-28.61-12.93-42.48c2.6,13.56,7.35,26.7,14.03,38.78
			c-0.72-12.86,2.31-25.9,8.61-37.13c-1.87,12.37-4.96,24.56-9.21,36.33c0.26-2.53,1.66-4.92,3.75-6.38
			c-8.35,6.32-21.05,6.03-29.11-0.66c9.33,6.29,21.01,9.02,32.16,7.52c-1.39,0.24-2.78,0.49-4.17,0.73
			c3.75-7.18,9.24-13.45,15.87-18.1c-3.24,6.77-6.47,13.54-9.71,20.32c-0.39,0.82-0.26,1.95-0.99,2.49s-1.44-1.33-0.61-0.95"/>
		<path class="st1" d="M377.74,712.82c-2.07-10.3-4.13-20.6-6.2-30.91c-0.73-3.64-2.29-8.09-5.98-8.48
			c-5.29,15.87-1.17,34.5,10.32,46.65c-4.16-6.11-9.12-11.67-14.7-16.51c-1.25-1.08-2.86-2.19-4.41-1.64
			c-1.04,0.37-1.69,1.38-2.14,2.38c-1.78,3.93-1.48,8.83,1.1,12.29c2.58,3.46,7.46,5.14,11.51,3.65c3.04-1.12,5.26-3.72,7.33-6.21
			c5.8-6.98,11.61-13.95,17.41-20.93c-3.98,10.62-10.1,20.44-17.9,28.69c6.12-4.18,12.24-8.35,18.35-12.53
			c-5.91,5.42-11.83,10.84-17.74,16.26"/>
		<path class="st1" d="M108.47,682.75c0.96-19.9-3.75-40.04-13.44-57.44c-4.68,11.31-0.27,24.12,4.13,35.54
			c3.33,8.65,6.67,17.29,10,25.94c6.8-10.93,12.38-22.62,16.62-34.78c-4.63,10.28-9.26,20.56-13.89,30.84
			c1.33-11.86,0.94-23.91-1.14-35.66"/>
		<path class="st1" d="M292.45,723.17c-5.01-3.26-10.03-6.53-15.04-9.79c-2.68-1.74-6.43-3.43-8.77-1.25
			c-1.67,1.56-1.46,4.42-0.11,6.25s3.54,2.86,5.68,3.64c6.35,2.34,13.2,3.29,19.94,2.78c-7.45,4.34-13.99,10.25-19.06,17.22
			c8.84-3.78,16.88-9.39,23.48-16.37c-3.41-6.52-5.35-13.8-5.65-21.15c1.99,7.78,2.81,15.86,2.4,23.88
			c4.14-2.83,9.02-4.58,14.01-5.02"/>
		<path class="st1" d="M339.37,846.98c2.03-14.67,2.05-29.61,0.06-44.28c-1.13-8.3-3.72-17.64-11.26-21.3
			c-3.5,21.39-0.74,43.76,7.86,63.66c-4.42-2.35-9.68-3.05-14.56-1.93c7.46,2.07,15.44,2.21,22.96,0.39"/>
		<path class="st1" d="M203.95,668.81c-0.92-13.92-4.57-27.66-10.68-40.21c1.17,15.12,4.42,30.07,9.65,44.3
			c-7.28-10.1-14.56-20.2-21.85-30.3c-1.04,11.64,6.53,23.51,17.52,27.49c7.05-9.4,12.81-19.76,17.07-30.71
			c-0.74,9.91-4.29,19.59-10.13,27.62c-0.55,0.76-1.15,1.7-0.8,2.56c0.35,0.87,2.12,0.55,1.75-0.31"/>
		<path class="st1" d="M301.57,652.87c3.6-16.62,9.43-32.76,17.31-47.83c0.34,16.75-4.23,33.57-13.01,47.84
			c-2.44-11.53-6.07-22.81-10.82-33.6c-1.45,11.08,2.15,22.73,9.61,31.05c-0.92-1.19-1.83-2.38-2.75-3.56"/>
		<path class="st1" d="M229,594.25c1.8-13.58,2.33-27.33,1.56-41.01c-0.23-4.14-2.07-9.6-6.19-9.14c-4.92,14.98-3.25,32,4.49,45.73
			c-4.16-5.7-8.32-11.39-12.49-17.09c-2.62,10.05,4.52,21.55,14.68,23.67c1.79-10.02,7.21-19.35,15.04-25.86
			c-1.01,8.73-5.18,17.07-11.56,23.11"/>
		<path class="st1" d="M134.85,862c-0.59-16.85-4.52-33.58-11.5-48.93c-4.58,15.14,3.07,31.01,10.49,44.98
			c3.63-9.18,8.45-17.9,14.3-25.86c-1.5,10.42-6.39,20.32-13.74,27.86c0.44-1.16,0.88-2.33,1.33-3.49"/>
		<path class="st1" d="M212.64,791.34c-0.62-16.67-1.24-33.34-1.86-50.01c-0.14-3.87-0.77-8.5-4.29-10.12
			c-1.98,18.95-0.33,38.28,4.84,56.62c-5.77-8.82-11.54-17.65-17.3-26.47c5.85,10,12.42,19.59,19.63,28.65
			c-0.25-1.16-0.49-2.32-0.74-3.49"/>
		<path class="st1" d="M123.68,761.38c1.75-9.17,2.74-18.49,2.95-27.82c0.11-4.66-1.44-10.89-6.1-10.89
			c-2.69,9.78-0.08,20.84,6.69,28.39c-2.47-1.16-4.94-2.31-7.4-3.47c5.58-4.59,11.5-8.76,17.69-12.46c1.5-0.9,3.44-1.76,4.89-0.78
			c1.08,0.73,1.36,2.21,1.27,3.51c-0.46,6.73-7.61,10.72-13.97,12.95c-0.18-0.92,1.68-0.08,1.11,0.67
			c-0.57,0.75-1.74,0.45-2.61,0.09c-5.88-2.5-11.76-5-17.63-7.51c-0.17,4.99,2.89,9.95,7.43,12.03s10.3,1.16,13.96-2.24"/>
		<path class="st1" d="M261.32,833.24c-1.75-9.17-2.74-18.49-2.95-27.82c-0.11-4.66,1.44-10.89,6.1-10.89
			c2.69,9.78,0.08,20.84-6.69,28.39c2.47-1.16,4.94-2.31,7.4-3.47c-5.58-4.59-11.5-8.76-17.69-12.46c-1.5-0.9-3.44-1.76-4.89-0.78
			c-1.08,0.73-1.36,2.21-1.27,3.51c0.46,6.73,7.61,10.72,13.97,12.95c0.18-0.92-1.68-0.08-1.11,0.67c0.57,0.75,1.74,0.45,2.61,0.09
			c5.88-2.5,11.76-5,17.63-7.51c0.17,4.99-2.89,9.95-7.43,12.03c-4.54,2.08-10.3,1.16-13.96-2.24"/>
		<path class="st1" d="M64.11,806.1c-4.38-10.74-6.66-22.33-6.66-33.92c0-5.51,0.75-11.56,4.79-15.31
			c5.25,16.38,6.12,34.14,2.49,50.96c2.26-13.17,5.58-26.16,9.91-38.8c0.36-1.05,0.93-2.26,2.03-2.38c1.13-0.12,1.96,1.03,2.36,2.09
			c1.67,4.48,0.11,9.44-1.45,13.96c-3.05,8.83-6.1,17.67-9.15,26.5c3.5-8.34,7.93-16.29,13.19-23.65c2.2-3.08,6.08-6.39,9.28-4.36
			c-1.35,10.47-5.94,20.49-12.98,28.35c-0.82,0.91-1.75,1.84-2.96,2.07c-1.92,0.36-3.63-1.18-4.98-2.59
			c-5.78-6.03-11.57-12.07-17.35-18.1c1.25,5.74,2.63,11.75,6.52,16.14c3.89,4.39,11.17,6.38,15.7,2.66"/>
		<path class="st1" d="M58.2,610.82c-3.43-14.41-7.75-28.61-12.93-42.48c2.6,13.56,7.35,26.7,14.03,38.78
			c-0.72-12.86,2.31-25.9,8.61-37.13c-1.87,12.37-4.96,24.56-9.21,36.33c0.26-2.53,1.66-4.92,3.75-6.38
			c-8.35,6.32-21.05,6.03-29.11-0.66c9.33,6.29,21.01,9.02,32.16,7.52c-1.39,0.24-2.78,0.49-4.17,0.73
			c3.75-7.18,9.24-13.45,15.87-18.1c-3.24,6.77-6.47,13.54-9.71,20.32c-0.39,0.82-0.26,1.95-0.99,2.49s-1.44-1.33-0.61-0.95"/>
		<path class="st1" d="M48.08,712.82c-2.07-10.3-4.13-20.6-6.2-30.91c-0.73-3.64-2.29-8.09-5.98-8.48
			c-5.29,15.87-1.17,34.5,10.32,46.65c-4.16-6.11-9.12-11.67-14.7-16.51c-1.25-1.08-2.86-2.19-4.41-1.64
			c-1.04,0.37-1.69,1.38-2.14,2.38c-1.78,3.93-1.48,8.83,1.1,12.29s7.46,5.14,11.51,3.65c3.04-1.12,5.26-3.72,7.33-6.21
			c5.8-6.98,11.61-13.95,17.41-20.93c-3.98,10.62-10.1,20.44-17.9,28.69c6.12-4.18,12.24-8.35,18.35-12.53
			c-5.91,5.42-11.83,10.84-17.74,16.26"/>
		<path class="st1" d="M9.72,846.98c2.03-14.67,2.05-29.61,0.06-44.28c-1.13-8.3-3.72-17.64-11.26-21.3
			c-3.5,21.39-0.74,43.76,7.86,63.66c-4.42-2.35-9.68-3.05-14.56-1.93c7.46,2.07,15.44,2.21,22.96,0.39"/>
		<path class="st1" d="M1756.72,356c0.96-19.9-3.75-40.04-13.44-57.44c-4.68,11.31-0.27,24.12,4.13,35.54
			c3.33,8.65,6.67,17.29,10,25.94c6.8-10.93,12.38-22.62,16.62-34.78c-4.63,10.28-9.26,20.56-13.89,30.84
			c1.33-11.86,0.94-23.91-1.14-35.66"/>
		<path class="st1" d="M1940.7,396.42c-5.01-3.26-10.03-6.53-15.04-9.79c-2.68-1.74-6.43-3.43-8.77-1.25
			c-1.67,1.56-1.46,4.42-0.11,6.25c1.36,1.84,3.54,2.86,5.68,3.64c6.35,2.34,13.2,3.29,19.94,2.78
			c-7.45,4.34-13.99,10.25-19.06,17.22c8.84-3.78,16.88-9.39,23.48-16.37c-3.41-6.52-5.35-13.8-5.65-21.15
			c1.99,7.78,2.81,15.86,2.4,23.88c4.14-2.83,9.02-4.58,14.01-5.02"/>
		<path class="st1" d="M1852.21,342.06c-0.92-13.92-4.57-27.66-10.68-40.21c1.17,15.12,4.42,30.07,9.65,44.3
			c-7.28-10.1-14.56-20.2-21.85-30.3c-1.04,11.64,6.53,23.51,17.52,27.49c7.05-9.4,12.81-19.76,17.07-30.71
			c-0.74,9.91-4.29,19.59-10.13,27.62c-0.55,0.76-1.15,1.7-0.8,2.56c0.35,0.87,2.12,0.55,1.75-0.31"/>
		<path class="st1" d="M1877.26,267.5c1.8-13.58,2.33-27.33,1.56-41.01c-0.23-4.14-2.07-9.6-6.19-9.14
			c-4.92,14.98-3.25,32,4.49,45.73c-4.16-5.7-8.32-11.39-12.49-17.09c-2.62,10.05,4.52,21.55,14.68,23.67
			c1.79-10.02,7.21-19.35,15.04-25.86c-1.01,8.73-5.18,17.07-11.56,23.11"/>
		<path class="st1" d="M1783.11,535.25c-0.59-16.85-4.52-33.58-11.5-48.93c-4.58,15.14,3.07,31.01,10.49,44.98
			c3.63-9.18,8.45-17.9,14.3-25.86c-1.5,10.42-6.39,20.32-13.74,27.86c0.44-1.16,0.88-2.33,1.33-3.49"/>
		<path class="st1" d="M1860.9,464.59c-0.62-16.67-1.24-33.34-1.86-50.01c-0.14-3.87-0.77-8.5-4.29-10.12
			c-1.98,18.95-0.33,38.28,4.84,56.62c-5.77-8.82-11.54-17.65-17.3-26.47c5.85,10,12.42,19.59,19.63,28.65
			c-0.25-1.16-0.49-2.32-0.74-3.49"/>
		<path class="st1" d="M1771.94,434.64c1.75-9.17,2.74-18.49,2.95-27.82c0.1-4.66-1.44-10.89-6.1-10.89
			c-2.69,9.78-0.08,20.84,6.69,28.39c-2.47-1.16-4.94-2.31-7.4-3.47c5.58-4.59,11.5-8.76,17.69-12.46c1.5-0.9,3.44-1.76,4.89-0.78
			c1.08,0.73,1.36,2.21,1.27,3.51c-0.46,6.73-7.61,10.72-13.97,12.95c-0.18-0.92,1.68-0.08,1.11,0.67
			c-0.57,0.75-1.74,0.45-2.61,0.09c-5.88-2.5-11.76-5-17.63-7.51c-0.17,4.99,2.89,9.95,7.43,12.03c4.54,2.08,10.3,1.16,13.96-2.24"
			/>
		<path class="st1" d="M1909.58,506.49c-1.75-9.17-2.74-18.49-2.95-27.82c-0.11-4.66,1.44-10.89,6.1-10.89
			c2.69,9.78,0.08,20.84-6.69,28.39c2.47-1.16,4.94-2.31,7.4-3.47c-5.58-4.59-11.5-8.76-17.69-12.46c-1.5-0.9-3.44-1.76-4.89-0.78
			c-1.08,0.73-1.36,2.21-1.27,3.51c0.46,6.73,7.61,10.72,13.97,12.95c0.18-0.92-1.68-0.08-1.11,0.67c0.57,0.75,1.74,0.45,2.6,0.09
			c5.88-2.5,11.76-5,17.63-7.51c0.17,4.99-2.89,9.95-7.43,12.03c-4.54,2.08-10.3,1.16-13.96-2.24"/>
		<path class="st1" d="M1712.37,479.35c-4.38-10.74-6.66-22.33-6.66-33.92c0-5.51,0.75-11.56,4.79-15.31
			c5.25,16.38,6.12,34.14,2.49,50.96c2.26-13.17,5.58-26.16,9.91-38.8c0.36-1.05,0.93-2.26,2.03-2.38c1.13-0.12,1.96,1.03,2.36,2.09
			c1.67,4.48,0.11,9.44-1.45,13.96c-3.05,8.83-6.1,17.67-9.15,26.5c3.5-8.34,7.93-16.29,13.19-23.65c2.2-3.08,6.08-6.39,9.28-4.36
			c-1.35,10.47-5.94,20.49-12.98,28.35c-0.82,0.91-1.75,1.84-2.96,2.07c-1.92,0.36-3.63-1.18-4.98-2.59
			c-5.78-6.03-11.57-12.07-17.35-18.1c1.25,5.74,2.63,11.75,6.52,16.14c3.89,4.39,11.17,6.38,15.7,2.66"/>
		<path class="st1" d="M1706.46,284.08c-3.43-14.41-7.75-28.61-12.93-42.48c2.6,13.56,7.35,26.7,14.03,38.78
			c-0.72-12.86,2.31-25.9,8.61-37.13c-1.87,12.37-4.96,24.56-9.21,36.33c0.26-2.53,1.66-4.92,3.75-6.38
			c-8.35,6.32-21.05,6.03-29.11-0.66c9.33,6.29,21.01,9.02,32.16,7.52c-1.39,0.24-2.78,0.49-4.17,0.73
			c3.75-7.18,9.24-13.45,15.87-18.1c-3.24,6.77-6.47,13.54-9.71,20.32c-0.39,0.82-0.26,1.95-0.99,2.49
			c-0.73,0.54-1.44-1.33-0.61-0.95"/>
		<path class="st1" d="M1696.34,386.08c-2.07-10.3-4.13-20.6-6.2-30.91c-0.73-3.64-2.29-8.09-5.98-8.48
			c-5.29,15.87-1.17,34.5,10.32,46.65c-4.16-6.11-9.12-11.67-14.7-16.51c-1.25-1.08-2.86-2.19-4.41-1.64
			c-1.04,0.37-1.69,1.38-2.15,2.38c-1.78,3.93-1.48,8.83,1.1,12.29s7.46,5.14,11.51,3.65c3.04-1.12,5.26-3.72,7.33-6.21
			c5.8-6.98,11.61-13.95,17.41-20.93c-3.98,10.62-10.1,20.44-17.9,28.69c6.12-4.18,12.24-8.35,18.35-12.53
			c-5.91,5.42-11.83,10.84-17.74,16.26"/>
		<path class="st1" d="M1427.07,356c0.96-19.9-3.75-40.04-13.44-57.44c-4.68,11.31-0.27,24.12,4.13,35.54
			c3.33,8.65,6.67,17.29,10,25.94c6.8-10.93,12.38-22.62,16.62-34.78c-4.63,10.28-9.26,20.56-13.89,30.84
			c1.33-11.86,0.94-23.91-1.14-35.66"/>
		<path class="st1" d="M1611.05,396.42c-5.01-3.26-10.03-6.53-15.04-9.79c-2.68-1.74-6.43-3.43-8.77-1.25
			c-1.67,1.56-1.46,4.42-0.11,6.25s3.54,2.86,5.68,3.64c6.35,2.34,13.2,3.29,19.94,2.78c-7.45,4.34-13.99,10.25-19.06,17.22
			c8.84-3.78,16.88-9.39,23.48-16.37c-3.41-6.52-5.35-13.8-5.65-21.15c1.99,7.78,2.81,15.86,2.4,23.88
			c4.14-2.83,9.02-4.58,14.01-5.02"/>
		<path class="st1" d="M1657.98,520.23c2.03-14.67,2.05-29.61,0.06-44.28c-1.13-8.3-3.72-17.64-11.26-21.3
			c-3.5,21.39-0.74,43.76,7.86,63.66c-4.42-2.35-9.68-3.05-14.56-1.93c7.46,2.07,15.44,2.21,22.96,0.39"/>
		<path class="st1" d="M1522.55,342.06c-0.92-13.92-4.57-27.66-10.68-40.21c1.17,15.12,4.42,30.07,9.65,44.3
			c-7.28-10.1-14.56-20.2-21.85-30.3c-1.04,11.64,6.53,23.51,17.52,27.49c7.05-9.4,12.81-19.76,17.07-30.71
			c-0.74,9.91-4.29,19.59-10.13,27.62c-0.55,0.76-1.15,1.7-0.8,2.56s2.12,0.55,1.75-0.31"/>
		<path class="st1" d="M1620.17,326.12c3.6-16.62,9.43-32.76,17.31-47.83c0.34,16.75-4.23,33.57-13.01,47.84
			c-2.44-11.53-6.07-22.81-10.82-33.6c-1.45,11.08,2.15,22.73,9.61,31.05c-0.92-1.19-1.83-2.38-2.75-3.56"/>
		<path class="st1" d="M1547.61,267.5c1.8-13.58,2.33-27.33,1.56-41.01c-0.23-4.14-2.07-9.6-6.19-9.14
			c-4.92,14.98-3.25,32,4.49,45.73c-4.16-5.7-8.32-11.39-12.49-17.09c-2.62,10.05,4.52,21.55,14.68,23.67
			c1.79-10.02,7.21-19.35,15.04-25.86c-1.01,8.73-5.18,17.07-11.56,23.11"/>
		<path class="st1" d="M1453.46,535.25c-0.59-16.85-4.52-33.58-11.5-48.93c-4.58,15.14,3.07,31.01,10.49,44.98
			c3.63-9.18,8.45-17.9,14.3-25.86c-1.5,10.42-6.39,20.32-13.74,27.86c0.44-1.16,0.88-2.33,1.33-3.49"/>
		<path class="st1" d="M1531.24,464.59c-0.62-16.67-1.24-33.34-1.86-50.01c-0.14-3.87-0.77-8.5-4.29-10.12
			c-1.98,18.95-0.33,38.28,4.84,56.62c-5.77-8.82-11.54-17.65-17.3-26.47c5.85,10,12.42,19.59,19.63,28.65
			c-0.25-1.16-0.49-2.32-0.74-3.49"/>
		<path class="st1" d="M1442.29,434.64c1.75-9.17,2.74-18.49,2.95-27.82c0.1-4.66-1.44-10.89-6.1-10.89
			c-2.69,9.78-0.08,20.84,6.69,28.39c-2.47-1.16-4.94-2.31-7.4-3.47c5.58-4.59,11.5-8.76,17.69-12.46c1.5-0.9,3.44-1.76,4.89-0.78
			c1.08,0.73,1.36,2.21,1.27,3.51c-0.46,6.73-7.61,10.72-13.97,12.95c-0.18-0.92,1.68-0.08,1.11,0.67c-0.57,0.75-1.74,0.45-2.6,0.09
			c-5.88-2.5-11.76-5-17.63-7.51c-0.17,4.99,2.89,9.95,7.43,12.03c4.54,2.08,10.3,1.16,13.96-2.24"/>
		<path class="st1" d="M1579.93,506.49c-1.75-9.17-2.74-18.49-2.95-27.82c-0.1-4.66,1.44-10.89,6.1-10.89
			c2.69,9.78,0.08,20.84-6.69,28.39c2.47-1.16,4.94-2.31,7.4-3.47c-5.58-4.59-11.5-8.76-17.69-12.46c-1.5-0.9-3.44-1.76-4.89-0.78
			c-1.08,0.73-1.36,2.21-1.27,3.51c0.46,6.73,7.61,10.72,13.97,12.95c0.18-0.92-1.68-0.08-1.11,0.67s1.74,0.45,2.6,0.09
			c5.88-2.5,11.76-5,17.63-7.51c0.17,4.99-2.89,9.95-7.43,12.03c-4.54,2.08-10.3,1.16-13.96-2.24"/>
		<path class="st1" d="M1382.72,479.35c-4.38-10.74-6.66-22.33-6.66-33.92c0-5.51,0.75-11.56,4.79-15.31
			c5.25,16.38,6.12,34.14,2.49,50.96c2.26-13.17,5.58-26.16,9.91-38.8c0.36-1.05,0.93-2.26,2.03-2.38c1.13-0.12,1.96,1.03,2.36,2.09
			c1.67,4.48,0.11,9.44-1.45,13.96c-3.05,8.83-6.1,17.67-9.15,26.5c3.5-8.34,7.93-16.29,13.19-23.65c2.2-3.08,6.08-6.39,9.28-4.36
			c-1.35,10.47-5.94,20.49-12.98,28.35c-0.82,0.91-1.75,1.84-2.96,2.07c-1.92,0.36-3.63-1.18-4.98-2.59
			c-5.78-6.03-11.57-12.07-17.35-18.1c1.25,5.74,2.63,11.75,6.52,16.14c3.89,4.39,11.17,6.38,15.7,2.66"/>
		<path class="st1" d="M1376.81,284.08c-3.43-14.41-7.75-28.61-12.93-42.48c2.6,13.56,7.35,26.7,14.03,38.78
			c-0.72-12.86,2.31-25.9,8.61-37.13c-1.87,12.37-4.96,24.56-9.21,36.33c0.26-2.53,1.66-4.92,3.75-6.38
			c-8.35,6.32-21.05,6.03-29.11-0.66c9.33,6.29,21.01,9.02,32.16,7.52c-1.39,0.24-2.78,0.49-4.17,0.73
			c3.75-7.18,9.24-13.45,15.87-18.1c-3.24,6.77-6.47,13.54-9.71,20.32c-0.39,0.82-0.26,1.95-0.99,2.49
			c-0.73,0.54-1.44-1.33-0.61-0.95"/>
		<path class="st1" d="M1366.69,386.08c-2.07-10.3-4.13-20.6-6.2-30.91c-0.73-3.64-2.29-8.09-5.98-8.48
			c-5.29,15.87-1.17,34.5,10.32,46.65c-4.16-6.11-9.12-11.67-14.7-16.51c-1.25-1.08-2.86-2.19-4.41-1.64
			c-1.04,0.37-1.69,1.38-2.14,2.38c-1.78,3.93-1.48,8.83,1.1,12.29c2.58,3.46,7.46,5.14,11.51,3.65c3.04-1.12,5.26-3.72,7.33-6.21
			c5.8-6.98,11.61-13.95,17.41-20.93c-3.98,10.62-10.1,20.44-17.9,28.69c6.12-4.18,12.24-8.35,18.35-12.53
			c-5.91,5.42-11.83,10.84-17.74,16.26"/>
		<path class="st1" d="M1097.42,356c0.96-19.9-3.75-40.04-13.44-57.44c-4.68,11.31-0.27,24.12,4.13,35.54
			c3.33,8.65,6.67,17.29,10,25.94c6.8-10.93,12.38-22.62,16.62-34.78c-4.63,10.28-9.26,20.56-13.89,30.84
			c1.33-11.86,0.94-23.91-1.14-35.66"/>
		<path class="st1" d="M1281.4,396.42c-5.01-3.26-10.03-6.53-15.04-9.79c-2.68-1.74-6.43-3.43-8.77-1.25
			c-1.67,1.56-1.46,4.42-0.11,6.25s3.54,2.86,5.68,3.64c6.35,2.34,13.2,3.29,19.94,2.78c-7.45,4.34-13.99,10.25-19.06,17.22
			c8.84-3.78,16.88-9.39,23.48-16.37c-3.41-6.52-5.35-13.8-5.65-21.15c1.99,7.78,2.81,15.86,2.4,23.88
			c4.14-2.83,9.02-4.58,14.01-5.02"/>
		<path class="st1" d="M1328.33,520.23c2.03-14.67,2.05-29.61,0.06-44.28c-1.13-8.3-3.72-17.64-11.26-21.3
			c-3.51,21.39-0.74,43.76,7.86,63.66c-4.42-2.35-9.68-3.05-14.56-1.93c7.46,2.07,15.44,2.21,22.96,0.39"/>
		<path class="st1" d="M1192.9,342.06c-0.92-13.92-4.57-27.66-10.68-40.21c1.17,15.12,4.42,30.07,9.65,44.3
			c-7.28-10.1-14.56-20.2-21.85-30.3c-1.04,11.64,6.53,23.51,17.52,27.49c7.05-9.4,12.81-19.76,17.07-30.71
			c-0.74,9.91-4.29,19.59-10.13,27.62c-0.55,0.76-1.15,1.7-0.8,2.56s2.12,0.55,1.75-0.31"/>
		<path class="st1" d="M1290.52,326.12c3.6-16.62,9.43-32.76,17.31-47.83c0.34,16.75-4.23,33.57-13.01,47.84
			c-2.44-11.53-6.07-22.81-10.82-33.6c-1.45,11.08,2.15,22.73,9.61,31.05c-0.92-1.19-1.83-2.38-2.75-3.56"/>
		<path class="st1" d="M1217.96,267.5c1.8-13.58,2.33-27.33,1.56-41.01c-0.23-4.14-2.07-9.6-6.19-9.14
			c-4.92,14.98-3.25,32,4.49,45.73c-4.16-5.7-8.32-11.39-12.49-17.09c-2.62,10.05,4.52,21.55,14.68,23.67
			c1.79-10.02,7.21-19.35,15.04-25.86c-1.01,8.73-5.18,17.07-11.56,23.11"/>
		<path class="st1" d="M1123.81,535.25c-0.59-16.85-4.52-33.58-11.5-48.93c-4.58,15.14,3.07,31.01,10.49,44.98
			c3.63-9.18,8.45-17.9,14.3-25.86c-1.5,10.42-6.39,20.32-13.74,27.86c0.44-1.16,0.88-2.33,1.33-3.49"/>
		<path class="st1" d="M1201.59,464.59c-0.62-16.67-1.24-33.34-1.86-50.01c-0.14-3.87-0.77-8.5-4.29-10.12
			c-1.98,18.95-0.33,38.28,4.84,56.62c-5.77-8.82-11.54-17.65-17.3-26.47c5.85,10,12.42,19.59,19.63,28.65
			c-0.25-1.16-0.49-2.32-0.74-3.49"/>
		<path class="st1" d="M1112.64,434.64c1.75-9.17,2.74-18.49,2.95-27.82c0.11-4.66-1.44-10.89-6.1-10.89
			c-2.69,9.78-0.08,20.84,6.69,28.39c-2.47-1.16-4.94-2.31-7.4-3.47c5.58-4.59,11.5-8.76,17.69-12.46c1.5-0.9,3.44-1.76,4.89-0.78
			c1.08,0.73,1.36,2.21,1.27,3.51c-0.46,6.73-7.61,10.72-13.97,12.95c-0.18-0.92,1.68-0.08,1.11,0.67c-0.57,0.75-1.74,0.45-2.6,0.09
			c-5.88-2.5-11.76-5-17.63-7.51c-0.17,4.99,2.89,9.95,7.43,12.03c4.54,2.08,10.3,1.16,13.96-2.24"/>
		<path class="st1" d="M1250.28,506.49c-1.75-9.17-2.74-18.49-2.95-27.82c-0.1-4.66,1.44-10.89,6.1-10.89
			c2.69,9.78,0.08,20.84-6.69,28.39c2.47-1.16,4.94-2.31,7.4-3.47c-5.58-4.59-11.5-8.76-17.69-12.46c-1.5-0.9-3.44-1.76-4.89-0.78
			c-1.08,0.73-1.36,2.21-1.27,3.51c0.46,6.73,7.61,10.72,13.97,12.95c0.18-0.92-1.68-0.08-1.11,0.67c0.57,0.75,1.74,0.45,2.61,0.09
			c5.88-2.5,11.76-5,17.63-7.51c0.17,4.99-2.89,9.95-7.43,12.03c-4.54,2.08-10.3,1.16-13.96-2.24"/>
		<path class="st1" d="M1053.06,479.35c-4.38-10.74-6.66-22.33-6.66-33.92c0-5.51,0.75-11.56,4.79-15.31
			c5.25,16.38,6.12,34.14,2.49,50.96c2.26-13.17,5.58-26.16,9.91-38.8c0.36-1.05,0.93-2.26,2.03-2.38c1.13-0.12,1.96,1.03,2.36,2.09
			c1.67,4.48,0.11,9.44-1.45,13.96c-3.05,8.83-6.1,17.67-9.15,26.5c3.5-8.34,7.93-16.29,13.19-23.65c2.2-3.08,6.08-6.39,9.28-4.36
			c-1.35,10.47-5.94,20.49-12.98,28.35c-0.82,0.91-1.75,1.84-2.96,2.07c-1.92,0.36-3.63-1.18-4.98-2.59
			c-5.78-6.03-11.57-12.07-17.35-18.1c1.25,5.74,2.63,11.75,6.52,16.14c3.89,4.39,11.17,6.38,15.7,2.66"/>
		<path class="st1" d="M1047.16,284.08c-3.43-14.41-7.75-28.61-12.93-42.48c2.6,13.56,7.35,26.7,14.03,38.78
			c-0.72-12.86,2.31-25.9,8.61-37.13c-1.87,12.37-4.96,24.56-9.21,36.33c0.26-2.53,1.66-4.92,3.75-6.38
			c-8.35,6.32-21.05,6.03-29.11-0.66c9.33,6.29,21.01,9.02,32.16,7.52c-1.39,0.24-2.78,0.49-4.17,0.73
			c3.75-7.18,9.24-13.45,15.87-18.1c-3.24,6.77-6.47,13.54-9.71,20.32c-0.39,0.82-0.26,1.95-0.99,2.49
			c-0.73,0.54-1.44-1.33-0.61-0.95"/>
		<path class="st1" d="M1037.04,386.08c-2.07-10.3-4.13-20.6-6.2-30.91c-0.73-3.64-2.29-8.09-5.98-8.48
			c-5.29,15.87-1.17,34.5,10.32,46.65c-4.16-6.11-9.12-11.67-14.7-16.51c-1.25-1.08-2.86-2.19-4.41-1.64
			c-1.04,0.37-1.69,1.38-2.14,2.38c-1.78,3.93-1.48,8.83,1.1,12.29c2.58,3.46,7.46,5.14,11.51,3.65c3.04-1.12,5.26-3.72,7.33-6.21
			c5.8-6.98,11.61-13.95,17.41-20.93c-3.98,10.62-10.1,20.44-17.9,28.69c6.12-4.18,12.24-8.35,18.35-12.53
			c-5.91,5.42-11.83,10.84-17.74,16.26"/>
		<path class="st1" d="M767.77,356c0.96-19.9-3.75-40.04-13.44-57.44c-4.68,11.31-0.27,24.12,4.13,35.54
			c3.33,8.65,6.67,17.29,10,25.94c6.8-10.93,12.38-22.62,16.62-34.78c-4.63,10.28-9.26,20.56-13.89,30.84
			c1.33-11.86,0.94-23.91-1.14-35.66"/>
		<path class="st1" d="M951.75,396.42c-5.01-3.26-10.03-6.53-15.04-9.79c-2.68-1.74-6.43-3.43-8.77-1.25
			c-1.67,1.56-1.46,4.42-0.11,6.25c1.36,1.84,3.54,2.86,5.68,3.64c6.35,2.34,13.2,3.29,19.94,2.78
			c-7.45,4.34-13.99,10.25-19.06,17.22c8.84-3.78,16.88-9.39,23.48-16.37c-3.41-6.52-5.35-13.8-5.65-21.15
			c1.99,7.78,2.81,15.86,2.4,23.88c4.14-2.83,9.02-4.58,14.01-5.02"/>
		<path class="st1" d="M998.68,520.23c2.03-14.67,2.05-29.61,0.06-44.28c-1.13-8.3-3.72-17.64-11.26-21.3
			c-3.5,21.39-0.74,43.76,7.86,63.66c-4.42-2.35-9.68-3.05-14.56-1.93c7.46,2.07,15.44,2.21,22.96,0.39"/>
		<path class="st1" d="M863.25,342.06c-0.92-13.92-4.57-27.66-10.68-40.21c1.17,15.12,4.42,30.07,9.65,44.3
			c-7.28-10.1-14.56-20.2-21.85-30.3c-1.04,11.64,6.53,23.51,17.52,27.49c7.05-9.4,12.81-19.76,17.07-30.71
			c-0.74,9.91-4.29,19.59-10.13,27.62c-0.55,0.76-1.15,1.7-0.8,2.56s2.12,0.55,1.75-0.31"/>
		<path class="st1" d="M960.87,326.12c3.6-16.62,9.43-32.76,17.31-47.83c0.34,16.75-4.23,33.57-13.01,47.84
			c-2.44-11.53-6.07-22.81-10.82-33.6c-1.45,11.08,2.15,22.73,9.61,31.05c-0.92-1.19-1.83-2.38-2.75-3.56"/>
		<path class="st1" d="M888.31,267.5c1.8-13.58,2.33-27.33,1.56-41.01c-0.23-4.14-2.07-9.6-6.19-9.14
			c-4.92,14.98-3.25,32,4.49,45.73c-4.16-5.7-8.32-11.39-12.49-17.09c-2.62,10.05,4.52,21.55,14.68,23.67
			c1.79-10.02,7.21-19.35,15.04-25.86c-1.01,8.73-5.18,17.07-11.56,23.11"/>
		<path class="st1" d="M794.16,535.25c-0.59-16.85-4.52-33.58-11.5-48.93c-4.58,15.14,3.07,31.01,10.49,44.98
			c3.63-9.18,8.45-17.9,14.3-25.86c-1.5,10.42-6.39,20.32-13.74,27.86c0.44-1.16,0.88-2.33,1.33-3.49"/>
		<path class="st1" d="M871.94,464.59c-0.62-16.67-1.24-33.34-1.86-50.01c-0.14-3.87-0.77-8.5-4.29-10.12
			c-1.98,18.95-0.33,38.28,4.84,56.62c-5.77-8.82-11.54-17.65-17.3-26.47c5.85,10,12.42,19.59,19.63,28.65
			c-0.25-1.16-0.49-2.32-0.74-3.49"/>
		<path class="st1" d="M782.99,434.64c1.75-9.17,2.74-18.49,2.95-27.82c0.11-4.66-1.44-10.89-6.1-10.89
			c-2.69,9.78-0.08,20.84,6.69,28.39c-2.47-1.16-4.94-2.31-7.4-3.47c5.58-4.59,11.5-8.76,17.69-12.46c1.5-0.9,3.44-1.76,4.89-0.78
			c1.08,0.73,1.36,2.21,1.27,3.51c-0.46,6.73-7.61,10.72-13.97,12.95c-0.18-0.92,1.68-0.08,1.11,0.67c-0.57,0.75-1.74,0.45-2.6,0.09
			c-5.88-2.5-11.76-5-17.63-7.51c-0.17,4.99,2.89,9.95,7.43,12.03s10.3,1.16,13.96-2.24"/>
		<path class="st1" d="M920.63,506.49c-1.75-9.17-2.74-18.49-2.95-27.82c-0.1-4.66,1.44-10.89,6.1-10.89
			c2.69,9.78,0.08,20.84-6.69,28.39c2.47-1.16,4.94-2.31,7.4-3.47c-5.58-4.59-11.5-8.76-17.69-12.46c-1.5-0.9-3.44-1.76-4.89-0.78
			c-1.08,0.73-1.36,2.21-1.27,3.51c0.46,6.73,7.61,10.72,13.97,12.95c0.18-0.92-1.68-0.08-1.11,0.67s1.74,0.45,2.61,0.09
			c5.88-2.5,11.76-5,17.63-7.51c0.17,4.99-2.89,9.95-7.43,12.03c-4.54,2.08-10.3,1.16-13.96-2.24"/>
		<path class="st1" d="M723.41,479.35c-4.38-10.74-6.66-22.33-6.66-33.92c0-5.51,0.75-11.56,4.79-15.31
			c5.25,16.38,6.12,34.14,2.49,50.96c2.26-13.17,5.58-26.16,9.91-38.8c0.36-1.05,0.93-2.26,2.03-2.38c1.13-0.12,1.96,1.03,2.36,2.09
			c1.67,4.48,0.11,9.44-1.45,13.96c-3.05,8.83-6.1,17.67-9.15,26.5c3.5-8.34,7.93-16.29,13.19-23.65c2.2-3.08,6.08-6.39,9.28-4.36
			c-1.35,10.47-5.94,20.49-12.98,28.35c-0.82,0.91-1.75,1.84-2.96,2.07c-1.92,0.36-3.63-1.18-4.98-2.59
			c-5.78-6.03-11.57-12.07-17.35-18.1c1.25,5.74,2.63,11.75,6.52,16.14s11.17,6.38,15.7,2.66"/>
		<path class="st1" d="M717.5,284.08c-3.43-14.41-7.75-28.61-12.93-42.48c2.6,13.56,7.35,26.7,14.03,38.78
			c-0.72-12.86,2.31-25.9,8.61-37.13c-1.87,12.37-4.96,24.56-9.21,36.33c0.26-2.53,1.66-4.92,3.75-6.38
			c-8.35,6.32-21.05,6.03-29.11-0.66c9.33,6.29,21.01,9.02,32.16,7.52c-1.39,0.24-2.78,0.49-4.17,0.73
			c3.75-7.18,9.24-13.45,15.87-18.1c-3.24,6.77-6.47,13.54-9.71,20.32c-0.39,0.82-0.26,1.95-0.99,2.49
			c-0.73,0.54-1.44-1.33-0.61-0.95"/>
		<path class="st1" d="M707.39,386.08c-2.07-10.3-4.13-20.6-6.2-30.91c-0.73-3.64-2.29-8.09-5.98-8.48
			c-5.29,15.87-1.17,34.5,10.32,46.65c-4.16-6.11-9.12-11.67-14.7-16.51c-1.25-1.08-2.86-2.19-4.41-1.64
			c-1.04,0.37-1.69,1.38-2.14,2.38c-1.78,3.93-1.48,8.83,1.1,12.29c2.58,3.46,7.46,5.14,11.51,3.65c3.04-1.12,5.26-3.72,7.33-6.21
			c5.8-6.98,11.61-13.95,17.41-20.93c-3.98,10.62-10.1,20.44-17.9,28.69c6.12-4.18,12.24-8.35,18.35-12.53
			c-5.91,5.42-11.83,10.84-17.74,16.26"/>
		<path class="st1" d="M438.12,356c0.96-19.9-3.75-40.04-13.44-57.44c-4.68,11.31-0.27,24.12,4.13,35.54
			c3.33,8.65,6.67,17.29,10,25.94c6.8-10.93,12.38-22.62,16.62-34.78c-4.63,10.28-9.26,20.56-13.89,30.84
			c1.33-11.86,0.94-23.91-1.14-35.66"/>
		<path class="st1" d="M622.1,396.42c-5.01-3.26-10.03-6.53-15.04-9.79c-2.68-1.74-6.43-3.43-8.77-1.25
			c-1.67,1.56-1.46,4.42-0.11,6.25c1.36,1.84,3.54,2.86,5.68,3.64c6.35,2.34,13.2,3.29,19.94,2.78
			c-7.45,4.34-13.99,10.25-19.06,17.22c8.84-3.78,16.88-9.39,23.48-16.37c-3.41-6.52-5.35-13.8-5.65-21.15
			c1.99,7.78,2.81,15.86,2.4,23.88c4.14-2.83,9.02-4.58,14.01-5.02"/>
		<path class="st1" d="M669.02,520.23c2.03-14.67,2.05-29.61,0.06-44.28c-1.13-8.3-3.72-17.64-11.26-21.3
			c-3.5,21.39-0.74,43.76,7.86,63.66c-4.42-2.35-9.68-3.05-14.56-1.93c7.46,2.07,15.44,2.21,22.96,0.39"/>
		<path class="st1" d="M533.6,342.06c-0.92-13.92-4.57-27.66-10.68-40.21c1.17,15.12,4.42,30.07,9.65,44.3
			c-7.28-10.1-14.56-20.2-21.85-30.3c-1.04,11.64,6.53,23.51,17.52,27.49c7.05-9.4,12.81-19.76,17.07-30.71
			c-0.74,9.91-4.29,19.59-10.13,27.62c-0.55,0.76-1.15,1.7-0.8,2.56c0.35,0.87,2.12,0.55,1.75-0.31"/>
		<path class="st1" d="M631.22,326.12c3.6-16.62,9.43-32.76,17.31-47.83c0.34,16.75-4.23,33.57-13.01,47.84
			c-2.44-11.53-6.07-22.81-10.82-33.6c-1.45,11.08,2.15,22.73,9.61,31.05c-0.92-1.19-1.83-2.38-2.75-3.56"/>
		<path class="st1" d="M558.65,267.5c1.8-13.58,2.33-27.33,1.56-41.01c-0.23-4.14-2.07-9.6-6.19-9.14
			c-4.92,14.98-3.25,32,4.49,45.73c-4.16-5.7-8.32-11.39-12.49-17.09c-2.62,10.05,4.52,21.55,14.68,23.67
			c1.79-10.02,7.21-19.35,15.04-25.86c-1.01,8.73-5.18,17.07-11.56,23.11"/>
		<path class="st1" d="M464.5,535.25c-0.59-16.85-4.52-33.58-11.5-48.93c-4.58,15.14,3.07,31.01,10.49,44.98
			c3.63-9.18,8.45-17.9,14.3-25.86c-1.5,10.42-6.39,20.32-13.74,27.86c0.44-1.16,0.88-2.33,1.33-3.49"/>
		<path class="st1" d="M542.29,464.59c-0.62-16.67-1.24-33.34-1.86-50.01c-0.14-3.87-0.77-8.5-4.29-10.12
			c-1.98,18.95-0.33,38.28,4.84,56.62c-5.77-8.82-11.54-17.65-17.3-26.47c5.85,10,12.42,19.59,19.63,28.65
			c-0.25-1.16-0.49-2.32-0.74-3.49"/>
		<path class="st1" d="M453.33,434.64c1.75-9.17,2.74-18.49,2.95-27.82c0.11-4.66-1.44-10.89-6.1-10.89
			c-2.69,9.78-0.08,20.84,6.69,28.39c-2.47-1.16-4.94-2.31-7.4-3.47c5.58-4.59,11.5-8.76,17.69-12.46c1.5-0.9,3.44-1.76,4.89-0.78
			c1.08,0.73,1.36,2.21,1.27,3.51c-0.46,6.73-7.61,10.72-13.97,12.95c-0.18-0.92,1.68-0.08,1.11,0.67
			c-0.57,0.75-1.74,0.45-2.61,0.09c-5.88-2.5-11.76-5-17.63-7.51c-0.17,4.99,2.89,9.95,7.43,12.03c4.54,2.08,10.3,1.16,13.96-2.24"
			/>
		<path class="st1" d="M590.97,506.49c-1.75-9.17-2.74-18.49-2.95-27.82c-0.11-4.66,1.44-10.89,6.1-10.89
			c2.69,9.78,0.08,20.84-6.69,28.39c2.47-1.16,4.94-2.31,7.4-3.47c-5.58-4.59-11.5-8.76-17.69-12.46c-1.5-0.9-3.44-1.76-4.89-0.78
			c-1.08,0.73-1.36,2.21-1.27,3.51c0.46,6.73,7.61,10.72,13.97,12.95c0.18-0.92-1.68-0.08-1.11,0.67c0.57,0.75,1.74,0.45,2.6,0.09
			c5.88-2.5,11.76-5,17.63-7.51c0.17,4.99-2.89,9.95-7.43,12.03c-4.54,2.08-10.3,1.16-13.96-2.24"/>
		<path class="st1" d="M393.76,479.35c-4.38-10.74-6.66-22.33-6.66-33.92c0-5.51,0.75-11.56,4.79-15.31
			c5.25,16.38,6.12,34.14,2.49,50.96c2.26-13.17,5.58-26.16,9.91-38.8c0.36-1.05,0.93-2.26,2.03-2.38c1.13-0.12,1.96,1.03,2.36,2.09
			c1.67,4.48,0.11,9.44-1.45,13.96c-3.05,8.83-6.1,17.67-9.15,26.5c3.5-8.34,7.93-16.29,13.19-23.65c2.2-3.08,6.08-6.39,9.28-4.36
			c-1.35,10.47-5.94,20.49-12.98,28.35c-0.82,0.91-1.75,1.84-2.96,2.07c-1.92,0.36-3.63-1.18-4.98-2.59
			c-5.78-6.03-11.57-12.07-17.35-18.1c1.25,5.74,2.63,11.75,6.52,16.14c3.89,4.39,11.17,6.38,15.7,2.66"/>
		<path class="st1" d="M387.85,284.08c-3.43-14.41-7.75-28.61-12.93-42.48c2.6,13.56,7.35,26.7,14.03,38.78
			c-0.72-12.86,2.31-25.9,8.61-37.13c-1.87,12.37-4.96,24.56-9.21,36.33c0.26-2.53,1.66-4.92,3.75-6.38
			c-8.35,6.32-21.05,6.03-29.11-0.66c9.33,6.29,21.01,9.02,32.16,7.52c-1.39,0.24-2.78,0.49-4.17,0.73
			c3.75-7.18,9.24-13.45,15.87-18.1c-3.24,6.77-6.47,13.54-9.71,20.32c-0.39,0.82-0.26,1.95-0.99,2.49
			c-0.73,0.54-1.44-1.33-0.61-0.95"/>
		<path class="st1" d="M377.74,386.08c-2.07-10.3-4.13-20.6-6.2-30.91c-0.73-3.64-2.29-8.09-5.98-8.48
			c-5.29,15.87-1.17,34.5,10.32,46.65c-4.16-6.11-9.12-11.67-14.7-16.51c-1.25-1.08-2.86-2.19-4.41-1.64
			c-1.04,0.37-1.69,1.38-2.14,2.38c-1.78,3.93-1.48,8.83,1.1,12.29c2.58,3.46,7.46,5.14,11.51,3.65c3.04-1.12,5.26-3.72,7.33-6.21
			c5.8-6.98,11.61-13.95,17.41-20.93c-3.98,10.62-10.1,20.44-17.9,28.69c6.12-4.18,12.24-8.35,18.35-12.53
			c-5.91,5.42-11.83,10.84-17.74,16.26"/>
		<path class="st1" d="M108.47,356c0.96-19.9-3.75-40.04-13.44-57.44c-4.68,11.31-0.27,24.12,4.13,35.54
			c3.33,8.65,6.67,17.29,10,25.94c6.8-10.93,12.38-22.62,16.62-34.78c-4.63,10.28-9.26,20.56-13.89,30.84
			c1.33-11.86,0.94-23.91-1.14-35.66"/>
		<path class="st1" d="M292.45,396.42c-5.01-3.26-10.03-6.53-15.04-9.79c-2.68-1.74-6.43-3.43-8.77-1.25
			c-1.67,1.56-1.46,4.42-0.11,6.25s3.54,2.86,5.68,3.64c6.35,2.34,13.2,3.29,19.94,2.78c-7.45,4.34-13.99,10.25-19.06,17.22
			c8.84-3.78,16.88-9.39,23.48-16.37c-3.41-6.52-5.35-13.8-5.65-21.15c1.99,7.78,2.81,15.86,2.4,23.88
			c4.14-2.83,9.02-4.58,14.01-5.02"/>
		<path class="st1" d="M339.37,520.23c2.03-14.67,2.05-29.61,0.06-44.28c-1.13-8.3-3.72-17.64-11.26-21.3
			c-3.5,21.39-0.74,43.76,7.86,63.66c-4.42-2.35-9.68-3.05-14.56-1.93c7.46,2.07,15.44,2.21,22.96,0.39"/>
		<path class="st1" d="M203.95,342.06c-0.92-13.92-4.57-27.66-10.68-40.21c1.17,15.12,4.42,30.07,9.65,44.3
			c-7.28-10.1-14.56-20.2-21.85-30.3c-1.04,11.64,6.53,23.51,17.52,27.49c7.05-9.4,12.81-19.76,17.07-30.71
			c-0.74,9.91-4.29,19.59-10.13,27.62c-0.55,0.76-1.15,1.7-0.8,2.56s2.12,0.55,1.75-0.31"/>
		<path class="st1" d="M301.57,326.12c3.6-16.62,9.43-32.76,17.31-47.83c0.34,16.75-4.23,33.57-13.01,47.84
			c-2.44-11.53-6.07-22.81-10.82-33.6c-1.45,11.08,2.15,22.73,9.61,31.05c-0.92-1.19-1.83-2.38-2.75-3.56"/>
		<path class="st1" d="M229,267.5c1.8-13.58,2.33-27.33,1.56-41.01c-0.23-4.14-2.07-9.6-6.19-9.14c-4.92,14.98-3.25,32,4.49,45.73
			c-4.16-5.7-8.32-11.39-12.49-17.09c-2.62,10.05,4.52,21.55,14.68,23.67c1.79-10.02,7.21-19.35,15.04-25.86
			c-1.01,8.73-5.18,17.07-11.56,23.11"/>
		<path class="st1" d="M134.85,535.25c-0.59-16.85-4.52-33.58-11.5-48.93c-4.58,15.14,3.07,31.01,10.49,44.98
			c3.63-9.18,8.45-17.9,14.3-25.86c-1.5,10.42-6.39,20.32-13.74,27.86c0.44-1.16,0.88-2.33,1.33-3.49"/>
		<path class="st1" d="M212.64,464.59c-0.62-16.67-1.24-33.34-1.86-50.01c-0.14-3.87-0.77-8.5-4.29-10.12
			c-1.98,18.95-0.33,38.28,4.84,56.62c-5.77-8.82-11.54-17.65-17.3-26.47c5.85,10,12.42,19.59,19.63,28.65
			c-0.25-1.16-0.49-2.32-0.74-3.49"/>
		<path class="st1" d="M123.68,434.64c1.75-9.17,2.74-18.49,2.95-27.82c0.11-4.66-1.44-10.89-6.1-10.89
			c-2.69,9.78-0.08,20.84,6.69,28.39c-2.47-1.16-4.94-2.31-7.4-3.47c5.58-4.59,11.5-8.76,17.69-12.46c1.5-0.9,3.44-1.76,4.89-0.78
			c1.08,0.73,1.36,2.21,1.27,3.51c-0.46,6.73-7.61,10.72-13.97,12.95c-0.18-0.92,1.68-0.08,1.11,0.67
			c-0.57,0.75-1.74,0.45-2.61,0.09c-5.88-2.5-11.76-5-17.63-7.51c-0.17,4.99,2.89,9.95,7.43,12.03s10.3,1.16,13.96-2.24"/>
		<path class="st1" d="M261.32,506.49c-1.75-9.17-2.74-18.49-2.95-27.82c-0.11-4.66,1.44-10.89,6.1-10.89
			c2.69,9.78,0.08,20.84-6.69,28.39c2.47-1.16,4.94-2.31,7.4-3.47c-5.58-4.59-11.5-8.76-17.69-12.46c-1.5-0.9-3.44-1.76-4.89-0.78
			c-1.08,0.73-1.36,2.21-1.27,3.51c0.46,6.73,7.61,10.72,13.97,12.95c0.18-0.92-1.68-0.08-1.11,0.67c0.57,0.75,1.74,0.45,2.61,0.09
			c5.88-2.5,11.76-5,17.63-7.51c0.17,4.99-2.89,9.95-7.43,12.03c-4.54,2.08-10.3,1.16-13.96-2.24"/>
		<path class="st1" d="M64.11,479.35c-4.38-10.74-6.66-22.33-6.66-33.92c0-5.51,0.75-11.56,4.79-15.31
			c5.25,16.38,6.12,34.14,2.49,50.96c2.26-13.17,5.58-26.16,9.91-38.8c0.36-1.05,0.93-2.26,2.03-2.38c1.13-0.12,1.96,1.03,2.36,2.09
			c1.67,4.48,0.11,9.44-1.45,13.96c-3.05,8.83-6.1,17.67-9.15,26.5c3.5-8.34,7.93-16.29,13.19-23.65c2.2-3.08,6.08-6.39,9.28-4.36
			c-1.35,10.47-5.94,20.49-12.98,28.35c-0.82,0.91-1.75,1.84-2.96,2.07c-1.92,0.36-3.63-1.18-4.98-2.59
			c-5.78-6.03-11.57-12.07-17.35-18.1c1.25,5.74,2.63,11.75,6.52,16.14s11.17,6.38,15.7,2.66"/>
		<path class="st1" d="M58.2,284.08c-3.43-14.41-7.75-28.61-12.93-42.48c2.6,13.56,7.35,26.7,14.03,38.78
			c-0.72-12.86,2.31-25.9,8.61-37.13c-1.87,12.37-4.96,24.56-9.21,36.33c0.26-2.53,1.66-4.92,3.75-6.38
			c-8.35,6.32-21.05,6.03-29.11-0.66c9.33,6.29,21.01,9.02,32.16,7.52c-1.39,0.24-2.78,0.49-4.17,0.73
			c3.75-7.18,9.24-13.45,15.87-18.1c-3.24,6.77-6.47,13.54-9.71,20.32c-0.39,0.82-0.26,1.95-0.99,2.49
			c-0.73,0.54-1.44-1.33-0.61-0.95"/>
		<path class="st1" d="M48.08,386.08c-2.07-10.3-4.13-20.6-6.2-30.91c-0.73-3.64-2.29-8.09-5.98-8.48
			c-5.29,15.87-1.17,34.5,10.32,46.65c-4.16-6.11-9.12-11.67-14.7-16.51c-1.25-1.08-2.86-2.19-4.41-1.64
			c-1.04,0.37-1.69,1.38-2.14,2.38c-1.78,3.93-1.48,8.83,1.1,12.29s7.46,5.14,11.51,3.65c3.04-1.12,5.26-3.72,7.33-6.21
			c5.8-6.98,11.61-13.95,17.41-20.93c-3.98,10.62-10.1,20.44-17.9,28.69c6.12-4.18,12.24-8.35,18.35-12.53
			c-5.91,5.42-11.83,10.84-17.74,16.26"/>
		<path class="st1" d="M9.72,520.23c2.03-14.67,2.05-29.61,0.06-44.28c-1.13-8.3-3.72-17.64-11.26-21.3
			c-3.5,21.39-0.74,43.76,7.86,63.66c-4.42-2.35-9.68-3.05-14.56-1.93c7.46,2.07,15.44,2.21,22.96,0.39"/>
		<path class="st1" d="M1756.72,29.25c0.96-19.9-3.75-40.04-13.44-57.44c-4.68,11.31-0.27,24.12,4.13,35.54
			c3.33,8.65,6.67,17.29,10,25.94c6.8-10.93,12.38-22.62,16.62-34.78c-4.63,10.28-9.26,20.56-13.89,30.84
			c1.33-11.86,0.94-23.91-1.14-35.66"/>
		<path class="st1" d="M1940.7,69.67c-5.01-3.26-10.03-6.53-15.04-9.79c-2.68-1.74-6.43-3.43-8.77-1.25
			c-1.67,1.56-1.46,4.42-0.11,6.25c1.36,1.84,3.54,2.86,5.68,3.64c6.35,2.34,13.2,3.29,19.94,2.78
			c-7.45,4.34-13.99,10.25-19.06,17.22c8.84-3.78,16.88-9.39,23.48-16.37c-3.41-6.52-5.35-13.8-5.65-21.15
			c1.99,7.78,2.81,15.86,2.4,23.88c4.14-2.83,9.02-4.58,14.01-5.02"/>
		<path class="st1" d="M1852.21,15.31c-0.92-13.92-4.57-27.66-10.68-40.21c1.17,15.12,4.42,30.07,9.65,44.3
			c-7.28-10.1-14.56-20.2-21.85-30.3c-1.04,11.64,6.53,23.51,17.52,27.49c7.05-9.4,12.81-19.76,17.07-30.71
			c-0.74,9.91-4.29,19.59-10.13,27.62c-0.55,0.76-1.15,1.7-0.8,2.56c0.35,0.87,2.12,0.55,1.75-0.31"/>
		<path class="st1" d="M1783.11,208.5c-0.59-16.85-4.52-33.58-11.5-48.93c-4.58,15.14,3.07,31.01,10.49,44.98
			c3.63-9.18,8.45-17.9,14.3-25.86c-1.5,10.42-6.39,20.32-13.74,27.86c0.44-1.16,0.88-2.33,1.33-3.49"/>
		<path class="st1" d="M1860.9,137.84c-0.62-16.67-1.24-33.34-1.86-50.01c-0.14-3.87-0.77-8.5-4.29-10.12
			c-1.98,18.95-0.33,38.28,4.84,56.62c-5.77-8.82-11.54-17.65-17.3-26.47c5.85,10,12.42,19.59,19.63,28.65
			c-0.25-1.16-0.49-2.32-0.74-3.49"/>
		<path class="st1" d="M1771.94,107.89c1.75-9.17,2.74-18.49,2.95-27.82c0.1-4.66-1.44-10.89-6.1-10.89
			c-2.69,9.78-0.08,20.84,6.69,28.39c-2.47-1.16-4.94-2.31-7.4-3.47c5.58-4.59,11.5-8.76,17.69-12.46c1.5-0.9,3.44-1.76,4.89-0.78
			c1.08,0.73,1.36,2.21,1.27,3.51c-0.46,6.73-7.61,10.72-13.97,12.95c-0.18-0.92,1.68-0.08,1.11,0.67
			c-0.57,0.75-1.74,0.45-2.61,0.09c-5.88-2.5-11.76-5-17.63-7.51c-0.17,4.99,2.89,9.95,7.43,12.03c4.54,2.08,10.3,1.16,13.96-2.24"
			/>
		<path class="st1" d="M1909.58,179.74c-1.75-9.17-2.74-18.49-2.95-27.82c-0.11-4.66,1.44-10.89,6.1-10.89
			c2.69,9.78,0.08,20.84-6.69,28.39c2.47-1.16,4.94-2.31,7.4-3.47c-5.58-4.59-11.5-8.76-17.69-12.46c-1.5-0.9-3.44-1.76-4.89-0.78
			c-1.08,0.73-1.36,2.21-1.27,3.51c0.46,6.73,7.61,10.72,13.97,12.95c0.18-0.92-1.68-0.08-1.11,0.67c0.57,0.75,1.74,0.45,2.6,0.09
			c5.88-2.5,11.76-5,17.63-7.51c0.17,4.99-2.89,9.95-7.43,12.03c-4.54,2.08-10.3,1.16-13.96-2.24"/>
		<path class="st1" d="M1712.37,152.61c-4.38-10.74-6.66-22.33-6.66-33.92c0-5.51,0.75-11.56,4.79-15.31
			c5.25,16.38,6.12,34.14,2.49,50.96c2.26-13.17,5.58-26.16,9.91-38.8c0.36-1.05,0.93-2.26,2.03-2.38c1.13-0.12,1.96,1.03,2.36,2.09
			c1.67,4.48,0.11,9.44-1.45,13.96c-3.05,8.83-6.1,17.67-9.15,26.5c3.5-8.34,7.93-16.29,13.19-23.65c2.2-3.08,6.08-6.39,9.28-4.36
			c-1.35,10.47-5.94,20.49-12.98,28.35c-0.82,0.91-1.75,1.84-2.96,2.07c-1.92,0.36-3.63-1.18-4.98-2.59
			c-5.78-6.03-11.57-12.07-17.35-18.1c1.25,5.74,2.63,11.75,6.52,16.14c3.89,4.39,11.17,6.38,15.7,2.66"/>
		<path class="st1" d="M1696.34,59.33c-2.07-10.3-4.13-20.6-6.2-30.91c-0.73-3.64-2.29-8.09-5.98-8.48
			c-5.29,15.87-1.17,34.5,10.32,46.65c-4.16-6.11-9.12-11.67-14.7-16.51c-1.25-1.08-2.86-2.19-4.41-1.64
			c-1.04,0.37-1.69,1.38-2.15,2.38c-1.78,3.93-1.48,8.83,1.1,12.29c2.58,3.46,7.46,5.14,11.51,3.65c3.04-1.12,5.26-3.72,7.33-6.21
			c5.8-6.98,11.61-13.95,17.41-20.93c-3.98,10.62-10.1,20.44-17.9,28.69c6.12-4.18,12.24-8.35,18.35-12.53
			c-5.91,5.42-11.83,10.84-17.74,16.26"/>
		<path class="st1" d="M1427.07,29.25c0.96-19.9-3.75-40.04-13.44-57.44c-4.68,11.31-0.27,24.12,4.13,35.54
			c3.33,8.65,6.67,17.29,10,25.94c6.8-10.93,12.38-22.62,16.62-34.78c-4.63,10.28-9.26,20.56-13.89,30.84
			c1.33-11.86,0.94-23.91-1.14-35.66"/>
		<path class="st1" d="M1611.05,69.67c-5.01-3.26-10.03-6.53-15.04-9.79c-2.68-1.74-6.43-3.43-8.77-1.25
			c-1.67,1.56-1.46,4.42-0.11,6.25c1.36,1.84,3.54,2.86,5.68,3.64c6.35,2.34,13.2,3.29,19.94,2.78
			c-7.45,4.34-13.99,10.25-19.06,17.22c8.84-3.78,16.88-9.39,23.48-16.37c-3.41-6.52-5.35-13.8-5.65-21.15
			c1.99,7.78,2.81,15.86,2.4,23.88c4.14-2.83,9.02-4.58,14.01-5.02"/>
		<path class="st1" d="M1657.98,193.48c2.03-14.67,2.05-29.61,0.06-44.28c-1.13-8.3-3.72-17.64-11.26-21.3
			c-3.5,21.39-0.74,43.76,7.86,63.66c-4.42-2.35-9.68-3.05-14.56-1.93c7.46,2.07,15.44,2.21,22.96,0.39"/>
		<path class="st1" d="M1522.55,15.31c-0.92-13.92-4.57-27.66-10.68-40.21c1.17,15.12,4.42,30.07,9.65,44.3
			c-7.28-10.1-14.56-20.2-21.85-30.3c-1.04,11.64,6.53,23.51,17.52,27.49c7.05-9.4,12.81-19.76,17.07-30.71
			c-0.74,9.91-4.29,19.59-10.13,27.62c-0.55,0.76-1.15,1.7-0.8,2.56c0.35,0.87,2.12,0.55,1.75-0.31"/>
		<path class="st1" d="M1620.17-0.63c3.6-16.62,9.43-32.76,17.31-47.83c0.34,16.75-4.23,33.57-13.01,47.84
			c-2.44-11.53-6.07-22.81-10.82-33.6c-1.45,11.08,2.15,22.73,9.61,31.05c-0.92-1.19-1.83-2.38-2.75-3.56"/>
		<path class="st1" d="M1453.46,208.5c-0.59-16.85-4.52-33.58-11.5-48.93c-4.58,15.14,3.07,31.01,10.49,44.98
			c3.63-9.18,8.45-17.9,14.3-25.86c-1.5,10.42-6.39,20.32-13.74,27.86c0.44-1.16,0.88-2.33,1.33-3.49"/>
		<path class="st1" d="M1531.24,137.84c-0.62-16.67-1.24-33.34-1.86-50.01c-0.14-3.87-0.77-8.5-4.29-10.12
			c-1.98,18.95-0.33,38.28,4.84,56.62c-5.77-8.82-11.54-17.65-17.3-26.47c5.85,10,12.42,19.59,19.63,28.65
			c-0.25-1.16-0.49-2.32-0.74-3.49"/>
		<path class="st1" d="M1442.29,107.89c1.75-9.17,2.74-18.49,2.95-27.82c0.1-4.66-1.44-10.89-6.1-10.89
			c-2.69,9.78-0.08,20.84,6.69,28.39c-2.47-1.16-4.94-2.31-7.4-3.47c5.58-4.59,11.5-8.76,17.69-12.46c1.5-0.9,3.44-1.76,4.89-0.78
			c1.08,0.73,1.36,2.21,1.27,3.51c-0.46,6.73-7.61,10.72-13.97,12.95c-0.18-0.92,1.68-0.08,1.11,0.67c-0.57,0.75-1.74,0.45-2.6,0.09
			c-5.88-2.5-11.76-5-17.63-7.51c-0.17,4.99,2.89,9.95,7.43,12.03c4.54,2.08,10.3,1.16,13.96-2.24"/>
		<path class="st1" d="M1579.93,179.74c-1.75-9.17-2.74-18.49-2.95-27.82c-0.1-4.66,1.44-10.89,6.1-10.89
			c2.69,9.78,0.08,20.84-6.69,28.39c2.47-1.16,4.94-2.31,7.4-3.47c-5.58-4.59-11.5-8.76-17.69-12.46c-1.5-0.9-3.44-1.76-4.89-0.78
			c-1.08,0.73-1.36,2.21-1.27,3.51c0.46,6.73,7.61,10.72,13.97,12.95c0.18-0.92-1.68-0.08-1.11,0.67c0.57,0.75,1.74,0.45,2.6,0.09
			c5.88-2.5,11.76-5,17.63-7.51c0.17,4.99-2.89,9.95-7.43,12.03c-4.54,2.08-10.3,1.16-13.96-2.24"/>
		<path class="st1" d="M1382.72,152.61c-4.38-10.74-6.66-22.33-6.66-33.92c0-5.51,0.75-11.56,4.79-15.31
			c5.25,16.38,6.12,34.14,2.49,50.96c2.26-13.17,5.58-26.16,9.91-38.8c0.36-1.05,0.93-2.26,2.03-2.38c1.13-0.12,1.96,1.03,2.36,2.09
			c1.67,4.48,0.11,9.44-1.45,13.96c-3.05,8.83-6.1,17.67-9.15,26.5c3.5-8.34,7.93-16.29,13.19-23.65c2.2-3.08,6.08-6.39,9.28-4.36
			c-1.35,10.47-5.94,20.49-12.98,28.35c-0.82,0.91-1.75,1.84-2.96,2.07c-1.92,0.36-3.63-1.18-4.98-2.59
			c-5.78-6.03-11.57-12.07-17.35-18.1c1.25,5.74,2.63,11.75,6.52,16.14c3.89,4.39,11.17,6.38,15.7,2.66"/>
		<path class="st1" d="M1366.69,59.33c-2.07-10.3-4.13-20.6-6.2-30.91c-0.73-3.64-2.29-8.09-5.98-8.48
			c-5.29,15.87-1.17,34.5,10.32,46.65c-4.16-6.11-9.12-11.67-14.7-16.51c-1.25-1.08-2.86-2.19-4.41-1.64
			c-1.04,0.37-1.69,1.38-2.14,2.38c-1.78,3.93-1.48,8.83,1.1,12.29c2.58,3.46,7.46,5.14,11.51,3.65c3.04-1.12,5.26-3.72,7.33-6.21
			c5.8-6.98,11.61-13.95,17.41-20.93c-3.98,10.62-10.1,20.44-17.9,28.69c6.12-4.18,12.24-8.35,18.35-12.53
			c-5.91,5.42-11.83,10.84-17.74,16.26"/>
		<path class="st1" d="M1097.42,29.25c0.96-19.9-3.75-40.04-13.44-57.44c-4.68,11.31-0.27,24.12,4.13,35.54
			c3.33,8.65,6.67,17.29,10,25.94c6.8-10.93,12.38-22.62,16.62-34.78c-4.63,10.28-9.26,20.56-13.89,30.84
			c1.33-11.86,0.94-23.91-1.14-35.66"/>
		<path class="st1" d="M1281.4,69.67c-5.01-3.26-10.03-6.53-15.04-9.79c-2.68-1.74-6.43-3.43-8.77-1.25
			c-1.67,1.56-1.46,4.42-0.11,6.25c1.36,1.84,3.54,2.86,5.68,3.64c6.35,2.34,13.2,3.29,19.94,2.78
			c-7.45,4.34-13.99,10.25-19.06,17.22c8.84-3.78,16.88-9.39,23.48-16.37c-3.41-6.52-5.35-13.8-5.65-21.15
			c1.99,7.78,2.81,15.86,2.4,23.88c4.14-2.83,9.02-4.58,14.01-5.02"/>
		<path class="st1" d="M1328.33,193.48c2.03-14.67,2.05-29.61,0.06-44.28c-1.13-8.3-3.72-17.64-11.26-21.3
			c-3.51,21.39-0.74,43.76,7.86,63.66c-4.42-2.35-9.68-3.05-14.56-1.93c7.46,2.07,15.44,2.21,22.96,0.39"/>
		<path class="st1" d="M1192.9,15.31c-0.92-13.92-4.57-27.66-10.68-40.21c1.17,15.12,4.42,30.07,9.65,44.3
			c-7.28-10.1-14.56-20.2-21.85-30.3c-1.04,11.64,6.53,23.51,17.52,27.49c7.05-9.4,12.81-19.76,17.07-30.71
			c-0.74,9.91-4.29,19.59-10.13,27.62c-0.55,0.76-1.15,1.7-0.8,2.56c0.35,0.87,2.12,0.55,1.75-0.31"/>
		<path class="st1" d="M1290.52-0.63c3.6-16.62,9.43-32.76,17.31-47.83c0.34,16.75-4.23,33.57-13.01,47.84
			c-2.44-11.53-6.07-22.81-10.82-33.6c-1.45,11.08,2.15,22.73,9.61,31.05c-0.92-1.19-1.83-2.38-2.75-3.56"/>
		<path class="st1" d="M1123.81,208.5c-0.59-16.85-4.52-33.58-11.5-48.93c-4.58,15.14,3.07,31.01,10.49,44.98
			c3.63-9.18,8.45-17.9,14.3-25.86c-1.5,10.42-6.39,20.32-13.74,27.86c0.44-1.16,0.88-2.33,1.33-3.49"/>
		<path class="st1" d="M1201.59,137.84c-0.62-16.67-1.24-33.34-1.86-50.01c-0.14-3.87-0.77-8.5-4.29-10.12
			c-1.98,18.95-0.33,38.28,4.84,56.62c-5.77-8.82-11.54-17.65-17.3-26.47c5.85,10,12.42,19.59,19.63,28.65
			c-0.25-1.16-0.49-2.32-0.74-3.49"/>
		<path class="st1" d="M1112.64,107.89c1.75-9.17,2.74-18.49,2.95-27.82c0.11-4.66-1.44-10.89-6.1-10.89
			c-2.69,9.78-0.08,20.84,6.69,28.39c-2.47-1.16-4.94-2.31-7.4-3.47c5.58-4.59,11.5-8.76,17.69-12.46c1.5-0.9,3.44-1.76,4.89-0.78
			c1.08,0.73,1.36,2.21,1.27,3.51c-0.46,6.73-7.61,10.72-13.97,12.95c-0.18-0.92,1.68-0.08,1.11,0.67c-0.57,0.75-1.74,0.45-2.6,0.09
			c-5.88-2.5-11.76-5-17.63-7.51c-0.17,4.99,2.89,9.95,7.43,12.03c4.54,2.08,10.3,1.16,13.96-2.24"/>
		<path class="st1" d="M1250.28,179.74c-1.75-9.17-2.74-18.49-2.95-27.82c-0.1-4.66,1.44-10.89,6.1-10.89
			c2.69,9.78,0.08,20.84-6.69,28.39c2.47-1.16,4.94-2.31,7.4-3.47c-5.58-4.59-11.5-8.76-17.69-12.46c-1.5-0.9-3.44-1.76-4.89-0.78
			c-1.08,0.73-1.36,2.21-1.27,3.51c0.46,6.73,7.61,10.72,13.97,12.95c0.18-0.92-1.68-0.08-1.11,0.67c0.57,0.75,1.74,0.45,2.61,0.09
			c5.88-2.5,11.76-5,17.63-7.51c0.17,4.99-2.89,9.95-7.43,12.03c-4.54,2.08-10.3,1.16-13.96-2.24"/>
		<path class="st1" d="M1053.06,152.61c-4.38-10.74-6.66-22.33-6.66-33.92c0-5.51,0.75-11.56,4.79-15.31
			c5.25,16.38,6.12,34.14,2.49,50.96c2.26-13.17,5.58-26.16,9.91-38.8c0.36-1.05,0.93-2.26,2.03-2.38c1.13-0.12,1.96,1.03,2.36,2.09
			c1.67,4.48,0.11,9.44-1.45,13.96c-3.05,8.83-6.1,17.67-9.15,26.5c3.5-8.34,7.93-16.29,13.19-23.65c2.2-3.08,6.08-6.39,9.28-4.36
			c-1.35,10.47-5.94,20.49-12.98,28.35c-0.82,0.91-1.75,1.84-2.96,2.07c-1.92,0.36-3.63-1.18-4.98-2.59
			c-5.78-6.03-11.57-12.07-17.35-18.1c1.25,5.74,2.63,11.75,6.52,16.14c3.89,4.39,11.17,6.38,15.7,2.66"/>
		<path class="st1" d="M1037.04,59.33c-2.07-10.3-4.13-20.6-6.2-30.91c-0.73-3.64-2.29-8.09-5.98-8.48
			c-5.29,15.87-1.17,34.5,10.32,46.65c-4.16-6.11-9.12-11.67-14.7-16.51c-1.25-1.08-2.86-2.19-4.41-1.64
			c-1.04,0.37-1.69,1.38-2.14,2.38c-1.78,3.93-1.48,8.83,1.1,12.29c2.58,3.46,7.46,5.14,11.51,3.65c3.04-1.12,5.26-3.72,7.33-6.21
			c5.8-6.98,11.61-13.95,17.41-20.93c-3.98,10.62-10.1,20.44-17.9,28.69c6.12-4.18,12.24-8.35,18.35-12.53
			c-5.91,5.42-11.83,10.84-17.74,16.26"/>
		<path class="st1" d="M767.77,29.25c0.96-19.9-3.75-40.04-13.44-57.44c-4.68,11.31-0.27,24.12,4.13,35.54
			c3.33,8.65,6.67,17.29,10,25.94c6.8-10.93,12.38-22.62,16.62-34.78c-4.63,10.28-9.26,20.56-13.89,30.84
			c1.33-11.86,0.94-23.91-1.14-35.66"/>
		<path class="st1" d="M951.75,69.67c-5.01-3.26-10.03-6.53-15.04-9.79c-2.68-1.74-6.43-3.43-8.77-1.25
			c-1.67,1.56-1.46,4.42-0.11,6.25c1.36,1.84,3.54,2.86,5.68,3.64c6.35,2.34,13.2,3.29,19.94,2.78
			c-7.45,4.34-13.99,10.25-19.06,17.22c8.84-3.78,16.88-9.39,23.48-16.37c-3.41-6.52-5.35-13.8-5.65-21.15
			c1.99,7.78,2.81,15.86,2.4,23.88c4.14-2.83,9.02-4.58,14.01-5.02"/>
		<path class="st1" d="M998.68,193.48c2.03-14.67,2.05-29.61,0.06-44.28c-1.13-8.3-3.72-17.64-11.26-21.3
			c-3.5,21.39-0.74,43.76,7.86,63.66c-4.42-2.35-9.68-3.05-14.56-1.93c7.46,2.07,15.44,2.21,22.96,0.39"/>
		<path class="st1" d="M863.25,15.31c-0.92-13.92-4.57-27.66-10.68-40.21c1.17,15.12,4.42,30.07,9.65,44.3
			c-7.28-10.1-14.56-20.2-21.85-30.3c-1.04,11.64,6.53,23.51,17.52,27.49c7.05-9.4,12.81-19.76,17.07-30.71
			c-0.74,9.91-4.29,19.59-10.13,27.62c-0.55,0.76-1.15,1.7-0.8,2.56c0.35,0.87,2.12,0.55,1.75-0.31"/>
		<path class="st1" d="M960.87-0.63c3.6-16.62,9.43-32.76,17.31-47.83c0.34,16.75-4.23,33.57-13.01,47.84
			c-2.44-11.53-6.07-22.81-10.82-33.6c-1.45,11.08,2.15,22.73,9.61,31.05c-0.92-1.19-1.83-2.38-2.75-3.56"/>
		<path class="st1" d="M794.16,208.5c-0.59-16.85-4.52-33.58-11.5-48.93c-4.58,15.14,3.07,31.01,10.49,44.98
			c3.63-9.18,8.45-17.9,14.3-25.86c-1.5,10.42-6.39,20.32-13.74,27.86c0.44-1.16,0.88-2.33,1.33-3.49"/>
		<path class="st1" d="M871.94,137.84c-0.62-16.67-1.24-33.34-1.86-50.01c-0.14-3.87-0.77-8.5-4.29-10.12
			c-1.98,18.95-0.33,38.28,4.84,56.62c-5.77-8.82-11.54-17.65-17.3-26.47c5.85,10,12.42,19.59,19.63,28.65
			c-0.25-1.16-0.49-2.32-0.74-3.49"/>
		<path class="st1" d="M782.99,107.89c1.75-9.17,2.74-18.49,2.95-27.82c0.11-4.66-1.44-10.89-6.1-10.89
			c-2.69,9.78-0.08,20.84,6.69,28.39c-2.47-1.16-4.94-2.31-7.4-3.47c5.58-4.59,11.5-8.76,17.69-12.46c1.5-0.9,3.44-1.76,4.89-0.78
			c1.08,0.73,1.36,2.21,1.27,3.51c-0.46,6.73-7.61,10.72-13.97,12.95c-0.18-0.92,1.68-0.08,1.11,0.67c-0.57,0.75-1.74,0.45-2.6,0.09
			c-5.88-2.5-11.76-5-17.63-7.51c-0.17,4.99,2.89,9.95,7.43,12.03s10.3,1.16,13.96-2.24"/>
		<path class="st1" d="M920.63,179.74c-1.75-9.17-2.74-18.49-2.95-27.82c-0.1-4.66,1.44-10.89,6.1-10.89
			c2.69,9.78,0.08,20.84-6.69,28.39c2.47-1.16,4.94-2.31,7.4-3.47c-5.58-4.59-11.5-8.76-17.69-12.46c-1.5-0.9-3.44-1.76-4.89-0.78
			c-1.08,0.73-1.36,2.21-1.27,3.51c0.46,6.73,7.61,10.72,13.97,12.95c0.18-0.92-1.68-0.08-1.11,0.67c0.57,0.75,1.74,0.45,2.61,0.09
			c5.88-2.5,11.76-5,17.63-7.51c0.17,4.99-2.89,9.95-7.43,12.03s-10.3,1.16-13.96-2.24"/>
		<path class="st1" d="M723.41,152.61c-4.38-10.74-6.66-22.33-6.66-33.92c0-5.51,0.75-11.56,4.79-15.31
			c5.25,16.38,6.12,34.14,2.49,50.96c2.26-13.17,5.58-26.16,9.91-38.8c0.36-1.05,0.93-2.26,2.03-2.38c1.13-0.12,1.96,1.03,2.36,2.09
			c1.67,4.48,0.11,9.44-1.45,13.96c-3.05,8.83-6.1,17.67-9.15,26.5c3.5-8.34,7.93-16.29,13.19-23.65c2.2-3.08,6.08-6.39,9.28-4.36
			c-1.35,10.47-5.94,20.49-12.98,28.35c-0.82,0.91-1.75,1.84-2.96,2.07c-1.92,0.36-3.63-1.18-4.98-2.59
			c-5.78-6.03-11.57-12.07-17.35-18.1c1.25,5.74,2.63,11.75,6.52,16.14s11.17,6.38,15.7,2.66"/>
		<path class="st1" d="M707.39,59.33c-2.07-10.3-4.13-20.6-6.2-30.91c-0.73-3.64-2.29-8.09-5.98-8.48
			c-5.29,15.87-1.17,34.5,10.32,46.65c-4.16-6.11-9.12-11.67-14.7-16.51c-1.25-1.08-2.86-2.19-4.41-1.64
			c-1.04,0.37-1.69,1.38-2.14,2.38c-1.78,3.93-1.48,8.83,1.1,12.29c2.58,3.46,7.46,5.14,11.51,3.65c3.04-1.12,5.26-3.72,7.33-6.21
			c5.8-6.98,11.61-13.95,17.41-20.93c-3.98,10.62-10.1,20.44-17.9,28.69c6.12-4.18,12.24-8.35,18.35-12.53
			c-5.91,5.42-11.83,10.84-17.74,16.26"/>
		<path class="st1" d="M438.12,29.25c0.96-19.9-3.75-40.04-13.44-57.44c-4.68,11.31-0.27,24.12,4.13,35.54
			c3.33,8.65,6.67,17.29,10,25.94c6.8-10.93,12.38-22.62,16.62-34.78c-4.63,10.28-9.26,20.56-13.89,30.84
			c1.33-11.86,0.94-23.91-1.14-35.66"/>
		<path class="st1" d="M622.1,69.67c-5.01-3.26-10.03-6.53-15.04-9.79c-2.68-1.74-6.43-3.43-8.77-1.25
			c-1.67,1.56-1.46,4.42-0.11,6.25c1.36,1.84,3.54,2.86,5.68,3.64c6.35,2.34,13.2,3.29,19.94,2.78
			c-7.45,4.34-13.99,10.25-19.06,17.22c8.84-3.78,16.88-9.39,23.48-16.37c-3.41-6.52-5.35-13.8-5.65-21.15
			c1.99,7.78,2.81,15.86,2.4,23.88c4.14-2.83,9.02-4.58,14.01-5.02"/>
		<path class="st1" d="M669.02,193.48c2.03-14.67,2.05-29.61,0.06-44.28c-1.13-8.3-3.72-17.64-11.26-21.3
			c-3.5,21.39-0.74,43.76,7.86,63.66c-4.42-2.35-9.68-3.05-14.56-1.93c7.46,2.07,15.44,2.21,22.96,0.39"/>
		<path class="st1" d="M533.6,15.31c-0.92-13.92-4.57-27.66-10.68-40.21c1.17,15.12,4.42,30.07,9.65,44.3
			c-7.28-10.1-14.56-20.2-21.85-30.3c-1.04,11.64,6.53,23.51,17.52,27.49c7.05-9.4,12.81-19.76,17.07-30.71
			c-0.74,9.91-4.29,19.59-10.13,27.62c-0.55,0.76-1.15,1.7-0.8,2.56c0.35,0.87,2.12,0.55,1.75-0.31"/>
		<path class="st1" d="M631.22-0.63c3.6-16.62,9.43-32.76,17.31-47.83c0.34,16.75-4.23,33.57-13.01,47.84
			c-2.44-11.53-6.07-22.81-10.82-33.6c-1.45,11.08,2.15,22.73,9.61,31.05c-0.92-1.19-1.83-2.38-2.75-3.56"/>
		<path class="st1" d="M464.5,208.5c-0.59-16.85-4.52-33.58-11.5-48.93c-4.58,15.14,3.07,31.01,10.49,44.98
			c3.63-9.18,8.45-17.9,14.3-25.86c-1.5,10.42-6.39,20.32-13.74,27.86c0.44-1.16,0.88-2.33,1.33-3.49"/>
		<path class="st1" d="M542.29,137.84c-0.62-16.67-1.24-33.34-1.86-50.01c-0.14-3.87-0.77-8.5-4.29-10.12
			c-1.98,18.95-0.33,38.28,4.84,56.62c-5.77-8.82-11.54-17.65-17.3-26.47c5.85,10,12.42,19.59,19.63,28.65
			c-0.25-1.16-0.49-2.32-0.74-3.49"/>
		<path class="st1" d="M453.33,107.89c1.75-9.17,2.74-18.49,2.95-27.82c0.11-4.66-1.44-10.89-6.1-10.89
			c-2.69,9.78-0.08,20.84,6.69,28.39c-2.47-1.16-4.94-2.31-7.4-3.47c5.58-4.59,11.5-8.76,17.69-12.46c1.5-0.9,3.44-1.76,4.89-0.78
			c1.08,0.73,1.36,2.21,1.27,3.51c-0.46,6.73-7.61,10.72-13.97,12.95c-0.18-0.92,1.68-0.08,1.11,0.67
			c-0.57,0.75-1.74,0.45-2.61,0.09c-5.88-2.5-11.76-5-17.63-7.51c-0.17,4.99,2.89,9.95,7.43,12.03c4.54,2.08,10.3,1.16,13.96-2.24"
			/>
		<path class="st1" d="M590.97,179.74c-1.75-9.17-2.74-18.49-2.95-27.82c-0.11-4.66,1.44-10.89,6.1-10.89
			c2.69,9.78,0.08,20.84-6.69,28.39c2.47-1.16,4.94-2.31,7.4-3.47c-5.58-4.59-11.5-8.76-17.69-12.46c-1.5-0.9-3.44-1.76-4.89-0.78
			c-1.08,0.73-1.36,2.21-1.27,3.51c0.46,6.73,7.61,10.72,13.97,12.95c0.18-0.92-1.68-0.08-1.11,0.67c0.57,0.75,1.74,0.45,2.6,0.09
			c5.88-2.5,11.76-5,17.63-7.51c0.17,4.99-2.89,9.95-7.43,12.03s-10.3,1.16-13.96-2.24"/>
		<path class="st1" d="M393.76,152.61c-4.38-10.74-6.66-22.33-6.66-33.92c0-5.51,0.75-11.56,4.79-15.31
			c5.25,16.38,6.12,34.14,2.49,50.96c2.26-13.17,5.58-26.16,9.91-38.8c0.36-1.05,0.93-2.26,2.03-2.38c1.13-0.12,1.96,1.03,2.36,2.09
			c1.67,4.48,0.11,9.44-1.45,13.96c-3.05,8.83-6.1,17.67-9.15,26.5c3.5-8.34,7.93-16.29,13.19-23.65c2.2-3.08,6.08-6.39,9.28-4.36
			c-1.35,10.47-5.94,20.49-12.98,28.35c-0.82,0.91-1.75,1.84-2.96,2.07c-1.92,0.36-3.63-1.18-4.98-2.59
			c-5.78-6.03-11.57-12.07-17.35-18.1c1.25,5.74,2.63,11.75,6.52,16.14c3.89,4.39,11.17,6.38,15.7,2.66"/>
		<path class="st1" d="M377.74,59.33c-2.07-10.3-4.13-20.6-6.2-30.91c-0.73-3.64-2.29-8.09-5.98-8.48
			c-5.29,15.87-1.17,34.5,10.32,46.65c-4.16-6.11-9.12-11.67-14.7-16.51c-1.25-1.08-2.86-2.19-4.41-1.64
			c-1.04,0.37-1.69,1.38-2.14,2.38c-1.78,3.93-1.48,8.83,1.1,12.29c2.58,3.46,7.46,5.14,11.51,3.65c3.04-1.12,5.26-3.72,7.33-6.21
			c5.8-6.98,11.61-13.95,17.41-20.93c-3.98,10.62-10.1,20.44-17.9,28.69c6.12-4.18,12.24-8.35,18.35-12.53
			c-5.91,5.42-11.83,10.84-17.74,16.26"/>
		<path class="st1" d="M108.47,29.25c0.96-19.9-3.75-40.04-13.44-57.44c-4.68,11.31-0.27,24.12,4.13,35.54
			c3.33,8.65,6.67,17.29,10,25.94c6.8-10.93,12.38-22.62,16.62-34.78c-4.63,10.28-9.26,20.56-13.89,30.84
			c1.33-11.86,0.94-23.91-1.14-35.66"/>
		<path class="st1" d="M292.45,69.67c-5.01-3.26-10.03-6.53-15.04-9.79c-2.68-1.74-6.43-3.43-8.77-1.25
			c-1.67,1.56-1.46,4.42-0.11,6.25c1.36,1.84,3.54,2.86,5.68,3.64c6.35,2.34,13.2,3.29,19.94,2.78
			c-7.45,4.34-13.99,10.25-19.06,17.22c8.84-3.78,16.88-9.39,23.48-16.37c-3.41-6.52-5.35-13.8-5.65-21.15
			c1.99,7.78,2.81,15.86,2.4,23.88c4.14-2.83,9.02-4.58,14.01-5.02"/>
		<path class="st1" d="M339.37,193.48c2.03-14.67,2.05-29.61,0.06-44.28c-1.13-8.3-3.72-17.64-11.26-21.3
			c-3.5,21.39-0.74,43.76,7.86,63.66c-4.42-2.35-9.68-3.05-14.56-1.93c7.46,2.07,15.44,2.21,22.96,0.39"/>
		<path class="st1" d="M203.95,15.31c-0.92-13.92-4.57-27.66-10.68-40.21c1.17,15.12,4.42,30.07,9.65,44.3
			c-7.28-10.1-14.56-20.2-21.85-30.3c-1.04,11.64,6.53,23.51,17.52,27.49c7.05-9.4,12.81-19.76,17.07-30.71
			c-0.74,9.91-4.29,19.59-10.13,27.62c-0.55,0.76-1.15,1.7-0.8,2.56c0.35,0.87,2.12,0.55,1.75-0.31"/>
		<path class="st1" d="M301.57-0.63c3.6-16.62,9.43-32.76,17.31-47.83c0.34,16.75-4.23,33.57-13.01,47.84
			c-2.44-11.53-6.07-22.81-10.82-33.6c-1.45,11.08,2.15,22.73,9.61,31.05c-0.92-1.19-1.83-2.38-2.75-3.56"/>
		<path class="st1" d="M134.85,208.5c-0.59-16.85-4.52-33.58-11.5-48.93c-4.58,15.14,3.07,31.01,10.49,44.98
			c3.63-9.18,8.45-17.9,14.3-25.86c-1.5,10.42-6.39,20.32-13.74,27.86c0.44-1.16,0.88-2.33,1.33-3.49"/>
		<path class="st1" d="M212.64,137.84c-0.62-16.67-1.24-33.34-1.86-50.01c-0.14-3.87-0.77-8.5-4.29-10.12
			c-1.98,18.95-0.33,38.28,4.84,56.62c-5.77-8.82-11.54-17.65-17.3-26.47c5.85,10,12.42,19.59,19.63,28.65
			c-0.25-1.16-0.49-2.32-0.74-3.49"/>
		<path class="st1" d="M123.68,107.89c1.75-9.17,2.74-18.49,2.95-27.82c0.11-4.66-1.44-10.89-6.1-10.89
			c-2.69,9.78-0.08,20.84,6.69,28.39c-2.47-1.16-4.94-2.31-7.4-3.47c5.58-4.59,11.5-8.76,17.69-12.46c1.5-0.9,3.44-1.76,4.89-0.78
			c1.08,0.73,1.36,2.21,1.27,3.51c-0.46,6.73-7.61,10.72-13.97,12.95c-0.18-0.92,1.68-0.08,1.11,0.67
			c-0.57,0.75-1.74,0.45-2.61,0.09c-5.88-2.5-11.76-5-17.63-7.51c-0.17,4.99,2.89,9.95,7.43,12.03s10.3,1.16,13.96-2.24"/>
		<path class="st1" d="M261.32,179.74c-1.75-9.17-2.74-18.49-2.95-27.82c-0.11-4.66,1.44-10.89,6.1-10.89
			c2.69,9.78,0.08,20.84-6.69,28.39c2.47-1.16,4.94-2.31,7.4-3.47c-5.58-4.59-11.5-8.76-17.69-12.46c-1.5-0.9-3.44-1.76-4.89-0.78
			c-1.08,0.73-1.36,2.21-1.27,3.51c0.46,6.73,7.61,10.72,13.97,12.95c0.18-0.92-1.68-0.08-1.11,0.67c0.57,0.75,1.74,0.45,2.61,0.09
			c5.88-2.5,11.76-5,17.63-7.51c0.17,4.99-2.89,9.95-7.43,12.03c-4.54,2.08-10.3,1.16-13.96-2.24"/>
		<path class="st1" d="M64.11,152.61c-4.38-10.74-6.66-22.33-6.66-33.92c0-5.51,0.75-11.56,4.79-15.31
			c5.25,16.38,6.12,34.14,2.49,50.96c2.26-13.17,5.58-26.16,9.91-38.8c0.36-1.05,0.93-2.26,2.03-2.38c1.13-0.12,1.96,1.03,2.36,2.09
			c1.67,4.48,0.11,9.44-1.45,13.96c-3.05,8.83-6.1,17.67-9.15,26.5c3.5-8.34,7.93-16.29,13.19-23.65c2.2-3.08,6.08-6.39,9.28-4.36
			c-1.35,10.47-5.94,20.49-12.98,28.35c-0.82,0.91-1.75,1.84-2.96,2.07c-1.92,0.36-3.63-1.18-4.98-2.59
			c-5.78-6.03-11.57-12.07-17.35-18.1c1.25,5.74,2.63,11.75,6.52,16.14s11.17,6.38,15.7,2.66"/>
		<path class="st1" d="M48.08,59.33c-2.07-10.3-4.13-20.6-6.2-30.91c-0.73-3.64-2.29-8.09-5.98-8.48
			c-5.29,15.87-1.17,34.5,10.32,46.65c-4.16-6.11-9.12-11.67-14.7-16.51c-1.25-1.08-2.86-2.19-4.41-1.64
			c-1.04,0.37-1.69,1.38-2.14,2.38c-1.78,3.93-1.48,8.83,1.1,12.29c2.58,3.46,7.46,5.14,11.51,3.65c3.04-1.12,5.26-3.72,7.33-6.21
			c5.8-6.98,11.61-13.95,17.41-20.93c-3.98,10.62-10.1,20.44-17.9,28.69c6.12-4.18,12.24-8.35,18.35-12.53
			c-5.91,5.42-11.83,10.84-17.74,16.26"/>
		<path class="st1" d="M9.72,193.48c2.03-14.67,2.05-29.61,0.06-44.28c-1.13-8.3-3.72-17.64-11.26-21.3
			c-3.5,21.39-0.74,43.76,7.86,63.66c-4.42-2.35-9.68-3.05-14.56-1.93c7.46,2.07,15.44,2.21,22.96,0.39"/>
	</g>
</g>
</svg>
